<?xml version="1.0" encoding="utf-8" standalone="no"?>
<!DOCTYPE svg PUBLIC "-//W3C//DTD SVG 1.1//EN"
  "http://www.w3.org/Graphics/SVG/1.1/DTD/svg11.dtd">
<svg xmlns:xlink="http://www.w3.org/1999/xlink" width="902.738854pt" height="638.805794pt" viewBox="0 0 902.738854 638.805794" xmlns="http://www.w3.org/2000/svg" version="1.1">
 <metadata>
  <rdf:RDF xmlns:dc="http://purl.org/dc/elements/1.1/" xmlns:cc="http://creativecommons.org/ns#" xmlns:rdf="http://www.w3.org/1999/02/22-rdf-syntax-ns#">
   <cc:Work>
    <dc:type rdf:resource="http://purl.org/dc/dcmitype/StillImage"/>
    <dc:date>2024-11-22T16:30:08.621700</dc:date>
    <dc:format>image/svg+xml</dc:format>
    <dc:creator>
     <cc:Agent>
      <dc:title>Matplotlib v3.8.0, https://matplotlib.org/</dc:title>
     </cc:Agent>
    </dc:creator>
   </cc:Work>
  </rdf:RDF>
 </metadata>
 <defs>
  <style type="text/css">*{stroke-linejoin: round; stroke-linecap: butt}</style>
 </defs>
 <g id="figure_1">
  <g id="patch_1">
   <path d="M 0 638.805794 
L 902.738854 638.805794 
L 902.738854 0 
L 0 0 
z
" style="fill: #ffffff"/>
  </g>
  <g id="axes_1">
   <g id="patch_2">
    <path d="M 138.811156 513.51744 
L 741.182773 513.51744 
L 741.182773 52.020937 
L 138.811156 52.020937 
z
" style="fill: #ffffff"/>
   </g>
   <g id="matplotlib.axis_1">
    <g id="xtick_1">
     <g id="line2d_1">
      <path d="M 142.949037 513.51744 
L 142.949037 52.020937 
" clip-path="url(#p5070737033)" style="fill: none; stroke: #cccccc; stroke-opacity: 0.7; stroke-width: 0.8; stroke-linecap: round"/>
     </g>
     <g id="text_1">
      <!-- 2024-11-04 07:00 PM EST -->
      <g style="fill: #262626" transform="translate(39.578906 585.823318) rotate(-30) scale(0.1 -0.1)">
       <defs>
        <path id="ArialMT-32" d="M 3222 541 
L 3222 0 
L 194 0 
Q 188 203 259 391 
Q 375 700 629 1000 
Q 884 1300 1366 1694 
Q 2113 2306 2375 2664 
Q 2638 3022 2638 3341 
Q 2638 3675 2398 3904 
Q 2159 4134 1775 4134 
Q 1369 4134 1125 3890 
Q 881 3647 878 3216 
L 300 3275 
Q 359 3922 746 4261 
Q 1134 4600 1788 4600 
Q 2447 4600 2831 4234 
Q 3216 3869 3216 3328 
Q 3216 3053 3103 2787 
Q 2991 2522 2730 2228 
Q 2469 1934 1863 1422 
Q 1356 997 1212 845 
Q 1069 694 975 541 
L 3222 541 
z
" transform="scale(0.015625)"/>
        <path id="ArialMT-30" d="M 266 2259 
Q 266 3072 433 3567 
Q 600 4063 929 4331 
Q 1259 4600 1759 4600 
Q 2128 4600 2406 4451 
Q 2684 4303 2865 4023 
Q 3047 3744 3150 3342 
Q 3253 2941 3253 2259 
Q 3253 1453 3087 958 
Q 2922 463 2592 192 
Q 2263 -78 1759 -78 
Q 1097 -78 719 397 
Q 266 969 266 2259 
z
M 844 2259 
Q 844 1131 1108 757 
Q 1372 384 1759 384 
Q 2147 384 2411 759 
Q 2675 1134 2675 2259 
Q 2675 3391 2411 3762 
Q 2147 4134 1753 4134 
Q 1366 4134 1134 3806 
Q 844 3388 844 2259 
z
" transform="scale(0.015625)"/>
        <path id="ArialMT-34" d="M 2069 0 
L 2069 1097 
L 81 1097 
L 81 1613 
L 2172 4581 
L 2631 4581 
L 2631 1613 
L 3250 1613 
L 3250 1097 
L 2631 1097 
L 2631 0 
L 2069 0 
z
M 2069 1613 
L 2069 3678 
L 634 1613 
L 2069 1613 
z
" transform="scale(0.015625)"/>
        <path id="ArialMT-2d" d="M 203 1375 
L 203 1941 
L 1931 1941 
L 1931 1375 
L 203 1375 
z
" transform="scale(0.015625)"/>
        <path id="ArialMT-31" d="M 2384 0 
L 1822 0 
L 1822 3584 
Q 1619 3391 1289 3197 
Q 959 3003 697 2906 
L 697 3450 
Q 1169 3672 1522 3987 
Q 1875 4303 2022 4600 
L 2384 4600 
L 2384 0 
z
" transform="scale(0.015625)"/>
        <path id="ArialMT-20" transform="scale(0.015625)"/>
        <path id="ArialMT-37" d="M 303 3981 
L 303 4522 
L 3269 4522 
L 3269 4084 
Q 2831 3619 2401 2847 
Q 1972 2075 1738 1259 
Q 1569 684 1522 0 
L 944 0 
Q 953 541 1156 1306 
Q 1359 2072 1739 2783 
Q 2119 3494 2547 3981 
L 303 3981 
z
" transform="scale(0.015625)"/>
        <path id="ArialMT-3a" d="M 578 2678 
L 578 3319 
L 1219 3319 
L 1219 2678 
L 578 2678 
z
M 578 0 
L 578 641 
L 1219 641 
L 1219 0 
L 578 0 
z
" transform="scale(0.015625)"/>
        <path id="ArialMT-50" d="M 494 0 
L 494 4581 
L 2222 4581 
Q 2678 4581 2919 4538 
Q 3256 4481 3484 4323 
Q 3713 4166 3852 3881 
Q 3991 3597 3991 3256 
Q 3991 2672 3619 2267 
Q 3247 1863 2275 1863 
L 1100 1863 
L 1100 0 
L 494 0 
z
M 1100 2403 
L 2284 2403 
Q 2872 2403 3119 2622 
Q 3366 2841 3366 3238 
Q 3366 3525 3220 3729 
Q 3075 3934 2838 4000 
Q 2684 4041 2272 4041 
L 1100 4041 
L 1100 2403 
z
" transform="scale(0.015625)"/>
        <path id="ArialMT-4d" d="M 475 0 
L 475 4581 
L 1388 4581 
L 2472 1338 
Q 2622 884 2691 659 
Q 2769 909 2934 1394 
L 4031 4581 
L 4847 4581 
L 4847 0 
L 4263 0 
L 4263 3834 
L 2931 0 
L 2384 0 
L 1059 3900 
L 1059 0 
L 475 0 
z
" transform="scale(0.015625)"/>
        <path id="ArialMT-45" d="M 506 0 
L 506 4581 
L 3819 4581 
L 3819 4041 
L 1113 4041 
L 1113 2638 
L 3647 2638 
L 3647 2100 
L 1113 2100 
L 1113 541 
L 3925 541 
L 3925 0 
L 506 0 
z
" transform="scale(0.015625)"/>
        <path id="ArialMT-53" d="M 288 1472 
L 859 1522 
Q 900 1178 1048 958 
Q 1197 738 1509 602 
Q 1822 466 2213 466 
Q 2559 466 2825 569 
Q 3091 672 3220 851 
Q 3350 1031 3350 1244 
Q 3350 1459 3225 1620 
Q 3100 1781 2813 1891 
Q 2628 1963 1997 2114 
Q 1366 2266 1113 2400 
Q 784 2572 623 2826 
Q 463 3081 463 3397 
Q 463 3744 659 4045 
Q 856 4347 1234 4503 
Q 1613 4659 2075 4659 
Q 2584 4659 2973 4495 
Q 3363 4331 3572 4012 
Q 3781 3694 3797 3291 
L 3216 3247 
Q 3169 3681 2898 3903 
Q 2628 4125 2100 4125 
Q 1550 4125 1298 3923 
Q 1047 3722 1047 3438 
Q 1047 3191 1225 3031 
Q 1400 2872 2139 2705 
Q 2878 2538 3153 2413 
Q 3553 2228 3743 1945 
Q 3934 1663 3934 1294 
Q 3934 928 3725 604 
Q 3516 281 3123 101 
Q 2731 -78 2241 -78 
Q 1619 -78 1198 103 
Q 778 284 539 648 
Q 300 1013 288 1472 
z
" transform="scale(0.015625)"/>
        <path id="ArialMT-54" d="M 1659 0 
L 1659 4041 
L 150 4041 
L 150 4581 
L 3781 4581 
L 3781 4041 
L 2266 4041 
L 2266 0 
L 1659 0 
z
" transform="scale(0.015625)"/>
       </defs>
       <use xlink:href="#ArialMT-32"/>
       <use xlink:href="#ArialMT-30" x="55.615234"/>
       <use xlink:href="#ArialMT-32" x="111.230469"/>
       <use xlink:href="#ArialMT-34" x="166.845703"/>
       <use xlink:href="#ArialMT-2d" x="222.460938"/>
       <use xlink:href="#ArialMT-31" x="255.761719"/>
       <use xlink:href="#ArialMT-31" x="304.001953"/>
       <use xlink:href="#ArialMT-2d" x="359.617188"/>
       <use xlink:href="#ArialMT-30" x="392.917969"/>
       <use xlink:href="#ArialMT-34" x="448.533203"/>
       <use xlink:href="#ArialMT-20" x="504.148438"/>
       <use xlink:href="#ArialMT-30" x="531.931641"/>
       <use xlink:href="#ArialMT-37" x="587.546875"/>
       <use xlink:href="#ArialMT-3a" x="643.162109"/>
       <use xlink:href="#ArialMT-30" x="670.945312"/>
       <use xlink:href="#ArialMT-30" x="726.560547"/>
       <use xlink:href="#ArialMT-20" x="782.175781"/>
       <use xlink:href="#ArialMT-50" x="809.958984"/>
       <use xlink:href="#ArialMT-4d" x="876.658203"/>
       <use xlink:href="#ArialMT-20" x="959.958984"/>
       <use xlink:href="#ArialMT-45" x="987.742188"/>
       <use xlink:href="#ArialMT-53" x="1054.441406"/>
       <use xlink:href="#ArialMT-54" x="1121.140625"/>
      </g>
     </g>
    </g>
    <g id="xtick_2">
     <g id="line2d_2">
      <path d="M 206.611314 513.51744 
L 206.611314 52.020937 
" clip-path="url(#p5070737033)" style="fill: none; stroke: #cccccc; stroke-opacity: 0.7; stroke-width: 0.8; stroke-linecap: round"/>
     </g>
     <g id="text_2">
      <!-- 2024-11-06 07:00 PM EST -->
      <g style="fill: #262626" transform="translate(103.241183 585.823318) rotate(-30) scale(0.1 -0.1)">
       <defs>
        <path id="ArialMT-36" d="M 3184 3459 
L 2625 3416 
Q 2550 3747 2413 3897 
Q 2184 4138 1850 4138 
Q 1581 4138 1378 3988 
Q 1113 3794 959 3422 
Q 806 3050 800 2363 
Q 1003 2672 1297 2822 
Q 1591 2972 1913 2972 
Q 2475 2972 2870 2558 
Q 3266 2144 3266 1488 
Q 3266 1056 3080 686 
Q 2894 316 2569 119 
Q 2244 -78 1831 -78 
Q 1128 -78 684 439 
Q 241 956 241 2144 
Q 241 3472 731 4075 
Q 1159 4600 1884 4600 
Q 2425 4600 2770 4297 
Q 3116 3994 3184 3459 
z
M 888 1484 
Q 888 1194 1011 928 
Q 1134 663 1356 523 
Q 1578 384 1822 384 
Q 2178 384 2434 671 
Q 2691 959 2691 1453 
Q 2691 1928 2437 2201 
Q 2184 2475 1800 2475 
Q 1419 2475 1153 2201 
Q 888 1928 888 1484 
z
" transform="scale(0.015625)"/>
       </defs>
       <use xlink:href="#ArialMT-32"/>
       <use xlink:href="#ArialMT-30" x="55.615234"/>
       <use xlink:href="#ArialMT-32" x="111.230469"/>
       <use xlink:href="#ArialMT-34" x="166.845703"/>
       <use xlink:href="#ArialMT-2d" x="222.460938"/>
       <use xlink:href="#ArialMT-31" x="255.761719"/>
       <use xlink:href="#ArialMT-31" x="304.001953"/>
       <use xlink:href="#ArialMT-2d" x="359.617188"/>
       <use xlink:href="#ArialMT-30" x="392.917969"/>
       <use xlink:href="#ArialMT-36" x="448.533203"/>
       <use xlink:href="#ArialMT-20" x="504.148438"/>
       <use xlink:href="#ArialMT-30" x="531.931641"/>
       <use xlink:href="#ArialMT-37" x="587.546875"/>
       <use xlink:href="#ArialMT-3a" x="643.162109"/>
       <use xlink:href="#ArialMT-30" x="670.945312"/>
       <use xlink:href="#ArialMT-30" x="726.560547"/>
       <use xlink:href="#ArialMT-20" x="782.175781"/>
       <use xlink:href="#ArialMT-50" x="809.958984"/>
       <use xlink:href="#ArialMT-4d" x="876.658203"/>
       <use xlink:href="#ArialMT-20" x="959.958984"/>
       <use xlink:href="#ArialMT-45" x="987.742188"/>
       <use xlink:href="#ArialMT-53" x="1054.441406"/>
       <use xlink:href="#ArialMT-54" x="1121.140625"/>
      </g>
     </g>
    </g>
    <g id="xtick_3">
     <g id="line2d_3">
      <path d="M 270.27359 513.51744 
L 270.27359 52.020937 
" clip-path="url(#p5070737033)" style="fill: none; stroke: #cccccc; stroke-opacity: 0.7; stroke-width: 0.8; stroke-linecap: round"/>
     </g>
     <g id="text_3">
      <!-- 2024-11-08 07:00 PM EST -->
      <g style="fill: #262626" transform="translate(166.903459 585.823318) rotate(-30) scale(0.1 -0.1)">
       <defs>
        <path id="ArialMT-38" d="M 1131 2484 
Q 781 2613 612 2850 
Q 444 3088 444 3419 
Q 444 3919 803 4259 
Q 1163 4600 1759 4600 
Q 2359 4600 2725 4251 
Q 3091 3903 3091 3403 
Q 3091 3084 2923 2848 
Q 2756 2613 2416 2484 
Q 2838 2347 3058 2040 
Q 3278 1734 3278 1309 
Q 3278 722 2862 322 
Q 2447 -78 1769 -78 
Q 1091 -78 675 323 
Q 259 725 259 1325 
Q 259 1772 486 2073 
Q 713 2375 1131 2484 
z
M 1019 3438 
Q 1019 3113 1228 2906 
Q 1438 2700 1772 2700 
Q 2097 2700 2305 2904 
Q 2513 3109 2513 3406 
Q 2513 3716 2298 3927 
Q 2084 4138 1766 4138 
Q 1444 4138 1231 3931 
Q 1019 3725 1019 3438 
z
M 838 1322 
Q 838 1081 952 856 
Q 1066 631 1291 507 
Q 1516 384 1775 384 
Q 2178 384 2440 643 
Q 2703 903 2703 1303 
Q 2703 1709 2433 1975 
Q 2163 2241 1756 2241 
Q 1359 2241 1098 1978 
Q 838 1716 838 1322 
z
" transform="scale(0.015625)"/>
       </defs>
       <use xlink:href="#ArialMT-32"/>
       <use xlink:href="#ArialMT-30" x="55.615234"/>
       <use xlink:href="#ArialMT-32" x="111.230469"/>
       <use xlink:href="#ArialMT-34" x="166.845703"/>
       <use xlink:href="#ArialMT-2d" x="222.460938"/>
       <use xlink:href="#ArialMT-31" x="255.761719"/>
       <use xlink:href="#ArialMT-31" x="304.001953"/>
       <use xlink:href="#ArialMT-2d" x="359.617188"/>
       <use xlink:href="#ArialMT-30" x="392.917969"/>
       <use xlink:href="#ArialMT-38" x="448.533203"/>
       <use xlink:href="#ArialMT-20" x="504.148438"/>
       <use xlink:href="#ArialMT-30" x="531.931641"/>
       <use xlink:href="#ArialMT-37" x="587.546875"/>
       <use xlink:href="#ArialMT-3a" x="643.162109"/>
       <use xlink:href="#ArialMT-30" x="670.945312"/>
       <use xlink:href="#ArialMT-30" x="726.560547"/>
       <use xlink:href="#ArialMT-20" x="782.175781"/>
       <use xlink:href="#ArialMT-50" x="809.958984"/>
       <use xlink:href="#ArialMT-4d" x="876.658203"/>
       <use xlink:href="#ArialMT-20" x="959.958984"/>
       <use xlink:href="#ArialMT-45" x="987.742188"/>
       <use xlink:href="#ArialMT-53" x="1054.441406"/>
       <use xlink:href="#ArialMT-54" x="1121.140625"/>
      </g>
     </g>
    </g>
    <g id="xtick_4">
     <g id="line2d_4">
      <path d="M 333.935866 513.51744 
L 333.935866 52.020937 
" clip-path="url(#p5070737033)" style="fill: none; stroke: #cccccc; stroke-opacity: 0.7; stroke-width: 0.8; stroke-linecap: round"/>
     </g>
     <g id="text_4">
      <!-- 2024-11-10 07:00 PM EST -->
      <g style="fill: #262626" transform="translate(230.565735 585.823318) rotate(-30) scale(0.1 -0.1)">
       <use xlink:href="#ArialMT-32"/>
       <use xlink:href="#ArialMT-30" x="55.615234"/>
       <use xlink:href="#ArialMT-32" x="111.230469"/>
       <use xlink:href="#ArialMT-34" x="166.845703"/>
       <use xlink:href="#ArialMT-2d" x="222.460938"/>
       <use xlink:href="#ArialMT-31" x="255.761719"/>
       <use xlink:href="#ArialMT-31" x="304.001953"/>
       <use xlink:href="#ArialMT-2d" x="359.617188"/>
       <use xlink:href="#ArialMT-31" x="392.917969"/>
       <use xlink:href="#ArialMT-30" x="448.533203"/>
       <use xlink:href="#ArialMT-20" x="504.148438"/>
       <use xlink:href="#ArialMT-30" x="531.931641"/>
       <use xlink:href="#ArialMT-37" x="587.546875"/>
       <use xlink:href="#ArialMT-3a" x="643.162109"/>
       <use xlink:href="#ArialMT-30" x="670.945312"/>
       <use xlink:href="#ArialMT-30" x="726.560547"/>
       <use xlink:href="#ArialMT-20" x="782.175781"/>
       <use xlink:href="#ArialMT-50" x="809.958984"/>
       <use xlink:href="#ArialMT-4d" x="876.658203"/>
       <use xlink:href="#ArialMT-20" x="959.958984"/>
       <use xlink:href="#ArialMT-45" x="987.742188"/>
       <use xlink:href="#ArialMT-53" x="1054.441406"/>
       <use xlink:href="#ArialMT-54" x="1121.140625"/>
      </g>
     </g>
    </g>
    <g id="xtick_5">
     <g id="line2d_5">
      <path d="M 397.598143 513.51744 
L 397.598143 52.020937 
" clip-path="url(#p5070737033)" style="fill: none; stroke: #cccccc; stroke-opacity: 0.7; stroke-width: 0.8; stroke-linecap: round"/>
     </g>
     <g id="text_5">
      <!-- 2024-11-12 07:00 PM EST -->
      <g style="fill: #262626" transform="translate(294.228012 585.823318) rotate(-30) scale(0.1 -0.1)">
       <use xlink:href="#ArialMT-32"/>
       <use xlink:href="#ArialMT-30" x="55.615234"/>
       <use xlink:href="#ArialMT-32" x="111.230469"/>
       <use xlink:href="#ArialMT-34" x="166.845703"/>
       <use xlink:href="#ArialMT-2d" x="222.460938"/>
       <use xlink:href="#ArialMT-31" x="255.761719"/>
       <use xlink:href="#ArialMT-31" x="304.001953"/>
       <use xlink:href="#ArialMT-2d" x="359.617188"/>
       <use xlink:href="#ArialMT-31" x="392.917969"/>
       <use xlink:href="#ArialMT-32" x="448.533203"/>
       <use xlink:href="#ArialMT-20" x="504.148438"/>
       <use xlink:href="#ArialMT-30" x="531.931641"/>
       <use xlink:href="#ArialMT-37" x="587.546875"/>
       <use xlink:href="#ArialMT-3a" x="643.162109"/>
       <use xlink:href="#ArialMT-30" x="670.945312"/>
       <use xlink:href="#ArialMT-30" x="726.560547"/>
       <use xlink:href="#ArialMT-20" x="782.175781"/>
       <use xlink:href="#ArialMT-50" x="809.958984"/>
       <use xlink:href="#ArialMT-4d" x="876.658203"/>
       <use xlink:href="#ArialMT-20" x="959.958984"/>
       <use xlink:href="#ArialMT-45" x="987.742188"/>
       <use xlink:href="#ArialMT-53" x="1054.441406"/>
       <use xlink:href="#ArialMT-54" x="1121.140625"/>
      </g>
     </g>
    </g>
    <g id="xtick_6">
     <g id="line2d_6">
      <path d="M 461.260419 513.51744 
L 461.260419 52.020937 
" clip-path="url(#p5070737033)" style="fill: none; stroke: #cccccc; stroke-opacity: 0.7; stroke-width: 0.8; stroke-linecap: round"/>
     </g>
     <g id="text_6">
      <!-- 2024-11-14 07:00 PM EST -->
      <g style="fill: #262626" transform="translate(357.890288 585.823318) rotate(-30) scale(0.1 -0.1)">
       <use xlink:href="#ArialMT-32"/>
       <use xlink:href="#ArialMT-30" x="55.615234"/>
       <use xlink:href="#ArialMT-32" x="111.230469"/>
       <use xlink:href="#ArialMT-34" x="166.845703"/>
       <use xlink:href="#ArialMT-2d" x="222.460938"/>
       <use xlink:href="#ArialMT-31" x="255.761719"/>
       <use xlink:href="#ArialMT-31" x="304.001953"/>
       <use xlink:href="#ArialMT-2d" x="359.617188"/>
       <use xlink:href="#ArialMT-31" x="392.917969"/>
       <use xlink:href="#ArialMT-34" x="448.533203"/>
       <use xlink:href="#ArialMT-20" x="504.148438"/>
       <use xlink:href="#ArialMT-30" x="531.931641"/>
       <use xlink:href="#ArialMT-37" x="587.546875"/>
       <use xlink:href="#ArialMT-3a" x="643.162109"/>
       <use xlink:href="#ArialMT-30" x="670.945312"/>
       <use xlink:href="#ArialMT-30" x="726.560547"/>
       <use xlink:href="#ArialMT-20" x="782.175781"/>
       <use xlink:href="#ArialMT-50" x="809.958984"/>
       <use xlink:href="#ArialMT-4d" x="876.658203"/>
       <use xlink:href="#ArialMT-20" x="959.958984"/>
       <use xlink:href="#ArialMT-45" x="987.742188"/>
       <use xlink:href="#ArialMT-53" x="1054.441406"/>
       <use xlink:href="#ArialMT-54" x="1121.140625"/>
      </g>
     </g>
    </g>
    <g id="xtick_7">
     <g id="line2d_7">
      <path d="M 524.922695 513.51744 
L 524.922695 52.020937 
" clip-path="url(#p5070737033)" style="fill: none; stroke: #cccccc; stroke-opacity: 0.7; stroke-width: 0.8; stroke-linecap: round"/>
     </g>
     <g id="text_7">
      <!-- 2024-11-16 07:00 PM EST -->
      <g style="fill: #262626" transform="translate(421.552564 585.823318) rotate(-30) scale(0.1 -0.1)">
       <use xlink:href="#ArialMT-32"/>
       <use xlink:href="#ArialMT-30" x="55.615234"/>
       <use xlink:href="#ArialMT-32" x="111.230469"/>
       <use xlink:href="#ArialMT-34" x="166.845703"/>
       <use xlink:href="#ArialMT-2d" x="222.460938"/>
       <use xlink:href="#ArialMT-31" x="255.761719"/>
       <use xlink:href="#ArialMT-31" x="304.001953"/>
       <use xlink:href="#ArialMT-2d" x="359.617188"/>
       <use xlink:href="#ArialMT-31" x="392.917969"/>
       <use xlink:href="#ArialMT-36" x="448.533203"/>
       <use xlink:href="#ArialMT-20" x="504.148438"/>
       <use xlink:href="#ArialMT-30" x="531.931641"/>
       <use xlink:href="#ArialMT-37" x="587.546875"/>
       <use xlink:href="#ArialMT-3a" x="643.162109"/>
       <use xlink:href="#ArialMT-30" x="670.945312"/>
       <use xlink:href="#ArialMT-30" x="726.560547"/>
       <use xlink:href="#ArialMT-20" x="782.175781"/>
       <use xlink:href="#ArialMT-50" x="809.958984"/>
       <use xlink:href="#ArialMT-4d" x="876.658203"/>
       <use xlink:href="#ArialMT-20" x="959.958984"/>
       <use xlink:href="#ArialMT-45" x="987.742188"/>
       <use xlink:href="#ArialMT-53" x="1054.441406"/>
       <use xlink:href="#ArialMT-54" x="1121.140625"/>
      </g>
     </g>
    </g>
    <g id="xtick_8">
     <g id="line2d_8">
      <path d="M 588.584972 513.51744 
L 588.584972 52.020937 
" clip-path="url(#p5070737033)" style="fill: none; stroke: #cccccc; stroke-opacity: 0.7; stroke-width: 0.8; stroke-linecap: round"/>
     </g>
     <g id="text_8">
      <!-- 2024-11-18 07:00 PM EST -->
      <g style="fill: #262626" transform="translate(485.214841 585.823318) rotate(-30) scale(0.1 -0.1)">
       <use xlink:href="#ArialMT-32"/>
       <use xlink:href="#ArialMT-30" x="55.615234"/>
       <use xlink:href="#ArialMT-32" x="111.230469"/>
       <use xlink:href="#ArialMT-34" x="166.845703"/>
       <use xlink:href="#ArialMT-2d" x="222.460938"/>
       <use xlink:href="#ArialMT-31" x="255.761719"/>
       <use xlink:href="#ArialMT-31" x="304.001953"/>
       <use xlink:href="#ArialMT-2d" x="359.617188"/>
       <use xlink:href="#ArialMT-31" x="392.917969"/>
       <use xlink:href="#ArialMT-38" x="448.533203"/>
       <use xlink:href="#ArialMT-20" x="504.148438"/>
       <use xlink:href="#ArialMT-30" x="531.931641"/>
       <use xlink:href="#ArialMT-37" x="587.546875"/>
       <use xlink:href="#ArialMT-3a" x="643.162109"/>
       <use xlink:href="#ArialMT-30" x="670.945312"/>
       <use xlink:href="#ArialMT-30" x="726.560547"/>
       <use xlink:href="#ArialMT-20" x="782.175781"/>
       <use xlink:href="#ArialMT-50" x="809.958984"/>
       <use xlink:href="#ArialMT-4d" x="876.658203"/>
       <use xlink:href="#ArialMT-20" x="959.958984"/>
       <use xlink:href="#ArialMT-45" x="987.742188"/>
       <use xlink:href="#ArialMT-53" x="1054.441406"/>
       <use xlink:href="#ArialMT-54" x="1121.140625"/>
      </g>
     </g>
    </g>
    <g id="xtick_9">
     <g id="line2d_9">
      <path d="M 652.247248 513.51744 
L 652.247248 52.020937 
" clip-path="url(#p5070737033)" style="fill: none; stroke: #cccccc; stroke-opacity: 0.7; stroke-width: 0.8; stroke-linecap: round"/>
     </g>
     <g id="text_9">
      <!-- 2024-11-20 07:00 PM EST -->
      <g style="fill: #262626" transform="translate(548.877117 585.823318) rotate(-30) scale(0.1 -0.1)">
       <use xlink:href="#ArialMT-32"/>
       <use xlink:href="#ArialMT-30" x="55.615234"/>
       <use xlink:href="#ArialMT-32" x="111.230469"/>
       <use xlink:href="#ArialMT-34" x="166.845703"/>
       <use xlink:href="#ArialMT-2d" x="222.460938"/>
       <use xlink:href="#ArialMT-31" x="255.761719"/>
       <use xlink:href="#ArialMT-31" x="304.001953"/>
       <use xlink:href="#ArialMT-2d" x="359.617188"/>
       <use xlink:href="#ArialMT-32" x="392.917969"/>
       <use xlink:href="#ArialMT-30" x="448.533203"/>
       <use xlink:href="#ArialMT-20" x="504.148438"/>
       <use xlink:href="#ArialMT-30" x="531.931641"/>
       <use xlink:href="#ArialMT-37" x="587.546875"/>
       <use xlink:href="#ArialMT-3a" x="643.162109"/>
       <use xlink:href="#ArialMT-30" x="670.945312"/>
       <use xlink:href="#ArialMT-30" x="726.560547"/>
       <use xlink:href="#ArialMT-20" x="782.175781"/>
       <use xlink:href="#ArialMT-50" x="809.958984"/>
       <use xlink:href="#ArialMT-4d" x="876.658203"/>
       <use xlink:href="#ArialMT-20" x="959.958984"/>
       <use xlink:href="#ArialMT-45" x="987.742188"/>
       <use xlink:href="#ArialMT-53" x="1054.441406"/>
       <use xlink:href="#ArialMT-54" x="1121.140625"/>
      </g>
     </g>
    </g>
    <g id="xtick_10">
     <g id="line2d_10">
      <path d="M 715.909524 513.51744 
L 715.909524 52.020937 
" clip-path="url(#p5070737033)" style="fill: none; stroke: #cccccc; stroke-opacity: 0.7; stroke-width: 0.8; stroke-linecap: round"/>
     </g>
     <g id="text_10">
      <!-- 2024-11-22 07:00 PM EST -->
      <g style="fill: #262626" transform="translate(612.539393 585.823318) rotate(-30) scale(0.1 -0.1)">
       <use xlink:href="#ArialMT-32"/>
       <use xlink:href="#ArialMT-30" x="55.615234"/>
       <use xlink:href="#ArialMT-32" x="111.230469"/>
       <use xlink:href="#ArialMT-34" x="166.845703"/>
       <use xlink:href="#ArialMT-2d" x="222.460938"/>
       <use xlink:href="#ArialMT-31" x="255.761719"/>
       <use xlink:href="#ArialMT-31" x="304.001953"/>
       <use xlink:href="#ArialMT-2d" x="359.617188"/>
       <use xlink:href="#ArialMT-32" x="392.917969"/>
       <use xlink:href="#ArialMT-32" x="448.533203"/>
       <use xlink:href="#ArialMT-20" x="504.148438"/>
       <use xlink:href="#ArialMT-30" x="531.931641"/>
       <use xlink:href="#ArialMT-37" x="587.546875"/>
       <use xlink:href="#ArialMT-3a" x="643.162109"/>
       <use xlink:href="#ArialMT-30" x="670.945312"/>
       <use xlink:href="#ArialMT-30" x="726.560547"/>
       <use xlink:href="#ArialMT-20" x="782.175781"/>
       <use xlink:href="#ArialMT-50" x="809.958984"/>
       <use xlink:href="#ArialMT-4d" x="876.658203"/>
       <use xlink:href="#ArialMT-20" x="959.958984"/>
       <use xlink:href="#ArialMT-45" x="987.742188"/>
       <use xlink:href="#ArialMT-53" x="1054.441406"/>
       <use xlink:href="#ArialMT-54" x="1121.140625"/>
      </g>
     </g>
    </g>
    <g id="text_11">
     <!-- Timestamp (EST) -->
     <g style="fill: #262626" transform="translate(393.220402 600.280169) scale(0.12 -0.12)">
      <defs>
       <path id="ArialMT-69" d="M 425 3934 
L 425 4581 
L 988 4581 
L 988 3934 
L 425 3934 
z
M 425 0 
L 425 3319 
L 988 3319 
L 988 0 
L 425 0 
z
" transform="scale(0.015625)"/>
       <path id="ArialMT-6d" d="M 422 0 
L 422 3319 
L 925 3319 
L 925 2853 
Q 1081 3097 1340 3245 
Q 1600 3394 1931 3394 
Q 2300 3394 2536 3241 
Q 2772 3088 2869 2813 
Q 3263 3394 3894 3394 
Q 4388 3394 4653 3120 
Q 4919 2847 4919 2278 
L 4919 0 
L 4359 0 
L 4359 2091 
Q 4359 2428 4304 2576 
Q 4250 2725 4106 2815 
Q 3963 2906 3769 2906 
Q 3419 2906 3187 2673 
Q 2956 2441 2956 1928 
L 2956 0 
L 2394 0 
L 2394 2156 
Q 2394 2531 2256 2718 
Q 2119 2906 1806 2906 
Q 1569 2906 1367 2781 
Q 1166 2656 1075 2415 
Q 984 2175 984 1722 
L 984 0 
L 422 0 
z
" transform="scale(0.015625)"/>
       <path id="ArialMT-65" d="M 2694 1069 
L 3275 997 
Q 3138 488 2766 206 
Q 2394 -75 1816 -75 
Q 1088 -75 661 373 
Q 234 822 234 1631 
Q 234 2469 665 2931 
Q 1097 3394 1784 3394 
Q 2450 3394 2872 2941 
Q 3294 2488 3294 1666 
Q 3294 1616 3291 1516 
L 816 1516 
Q 847 969 1125 678 
Q 1403 388 1819 388 
Q 2128 388 2347 550 
Q 2566 713 2694 1069 
z
M 847 1978 
L 2700 1978 
Q 2663 2397 2488 2606 
Q 2219 2931 1791 2931 
Q 1403 2931 1139 2672 
Q 875 2413 847 1978 
z
" transform="scale(0.015625)"/>
       <path id="ArialMT-73" d="M 197 991 
L 753 1078 
Q 800 744 1014 566 
Q 1228 388 1613 388 
Q 2000 388 2187 545 
Q 2375 703 2375 916 
Q 2375 1106 2209 1216 
Q 2094 1291 1634 1406 
Q 1016 1563 777 1677 
Q 538 1791 414 1992 
Q 291 2194 291 2438 
Q 291 2659 392 2848 
Q 494 3038 669 3163 
Q 800 3259 1026 3326 
Q 1253 3394 1513 3394 
Q 1903 3394 2198 3281 
Q 2494 3169 2634 2976 
Q 2775 2784 2828 2463 
L 2278 2388 
Q 2241 2644 2061 2787 
Q 1881 2931 1553 2931 
Q 1166 2931 1000 2803 
Q 834 2675 834 2503 
Q 834 2394 903 2306 
Q 972 2216 1119 2156 
Q 1203 2125 1616 2013 
Q 2213 1853 2448 1751 
Q 2684 1650 2818 1456 
Q 2953 1263 2953 975 
Q 2953 694 2789 445 
Q 2625 197 2315 61 
Q 2006 -75 1616 -75 
Q 969 -75 630 194 
Q 291 463 197 991 
z
" transform="scale(0.015625)"/>
       <path id="ArialMT-74" d="M 1650 503 
L 1731 6 
Q 1494 -44 1306 -44 
Q 1000 -44 831 53 
Q 663 150 594 308 
Q 525 466 525 972 
L 525 2881 
L 113 2881 
L 113 3319 
L 525 3319 
L 525 4141 
L 1084 4478 
L 1084 3319 
L 1650 3319 
L 1650 2881 
L 1084 2881 
L 1084 941 
Q 1084 700 1114 631 
Q 1144 563 1211 522 
Q 1278 481 1403 481 
Q 1497 481 1650 503 
z
" transform="scale(0.015625)"/>
       <path id="ArialMT-61" d="M 2588 409 
Q 2275 144 1986 34 
Q 1697 -75 1366 -75 
Q 819 -75 525 192 
Q 231 459 231 875 
Q 231 1119 342 1320 
Q 453 1522 633 1644 
Q 813 1766 1038 1828 
Q 1203 1872 1538 1913 
Q 2219 1994 2541 2106 
Q 2544 2222 2544 2253 
Q 2544 2597 2384 2738 
Q 2169 2928 1744 2928 
Q 1347 2928 1158 2789 
Q 969 2650 878 2297 
L 328 2372 
Q 403 2725 575 2942 
Q 747 3159 1072 3276 
Q 1397 3394 1825 3394 
Q 2250 3394 2515 3294 
Q 2781 3194 2906 3042 
Q 3031 2891 3081 2659 
Q 3109 2516 3109 2141 
L 3109 1391 
Q 3109 606 3145 398 
Q 3181 191 3288 0 
L 2700 0 
Q 2613 175 2588 409 
z
M 2541 1666 
Q 2234 1541 1622 1453 
Q 1275 1403 1131 1340 
Q 988 1278 909 1158 
Q 831 1038 831 891 
Q 831 666 1001 516 
Q 1172 366 1500 366 
Q 1825 366 2078 508 
Q 2331 650 2450 897 
Q 2541 1088 2541 1459 
L 2541 1666 
z
" transform="scale(0.015625)"/>
       <path id="ArialMT-70" d="M 422 -1272 
L 422 3319 
L 934 3319 
L 934 2888 
Q 1116 3141 1344 3267 
Q 1572 3394 1897 3394 
Q 2322 3394 2647 3175 
Q 2972 2956 3137 2557 
Q 3303 2159 3303 1684 
Q 3303 1175 3120 767 
Q 2938 359 2589 142 
Q 2241 -75 1856 -75 
Q 1575 -75 1351 44 
Q 1128 163 984 344 
L 984 -1272 
L 422 -1272 
z
M 931 1641 
Q 931 1000 1190 694 
Q 1450 388 1819 388 
Q 2194 388 2461 705 
Q 2728 1022 2728 1688 
Q 2728 2322 2467 2637 
Q 2206 2953 1844 2953 
Q 1484 2953 1207 2617 
Q 931 2281 931 1641 
z
" transform="scale(0.015625)"/>
       <path id="ArialMT-28" d="M 1497 -1347 
Q 1031 -759 709 28 
Q 388 816 388 1659 
Q 388 2403 628 3084 
Q 909 3875 1497 4659 
L 1900 4659 
Q 1522 4009 1400 3731 
Q 1209 3300 1100 2831 
Q 966 2247 966 1656 
Q 966 153 1900 -1347 
L 1497 -1347 
z
" transform="scale(0.015625)"/>
       <path id="ArialMT-29" d="M 791 -1347 
L 388 -1347 
Q 1322 153 1322 1656 
Q 1322 2244 1188 2822 
Q 1081 3291 891 3722 
Q 769 4003 388 4659 
L 791 4659 
Q 1378 3875 1659 3084 
Q 1900 2403 1900 1659 
Q 1900 816 1576 28 
Q 1253 -759 791 -1347 
z
" transform="scale(0.015625)"/>
      </defs>
      <use xlink:href="#ArialMT-54"/>
      <use xlink:href="#ArialMT-69" x="57.333984"/>
      <use xlink:href="#ArialMT-6d" x="79.550781"/>
      <use xlink:href="#ArialMT-65" x="162.851562"/>
      <use xlink:href="#ArialMT-73" x="218.466797"/>
      <use xlink:href="#ArialMT-74" x="268.466797"/>
      <use xlink:href="#ArialMT-61" x="296.25"/>
      <use xlink:href="#ArialMT-6d" x="351.865234"/>
      <use xlink:href="#ArialMT-70" x="435.166016"/>
      <use xlink:href="#ArialMT-20" x="490.78125"/>
      <use xlink:href="#ArialMT-28" x="518.564453"/>
      <use xlink:href="#ArialMT-45" x="551.865234"/>
      <use xlink:href="#ArialMT-53" x="618.564453"/>
      <use xlink:href="#ArialMT-54" x="685.263672"/>
      <use xlink:href="#ArialMT-29" x="746.347656"/>
     </g>
    </g>
   </g>
   <g id="matplotlib.axis_2">
    <g id="ytick_1">
     <g id="line2d_11">
      <path d="M 138.811156 492.540326 
L 741.182773 492.540326 
" clip-path="url(#p5070737033)" style="fill: none; stroke: #cccccc; stroke-opacity: 0.7; stroke-width: 0.8; stroke-linecap: round"/>
     </g>
     <g id="text_12">
      <!-- 0 -->
      <g style="fill: #262626" transform="translate(126.250218 496.119232) scale(0.1 -0.1)">
       <use xlink:href="#ArialMT-30"/>
      </g>
     </g>
    </g>
    <g id="ytick_2">
     <g id="line2d_12">
      <path d="M 138.811156 400.675203 
L 741.182773 400.675203 
" clip-path="url(#p5070737033)" style="fill: none; stroke: #cccccc; stroke-opacity: 0.7; stroke-width: 0.8; stroke-linecap: round"/>
     </g>
     <g id="text_13">
      <!-- 2 -->
      <g style="fill: #262626" transform="translate(126.250218 404.254109) scale(0.1 -0.1)">
       <use xlink:href="#ArialMT-32"/>
      </g>
     </g>
    </g>
    <g id="ytick_3">
     <g id="line2d_13">
      <path d="M 138.811156 308.81008 
L 741.182773 308.81008 
" clip-path="url(#p5070737033)" style="fill: none; stroke: #cccccc; stroke-opacity: 0.7; stroke-width: 0.8; stroke-linecap: round"/>
     </g>
     <g id="text_14">
      <!-- 4 -->
      <g style="fill: #262626" transform="translate(126.250218 312.388986) scale(0.1 -0.1)">
       <use xlink:href="#ArialMT-34"/>
      </g>
     </g>
    </g>
    <g id="ytick_4">
     <g id="line2d_14">
      <path d="M 138.811156 216.944957 
L 741.182773 216.944957 
" clip-path="url(#p5070737033)" style="fill: none; stroke: #cccccc; stroke-opacity: 0.7; stroke-width: 0.8; stroke-linecap: round"/>
     </g>
     <g id="text_15">
      <!-- 6 -->
      <g style="fill: #262626" transform="translate(126.250218 220.523864) scale(0.1 -0.1)">
       <use xlink:href="#ArialMT-36"/>
      </g>
     </g>
    </g>
    <g id="ytick_5">
     <g id="line2d_15">
      <path d="M 138.811156 125.079834 
L 741.182773 125.079834 
" clip-path="url(#p5070737033)" style="fill: none; stroke: #cccccc; stroke-opacity: 0.7; stroke-width: 0.8; stroke-linecap: round"/>
     </g>
     <g id="text_16">
      <!-- 8 -->
      <g style="fill: #262626" transform="translate(126.250218 128.658741) scale(0.1 -0.1)">
       <use xlink:href="#ArialMT-38"/>
      </g>
     </g>
    </g>
    <g id="text_17">
     <!-- Vote Count -->
     <g style="fill: #262626" transform="translate(119.865218 312.457939) rotate(-90) scale(0.12 -0.12)">
      <defs>
       <path id="ArialMT-56" d="M 1803 0 
L 28 4581 
L 684 4581 
L 1875 1253 
Q 2019 853 2116 503 
Q 2222 878 2363 1253 
L 3600 4581 
L 4219 4581 
L 2425 0 
L 1803 0 
z
" transform="scale(0.015625)"/>
       <path id="ArialMT-6f" d="M 213 1659 
Q 213 2581 725 3025 
Q 1153 3394 1769 3394 
Q 2453 3394 2887 2945 
Q 3322 2497 3322 1706 
Q 3322 1066 3130 698 
Q 2938 331 2570 128 
Q 2203 -75 1769 -75 
Q 1072 -75 642 372 
Q 213 819 213 1659 
z
M 791 1659 
Q 791 1022 1069 705 
Q 1347 388 1769 388 
Q 2188 388 2466 706 
Q 2744 1025 2744 1678 
Q 2744 2294 2464 2611 
Q 2184 2928 1769 2928 
Q 1347 2928 1069 2612 
Q 791 2297 791 1659 
z
" transform="scale(0.015625)"/>
       <path id="ArialMT-43" d="M 3763 1606 
L 4369 1453 
Q 4178 706 3683 314 
Q 3188 -78 2472 -78 
Q 1731 -78 1267 223 
Q 803 525 561 1097 
Q 319 1669 319 2325 
Q 319 3041 592 3573 
Q 866 4106 1370 4382 
Q 1875 4659 2481 4659 
Q 3169 4659 3637 4309 
Q 4106 3959 4291 3325 
L 3694 3184 
Q 3534 3684 3231 3912 
Q 2928 4141 2469 4141 
Q 1941 4141 1586 3887 
Q 1231 3634 1087 3207 
Q 944 2781 944 2328 
Q 944 1744 1114 1308 
Q 1284 872 1643 656 
Q 2003 441 2422 441 
Q 2931 441 3284 734 
Q 3638 1028 3763 1606 
z
" transform="scale(0.015625)"/>
       <path id="ArialMT-75" d="M 2597 0 
L 2597 488 
Q 2209 -75 1544 -75 
Q 1250 -75 995 37 
Q 741 150 617 320 
Q 494 491 444 738 
Q 409 903 409 1263 
L 409 3319 
L 972 3319 
L 972 1478 
Q 972 1038 1006 884 
Q 1059 663 1231 536 
Q 1403 409 1656 409 
Q 1909 409 2131 539 
Q 2353 669 2445 892 
Q 2538 1116 2538 1541 
L 2538 3319 
L 3100 3319 
L 3100 0 
L 2597 0 
z
" transform="scale(0.015625)"/>
       <path id="ArialMT-6e" d="M 422 0 
L 422 3319 
L 928 3319 
L 928 2847 
Q 1294 3394 1984 3394 
Q 2284 3394 2536 3286 
Q 2788 3178 2913 3003 
Q 3038 2828 3088 2588 
Q 3119 2431 3119 2041 
L 3119 0 
L 2556 0 
L 2556 2019 
Q 2556 2363 2490 2533 
Q 2425 2703 2258 2804 
Q 2091 2906 1866 2906 
Q 1506 2906 1245 2678 
Q 984 2450 984 1813 
L 984 0 
L 422 0 
z
" transform="scale(0.015625)"/>
      </defs>
      <use xlink:href="#ArialMT-56"/>
      <use xlink:href="#ArialMT-6f" x="61.199219"/>
      <use xlink:href="#ArialMT-74" x="116.814453"/>
      <use xlink:href="#ArialMT-65" x="144.597656"/>
      <use xlink:href="#ArialMT-20" x="200.212891"/>
      <use xlink:href="#ArialMT-43" x="227.996094"/>
      <use xlink:href="#ArialMT-6f" x="300.212891"/>
      <use xlink:href="#ArialMT-75" x="355.828125"/>
      <use xlink:href="#ArialMT-6e" x="411.443359"/>
      <use xlink:href="#ArialMT-74" x="467.058594"/>
     </g>
    </g>
    <g id="text_18">
     <!-- 1e6 -->
     <g style="fill: #262626" transform="translate(138.811156 49.020937) scale(0.1 -0.1)">
      <use xlink:href="#ArialMT-31"/>
      <use xlink:href="#ArialMT-65" x="55.615234"/>
      <use xlink:href="#ArialMT-36" x="111.230469"/>
     </g>
    </g>
   </g>
   <g id="line2d_16">
    <path d="M 166.191684 492.540326 
L 180.297767 492.540326 
L 180.500406 482.010654 
L 180.652541 438.740987 
L 180.75304 430.862312 
L 180.876567 410.974937 
L 181.068014 385.83747 
L 181.28831 369.483779 
L 181.364654 369.483779 
L 181.448068 359.658804 
L 182.481361 358.034674 
L 182.864209 355.059117 
L 182.888904 355.059117 
L 183.064029 354.17271 
L 183.223146 353.930186 
L 183.405868 353.50531 
L 183.572815 350.515698 
L 183.639585 350.515698 
L 183.992401 349.589376 
L 184.557484 345.947475 
L 185.884376 335.034587 
L 186.068841 333.86147 
L 186.517887 330.900611 
L 186.599897 330.900611 
L 187.52978 323.937372 
L 187.671799 323.803938 
L 187.838769 323.712624 
L 187.927258 323.684697 
L 188.05997 323.179898 
L 188.179537 323.179898 
L 188.380646 321.886575 
L 188.476725 321.792965 
L 188.50251 321.326887 
L 188.852665 319.141278 
L 189.073962 319.019235 
L 189.228859 318.278664 
L 189.60594 318.278664 
L 189.694194 317.091859 
L 189.826239 317.091859 
L 189.999496 316.501488 
L 190.223444 316.501488 
L 190.268552 315.780989 
L 190.422872 315.780989 
L 190.622477 314.472187 
L 192.211069 314.388314 
L 192.299468 313.780994 
L 192.70141 313.780994 
L 192.922449 313.090719 
L 195.506453 313.090719 
L 195.639148 312.976485 
L 195.930512 312.452119 
L 198.160552 312.452119 
L 198.4489 311.996698 
L 204.550825 311.995411 
L 209.335876 307.758959 
L 236.335622 307.716977 
L 237.883583 307.345153 
L 238.635482 306.596085 
L 238.963483 306.526635 
L 239.210453 304.360317 
L 239.604854 303.190093 
L 239.807511 302.096944 
L 240.378761 302.005217 
L 240.776743 300.600002 
L 240.891038 299.658523 
L 241.241342 299.658523 
L 241.682327 299.510069 
L 244.293062 299.290006 
L 261.228892 299.290006 
L 264.233273 298.988366 
L 265.250606 298.988366 
L 265.654771 298.864762 
L 267.170664 298.656504 
L 268.031209 298.656504 
L 268.253421 298.515537 
L 268.523252 297.824527 
L 268.848362 297.770511 
L 273.304561 283.903149 
L 273.605944 283.458705 
L 276.12709 283.395456 
L 300.901535 282.962174 
L 302.051477 282.750104 
L 303.134982 281.175581 
L 303.289715 277.68117 
L 303.488734 277.527893 
L 303.764484 277.527893 
L 303.997391 277.416369 
L 304.417403 276.241643 
L 304.4654 275.253175 
L 308.666839 275.217807 
L 329.726661 275.217807 
L 333.884546 274.970552 
L 335.11901 272.473658 
L 335.826924 272.410363 
L 363.980573 272.363787 
L 364.409094 271.173858 
L 365.736012 271.047773 
L 365.780224 270.336645 
L 366.200371 267.990456 
L 369.369563 263.159453 
L 393.255799 263.159453 
L 394.117967 262.898694 
L 395.290751 262.898464 
L 396.308245 262.084539 
L 396.596082 262.064375 
L 398.340022 259.911194 
L 398.431459 259.219771 
L 398.852469 257.637073 
L 399.18846 254.88856 
L 399.515355 254.827745 
L 399.577932 254.576494 
L 400.086813 254.576494 
L 400.718993 254.398046 
L 402.011216 252.742361 
L 421.347595 252.742361 
L 428.108409 252.418674 
L 428.891766 252.18722 
L 429.444981 250.7177 
L 429.732208 248.76157 
L 430.594808 247.359524 
L 430.948744 246.214563 
L 431.302653 246.214563 
L 431.700656 245.022246 
L 431.84383 245.022246 
L 432.69254 244.827951 
L 433.422113 244.081455 
L 436.393153 244.081455 
L 458.777007 243.541564 
L 459.064598 242.812568 
L 464.037521 239.278058 
L 488.287493 239.169289 
L 489.500122 238.568491 
L 489.879861 238.554574 
L 489.964552 238.391054 
L 491.092397 238.318664 
L 491.423494 237.964157 
L 492.331175 237.809777 
L 492.672043 237.328772 
L 493.020414 237.269013 
L 493.241492 236.441492 
L 493.838968 232.798902 
L 494.344282 231.38496 
L 494.583591 230.969225 
L 494.963674 230.922052 
L 495.615085 230.171009 
L 496.353132 230.171009 
L 496.8174 229.355844 
L 522.147263 229.246157 
L 522.372527 228.730288 
L 525.915958 228.672 
L 526.130232 228.554504 
L 587.184935 228.531767 
L 592.029506 226.424795 
L 608.250471 226.310698 
L 608.488644 226.173222 
L 618.35518 226.164954 
L 618.641693 226.035654 
L 619.224459 226.035654 
L 620.759494 225.805808 
L 620.932925 224.639442 
L 621.203634 224.62433 
L 621.50354 224.376938 
L 621.850424 223.818444 
L 622.469201 223.13855 
L 650.140451 222.874989 
L 654.583049 222.365505 
L 671.142243 221.578175 
L 681.990467 221.514099 
L 687.410013 220.008292 
L 710.642438 219.738622 
L 711.290232 219.524897 
L 713.802245 219.505789 
L 713.802245 219.505789 
" clip-path="url(#p5070737033)" style="fill: none; stroke: #ff0000; stroke-width: 1.5; stroke-linecap: round"/>
   </g>
   <g id="line2d_17">
    <path d="M 166.191684 492.540326 
L 180.297767 492.540326 
L 180.408279 488.044309 
L 180.544733 416.563322 
L 180.681801 404.459265 
L 180.75304 397.366221 
L 180.876567 368.42269 
L 181.027045 359.598494 
L 181.187973 287.451623 
L 181.28831 287.227977 
L 181.364654 287.227977 
L 181.448068 278.461564 
L 182.18181 276.969858 
L 182.355275 275.835921 
L 182.394656 275.835921 
L 182.481361 275.624815 
L 182.62064 274.486468 
L 182.794022 272.685453 
L 183.024217 271.500393 
L 183.129456 271.429197 
L 183.334249 270.557213 
L 183.435779 269.937491 
L 183.572815 267.499391 
L 183.711776 267.443261 
L 183.900479 266.55194 
L 183.992401 266.55194 
L 184.490841 264.657543 
L 184.557484 263.63559 
L 185.301515 259.591641 
L 185.437862 257.597203 
L 185.497112 257.582551 
L 186.068841 254.511086 
L 186.517887 251.940287 
L 186.599897 251.940287 
L 187.333487 246.12867 
L 187.396248 246.12867 
L 187.59545 244.452728 
L 187.750305 244.452728 
L 187.838769 244.327792 
L 187.927258 244.272259 
L 188.343959 243.51405 
L 188.852665 239.967781 
L 189.073962 239.932413 
L 189.228859 239.079124 
L 189.60594 239.079124 
L 189.694194 237.847993 
L 189.826239 237.847993 
L 189.999496 237.415354 
L 190.223444 237.415354 
L 190.268552 237.073984 
L 190.422872 237.073984 
L 190.467606 236.527157 
L 190.71184 236.051571 
L 192.211069 236.034254 
L 192.299468 235.691092 
L 192.70141 235.691092 
L 192.922449 235.338008 
L 195.639148 235.31123 
L 195.930512 234.983317 
L 198.160552 234.983317 
L 198.4489 234.712637 
L 204.550825 234.711534 
L 209.335876 228.464476 
L 236.335622 228.420427 
L 237.486438 227.949572 
L 237.515478 227.771721 
L 237.883583 227.771721 
L 238.963483 226.712471 
L 239.210453 220.804211 
L 239.807511 216.050329 
L 240.378761 215.995853 
L 240.47461 215.758611 
L 240.891038 212.983733 
L 241.682327 212.909506 
L 244.293062 212.678006 
L 261.228892 212.678006 
L 263.216863 212.4844 
L 263.942179 212.033434 
L 265.654771 211.977351 
L 267.387342 211.85246 
L 268.031209 211.852322 
L 268.523252 210.810021 
L 268.848362 210.780486 
L 273.304561 183.414693 
L 273.605944 182.910858 
L 299.467678 182.302849 
L 300.901535 182.291871 
L 302.051477 180.96736 
L 303.134982 178.487323 
L 303.289715 170.734458 
L 303.488734 170.280001 
L 303.764484 170.280001 
L 303.997391 170.109178 
L 304.417403 168.563593 
L 304.4654 167.537506 
L 329.726661 167.517341 
L 333.884546 166.06183 
L 335.11901 158.761217 
L 335.826924 158.747529 
L 363.980573 158.721715 
L 364.409094 153.485679 
L 365.736012 152.879277 
L 366.045755 148.954064 
L 366.200371 147.258785 
L 369.369563 137.856482 
L 393.255799 137.856482 
L 394.117967 137.169468 
L 395.290751 137.169193 
L 396.308245 135.896126 
L 396.596082 135.891487 
L 397.657541 134.466704 
L 398.340022 132.660315 
L 398.431459 131.096357 
L 398.852469 129.486007 
L 399.051153 125.916358 
L 399.18846 125.562586 
L 399.515355 125.486751 
L 399.577932 125.28846 
L 400.086813 125.28846 
L 400.718993 125.161732 
L 400.993694 124.970193 
L 402.011216 123.67122 
L 421.347595 123.67122 
L 424.665226 122.991051 
L 427.981358 122.906673 
L 428.108409 122.809066 
L 428.891766 122.665068 
L 429.444981 120.17364 
L 429.732208 117.656719 
L 430.038179 116.084861 
L 430.594808 114.394864 
L 430.948744 112.545665 
L 431.302653 112.545665 
L 431.700656 111.492753 
L 431.84383 111.492753 
L 432.69254 111.346687 
L 433.422113 110.628394 
L 436.393153 110.628394 
L 458.777007 110.05465 
L 459.064598 108.838816 
L 464.037521 104.182402 
L 488.287493 104.102158 
L 488.596263 104.035234 
L 489.500122 102.776866 
L 489.879861 102.766118 
L 489.964552 101.83387 
L 491.092397 101.779578 
L 491.423494 101.148143 
L 492.331175 100.996979 
L 492.552197 100.792671 
L 492.672043 100.49342 
L 493.020414 100.261736 
L 493.241492 99.187006 
L 493.573638 92.76692 
L 494.083214 88.153362 
L 494.344282 87.675893 
L 494.583591 86.91401 
L 494.963674 86.868628 
L 495.615085 86.060032 
L 496.353132 86.060032 
L 496.8174 85.692295 
L 522.147263 85.611087 
L 522.372527 85.038124 
L 522.833908 85.038124 
L 525.915958 84.831795 
L 526.130232 84.695375 
L 587.184935 84.672822 
L 592.029506 82.022559 
L 618.35518 81.831067 
L 618.641693 81.400633 
L 619.224459 81.400633 
L 620.759494 81.065784 
L 620.932925 79.770118 
L 621.203634 79.716285 
L 621.50354 79.444962 
L 621.647573 78.989173 
L 621.850424 78.72993 
L 622.334049 77.712707 
L 622.469201 77.712707 
L 650.140451 77.452545 
L 654.583049 76.304369 
L 671.142243 75.573903 
L 674.920259 75.573903 
L 681.990467 75.428389 
L 687.410013 73.660858 
L 710.642438 73.440887 
L 711.062344 73.066583 
L 713.802245 72.998051 
L 713.802245 72.998051 
" clip-path="url(#p5070737033)" style="fill: none; stroke: #0000ff; stroke-width: 1.5; stroke-linecap: round"/>
   </g>
   <g id="line2d_18">
    <path d="M 166.191684 492.540326 
L 180.297767 492.540326 
L 180.500406 491.944498 
L 180.652541 489.0563 
L 180.75304 488.676939 
L 180.876567 487.580316 
L 181.027045 487.265921 
L 181.187973 484.628052 
L 181.364654 484.615308 
L 181.448068 484.208573 
L 182.62064 484.061245 
L 182.829043 483.897762 
L 186.068841 482.561728 
L 187.927258 481.830172 
L 188.50251 481.729913 
L 188.852665 481.526537 
L 189.60594 481.466392 
L 189.694194 481.386973 
L 190.467606 481.296073 
L 191.094624 481.265855 
L 204.550825 481.176997 
L 209.335876 480.82837 
L 238.963483 480.733324 
L 239.210453 480.407039 
L 240.006613 480.136092 
L 240.776743 480.036893 
L 240.891038 479.981961 
L 268.253421 479.901621 
L 268.848362 479.854507 
L 273.605944 478.192337 
L 302.051477 478.091514 
L 303.134982 477.901523 
L 303.289715 477.413749 
L 304.4654 477.157392 
L 333.884546 477.076147 
L 335.11901 476.602502 
L 363.980573 476.598218 
L 364.409094 476.300463 
L 365.780224 476.217966 
L 366.200371 475.911336 
L 369.369563 475.21099 
L 395.290751 475.167644 
L 398.340022 474.840434 
L 398.431459 474.739039 
L 398.852469 474.629934 
L 399.18846 474.331351 
L 402.011216 474.188172 
L 428.891766 474.134951 
L 430.948744 473.39067 
L 432.69254 473.295963 
L 433.422113 473.242838 
L 458.777007 473.198588 
L 459.064598 473.112469 
L 465.585188 472.778456 
L 489.879861 472.681375 
L 489.964552 472.634731 
L 492.672043 472.531279 
L 493.241492 472.433593 
L 493.573638 471.943281 
L 494.083214 471.578289 
L 494.963674 471.475729 
L 496.8174 471.38266 
L 587.184935 471.308883 
L 592.029506 471.132693 
L 620.759494 471.067283 
L 620.932925 470.966143 
L 621.850424 470.897132 
L 622.469201 470.82131 
L 654.583049 470.737078 
L 713.802245 470.526877 
L 713.802245 470.526877 
" clip-path="url(#p5070737033)" style="fill: none; stroke-dasharray: 5.55,2.4; stroke-dashoffset: 0; stroke: #808080; stroke-width: 1.5"/>
   </g>
   <g id="text_19">
    <g id="patch_3">
     <path d="M 714.802245 220.479227 
L 767.285057 220.479227 
L 767.285057 203.347977 
L 714.802245 203.347977 
z
" style="fill: #ffffff; opacity: 0.7; stroke: #ffffff; stroke-linejoin: miter"/>
    </g>
    <!-- 5,944,248 -->
    <g style="fill: #ff0000" transform="translate(718.802245 214.505789) scale(0.1 -0.1)">
     <defs>
      <path id="Arial-BoldMT-35" d="M 284 1178 
L 1159 1269 
Q 1197 972 1381 798 
Q 1566 625 1806 625 
Q 2081 625 2272 848 
Q 2463 1072 2463 1522 
Q 2463 1944 2273 2155 
Q 2084 2366 1781 2366 
Q 1403 2366 1103 2031 
L 391 2134 
L 841 4519 
L 3163 4519 
L 3163 3697 
L 1506 3697 
L 1369 2919 
Q 1663 3066 1969 3066 
Q 2553 3066 2959 2641 
Q 3366 2216 3366 1538 
Q 3366 972 3038 528 
Q 2591 -78 1797 -78 
Q 1163 -78 763 262 
Q 363 603 284 1178 
z
" transform="scale(0.015625)"/>
      <path id="Arial-BoldMT-2c" d="M 438 878 
L 1316 878 
L 1316 250 
Q 1316 -131 1250 -351 
Q 1184 -572 1001 -747 
Q 819 -922 538 -1022 
L 366 -659 
Q 631 -572 743 -419 
Q 856 -266 863 0 
L 438 0 
L 438 878 
z
" transform="scale(0.015625)"/>
      <path id="Arial-BoldMT-39" d="M 291 1059 
L 1141 1153 
Q 1172 894 1303 769 
Q 1434 644 1650 644 
Q 1922 644 2112 894 
Q 2303 1144 2356 1931 
Q 2025 1547 1528 1547 
Q 988 1547 595 1964 
Q 203 2381 203 3050 
Q 203 3747 617 4173 
Q 1031 4600 1672 4600 
Q 2369 4600 2816 4061 
Q 3263 3522 3263 2288 
Q 3263 1031 2797 475 
Q 2331 -81 1584 -81 
Q 1047 -81 715 205 
Q 384 491 291 1059 
z
M 2278 2978 
Q 2278 3403 2083 3637 
Q 1888 3872 1631 3872 
Q 1388 3872 1227 3680 
Q 1066 3488 1066 3050 
Q 1066 2606 1241 2398 
Q 1416 2191 1678 2191 
Q 1931 2191 2104 2391 
Q 2278 2591 2278 2978 
z
" transform="scale(0.015625)"/>
      <path id="Arial-BoldMT-34" d="M 1994 0 
L 1994 922 
L 119 922 
L 119 1691 
L 2106 4600 
L 2844 4600 
L 2844 1694 
L 3413 1694 
L 3413 922 
L 2844 922 
L 2844 0 
L 1994 0 
z
M 1994 1694 
L 1994 3259 
L 941 1694 
L 1994 1694 
z
" transform="scale(0.015625)"/>
      <path id="Arial-BoldMT-32" d="M 3238 816 
L 3238 0 
L 159 0 
Q 209 463 459 877 
Q 709 1291 1447 1975 
Q 2041 2528 2175 2725 
Q 2356 2997 2356 3263 
Q 2356 3556 2198 3714 
Q 2041 3872 1763 3872 
Q 1488 3872 1325 3706 
Q 1163 3541 1138 3156 
L 263 3244 
Q 341 3969 753 4284 
Q 1166 4600 1784 4600 
Q 2463 4600 2850 4234 
Q 3238 3869 3238 3325 
Q 3238 3016 3127 2736 
Q 3016 2456 2775 2150 
Q 2616 1947 2200 1565 
Q 1784 1184 1673 1059 
Q 1563 934 1494 816 
L 3238 816 
z
" transform="scale(0.015625)"/>
      <path id="Arial-BoldMT-38" d="M 1025 2472 
Q 684 2616 529 2867 
Q 375 3119 375 3419 
Q 375 3931 733 4265 
Q 1091 4600 1750 4600 
Q 2403 4600 2764 4265 
Q 3125 3931 3125 3419 
Q 3125 3100 2959 2851 
Q 2794 2603 2494 2472 
Q 2875 2319 3073 2025 
Q 3272 1731 3272 1347 
Q 3272 713 2867 316 
Q 2463 -81 1791 -81 
Q 1166 -81 750 247 
Q 259 634 259 1309 
Q 259 1681 443 1992 
Q 628 2303 1025 2472 
z
M 1206 3356 
Q 1206 3094 1354 2947 
Q 1503 2800 1750 2800 
Q 2000 2800 2150 2948 
Q 2300 3097 2300 3359 
Q 2300 3606 2151 3754 
Q 2003 3903 1759 3903 
Q 1506 3903 1356 3753 
Q 1206 3603 1206 3356 
z
M 1125 1394 
Q 1125 1031 1311 828 
Q 1497 625 1775 625 
Q 2047 625 2225 820 
Q 2403 1016 2403 1384 
Q 2403 1706 2222 1901 
Q 2041 2097 1763 2097 
Q 1441 2097 1283 1875 
Q 1125 1653 1125 1394 
z
" transform="scale(0.015625)"/>
     </defs>
     <use xlink:href="#Arial-BoldMT-35"/>
     <use xlink:href="#Arial-BoldMT-2c" x="55.615234"/>
     <use xlink:href="#Arial-BoldMT-39" x="83.398438"/>
     <use xlink:href="#Arial-BoldMT-34" x="139.013672"/>
     <use xlink:href="#Arial-BoldMT-34" x="194.628906"/>
     <use xlink:href="#Arial-BoldMT-2c" x="250.244141"/>
     <use xlink:href="#Arial-BoldMT-32" x="278.027344"/>
     <use xlink:href="#Arial-BoldMT-34" x="333.642578"/>
     <use xlink:href="#Arial-BoldMT-38" x="389.257812"/>
    </g>
   </g>
   <g id="text_20">
    <g id="patch_4">
     <path d="M 714.802245 73.971489 
L 767.285057 73.971489 
L 767.285057 56.840239 
L 714.802245 56.840239 
z
" style="fill: #ffffff; opacity: 0.7; stroke: #ffffff; stroke-linejoin: miter"/>
    </g>
    <!-- 9,133,875 -->
    <g style="fill: #0000ff" transform="translate(718.802245 67.998051) scale(0.1 -0.1)">
     <defs>
      <path id="Arial-BoldMT-31" d="M 2519 0 
L 1641 0 
L 1641 3309 
Q 1159 2859 506 2644 
L 506 3441 
Q 850 3553 1253 3867 
Q 1656 4181 1806 4600 
L 2519 4600 
L 2519 0 
z
" transform="scale(0.015625)"/>
      <path id="Arial-BoldMT-33" d="M 241 1216 
L 1091 1319 
Q 1131 994 1309 822 
Q 1488 650 1741 650 
Q 2013 650 2198 856 
Q 2384 1063 2384 1413 
Q 2384 1744 2206 1937 
Q 2028 2131 1772 2131 
Q 1603 2131 1369 2066 
L 1466 2781 
Q 1822 2772 2009 2936 
Q 2197 3100 2197 3372 
Q 2197 3603 2059 3740 
Q 1922 3878 1694 3878 
Q 1469 3878 1309 3722 
Q 1150 3566 1116 3266 
L 306 3403 
Q 391 3819 561 4067 
Q 731 4316 1036 4458 
Q 1341 4600 1719 4600 
Q 2366 4600 2756 4188 
Q 3078 3850 3078 3425 
Q 3078 2822 2419 2463 
Q 2813 2378 3048 2084 
Q 3284 1791 3284 1375 
Q 3284 772 2843 347 
Q 2403 -78 1747 -78 
Q 1125 -78 715 280 
Q 306 638 241 1216 
z
" transform="scale(0.015625)"/>
      <path id="Arial-BoldMT-37" d="M 272 3703 
L 272 4519 
L 3275 4519 
L 3275 3881 
Q 2903 3516 2518 2831 
Q 2134 2147 1932 1376 
Q 1731 606 1734 0 
L 888 0 
Q 909 950 1279 1937 
Q 1650 2925 2269 3703 
L 272 3703 
z
" transform="scale(0.015625)"/>
     </defs>
     <use xlink:href="#Arial-BoldMT-39"/>
     <use xlink:href="#Arial-BoldMT-2c" x="55.615234"/>
     <use xlink:href="#Arial-BoldMT-31" x="83.398438"/>
     <use xlink:href="#Arial-BoldMT-33" x="139.013672"/>
     <use xlink:href="#Arial-BoldMT-33" x="194.628906"/>
     <use xlink:href="#Arial-BoldMT-2c" x="250.244141"/>
     <use xlink:href="#Arial-BoldMT-38" x="278.027344"/>
     <use xlink:href="#Arial-BoldMT-37" x="333.642578"/>
     <use xlink:href="#Arial-BoldMT-35" x="389.257812"/>
    </g>
   </g>
   <g id="text_21">
    <g id="patch_5">
     <path d="M 714.802245 471.500315 
L 758.945995 471.500315 
L 758.945995 454.369065 
L 714.802245 454.369065 
z
" style="fill: #ffffff; opacity: 0.7; stroke: #ffffff; stroke-linejoin: miter"/>
    </g>
    <!-- 479,255 -->
    <g style="fill: #808080" transform="translate(718.802245 465.526877) scale(0.1 -0.1)">
     <use xlink:href="#Arial-BoldMT-34"/>
     <use xlink:href="#Arial-BoldMT-37" x="55.615234"/>
     <use xlink:href="#Arial-BoldMT-39" x="111.230469"/>
     <use xlink:href="#Arial-BoldMT-2c" x="166.845703"/>
     <use xlink:href="#Arial-BoldMT-32" x="194.628906"/>
     <use xlink:href="#Arial-BoldMT-35" x="250.244141"/>
     <use xlink:href="#Arial-BoldMT-35" x="305.859375"/>
    </g>
   </g>
   <g id="text_22">
    <g id="patch_6">
     <path d="M 771.301354 89.241075 
L 866.738854 89.241075 
Q 871.738854 89.241075 871.738854 84.241075 
L 871.738854 75.095763 
Q 871.738854 70.095763 866.738854 70.095763 
L 771.301354 70.095763 
Q 766.301354 70.095763 766.301354 75.095763 
L 766.301354 84.241075 
Q 766.301354 89.241075 771.301354 89.241075 
z
" style="fill: #0000ff; opacity: 0.5; stroke: #ffffff; stroke-linejoin: miter"/>
    </g>
    <!-- Difference: 3,189,627 -->
    <g style="fill: #262626" transform="translate(771.301354 82.253575) scale(0.1 -0.1)">
     <defs>
      <path id="ArialMT-44" d="M 494 0 
L 494 4581 
L 2072 4581 
Q 2606 4581 2888 4516 
Q 3281 4425 3559 4188 
Q 3922 3881 4101 3404 
Q 4281 2928 4281 2316 
Q 4281 1794 4159 1391 
Q 4038 988 3847 723 
Q 3656 459 3429 307 
Q 3203 156 2883 78 
Q 2563 0 2147 0 
L 494 0 
z
M 1100 541 
L 2078 541 
Q 2531 541 2789 625 
Q 3047 709 3200 863 
Q 3416 1078 3536 1442 
Q 3656 1806 3656 2325 
Q 3656 3044 3420 3430 
Q 3184 3816 2847 3947 
Q 2603 4041 2063 4041 
L 1100 4041 
L 1100 541 
z
" transform="scale(0.015625)"/>
      <path id="ArialMT-66" d="M 556 0 
L 556 2881 
L 59 2881 
L 59 3319 
L 556 3319 
L 556 3672 
Q 556 4006 616 4169 
Q 697 4388 901 4523 
Q 1106 4659 1475 4659 
Q 1713 4659 2000 4603 
L 1916 4113 
Q 1741 4144 1584 4144 
Q 1328 4144 1222 4034 
Q 1116 3925 1116 3625 
L 1116 3319 
L 1763 3319 
L 1763 2881 
L 1116 2881 
L 1116 0 
L 556 0 
z
" transform="scale(0.015625)"/>
      <path id="ArialMT-72" d="M 416 0 
L 416 3319 
L 922 3319 
L 922 2816 
Q 1116 3169 1280 3281 
Q 1444 3394 1641 3394 
Q 1925 3394 2219 3213 
L 2025 2691 
Q 1819 2813 1613 2813 
Q 1428 2813 1281 2702 
Q 1134 2591 1072 2394 
Q 978 2094 978 1738 
L 978 0 
L 416 0 
z
" transform="scale(0.015625)"/>
      <path id="ArialMT-63" d="M 2588 1216 
L 3141 1144 
Q 3050 572 2676 248 
Q 2303 -75 1759 -75 
Q 1078 -75 664 370 
Q 250 816 250 1647 
Q 250 2184 428 2587 
Q 606 2991 970 3192 
Q 1334 3394 1763 3394 
Q 2303 3394 2647 3120 
Q 2991 2847 3088 2344 
L 2541 2259 
Q 2463 2594 2264 2762 
Q 2066 2931 1784 2931 
Q 1359 2931 1093 2626 
Q 828 2322 828 1663 
Q 828 994 1084 691 
Q 1341 388 1753 388 
Q 2084 388 2306 591 
Q 2528 794 2588 1216 
z
" transform="scale(0.015625)"/>
      <path id="ArialMT-33" d="M 269 1209 
L 831 1284 
Q 928 806 1161 595 
Q 1394 384 1728 384 
Q 2125 384 2398 659 
Q 2672 934 2672 1341 
Q 2672 1728 2419 1979 
Q 2166 2231 1775 2231 
Q 1616 2231 1378 2169 
L 1441 2663 
Q 1497 2656 1531 2656 
Q 1891 2656 2178 2843 
Q 2466 3031 2466 3422 
Q 2466 3731 2256 3934 
Q 2047 4138 1716 4138 
Q 1388 4138 1169 3931 
Q 950 3725 888 3313 
L 325 3413 
Q 428 3978 793 4289 
Q 1159 4600 1703 4600 
Q 2078 4600 2393 4439 
Q 2709 4278 2876 4000 
Q 3044 3722 3044 3409 
Q 3044 3113 2884 2869 
Q 2725 2625 2413 2481 
Q 2819 2388 3044 2092 
Q 3269 1797 3269 1353 
Q 3269 753 2831 336 
Q 2394 -81 1725 -81 
Q 1122 -81 723 278 
Q 325 638 269 1209 
z
" transform="scale(0.015625)"/>
      <path id="ArialMT-2c" d="M 569 0 
L 569 641 
L 1209 641 
L 1209 0 
Q 1209 -353 1084 -570 
Q 959 -788 688 -906 
L 531 -666 
Q 709 -588 793 -436 
Q 878 -284 888 0 
L 569 0 
z
" transform="scale(0.015625)"/>
      <path id="ArialMT-39" d="M 350 1059 
L 891 1109 
Q 959 728 1153 556 
Q 1347 384 1650 384 
Q 1909 384 2104 503 
Q 2300 622 2425 820 
Q 2550 1019 2634 1356 
Q 2719 1694 2719 2044 
Q 2719 2081 2716 2156 
Q 2547 1888 2255 1720 
Q 1963 1553 1622 1553 
Q 1053 1553 659 1965 
Q 266 2378 266 3053 
Q 266 3750 677 4175 
Q 1088 4600 1706 4600 
Q 2153 4600 2523 4359 
Q 2894 4119 3086 3673 
Q 3278 3228 3278 2384 
Q 3278 1506 3087 986 
Q 2897 466 2520 194 
Q 2144 -78 1638 -78 
Q 1100 -78 759 220 
Q 419 519 350 1059 
z
M 2653 3081 
Q 2653 3566 2395 3850 
Q 2138 4134 1775 4134 
Q 1400 4134 1122 3828 
Q 844 3522 844 3034 
Q 844 2597 1108 2323 
Q 1372 2050 1759 2050 
Q 2150 2050 2401 2323 
Q 2653 2597 2653 3081 
z
" transform="scale(0.015625)"/>
     </defs>
     <use xlink:href="#ArialMT-44"/>
     <use xlink:href="#ArialMT-69" x="72.216797"/>
     <use xlink:href="#ArialMT-66" x="94.433594"/>
     <use xlink:href="#ArialMT-66" x="120.466797"/>
     <use xlink:href="#ArialMT-65" x="148.25"/>
     <use xlink:href="#ArialMT-72" x="203.865234"/>
     <use xlink:href="#ArialMT-65" x="237.166016"/>
     <use xlink:href="#ArialMT-6e" x="292.78125"/>
     <use xlink:href="#ArialMT-63" x="348.396484"/>
     <use xlink:href="#ArialMT-65" x="398.396484"/>
     <use xlink:href="#ArialMT-3a" x="454.011719"/>
     <use xlink:href="#ArialMT-20" x="481.794922"/>
     <use xlink:href="#ArialMT-33" x="509.578125"/>
     <use xlink:href="#ArialMT-2c" x="565.193359"/>
     <use xlink:href="#ArialMT-31" x="592.976562"/>
     <use xlink:href="#ArialMT-38" x="648.591797"/>
     <use xlink:href="#ArialMT-39" x="704.207031"/>
     <use xlink:href="#ArialMT-2c" x="759.822266"/>
     <use xlink:href="#ArialMT-36" x="787.605469"/>
     <use xlink:href="#ArialMT-32" x="843.220703"/>
     <use xlink:href="#ArialMT-37" x="898.835938"/>
    </g>
   </g>
   <g id="text_23">
    <!-- Vote Counts Over Time - California -->
    <g style="fill: #262626" transform="translate(324.735402 46.020937) scale(0.14 -0.14)">
     <defs>
      <path id="Arial-BoldMT-56" d="M 1634 0 
L -3 4581 
L 1000 4581 
L 2159 1191 
L 3281 4581 
L 4263 4581 
L 2622 0 
L 1634 0 
z
" transform="scale(0.015625)"/>
      <path id="Arial-BoldMT-6f" d="M 256 1706 
Q 256 2144 472 2553 
Q 688 2963 1083 3178 
Q 1478 3394 1966 3394 
Q 2719 3394 3200 2905 
Q 3681 2416 3681 1669 
Q 3681 916 3195 420 
Q 2709 -75 1972 -75 
Q 1516 -75 1102 131 
Q 688 338 472 736 
Q 256 1134 256 1706 
z
M 1156 1659 
Q 1156 1166 1390 903 
Q 1625 641 1969 641 
Q 2313 641 2545 903 
Q 2778 1166 2778 1666 
Q 2778 2153 2545 2415 
Q 2313 2678 1969 2678 
Q 1625 2678 1390 2415 
Q 1156 2153 1156 1659 
z
" transform="scale(0.015625)"/>
      <path id="Arial-BoldMT-74" d="M 1981 3319 
L 1981 2619 
L 1381 2619 
L 1381 1281 
Q 1381 875 1398 808 
Q 1416 741 1477 697 
Q 1538 653 1625 653 
Q 1747 653 1978 738 
L 2053 56 
Q 1747 -75 1359 -75 
Q 1122 -75 931 4 
Q 741 84 652 211 
Q 563 338 528 553 
Q 500 706 500 1172 
L 500 2619 
L 97 2619 
L 97 3319 
L 500 3319 
L 500 3978 
L 1381 4491 
L 1381 3319 
L 1981 3319 
z
" transform="scale(0.015625)"/>
      <path id="Arial-BoldMT-65" d="M 2381 1056 
L 3256 909 
Q 3088 428 2723 176 
Q 2359 -75 1813 -75 
Q 947 -75 531 491 
Q 203 944 203 1634 
Q 203 2459 634 2926 
Q 1066 3394 1725 3394 
Q 2466 3394 2894 2905 
Q 3322 2416 3303 1406 
L 1103 1406 
Q 1113 1016 1316 798 
Q 1519 581 1822 581 
Q 2028 581 2168 693 
Q 2309 806 2381 1056 
z
M 2431 1944 
Q 2422 2325 2234 2523 
Q 2047 2722 1778 2722 
Q 1491 2722 1303 2513 
Q 1116 2303 1119 1944 
L 2431 1944 
z
" transform="scale(0.015625)"/>
      <path id="Arial-BoldMT-20" transform="scale(0.015625)"/>
      <path id="Arial-BoldMT-43" d="M 3397 1684 
L 4294 1400 
Q 4088 650 3608 286 
Q 3128 -78 2391 -78 
Q 1478 -78 890 545 
Q 303 1169 303 2250 
Q 303 3394 893 4026 
Q 1484 4659 2447 4659 
Q 3288 4659 3813 4163 
Q 4125 3869 4281 3319 
L 3366 3100 
Q 3284 3456 3026 3662 
Q 2769 3869 2400 3869 
Q 1891 3869 1573 3503 
Q 1256 3138 1256 2319 
Q 1256 1450 1568 1081 
Q 1881 713 2381 713 
Q 2750 713 3015 947 
Q 3281 1181 3397 1684 
z
" transform="scale(0.015625)"/>
      <path id="Arial-BoldMT-75" d="M 2644 0 
L 2644 497 
Q 2463 231 2167 78 
Q 1872 -75 1544 -75 
Q 1209 -75 943 72 
Q 678 219 559 484 
Q 441 750 441 1219 
L 441 3319 
L 1319 3319 
L 1319 1794 
Q 1319 1094 1367 936 
Q 1416 778 1544 686 
Q 1672 594 1869 594 
Q 2094 594 2272 717 
Q 2450 841 2515 1023 
Q 2581 1206 2581 1919 
L 2581 3319 
L 3459 3319 
L 3459 0 
L 2644 0 
z
" transform="scale(0.015625)"/>
      <path id="Arial-BoldMT-6e" d="M 3478 0 
L 2600 0 
L 2600 1694 
Q 2600 2231 2544 2389 
Q 2488 2547 2361 2634 
Q 2234 2722 2056 2722 
Q 1828 2722 1647 2597 
Q 1466 2472 1398 2265 
Q 1331 2059 1331 1503 
L 1331 0 
L 453 0 
L 453 3319 
L 1269 3319 
L 1269 2831 
Q 1703 3394 2363 3394 
Q 2653 3394 2893 3289 
Q 3134 3184 3257 3021 
Q 3381 2859 3429 2653 
Q 3478 2447 3478 2063 
L 3478 0 
z
" transform="scale(0.015625)"/>
      <path id="Arial-BoldMT-73" d="M 150 947 
L 1031 1081 
Q 1088 825 1259 692 
Q 1431 559 1741 559 
Q 2081 559 2253 684 
Q 2369 772 2369 919 
Q 2369 1019 2306 1084 
Q 2241 1147 2013 1200 
Q 950 1434 666 1628 
Q 272 1897 272 2375 
Q 272 2806 612 3100 
Q 953 3394 1669 3394 
Q 2350 3394 2681 3172 
Q 3013 2950 3138 2516 
L 2309 2363 
Q 2256 2556 2107 2659 
Q 1959 2763 1684 2763 
Q 1338 2763 1188 2666 
Q 1088 2597 1088 2488 
Q 1088 2394 1175 2328 
Q 1294 2241 1995 2081 
Q 2697 1922 2975 1691 
Q 3250 1456 3250 1038 
Q 3250 581 2869 253 
Q 2488 -75 1741 -75 
Q 1063 -75 667 200 
Q 272 475 150 947 
z
" transform="scale(0.015625)"/>
      <path id="Arial-BoldMT-4f" d="M 278 2263 
Q 278 2963 488 3438 
Q 644 3788 914 4066 
Q 1184 4344 1506 4478 
Q 1934 4659 2494 4659 
Q 3506 4659 4114 4031 
Q 4722 3403 4722 2284 
Q 4722 1175 4119 548 
Q 3516 -78 2506 -78 
Q 1484 -78 881 545 
Q 278 1169 278 2263 
z
M 1231 2294 
Q 1231 1516 1590 1114 
Q 1950 713 2503 713 
Q 3056 713 3411 1111 
Q 3766 1509 3766 2306 
Q 3766 3094 3420 3481 
Q 3075 3869 2503 3869 
Q 1931 3869 1581 3476 
Q 1231 3084 1231 2294 
z
" transform="scale(0.015625)"/>
      <path id="Arial-BoldMT-76" d="M 1372 0 
L 34 3319 
L 956 3319 
L 1581 1625 
L 1763 1059 
Q 1834 1275 1853 1344 
Q 1897 1484 1947 1625 
L 2578 3319 
L 3481 3319 
L 2163 0 
L 1372 0 
z
" transform="scale(0.015625)"/>
      <path id="Arial-BoldMT-72" d="M 1300 0 
L 422 0 
L 422 3319 
L 1238 3319 
L 1238 2847 
Q 1447 3181 1614 3287 
Q 1781 3394 1994 3394 
Q 2294 3394 2572 3228 
L 2300 2463 
Q 2078 2606 1888 2606 
Q 1703 2606 1575 2504 
Q 1447 2403 1373 2137 
Q 1300 1872 1300 1025 
L 1300 0 
z
" transform="scale(0.015625)"/>
      <path id="Arial-BoldMT-54" d="M 1497 0 
L 1497 3806 
L 138 3806 
L 138 4581 
L 3778 4581 
L 3778 3806 
L 2422 3806 
L 2422 0 
L 1497 0 
z
" transform="scale(0.015625)"/>
      <path id="Arial-BoldMT-69" d="M 459 3769 
L 459 4581 
L 1338 4581 
L 1338 3769 
L 459 3769 
z
M 459 0 
L 459 3319 
L 1338 3319 
L 1338 0 
L 459 0 
z
" transform="scale(0.015625)"/>
      <path id="Arial-BoldMT-6d" d="M 394 3319 
L 1203 3319 
L 1203 2866 
Q 1638 3394 2238 3394 
Q 2556 3394 2790 3262 
Q 3025 3131 3175 2866 
Q 3394 3131 3647 3262 
Q 3900 3394 4188 3394 
Q 4553 3394 4806 3245 
Q 5059 3097 5184 2809 
Q 5275 2597 5275 2122 
L 5275 0 
L 4397 0 
L 4397 1897 
Q 4397 2391 4306 2534 
Q 4184 2722 3931 2722 
Q 3747 2722 3584 2609 
Q 3422 2497 3350 2280 
Q 3278 2063 3278 1594 
L 3278 0 
L 2400 0 
L 2400 1819 
Q 2400 2303 2353 2443 
Q 2306 2584 2207 2653 
Q 2109 2722 1941 2722 
Q 1738 2722 1575 2612 
Q 1413 2503 1342 2297 
Q 1272 2091 1272 1613 
L 1272 0 
L 394 0 
L 394 3319 
z
" transform="scale(0.015625)"/>
      <path id="Arial-BoldMT-2d" d="M 359 1222 
L 359 2100 
L 2084 2100 
L 2084 1222 
L 359 1222 
z
" transform="scale(0.015625)"/>
      <path id="Arial-BoldMT-61" d="M 1116 2306 
L 319 2450 
Q 453 2931 781 3162 
Q 1109 3394 1756 3394 
Q 2344 3394 2631 3255 
Q 2919 3116 3036 2902 
Q 3153 2688 3153 2116 
L 3144 1091 
Q 3144 653 3186 445 
Q 3228 238 3344 0 
L 2475 0 
Q 2441 88 2391 259 
Q 2369 338 2359 363 
Q 2134 144 1878 34 
Q 1622 -75 1331 -75 
Q 819 -75 523 203 
Q 228 481 228 906 
Q 228 1188 362 1408 
Q 497 1628 739 1745 
Q 981 1863 1438 1950 
Q 2053 2066 2291 2166 
L 2291 2253 
Q 2291 2506 2166 2614 
Q 2041 2722 1694 2722 
Q 1459 2722 1328 2630 
Q 1197 2538 1116 2306 
z
M 2291 1594 
Q 2122 1538 1756 1459 
Q 1391 1381 1278 1306 
Q 1106 1184 1106 997 
Q 1106 813 1243 678 
Q 1381 544 1594 544 
Q 1831 544 2047 700 
Q 2206 819 2256 991 
Q 2291 1103 2291 1419 
L 2291 1594 
z
" transform="scale(0.015625)"/>
      <path id="Arial-BoldMT-6c" d="M 459 0 
L 459 4581 
L 1338 4581 
L 1338 0 
L 459 0 
z
" transform="scale(0.015625)"/>
      <path id="Arial-BoldMT-66" d="M 75 3319 
L 563 3319 
L 563 3569 
Q 563 3988 652 4194 
Q 741 4400 980 4529 
Q 1219 4659 1584 4659 
Q 1959 4659 2319 4547 
L 2200 3934 
Q 1991 3984 1797 3984 
Q 1606 3984 1523 3895 
Q 1441 3806 1441 3553 
L 1441 3319 
L 2097 3319 
L 2097 2628 
L 1441 2628 
L 1441 0 
L 563 0 
L 563 2628 
L 75 2628 
L 75 3319 
z
" transform="scale(0.015625)"/>
     </defs>
     <use xlink:href="#Arial-BoldMT-56"/>
     <use xlink:href="#Arial-BoldMT-6f" x="59.324219"/>
     <use xlink:href="#Arial-BoldMT-74" x="120.408203"/>
     <use xlink:href="#Arial-BoldMT-65" x="153.708984"/>
     <use xlink:href="#Arial-BoldMT-20" x="209.324219"/>
     <use xlink:href="#Arial-BoldMT-43" x="237.107422"/>
     <use xlink:href="#Arial-BoldMT-6f" x="309.324219"/>
     <use xlink:href="#Arial-BoldMT-75" x="370.408203"/>
     <use xlink:href="#Arial-BoldMT-6e" x="431.492188"/>
     <use xlink:href="#Arial-BoldMT-74" x="492.576172"/>
     <use xlink:href="#Arial-BoldMT-73" x="525.876953"/>
     <use xlink:href="#Arial-BoldMT-20" x="581.492188"/>
     <use xlink:href="#Arial-BoldMT-4f" x="609.275391"/>
     <use xlink:href="#Arial-BoldMT-76" x="687.058594"/>
     <use xlink:href="#Arial-BoldMT-65" x="742.673828"/>
     <use xlink:href="#Arial-BoldMT-72" x="798.289062"/>
     <use xlink:href="#Arial-BoldMT-20" x="837.205078"/>
     <use xlink:href="#Arial-BoldMT-54" x="864.988281"/>
     <use xlink:href="#Arial-BoldMT-69" x="924.322266"/>
     <use xlink:href="#Arial-BoldMT-6d" x="952.105469"/>
     <use xlink:href="#Arial-BoldMT-65" x="1041.021484"/>
     <use xlink:href="#Arial-BoldMT-20" x="1096.636719"/>
     <use xlink:href="#Arial-BoldMT-2d" x="1124.419922"/>
     <use xlink:href="#Arial-BoldMT-20" x="1157.720703"/>
     <use xlink:href="#Arial-BoldMT-43" x="1185.503906"/>
     <use xlink:href="#Arial-BoldMT-61" x="1257.720703"/>
     <use xlink:href="#Arial-BoldMT-6c" x="1313.335938"/>
     <use xlink:href="#Arial-BoldMT-69" x="1341.119141"/>
     <use xlink:href="#Arial-BoldMT-66" x="1368.902344"/>
     <use xlink:href="#Arial-BoldMT-6f" x="1402.203125"/>
     <use xlink:href="#Arial-BoldMT-72" x="1463.287109"/>
     <use xlink:href="#Arial-BoldMT-6e" x="1502.203125"/>
     <use xlink:href="#Arial-BoldMT-69" x="1563.287109"/>
     <use xlink:href="#Arial-BoldMT-61" x="1591.070312"/>
    </g>
   </g>
   <g id="legend_1">
    <g id="patch_7">
     <path d="M 145.811156 102.456875 
L 241.158031 102.456875 
Q 243.158031 102.456875 243.158031 100.456875 
L 243.158031 59.020937 
Q 243.158031 57.020937 241.158031 57.020937 
L 145.811156 57.020937 
Q 143.811156 57.020937 143.811156 59.020937 
L 143.811156 100.456875 
Q 143.811156 102.456875 145.811156 102.456875 
z
" style="fill: #ffffff; opacity: 0.8; stroke: #cccccc; stroke-linejoin: miter"/>
    </g>
    <g id="line2d_19">
     <path d="M 147.811156 64.67875 
L 157.811156 64.67875 
L 167.811156 64.67875 
" style="fill: none; stroke: #ff0000; stroke-width: 1.5; stroke-linecap: round"/>
    </g>
    <g id="text_24">
     <!-- Donald Trump -->
     <g style="fill: #262626" transform="translate(175.811156 68.17875) scale(0.1 -0.1)">
      <defs>
       <path id="ArialMT-6c" d="M 409 0 
L 409 4581 
L 972 4581 
L 972 0 
L 409 0 
z
" transform="scale(0.015625)"/>
       <path id="ArialMT-64" d="M 2575 0 
L 2575 419 
Q 2259 -75 1647 -75 
Q 1250 -75 917 144 
Q 584 363 401 755 
Q 219 1147 219 1656 
Q 219 2153 384 2558 
Q 550 2963 881 3178 
Q 1213 3394 1622 3394 
Q 1922 3394 2156 3267 
Q 2391 3141 2538 2938 
L 2538 4581 
L 3097 4581 
L 3097 0 
L 2575 0 
z
M 797 1656 
Q 797 1019 1065 703 
Q 1334 388 1700 388 
Q 2069 388 2326 689 
Q 2584 991 2584 1609 
Q 2584 2291 2321 2609 
Q 2059 2928 1675 2928 
Q 1300 2928 1048 2622 
Q 797 2316 797 1656 
z
" transform="scale(0.015625)"/>
      </defs>
      <use xlink:href="#ArialMT-44"/>
      <use xlink:href="#ArialMT-6f" x="72.216797"/>
      <use xlink:href="#ArialMT-6e" x="127.832031"/>
      <use xlink:href="#ArialMT-61" x="183.447266"/>
      <use xlink:href="#ArialMT-6c" x="239.0625"/>
      <use xlink:href="#ArialMT-64" x="261.279297"/>
      <use xlink:href="#ArialMT-20" x="316.894531"/>
      <use xlink:href="#ArialMT-54" x="342.927734"/>
      <use xlink:href="#ArialMT-72" x="400.261719"/>
      <use xlink:href="#ArialMT-75" x="433.5625"/>
      <use xlink:href="#ArialMT-6d" x="489.177734"/>
      <use xlink:href="#ArialMT-70" x="572.478516"/>
     </g>
    </g>
    <g id="line2d_20">
     <path d="M 147.811156 78.824062 
L 157.811156 78.824062 
L 167.811156 78.824062 
" style="fill: none; stroke: #0000ff; stroke-width: 1.5; stroke-linecap: round"/>
    </g>
    <g id="text_25">
     <!-- Kamala Harris -->
     <g style="fill: #262626" transform="translate(175.811156 82.324062) scale(0.1 -0.1)">
      <defs>
       <path id="ArialMT-4b" d="M 469 0 
L 469 4581 
L 1075 4581 
L 1075 2309 
L 3350 4581 
L 4172 4581 
L 2250 2725 
L 4256 0 
L 3456 0 
L 1825 2319 
L 1075 1588 
L 1075 0 
L 469 0 
z
" transform="scale(0.015625)"/>
       <path id="ArialMT-48" d="M 513 0 
L 513 4581 
L 1119 4581 
L 1119 2700 
L 3500 2700 
L 3500 4581 
L 4106 4581 
L 4106 0 
L 3500 0 
L 3500 2159 
L 1119 2159 
L 1119 0 
L 513 0 
z
" transform="scale(0.015625)"/>
      </defs>
      <use xlink:href="#ArialMT-4b"/>
      <use xlink:href="#ArialMT-61" x="66.699219"/>
      <use xlink:href="#ArialMT-6d" x="122.314453"/>
      <use xlink:href="#ArialMT-61" x="205.615234"/>
      <use xlink:href="#ArialMT-6c" x="261.230469"/>
      <use xlink:href="#ArialMT-61" x="283.447266"/>
      <use xlink:href="#ArialMT-20" x="339.0625"/>
      <use xlink:href="#ArialMT-48" x="366.845703"/>
      <use xlink:href="#ArialMT-61" x="439.0625"/>
      <use xlink:href="#ArialMT-72" x="494.677734"/>
      <use xlink:href="#ArialMT-72" x="527.978516"/>
      <use xlink:href="#ArialMT-69" x="561.279297"/>
      <use xlink:href="#ArialMT-73" x="583.496094"/>
     </g>
    </g>
    <g id="line2d_21">
     <path d="M 147.811156 92.969375 
L 157.811156 92.969375 
L 167.811156 92.969375 
" style="fill: none; stroke-dasharray: 5.55,2.4; stroke-dashoffset: 0; stroke: #808080; stroke-width: 1.5"/>
    </g>
    <g id="text_26">
     <!-- Other -->
     <g style="fill: #262626" transform="translate(175.811156 96.469375) scale(0.1 -0.1)">
      <defs>
       <path id="ArialMT-4f" d="M 309 2231 
Q 309 3372 921 4017 
Q 1534 4663 2503 4663 
Q 3138 4663 3647 4359 
Q 4156 4056 4423 3514 
Q 4691 2972 4691 2284 
Q 4691 1588 4409 1038 
Q 4128 488 3612 205 
Q 3097 -78 2500 -78 
Q 1853 -78 1343 234 
Q 834 547 571 1087 
Q 309 1628 309 2231 
z
M 934 2222 
Q 934 1394 1379 917 
Q 1825 441 2497 441 
Q 3181 441 3623 922 
Q 4066 1403 4066 2288 
Q 4066 2847 3877 3264 
Q 3688 3681 3323 3911 
Q 2959 4141 2506 4141 
Q 1863 4141 1398 3698 
Q 934 3256 934 2222 
z
" transform="scale(0.015625)"/>
       <path id="ArialMT-68" d="M 422 0 
L 422 4581 
L 984 4581 
L 984 2938 
Q 1378 3394 1978 3394 
Q 2347 3394 2619 3248 
Q 2891 3103 3008 2847 
Q 3125 2591 3125 2103 
L 3125 0 
L 2563 0 
L 2563 2103 
Q 2563 2525 2380 2717 
Q 2197 2909 1863 2909 
Q 1613 2909 1392 2779 
Q 1172 2650 1078 2428 
Q 984 2206 984 1816 
L 984 0 
L 422 0 
z
" transform="scale(0.015625)"/>
      </defs>
      <use xlink:href="#ArialMT-4f"/>
      <use xlink:href="#ArialMT-74" x="77.783203"/>
      <use xlink:href="#ArialMT-68" x="105.566406"/>
      <use xlink:href="#ArialMT-65" x="161.181641"/>
      <use xlink:href="#ArialMT-72" x="216.796875"/>
     </g>
    </g>
   </g>
  </g>
 </g>
 <defs>
  <clipPath id="p5070737033">
   <rect x="138.811156" y="52.020937" width="602.371617" height="461.496502"/>
  </clipPath>
 </defs>
</svg>
