<?xml version="1.0" encoding="utf-8" standalone="no"?>
<!DOCTYPE svg PUBLIC "-//W3C//DTD SVG 1.1//EN"
  "http://www.w3.org/Graphics/SVG/1.1/DTD/svg11.dtd">
<svg xmlns:xlink="http://www.w3.org/1999/xlink" width="921.208pt" height="648.404756pt" viewBox="0 0 921.208 648.404756" xmlns="http://www.w3.org/2000/svg" version="1.1">
 <metadata>
  <rdf:RDF xmlns:dc="http://purl.org/dc/elements/1.1/" xmlns:cc="http://creativecommons.org/ns#" xmlns:rdf="http://www.w3.org/1999/02/22-rdf-syntax-ns#">
   <cc:Work>
    <dc:type rdf:resource="http://purl.org/dc/dcmitype/StillImage"/>
    <dc:date>2024-11-06T16:15:02.189769</dc:date>
    <dc:format>image/svg+xml</dc:format>
    <dc:creator>
     <cc:Agent>
      <dc:title>Matplotlib v3.8.0, https://matplotlib.org/</dc:title>
     </cc:Agent>
    </dc:creator>
   </cc:Work>
  </rdf:RDF>
 </metadata>
 <defs>
  <style type="text/css">*{stroke-linejoin: round; stroke-linecap: butt}</style>
 </defs>
 <g id="figure_1">
  <g id="patch_1">
   <path d="M 0 648.404756 
L 921.208 648.404756 
L 921.208 0 
L 0 0 
z
" style="fill: #ffffff"/>
  </g>
  <g id="axes_1">
   <g id="patch_2">
    <path d="M 91.34 523.116401 
L 769.75 523.116401 
L 769.75 52.020937 
L 91.34 52.020937 
z
" style="fill: #ffffff"/>
   </g>
   <g id="matplotlib.axis_1">
    <g id="xtick_1">
     <g id="line2d_1">
      <path d="M 161.534745 523.116401 
L 161.534745 52.020937 
" clip-path="url(#pa80e91f27e)" style="fill: none; stroke: #b0b0b0; stroke-opacity: 0.7; stroke-width: 0.8; stroke-linecap: square"/>
     </g>
     <g id="line2d_2">
      <defs>
       <path id="m2bc7fa0cf7" d="M 0 0 
L 0 3.5 
" style="stroke: #000000; stroke-width: 0.8"/>
      </defs>
      <g>
       <use xlink:href="#m2bc7fa0cf7" x="161.534745" y="523.116401" style="stroke: #000000; stroke-width: 0.8"/>
      </g>
     </g>
     <g id="text_1">
      <!-- 2024-11-05 01:00 AM EST -->
      <g transform="translate(58.640927 595.14728) rotate(-30) scale(0.1 -0.1)">
       <defs>
        <path id="ArialMT-32" d="M 3222 541 
L 3222 0 
L 194 0 
Q 188 203 259 391 
Q 375 700 629 1000 
Q 884 1300 1366 1694 
Q 2113 2306 2375 2664 
Q 2638 3022 2638 3341 
Q 2638 3675 2398 3904 
Q 2159 4134 1775 4134 
Q 1369 4134 1125 3890 
Q 881 3647 878 3216 
L 300 3275 
Q 359 3922 746 4261 
Q 1134 4600 1788 4600 
Q 2447 4600 2831 4234 
Q 3216 3869 3216 3328 
Q 3216 3053 3103 2787 
Q 2991 2522 2730 2228 
Q 2469 1934 1863 1422 
Q 1356 997 1212 845 
Q 1069 694 975 541 
L 3222 541 
z
" transform="scale(0.015625)"/>
        <path id="ArialMT-30" d="M 266 2259 
Q 266 3072 433 3567 
Q 600 4063 929 4331 
Q 1259 4600 1759 4600 
Q 2128 4600 2406 4451 
Q 2684 4303 2865 4023 
Q 3047 3744 3150 3342 
Q 3253 2941 3253 2259 
Q 3253 1453 3087 958 
Q 2922 463 2592 192 
Q 2263 -78 1759 -78 
Q 1097 -78 719 397 
Q 266 969 266 2259 
z
M 844 2259 
Q 844 1131 1108 757 
Q 1372 384 1759 384 
Q 2147 384 2411 759 
Q 2675 1134 2675 2259 
Q 2675 3391 2411 3762 
Q 2147 4134 1753 4134 
Q 1366 4134 1134 3806 
Q 844 3388 844 2259 
z
" transform="scale(0.015625)"/>
        <path id="ArialMT-34" d="M 2069 0 
L 2069 1097 
L 81 1097 
L 81 1613 
L 2172 4581 
L 2631 4581 
L 2631 1613 
L 3250 1613 
L 3250 1097 
L 2631 1097 
L 2631 0 
L 2069 0 
z
M 2069 1613 
L 2069 3678 
L 634 1613 
L 2069 1613 
z
" transform="scale(0.015625)"/>
        <path id="ArialMT-2d" d="M 203 1375 
L 203 1941 
L 1931 1941 
L 1931 1375 
L 203 1375 
z
" transform="scale(0.015625)"/>
        <path id="ArialMT-31" d="M 2384 0 
L 1822 0 
L 1822 3584 
Q 1619 3391 1289 3197 
Q 959 3003 697 2906 
L 697 3450 
Q 1169 3672 1522 3987 
Q 1875 4303 2022 4600 
L 2384 4600 
L 2384 0 
z
" transform="scale(0.015625)"/>
        <path id="ArialMT-35" d="M 266 1200 
L 856 1250 
Q 922 819 1161 601 
Q 1400 384 1738 384 
Q 2144 384 2425 690 
Q 2706 997 2706 1503 
Q 2706 1984 2436 2262 
Q 2166 2541 1728 2541 
Q 1456 2541 1237 2417 
Q 1019 2294 894 2097 
L 366 2166 
L 809 4519 
L 3088 4519 
L 3088 3981 
L 1259 3981 
L 1013 2750 
Q 1425 3038 1878 3038 
Q 2478 3038 2890 2622 
Q 3303 2206 3303 1553 
Q 3303 931 2941 478 
Q 2500 -78 1738 -78 
Q 1113 -78 717 272 
Q 322 622 266 1200 
z
" transform="scale(0.015625)"/>
        <path id="ArialMT-20" transform="scale(0.015625)"/>
        <path id="ArialMT-3a" d="M 578 2678 
L 578 3319 
L 1219 3319 
L 1219 2678 
L 578 2678 
z
M 578 0 
L 578 641 
L 1219 641 
L 1219 0 
L 578 0 
z
" transform="scale(0.015625)"/>
        <path id="ArialMT-41" d="M -9 0 
L 1750 4581 
L 2403 4581 
L 4278 0 
L 3588 0 
L 3053 1388 
L 1138 1388 
L 634 0 
L -9 0 
z
M 1313 1881 
L 2866 1881 
L 2388 3150 
Q 2169 3728 2063 4100 
Q 1975 3659 1816 3225 
L 1313 1881 
z
" transform="scale(0.015625)"/>
        <path id="ArialMT-4d" d="M 475 0 
L 475 4581 
L 1388 4581 
L 2472 1338 
Q 2622 884 2691 659 
Q 2769 909 2934 1394 
L 4031 4581 
L 4847 4581 
L 4847 0 
L 4263 0 
L 4263 3834 
L 2931 0 
L 2384 0 
L 1059 3900 
L 1059 0 
L 475 0 
z
" transform="scale(0.015625)"/>
        <path id="ArialMT-45" d="M 506 0 
L 506 4581 
L 3819 4581 
L 3819 4041 
L 1113 4041 
L 1113 2638 
L 3647 2638 
L 3647 2100 
L 1113 2100 
L 1113 541 
L 3925 541 
L 3925 0 
L 506 0 
z
" transform="scale(0.015625)"/>
        <path id="ArialMT-53" d="M 288 1472 
L 859 1522 
Q 900 1178 1048 958 
Q 1197 738 1509 602 
Q 1822 466 2213 466 
Q 2559 466 2825 569 
Q 3091 672 3220 851 
Q 3350 1031 3350 1244 
Q 3350 1459 3225 1620 
Q 3100 1781 2813 1891 
Q 2628 1963 1997 2114 
Q 1366 2266 1113 2400 
Q 784 2572 623 2826 
Q 463 3081 463 3397 
Q 463 3744 659 4045 
Q 856 4347 1234 4503 
Q 1613 4659 2075 4659 
Q 2584 4659 2973 4495 
Q 3363 4331 3572 4012 
Q 3781 3694 3797 3291 
L 3216 3247 
Q 3169 3681 2898 3903 
Q 2628 4125 2100 4125 
Q 1550 4125 1298 3923 
Q 1047 3722 1047 3438 
Q 1047 3191 1225 3031 
Q 1400 2872 2139 2705 
Q 2878 2538 3153 2413 
Q 3553 2228 3743 1945 
Q 3934 1663 3934 1294 
Q 3934 928 3725 604 
Q 3516 281 3123 101 
Q 2731 -78 2241 -78 
Q 1619 -78 1198 103 
Q 778 284 539 648 
Q 300 1013 288 1472 
z
" transform="scale(0.015625)"/>
        <path id="ArialMT-54" d="M 1659 0 
L 1659 4041 
L 150 4041 
L 150 4581 
L 3781 4581 
L 3781 4041 
L 2266 4041 
L 2266 0 
L 1659 0 
z
" transform="scale(0.015625)"/>
       </defs>
       <use xlink:href="#ArialMT-32"/>
       <use xlink:href="#ArialMT-30" x="55.615234"/>
       <use xlink:href="#ArialMT-32" x="111.230469"/>
       <use xlink:href="#ArialMT-34" x="166.845703"/>
       <use xlink:href="#ArialMT-2d" x="222.460938"/>
       <use xlink:href="#ArialMT-31" x="255.761719"/>
       <use xlink:href="#ArialMT-31" x="304.001953"/>
       <use xlink:href="#ArialMT-2d" x="359.617188"/>
       <use xlink:href="#ArialMT-30" x="392.917969"/>
       <use xlink:href="#ArialMT-35" x="448.533203"/>
       <use xlink:href="#ArialMT-20" x="504.148438"/>
       <use xlink:href="#ArialMT-30" x="531.931641"/>
       <use xlink:href="#ArialMT-31" x="587.546875"/>
       <use xlink:href="#ArialMT-3a" x="643.162109"/>
       <use xlink:href="#ArialMT-30" x="670.945312"/>
       <use xlink:href="#ArialMT-30" x="726.560547"/>
       <use xlink:href="#ArialMT-20" x="782.175781"/>
       <use xlink:href="#ArialMT-41" x="804.458984"/>
       <use xlink:href="#ArialMT-4d" x="871.158203"/>
       <use xlink:href="#ArialMT-20" x="954.458984"/>
       <use xlink:href="#ArialMT-45" x="982.242188"/>
       <use xlink:href="#ArialMT-53" x="1048.941406"/>
       <use xlink:href="#ArialMT-54" x="1115.640625"/>
      </g>
     </g>
    </g>
    <g id="xtick_2">
     <g id="line2d_3">
      <path d="M 247.90996 523.116401 
L 247.90996 52.020937 
" clip-path="url(#pa80e91f27e)" style="fill: none; stroke: #b0b0b0; stroke-opacity: 0.7; stroke-width: 0.8; stroke-linecap: square"/>
     </g>
     <g id="line2d_4">
      <g>
       <use xlink:href="#m2bc7fa0cf7" x="247.90996" y="523.116401" style="stroke: #000000; stroke-width: 0.8"/>
      </g>
     </g>
     <g id="text_2">
      <!-- 2024-11-05 07:00 AM EST -->
      <g transform="translate(145.016143 595.14728) rotate(-30) scale(0.1 -0.1)">
       <defs>
        <path id="ArialMT-37" d="M 303 3981 
L 303 4522 
L 3269 4522 
L 3269 4084 
Q 2831 3619 2401 2847 
Q 1972 2075 1738 1259 
Q 1569 684 1522 0 
L 944 0 
Q 953 541 1156 1306 
Q 1359 2072 1739 2783 
Q 2119 3494 2547 3981 
L 303 3981 
z
" transform="scale(0.015625)"/>
       </defs>
       <use xlink:href="#ArialMT-32"/>
       <use xlink:href="#ArialMT-30" x="55.615234"/>
       <use xlink:href="#ArialMT-32" x="111.230469"/>
       <use xlink:href="#ArialMT-34" x="166.845703"/>
       <use xlink:href="#ArialMT-2d" x="222.460938"/>
       <use xlink:href="#ArialMT-31" x="255.761719"/>
       <use xlink:href="#ArialMT-31" x="304.001953"/>
       <use xlink:href="#ArialMT-2d" x="359.617188"/>
       <use xlink:href="#ArialMT-30" x="392.917969"/>
       <use xlink:href="#ArialMT-35" x="448.533203"/>
       <use xlink:href="#ArialMT-20" x="504.148438"/>
       <use xlink:href="#ArialMT-30" x="531.931641"/>
       <use xlink:href="#ArialMT-37" x="587.546875"/>
       <use xlink:href="#ArialMT-3a" x="643.162109"/>
       <use xlink:href="#ArialMT-30" x="670.945312"/>
       <use xlink:href="#ArialMT-30" x="726.560547"/>
       <use xlink:href="#ArialMT-20" x="782.175781"/>
       <use xlink:href="#ArialMT-41" x="804.458984"/>
       <use xlink:href="#ArialMT-4d" x="871.158203"/>
       <use xlink:href="#ArialMT-20" x="954.458984"/>
       <use xlink:href="#ArialMT-45" x="982.242188"/>
       <use xlink:href="#ArialMT-53" x="1048.941406"/>
       <use xlink:href="#ArialMT-54" x="1115.640625"/>
      </g>
     </g>
    </g>
    <g id="xtick_3">
     <g id="line2d_5">
      <path d="M 334.285175 523.116401 
L 334.285175 52.020937 
" clip-path="url(#pa80e91f27e)" style="fill: none; stroke: #b0b0b0; stroke-opacity: 0.7; stroke-width: 0.8; stroke-linecap: square"/>
     </g>
     <g id="line2d_6">
      <g>
       <use xlink:href="#m2bc7fa0cf7" x="334.285175" y="523.116401" style="stroke: #000000; stroke-width: 0.8"/>
      </g>
     </g>
     <g id="text_3">
      <!-- 2024-11-05 01:00 PM EST -->
      <g transform="translate(230.915044 595.42228) rotate(-30) scale(0.1 -0.1)">
       <defs>
        <path id="ArialMT-50" d="M 494 0 
L 494 4581 
L 2222 4581 
Q 2678 4581 2919 4538 
Q 3256 4481 3484 4323 
Q 3713 4166 3852 3881 
Q 3991 3597 3991 3256 
Q 3991 2672 3619 2267 
Q 3247 1863 2275 1863 
L 1100 1863 
L 1100 0 
L 494 0 
z
M 1100 2403 
L 2284 2403 
Q 2872 2403 3119 2622 
Q 3366 2841 3366 3238 
Q 3366 3525 3220 3729 
Q 3075 3934 2838 4000 
Q 2684 4041 2272 4041 
L 1100 4041 
L 1100 2403 
z
" transform="scale(0.015625)"/>
       </defs>
       <use xlink:href="#ArialMT-32"/>
       <use xlink:href="#ArialMT-30" x="55.615234"/>
       <use xlink:href="#ArialMT-32" x="111.230469"/>
       <use xlink:href="#ArialMT-34" x="166.845703"/>
       <use xlink:href="#ArialMT-2d" x="222.460938"/>
       <use xlink:href="#ArialMT-31" x="255.761719"/>
       <use xlink:href="#ArialMT-31" x="304.001953"/>
       <use xlink:href="#ArialMT-2d" x="359.617188"/>
       <use xlink:href="#ArialMT-30" x="392.917969"/>
       <use xlink:href="#ArialMT-35" x="448.533203"/>
       <use xlink:href="#ArialMT-20" x="504.148438"/>
       <use xlink:href="#ArialMT-30" x="531.931641"/>
       <use xlink:href="#ArialMT-31" x="587.546875"/>
       <use xlink:href="#ArialMT-3a" x="643.162109"/>
       <use xlink:href="#ArialMT-30" x="670.945312"/>
       <use xlink:href="#ArialMT-30" x="726.560547"/>
       <use xlink:href="#ArialMT-20" x="782.175781"/>
       <use xlink:href="#ArialMT-50" x="809.958984"/>
       <use xlink:href="#ArialMT-4d" x="876.658203"/>
       <use xlink:href="#ArialMT-20" x="959.958984"/>
       <use xlink:href="#ArialMT-45" x="987.742188"/>
       <use xlink:href="#ArialMT-53" x="1054.441406"/>
       <use xlink:href="#ArialMT-54" x="1121.140625"/>
      </g>
     </g>
    </g>
    <g id="xtick_4">
     <g id="line2d_7">
      <path d="M 420.66039 523.116401 
L 420.66039 52.020937 
" clip-path="url(#pa80e91f27e)" style="fill: none; stroke: #b0b0b0; stroke-opacity: 0.7; stroke-width: 0.8; stroke-linecap: square"/>
     </g>
     <g id="line2d_8">
      <g>
       <use xlink:href="#m2bc7fa0cf7" x="420.66039" y="523.116401" style="stroke: #000000; stroke-width: 0.8"/>
      </g>
     </g>
     <g id="text_4">
      <!-- 2024-11-05 07:00 PM EST -->
      <g transform="translate(317.290259 595.42228) rotate(-30) scale(0.1 -0.1)">
       <use xlink:href="#ArialMT-32"/>
       <use xlink:href="#ArialMT-30" x="55.615234"/>
       <use xlink:href="#ArialMT-32" x="111.230469"/>
       <use xlink:href="#ArialMT-34" x="166.845703"/>
       <use xlink:href="#ArialMT-2d" x="222.460938"/>
       <use xlink:href="#ArialMT-31" x="255.761719"/>
       <use xlink:href="#ArialMT-31" x="304.001953"/>
       <use xlink:href="#ArialMT-2d" x="359.617188"/>
       <use xlink:href="#ArialMT-30" x="392.917969"/>
       <use xlink:href="#ArialMT-35" x="448.533203"/>
       <use xlink:href="#ArialMT-20" x="504.148438"/>
       <use xlink:href="#ArialMT-30" x="531.931641"/>
       <use xlink:href="#ArialMT-37" x="587.546875"/>
       <use xlink:href="#ArialMT-3a" x="643.162109"/>
       <use xlink:href="#ArialMT-30" x="670.945312"/>
       <use xlink:href="#ArialMT-30" x="726.560547"/>
       <use xlink:href="#ArialMT-20" x="782.175781"/>
       <use xlink:href="#ArialMT-50" x="809.958984"/>
       <use xlink:href="#ArialMT-4d" x="876.658203"/>
       <use xlink:href="#ArialMT-20" x="959.958984"/>
       <use xlink:href="#ArialMT-45" x="987.742188"/>
       <use xlink:href="#ArialMT-53" x="1054.441406"/>
       <use xlink:href="#ArialMT-54" x="1121.140625"/>
      </g>
     </g>
    </g>
    <g id="xtick_5">
     <g id="line2d_9">
      <path d="M 507.035606 523.116401 
L 507.035606 52.020937 
" clip-path="url(#pa80e91f27e)" style="fill: none; stroke: #b0b0b0; stroke-opacity: 0.7; stroke-width: 0.8; stroke-linecap: square"/>
     </g>
     <g id="line2d_10">
      <g>
       <use xlink:href="#m2bc7fa0cf7" x="507.035606" y="523.116401" style="stroke: #000000; stroke-width: 0.8"/>
      </g>
     </g>
     <g id="text_5">
      <!-- 2024-11-06 01:00 AM EST -->
      <g transform="translate(404.141788 595.14728) rotate(-30) scale(0.1 -0.1)">
       <defs>
        <path id="ArialMT-36" d="M 3184 3459 
L 2625 3416 
Q 2550 3747 2413 3897 
Q 2184 4138 1850 4138 
Q 1581 4138 1378 3988 
Q 1113 3794 959 3422 
Q 806 3050 800 2363 
Q 1003 2672 1297 2822 
Q 1591 2972 1913 2972 
Q 2475 2972 2870 2558 
Q 3266 2144 3266 1488 
Q 3266 1056 3080 686 
Q 2894 316 2569 119 
Q 2244 -78 1831 -78 
Q 1128 -78 684 439 
Q 241 956 241 2144 
Q 241 3472 731 4075 
Q 1159 4600 1884 4600 
Q 2425 4600 2770 4297 
Q 3116 3994 3184 3459 
z
M 888 1484 
Q 888 1194 1011 928 
Q 1134 663 1356 523 
Q 1578 384 1822 384 
Q 2178 384 2434 671 
Q 2691 959 2691 1453 
Q 2691 1928 2437 2201 
Q 2184 2475 1800 2475 
Q 1419 2475 1153 2201 
Q 888 1928 888 1484 
z
" transform="scale(0.015625)"/>
       </defs>
       <use xlink:href="#ArialMT-32"/>
       <use xlink:href="#ArialMT-30" x="55.615234"/>
       <use xlink:href="#ArialMT-32" x="111.230469"/>
       <use xlink:href="#ArialMT-34" x="166.845703"/>
       <use xlink:href="#ArialMT-2d" x="222.460938"/>
       <use xlink:href="#ArialMT-31" x="255.761719"/>
       <use xlink:href="#ArialMT-31" x="304.001953"/>
       <use xlink:href="#ArialMT-2d" x="359.617188"/>
       <use xlink:href="#ArialMT-30" x="392.917969"/>
       <use xlink:href="#ArialMT-36" x="448.533203"/>
       <use xlink:href="#ArialMT-20" x="504.148438"/>
       <use xlink:href="#ArialMT-30" x="531.931641"/>
       <use xlink:href="#ArialMT-31" x="587.546875"/>
       <use xlink:href="#ArialMT-3a" x="643.162109"/>
       <use xlink:href="#ArialMT-30" x="670.945312"/>
       <use xlink:href="#ArialMT-30" x="726.560547"/>
       <use xlink:href="#ArialMT-20" x="782.175781"/>
       <use xlink:href="#ArialMT-41" x="804.458984"/>
       <use xlink:href="#ArialMT-4d" x="871.158203"/>
       <use xlink:href="#ArialMT-20" x="954.458984"/>
       <use xlink:href="#ArialMT-45" x="982.242188"/>
       <use xlink:href="#ArialMT-53" x="1048.941406"/>
       <use xlink:href="#ArialMT-54" x="1115.640625"/>
      </g>
     </g>
    </g>
    <g id="xtick_6">
     <g id="line2d_11">
      <path d="M 593.410821 523.116401 
L 593.410821 52.020937 
" clip-path="url(#pa80e91f27e)" style="fill: none; stroke: #b0b0b0; stroke-opacity: 0.7; stroke-width: 0.8; stroke-linecap: square"/>
     </g>
     <g id="line2d_12">
      <g>
       <use xlink:href="#m2bc7fa0cf7" x="593.410821" y="523.116401" style="stroke: #000000; stroke-width: 0.8"/>
      </g>
     </g>
     <g id="text_6">
      <!-- 2024-11-06 07:00 AM EST -->
      <g transform="translate(490.517004 595.14728) rotate(-30) scale(0.1 -0.1)">
       <use xlink:href="#ArialMT-32"/>
       <use xlink:href="#ArialMT-30" x="55.615234"/>
       <use xlink:href="#ArialMT-32" x="111.230469"/>
       <use xlink:href="#ArialMT-34" x="166.845703"/>
       <use xlink:href="#ArialMT-2d" x="222.460938"/>
       <use xlink:href="#ArialMT-31" x="255.761719"/>
       <use xlink:href="#ArialMT-31" x="304.001953"/>
       <use xlink:href="#ArialMT-2d" x="359.617188"/>
       <use xlink:href="#ArialMT-30" x="392.917969"/>
       <use xlink:href="#ArialMT-36" x="448.533203"/>
       <use xlink:href="#ArialMT-20" x="504.148438"/>
       <use xlink:href="#ArialMT-30" x="531.931641"/>
       <use xlink:href="#ArialMT-37" x="587.546875"/>
       <use xlink:href="#ArialMT-3a" x="643.162109"/>
       <use xlink:href="#ArialMT-30" x="670.945312"/>
       <use xlink:href="#ArialMT-30" x="726.560547"/>
       <use xlink:href="#ArialMT-20" x="782.175781"/>
       <use xlink:href="#ArialMT-41" x="804.458984"/>
       <use xlink:href="#ArialMT-4d" x="871.158203"/>
       <use xlink:href="#ArialMT-20" x="954.458984"/>
       <use xlink:href="#ArialMT-45" x="982.242188"/>
       <use xlink:href="#ArialMT-53" x="1048.941406"/>
       <use xlink:href="#ArialMT-54" x="1115.640625"/>
      </g>
     </g>
    </g>
    <g id="xtick_7">
     <g id="line2d_13">
      <path d="M 679.786036 523.116401 
L 679.786036 52.020937 
" clip-path="url(#pa80e91f27e)" style="fill: none; stroke: #b0b0b0; stroke-opacity: 0.7; stroke-width: 0.8; stroke-linecap: square"/>
     </g>
     <g id="line2d_14">
      <g>
       <use xlink:href="#m2bc7fa0cf7" x="679.786036" y="523.116401" style="stroke: #000000; stroke-width: 0.8"/>
      </g>
     </g>
     <g id="text_7">
      <!-- 2024-11-06 01:00 PM EST -->
      <g transform="translate(576.415905 595.42228) rotate(-30) scale(0.1 -0.1)">
       <use xlink:href="#ArialMT-32"/>
       <use xlink:href="#ArialMT-30" x="55.615234"/>
       <use xlink:href="#ArialMT-32" x="111.230469"/>
       <use xlink:href="#ArialMT-34" x="166.845703"/>
       <use xlink:href="#ArialMT-2d" x="222.460938"/>
       <use xlink:href="#ArialMT-31" x="255.761719"/>
       <use xlink:href="#ArialMT-31" x="304.001953"/>
       <use xlink:href="#ArialMT-2d" x="359.617188"/>
       <use xlink:href="#ArialMT-30" x="392.917969"/>
       <use xlink:href="#ArialMT-36" x="448.533203"/>
       <use xlink:href="#ArialMT-20" x="504.148438"/>
       <use xlink:href="#ArialMT-30" x="531.931641"/>
       <use xlink:href="#ArialMT-31" x="587.546875"/>
       <use xlink:href="#ArialMT-3a" x="643.162109"/>
       <use xlink:href="#ArialMT-30" x="670.945312"/>
       <use xlink:href="#ArialMT-30" x="726.560547"/>
       <use xlink:href="#ArialMT-20" x="782.175781"/>
       <use xlink:href="#ArialMT-50" x="809.958984"/>
       <use xlink:href="#ArialMT-4d" x="876.658203"/>
       <use xlink:href="#ArialMT-20" x="959.958984"/>
       <use xlink:href="#ArialMT-45" x="987.742188"/>
       <use xlink:href="#ArialMT-53" x="1054.441406"/>
       <use xlink:href="#ArialMT-54" x="1121.140625"/>
      </g>
     </g>
    </g>
    <g id="xtick_8">
     <g id="line2d_15">
      <path d="M 766.161251 523.116401 
L 766.161251 52.020937 
" clip-path="url(#pa80e91f27e)" style="fill: none; stroke: #b0b0b0; stroke-opacity: 0.7; stroke-width: 0.8; stroke-linecap: square"/>
     </g>
     <g id="line2d_16">
      <g>
       <use xlink:href="#m2bc7fa0cf7" x="766.161251" y="523.116401" style="stroke: #000000; stroke-width: 0.8"/>
      </g>
     </g>
     <g id="text_8">
      <!-- 2024-11-06 07:00 PM EST -->
      <g transform="translate(662.79112 595.42228) rotate(-30) scale(0.1 -0.1)">
       <use xlink:href="#ArialMT-32"/>
       <use xlink:href="#ArialMT-30" x="55.615234"/>
       <use xlink:href="#ArialMT-32" x="111.230469"/>
       <use xlink:href="#ArialMT-34" x="166.845703"/>
       <use xlink:href="#ArialMT-2d" x="222.460938"/>
       <use xlink:href="#ArialMT-31" x="255.761719"/>
       <use xlink:href="#ArialMT-31" x="304.001953"/>
       <use xlink:href="#ArialMT-2d" x="359.617188"/>
       <use xlink:href="#ArialMT-30" x="392.917969"/>
       <use xlink:href="#ArialMT-36" x="448.533203"/>
       <use xlink:href="#ArialMT-20" x="504.148438"/>
       <use xlink:href="#ArialMT-30" x="531.931641"/>
       <use xlink:href="#ArialMT-37" x="587.546875"/>
       <use xlink:href="#ArialMT-3a" x="643.162109"/>
       <use xlink:href="#ArialMT-30" x="670.945312"/>
       <use xlink:href="#ArialMT-30" x="726.560547"/>
       <use xlink:href="#ArialMT-20" x="782.175781"/>
       <use xlink:href="#ArialMT-50" x="809.958984"/>
       <use xlink:href="#ArialMT-4d" x="876.658203"/>
       <use xlink:href="#ArialMT-20" x="959.958984"/>
       <use xlink:href="#ArialMT-45" x="987.742188"/>
       <use xlink:href="#ArialMT-53" x="1054.441406"/>
       <use xlink:href="#ArialMT-54" x="1121.140625"/>
      </g>
     </g>
    </g>
    <g id="text_9">
     <!-- Timestamp (EST) -->
     <g transform="translate(383.768438 609.879131) scale(0.12 -0.12)">
      <defs>
       <path id="ArialMT-69" d="M 425 3934 
L 425 4581 
L 988 4581 
L 988 3934 
L 425 3934 
z
M 425 0 
L 425 3319 
L 988 3319 
L 988 0 
L 425 0 
z
" transform="scale(0.015625)"/>
       <path id="ArialMT-6d" d="M 422 0 
L 422 3319 
L 925 3319 
L 925 2853 
Q 1081 3097 1340 3245 
Q 1600 3394 1931 3394 
Q 2300 3394 2536 3241 
Q 2772 3088 2869 2813 
Q 3263 3394 3894 3394 
Q 4388 3394 4653 3120 
Q 4919 2847 4919 2278 
L 4919 0 
L 4359 0 
L 4359 2091 
Q 4359 2428 4304 2576 
Q 4250 2725 4106 2815 
Q 3963 2906 3769 2906 
Q 3419 2906 3187 2673 
Q 2956 2441 2956 1928 
L 2956 0 
L 2394 0 
L 2394 2156 
Q 2394 2531 2256 2718 
Q 2119 2906 1806 2906 
Q 1569 2906 1367 2781 
Q 1166 2656 1075 2415 
Q 984 2175 984 1722 
L 984 0 
L 422 0 
z
" transform="scale(0.015625)"/>
       <path id="ArialMT-65" d="M 2694 1069 
L 3275 997 
Q 3138 488 2766 206 
Q 2394 -75 1816 -75 
Q 1088 -75 661 373 
Q 234 822 234 1631 
Q 234 2469 665 2931 
Q 1097 3394 1784 3394 
Q 2450 3394 2872 2941 
Q 3294 2488 3294 1666 
Q 3294 1616 3291 1516 
L 816 1516 
Q 847 969 1125 678 
Q 1403 388 1819 388 
Q 2128 388 2347 550 
Q 2566 713 2694 1069 
z
M 847 1978 
L 2700 1978 
Q 2663 2397 2488 2606 
Q 2219 2931 1791 2931 
Q 1403 2931 1139 2672 
Q 875 2413 847 1978 
z
" transform="scale(0.015625)"/>
       <path id="ArialMT-73" d="M 197 991 
L 753 1078 
Q 800 744 1014 566 
Q 1228 388 1613 388 
Q 2000 388 2187 545 
Q 2375 703 2375 916 
Q 2375 1106 2209 1216 
Q 2094 1291 1634 1406 
Q 1016 1563 777 1677 
Q 538 1791 414 1992 
Q 291 2194 291 2438 
Q 291 2659 392 2848 
Q 494 3038 669 3163 
Q 800 3259 1026 3326 
Q 1253 3394 1513 3394 
Q 1903 3394 2198 3281 
Q 2494 3169 2634 2976 
Q 2775 2784 2828 2463 
L 2278 2388 
Q 2241 2644 2061 2787 
Q 1881 2931 1553 2931 
Q 1166 2931 1000 2803 
Q 834 2675 834 2503 
Q 834 2394 903 2306 
Q 972 2216 1119 2156 
Q 1203 2125 1616 2013 
Q 2213 1853 2448 1751 
Q 2684 1650 2818 1456 
Q 2953 1263 2953 975 
Q 2953 694 2789 445 
Q 2625 197 2315 61 
Q 2006 -75 1616 -75 
Q 969 -75 630 194 
Q 291 463 197 991 
z
" transform="scale(0.015625)"/>
       <path id="ArialMT-74" d="M 1650 503 
L 1731 6 
Q 1494 -44 1306 -44 
Q 1000 -44 831 53 
Q 663 150 594 308 
Q 525 466 525 972 
L 525 2881 
L 113 2881 
L 113 3319 
L 525 3319 
L 525 4141 
L 1084 4478 
L 1084 3319 
L 1650 3319 
L 1650 2881 
L 1084 2881 
L 1084 941 
Q 1084 700 1114 631 
Q 1144 563 1211 522 
Q 1278 481 1403 481 
Q 1497 481 1650 503 
z
" transform="scale(0.015625)"/>
       <path id="ArialMT-61" d="M 2588 409 
Q 2275 144 1986 34 
Q 1697 -75 1366 -75 
Q 819 -75 525 192 
Q 231 459 231 875 
Q 231 1119 342 1320 
Q 453 1522 633 1644 
Q 813 1766 1038 1828 
Q 1203 1872 1538 1913 
Q 2219 1994 2541 2106 
Q 2544 2222 2544 2253 
Q 2544 2597 2384 2738 
Q 2169 2928 1744 2928 
Q 1347 2928 1158 2789 
Q 969 2650 878 2297 
L 328 2372 
Q 403 2725 575 2942 
Q 747 3159 1072 3276 
Q 1397 3394 1825 3394 
Q 2250 3394 2515 3294 
Q 2781 3194 2906 3042 
Q 3031 2891 3081 2659 
Q 3109 2516 3109 2141 
L 3109 1391 
Q 3109 606 3145 398 
Q 3181 191 3288 0 
L 2700 0 
Q 2613 175 2588 409 
z
M 2541 1666 
Q 2234 1541 1622 1453 
Q 1275 1403 1131 1340 
Q 988 1278 909 1158 
Q 831 1038 831 891 
Q 831 666 1001 516 
Q 1172 366 1500 366 
Q 1825 366 2078 508 
Q 2331 650 2450 897 
Q 2541 1088 2541 1459 
L 2541 1666 
z
" transform="scale(0.015625)"/>
       <path id="ArialMT-70" d="M 422 -1272 
L 422 3319 
L 934 3319 
L 934 2888 
Q 1116 3141 1344 3267 
Q 1572 3394 1897 3394 
Q 2322 3394 2647 3175 
Q 2972 2956 3137 2557 
Q 3303 2159 3303 1684 
Q 3303 1175 3120 767 
Q 2938 359 2589 142 
Q 2241 -75 1856 -75 
Q 1575 -75 1351 44 
Q 1128 163 984 344 
L 984 -1272 
L 422 -1272 
z
M 931 1641 
Q 931 1000 1190 694 
Q 1450 388 1819 388 
Q 2194 388 2461 705 
Q 2728 1022 2728 1688 
Q 2728 2322 2467 2637 
Q 2206 2953 1844 2953 
Q 1484 2953 1207 2617 
Q 931 2281 931 1641 
z
" transform="scale(0.015625)"/>
       <path id="ArialMT-28" d="M 1497 -1347 
Q 1031 -759 709 28 
Q 388 816 388 1659 
Q 388 2403 628 3084 
Q 909 3875 1497 4659 
L 1900 4659 
Q 1522 4009 1400 3731 
Q 1209 3300 1100 2831 
Q 966 2247 966 1656 
Q 966 153 1900 -1347 
L 1497 -1347 
z
" transform="scale(0.015625)"/>
       <path id="ArialMT-29" d="M 791 -1347 
L 388 -1347 
Q 1322 153 1322 1656 
Q 1322 2244 1188 2822 
Q 1081 3291 891 3722 
Q 769 4003 388 4659 
L 791 4659 
Q 1378 3875 1659 3084 
Q 1900 2403 1900 1659 
Q 1900 816 1576 28 
Q 1253 -759 791 -1347 
z
" transform="scale(0.015625)"/>
      </defs>
      <use xlink:href="#ArialMT-54"/>
      <use xlink:href="#ArialMT-69" x="57.333984"/>
      <use xlink:href="#ArialMT-6d" x="79.550781"/>
      <use xlink:href="#ArialMT-65" x="162.851562"/>
      <use xlink:href="#ArialMT-73" x="218.466797"/>
      <use xlink:href="#ArialMT-74" x="268.466797"/>
      <use xlink:href="#ArialMT-61" x="296.25"/>
      <use xlink:href="#ArialMT-6d" x="351.865234"/>
      <use xlink:href="#ArialMT-70" x="435.166016"/>
      <use xlink:href="#ArialMT-20" x="490.78125"/>
      <use xlink:href="#ArialMT-28" x="518.564453"/>
      <use xlink:href="#ArialMT-45" x="551.865234"/>
      <use xlink:href="#ArialMT-53" x="618.564453"/>
      <use xlink:href="#ArialMT-54" x="685.263672"/>
      <use xlink:href="#ArialMT-29" x="746.347656"/>
     </g>
    </g>
   </g>
   <g id="matplotlib.axis_2">
    <g id="ytick_1">
     <g id="line2d_17">
      <path d="M 91.34 501.702971 
L 769.75 501.702971 
" clip-path="url(#pa80e91f27e)" style="fill: none; stroke: #b0b0b0; stroke-opacity: 0.7; stroke-width: 0.8; stroke-linecap: square"/>
     </g>
     <g id="line2d_18">
      <defs>
       <path id="m6140aceb57" d="M 0 0 
L -3.5 0 
" style="stroke: #000000; stroke-width: 0.8"/>
      </defs>
      <g>
       <use xlink:href="#m6140aceb57" x="91.34" y="501.702971" style="stroke: #000000; stroke-width: 0.8"/>
      </g>
     </g>
     <g id="text_10">
      <!-- 0 -->
      <g transform="translate(78.779063 505.281878) scale(0.1 -0.1)">
       <use xlink:href="#ArialMT-30"/>
      </g>
     </g>
    </g>
    <g id="ytick_2">
     <g id="line2d_19">
      <path d="M 91.34 448.311018 
L 769.75 448.311018 
" clip-path="url(#pa80e91f27e)" style="fill: none; stroke: #b0b0b0; stroke-opacity: 0.7; stroke-width: 0.8; stroke-linecap: square"/>
     </g>
     <g id="line2d_20">
      <g>
       <use xlink:href="#m6140aceb57" x="91.34" y="448.311018" style="stroke: #000000; stroke-width: 0.8"/>
      </g>
     </g>
     <g id="text_11">
      <!-- 50000 -->
      <g transform="translate(56.535313 451.889924) scale(0.1 -0.1)">
       <use xlink:href="#ArialMT-35"/>
       <use xlink:href="#ArialMT-30" x="55.615234"/>
       <use xlink:href="#ArialMT-30" x="111.230469"/>
       <use xlink:href="#ArialMT-30" x="166.845703"/>
       <use xlink:href="#ArialMT-30" x="222.460938"/>
      </g>
     </g>
    </g>
    <g id="ytick_3">
     <g id="line2d_21">
      <path d="M 91.34 394.919065 
L 769.75 394.919065 
" clip-path="url(#pa80e91f27e)" style="fill: none; stroke: #b0b0b0; stroke-opacity: 0.7; stroke-width: 0.8; stroke-linecap: square"/>
     </g>
     <g id="line2d_22">
      <g>
       <use xlink:href="#m6140aceb57" x="91.34" y="394.919065" style="stroke: #000000; stroke-width: 0.8"/>
      </g>
     </g>
     <g id="text_12">
      <!-- 100000 -->
      <g transform="translate(50.974375 398.497971) scale(0.1 -0.1)">
       <use xlink:href="#ArialMT-31"/>
       <use xlink:href="#ArialMT-30" x="55.615234"/>
       <use xlink:href="#ArialMT-30" x="111.230469"/>
       <use xlink:href="#ArialMT-30" x="166.845703"/>
       <use xlink:href="#ArialMT-30" x="222.460938"/>
       <use xlink:href="#ArialMT-30" x="278.076172"/>
      </g>
     </g>
    </g>
    <g id="ytick_4">
     <g id="line2d_23">
      <path d="M 91.34 341.527111 
L 769.75 341.527111 
" clip-path="url(#pa80e91f27e)" style="fill: none; stroke: #b0b0b0; stroke-opacity: 0.7; stroke-width: 0.8; stroke-linecap: square"/>
     </g>
     <g id="line2d_24">
      <g>
       <use xlink:href="#m6140aceb57" x="91.34" y="341.527111" style="stroke: #000000; stroke-width: 0.8"/>
      </g>
     </g>
     <g id="text_13">
      <!-- 150000 -->
      <g transform="translate(50.974375 345.106018) scale(0.1 -0.1)">
       <use xlink:href="#ArialMT-31"/>
       <use xlink:href="#ArialMT-35" x="55.615234"/>
       <use xlink:href="#ArialMT-30" x="111.230469"/>
       <use xlink:href="#ArialMT-30" x="166.845703"/>
       <use xlink:href="#ArialMT-30" x="222.460938"/>
       <use xlink:href="#ArialMT-30" x="278.076172"/>
      </g>
     </g>
    </g>
    <g id="ytick_5">
     <g id="line2d_25">
      <path d="M 91.34 288.135158 
L 769.75 288.135158 
" clip-path="url(#pa80e91f27e)" style="fill: none; stroke: #b0b0b0; stroke-opacity: 0.7; stroke-width: 0.8; stroke-linecap: square"/>
     </g>
     <g id="line2d_26">
      <g>
       <use xlink:href="#m6140aceb57" x="91.34" y="288.135158" style="stroke: #000000; stroke-width: 0.8"/>
      </g>
     </g>
     <g id="text_14">
      <!-- 200000 -->
      <g transform="translate(50.974375 291.714064) scale(0.1 -0.1)">
       <use xlink:href="#ArialMT-32"/>
       <use xlink:href="#ArialMT-30" x="55.615234"/>
       <use xlink:href="#ArialMT-30" x="111.230469"/>
       <use xlink:href="#ArialMT-30" x="166.845703"/>
       <use xlink:href="#ArialMT-30" x="222.460938"/>
       <use xlink:href="#ArialMT-30" x="278.076172"/>
      </g>
     </g>
    </g>
    <g id="ytick_6">
     <g id="line2d_27">
      <path d="M 91.34 234.743205 
L 769.75 234.743205 
" clip-path="url(#pa80e91f27e)" style="fill: none; stroke: #b0b0b0; stroke-opacity: 0.7; stroke-width: 0.8; stroke-linecap: square"/>
     </g>
     <g id="line2d_28">
      <g>
       <use xlink:href="#m6140aceb57" x="91.34" y="234.743205" style="stroke: #000000; stroke-width: 0.8"/>
      </g>
     </g>
     <g id="text_15">
      <!-- 250000 -->
      <g transform="translate(50.974375 238.322111) scale(0.1 -0.1)">
       <use xlink:href="#ArialMT-32"/>
       <use xlink:href="#ArialMT-35" x="55.615234"/>
       <use xlink:href="#ArialMT-30" x="111.230469"/>
       <use xlink:href="#ArialMT-30" x="166.845703"/>
       <use xlink:href="#ArialMT-30" x="222.460938"/>
       <use xlink:href="#ArialMT-30" x="278.076172"/>
      </g>
     </g>
    </g>
    <g id="ytick_7">
     <g id="line2d_29">
      <path d="M 91.34 181.351252 
L 769.75 181.351252 
" clip-path="url(#pa80e91f27e)" style="fill: none; stroke: #b0b0b0; stroke-opacity: 0.7; stroke-width: 0.8; stroke-linecap: square"/>
     </g>
     <g id="line2d_30">
      <g>
       <use xlink:href="#m6140aceb57" x="91.34" y="181.351252" style="stroke: #000000; stroke-width: 0.8"/>
      </g>
     </g>
     <g id="text_16">
      <!-- 300000 -->
      <g transform="translate(50.974375 184.930158) scale(0.1 -0.1)">
       <defs>
        <path id="ArialMT-33" d="M 269 1209 
L 831 1284 
Q 928 806 1161 595 
Q 1394 384 1728 384 
Q 2125 384 2398 659 
Q 2672 934 2672 1341 
Q 2672 1728 2419 1979 
Q 2166 2231 1775 2231 
Q 1616 2231 1378 2169 
L 1441 2663 
Q 1497 2656 1531 2656 
Q 1891 2656 2178 2843 
Q 2466 3031 2466 3422 
Q 2466 3731 2256 3934 
Q 2047 4138 1716 4138 
Q 1388 4138 1169 3931 
Q 950 3725 888 3313 
L 325 3413 
Q 428 3978 793 4289 
Q 1159 4600 1703 4600 
Q 2078 4600 2393 4439 
Q 2709 4278 2876 4000 
Q 3044 3722 3044 3409 
Q 3044 3113 2884 2869 
Q 2725 2625 2413 2481 
Q 2819 2388 3044 2092 
Q 3269 1797 3269 1353 
Q 3269 753 2831 336 
Q 2394 -81 1725 -81 
Q 1122 -81 723 278 
Q 325 638 269 1209 
z
" transform="scale(0.015625)"/>
       </defs>
       <use xlink:href="#ArialMT-33"/>
       <use xlink:href="#ArialMT-30" x="55.615234"/>
       <use xlink:href="#ArialMT-30" x="111.230469"/>
       <use xlink:href="#ArialMT-30" x="166.845703"/>
       <use xlink:href="#ArialMT-30" x="222.460938"/>
       <use xlink:href="#ArialMT-30" x="278.076172"/>
      </g>
     </g>
    </g>
    <g id="ytick_8">
     <g id="line2d_31">
      <path d="M 91.34 127.959298 
L 769.75 127.959298 
" clip-path="url(#pa80e91f27e)" style="fill: none; stroke: #b0b0b0; stroke-opacity: 0.7; stroke-width: 0.8; stroke-linecap: square"/>
     </g>
     <g id="line2d_32">
      <g>
       <use xlink:href="#m6140aceb57" x="91.34" y="127.959298" style="stroke: #000000; stroke-width: 0.8"/>
      </g>
     </g>
     <g id="text_17">
      <!-- 350000 -->
      <g transform="translate(50.974375 131.538204) scale(0.1 -0.1)">
       <use xlink:href="#ArialMT-33"/>
       <use xlink:href="#ArialMT-35" x="55.615234"/>
       <use xlink:href="#ArialMT-30" x="111.230469"/>
       <use xlink:href="#ArialMT-30" x="166.845703"/>
       <use xlink:href="#ArialMT-30" x="222.460938"/>
       <use xlink:href="#ArialMT-30" x="278.076172"/>
      </g>
     </g>
    </g>
    <g id="ytick_9">
     <g id="line2d_33">
      <path d="M 91.34 74.567345 
L 769.75 74.567345 
" clip-path="url(#pa80e91f27e)" style="fill: none; stroke: #b0b0b0; stroke-opacity: 0.7; stroke-width: 0.8; stroke-linecap: square"/>
     </g>
     <g id="line2d_34">
      <g>
       <use xlink:href="#m6140aceb57" x="91.34" y="74.567345" style="stroke: #000000; stroke-width: 0.8"/>
      </g>
     </g>
     <g id="text_18">
      <!-- 400000 -->
      <g transform="translate(50.974375 78.146251) scale(0.1 -0.1)">
       <use xlink:href="#ArialMT-34"/>
       <use xlink:href="#ArialMT-30" x="55.615234"/>
       <use xlink:href="#ArialMT-30" x="111.230469"/>
       <use xlink:href="#ArialMT-30" x="166.845703"/>
       <use xlink:href="#ArialMT-30" x="222.460938"/>
       <use xlink:href="#ArialMT-30" x="278.076172"/>
      </g>
     </g>
    </g>
    <g id="text_19">
     <!-- Vote Count -->
     <g transform="translate(44.589375 317.257419) rotate(-90) scale(0.12 -0.12)">
      <defs>
       <path id="ArialMT-56" d="M 1803 0 
L 28 4581 
L 684 4581 
L 1875 1253 
Q 2019 853 2116 503 
Q 2222 878 2363 1253 
L 3600 4581 
L 4219 4581 
L 2425 0 
L 1803 0 
z
" transform="scale(0.015625)"/>
       <path id="ArialMT-6f" d="M 213 1659 
Q 213 2581 725 3025 
Q 1153 3394 1769 3394 
Q 2453 3394 2887 2945 
Q 3322 2497 3322 1706 
Q 3322 1066 3130 698 
Q 2938 331 2570 128 
Q 2203 -75 1769 -75 
Q 1072 -75 642 372 
Q 213 819 213 1659 
z
M 791 1659 
Q 791 1022 1069 705 
Q 1347 388 1769 388 
Q 2188 388 2466 706 
Q 2744 1025 2744 1678 
Q 2744 2294 2464 2611 
Q 2184 2928 1769 2928 
Q 1347 2928 1069 2612 
Q 791 2297 791 1659 
z
" transform="scale(0.015625)"/>
       <path id="ArialMT-43" d="M 3763 1606 
L 4369 1453 
Q 4178 706 3683 314 
Q 3188 -78 2472 -78 
Q 1731 -78 1267 223 
Q 803 525 561 1097 
Q 319 1669 319 2325 
Q 319 3041 592 3573 
Q 866 4106 1370 4382 
Q 1875 4659 2481 4659 
Q 3169 4659 3637 4309 
Q 4106 3959 4291 3325 
L 3694 3184 
Q 3534 3684 3231 3912 
Q 2928 4141 2469 4141 
Q 1941 4141 1586 3887 
Q 1231 3634 1087 3207 
Q 944 2781 944 2328 
Q 944 1744 1114 1308 
Q 1284 872 1643 656 
Q 2003 441 2422 441 
Q 2931 441 3284 734 
Q 3638 1028 3763 1606 
z
" transform="scale(0.015625)"/>
       <path id="ArialMT-75" d="M 2597 0 
L 2597 488 
Q 2209 -75 1544 -75 
Q 1250 -75 995 37 
Q 741 150 617 320 
Q 494 491 444 738 
Q 409 903 409 1263 
L 409 3319 
L 972 3319 
L 972 1478 
Q 972 1038 1006 884 
Q 1059 663 1231 536 
Q 1403 409 1656 409 
Q 1909 409 2131 539 
Q 2353 669 2445 892 
Q 2538 1116 2538 1541 
L 2538 3319 
L 3100 3319 
L 3100 0 
L 2597 0 
z
" transform="scale(0.015625)"/>
       <path id="ArialMT-6e" d="M 422 0 
L 422 3319 
L 928 3319 
L 928 2847 
Q 1294 3394 1984 3394 
Q 2284 3394 2536 3286 
Q 2788 3178 2913 3003 
Q 3038 2828 3088 2588 
Q 3119 2431 3119 2041 
L 3119 0 
L 2556 0 
L 2556 2019 
Q 2556 2363 2490 2533 
Q 2425 2703 2258 2804 
Q 2091 2906 1866 2906 
Q 1506 2906 1245 2678 
Q 984 2450 984 1813 
L 984 0 
L 422 0 
z
" transform="scale(0.015625)"/>
      </defs>
      <use xlink:href="#ArialMT-56"/>
      <use xlink:href="#ArialMT-6f" x="61.199219"/>
      <use xlink:href="#ArialMT-74" x="116.814453"/>
      <use xlink:href="#ArialMT-65" x="144.597656"/>
      <use xlink:href="#ArialMT-20" x="200.212891"/>
      <use xlink:href="#ArialMT-43" x="227.996094"/>
      <use xlink:href="#ArialMT-6f" x="300.212891"/>
      <use xlink:href="#ArialMT-75" x="355.828125"/>
      <use xlink:href="#ArialMT-6e" x="411.443359"/>
      <use xlink:href="#ArialMT-74" x="467.058594"/>
     </g>
    </g>
   </g>
   <g id="line2d_35">
    <path d="M 122.176818 501.702971 
L 435.560987 501.702971 
L 446.85453 501.339906 
L 454.888617 495.751904 
L 455.393744 495.247884 
L 455.865632 494.574078 
L 456.760528 493.025711 
L 458.420171 491.15806 
L 459.19782 489.375837 
L 459.685992 486.316478 
L 460.384228 484.302534 
L 460.541135 482.584381 
L 461.098819 482.20423 
L 461.338854 481.100084 
L 461.941689 481.040285 
L 462.248945 479.647823 
L 463.083597 479.647823 
L 463.320673 477.862396 
L 464.484951 476.606618 
L 465.343989 474.575588 
L 465.722784 472.327786 
L 466.06459 471.198013 
L 466.343498 470.839219 
L 466.628796 470.839219 
L 467.224273 470.359759 
L 467.524015 467.131681 
L 467.923001 464.998139 
L 468.316284 464.219684 
L 468.661977 463.824584 
L 469.028787 461.915288 
L 469.273145 461.352536 
L 469.670211 459.894936 
L 470.201787 459.642926 
L 470.661583 459.204044 
L 471.06765 454.331495 
L 471.487342 454.331495 
L 471.637579 453.639535 
L 472.189412 452.216105 
L 472.599667 450.431746 
L 472.872896 448.570503 
L 473.231725 447.721571 
L 473.666257 447.721571 
L 474.520675 442.157061 
L 474.880068 436.531685 
L 475.675004 435.861082 
L 475.98853 435.020693 
L 476.780859 433.832188 
L 477.106853 433.800153 
L 477.471145 430.171636 
L 478.162882 428.439601 
L 478.65882 427.298081 
L 478.999062 425.125028 
L 479.390086 424.553734 
L 479.720783 423.090795 
L 480.157038 422.822767 
L 480.535921 422.087026 
L 480.868554 417.253987 
L 481.228595 414.291801 
L 481.645487 411.793058 
L 482.388134 409.616802 
L 482.629185 407.070005 
L 483.169222 406.58841 
L 483.944439 401.085835 
L 484.347356 400.942745 
L 484.750388 398.703486 
L 484.989723 398.521954 
L 485.468682 396.394818 
L 485.72099 396.016803 
L 486.156789 388.169254 
L 486.992357 386.172395 
L 487.599163 385.984455 
L 488.028895 385.565862 
L 488.84926 382.335649 
L 489.311375 378.740235 
L 489.996027 378.147584 
L 490.3405 377.439607 
L 490.40319 376.591743 
L 491.112351 371.593188 
L 491.431747 366.887221 
L 491.83192 365.905877 
L 492.674726 365.773465 
L 499.125287 336.669511 
L 499.717781 336.669511 
L 499.881762 331.086849 
L 500.407875 327.039739 
L 500.733958 326.847528 
L 501.196389 324.982013 
L 501.556786 319.580883 
L 501.776387 318.992504 
L 502.325797 318.300544 
L 502.720228 315.067127 
L 503.157782 314.292944 
L 503.457812 311.06807 
L 503.811351 311.06807 
L 504.184932 307.960658 
L 504.958677 305.855947 
L 505.688248 302.703686 
L 506.061937 302.703686 
L 506.478773 300.837104 
L 506.961899 291.651552 
L 507.527968 291.581075 
L 507.765772 289.717696 
L 508.362081 287.222156 
L 508.690131 287.191188 
L 509.041702 280.10928 
L 509.486378 278.960285 
L 509.760096 278.960285 
L 510.568232 276.465813 
L 510.961147 273.459846 
L 512.003656 270.495525 
L 512.501005 270.495525 
L 513.201996 267.703125 
L 513.477517 263.754257 
L 513.995768 262.637297 
L 514.574562 262.30947 
L 515.123525 261.631392 
L 515.70361 258.37128 
L 516.882444 258.044521 
L 517.452964 255.724107 
L 518.482969 255.724107 
L 518.856945 254.23981 
L 519.838456 252.576117 
L 520.603688 252.576117 
L 520.804007 251.244522 
L 525.205576 243.327563 
L 525.525672 243.327563 
L 526.287093 237.78975 
L 526.726495 237.123418 
L 533.617586 222.166196 
L 535.448073 222.166196 
L 535.888718 219.776372 
L 536.248467 219.776372 
L 540.648848 218.834538 
L 542.688919 216.202315 
L 543.200408 216.202315 
L 545.529332 214.844024 
L 547.854989 214.844024 
L 549.405788 214.501247 
L 551.320426 214.501247 
L 553.146438 214.036737 
L 620.429624 214.036737 
L 622.920901 213.412052 
L 624.321815 213.299929 
L 626.12377 211.640507 
L 627.096791 210.047291 
L 628.864967 210.003509 
L 630.371183 209.881776 
L 631.488555 209.499489 
L 633.380524 209.499489 
L 634.964053 208.442329 
L 637.484502 208.442329 
L 637.925664 207.978886 
L 638.485607 207.978886 
L 639.083891 207.842203 
L 640.248877 195.359164 
L 641.003796 194.062808 
L 642.289691 193.143398 
L 643.466989 193.143398 
L 643.716162 193.017393 
L 648.185791 192.92022 
L 649.523975 192.891388 
L 655.022798 190.433223 
L 664.632528 187.522293 
L 667.261866 184.330523 
L 669.716377 178.407219 
L 671.207865 175.813438 
L 674.31507 172.876881 
L 679.576664 171.993778 
L 681.348336 169.775876 
L 683.920734 168.700562 
L 686.086064 168.700562 
L 688.354341 162.840261 
L 691.353533 162.64805 
L 693.889045 161.675249 
L 695.862223 161.675249 
L 698.826808 160.860488 
L 700.924075 158.500563 
L 703.540208 156.204709 
L 708.070352 149.119597 
L 710.655106 148.564321 
L 713.284036 142.163693 
L 715.025596 138.479649 
L 727.583401 138.438003 
L 728.755433 136.855465 
L 730.207256 134.590579 
L 733.192639 134.590579 
L 735.068465 132.839323 
L 738.913182 132.744285 
L 738.913182 132.744285 
" clip-path="url(#pa80e91f27e)" style="fill: none; stroke: #ff0000; stroke-width: 1.5; stroke-linecap: square"/>
   </g>
   <g id="line2d_36">
    <path d="M 122.176818 501.702971 
L 435.560987 501.702971 
L 446.85453 501.532117 
L 456.760528 494.531364 
L 458.420171 493.314028 
L 458.917829 491.21252 
L 459.19782 490.546189 
L 459.685992 487.88193 
L 460.384228 486.843991 
L 460.541135 485.986516 
L 461.098819 485.751591 
L 461.338854 483.673576 
L 461.941689 483.655423 
L 462.248945 482.592923 
L 463.083597 482.592923 
L 463.320673 478.073828 
L 464.943528 476.541479 
L 465.343989 475.813213 
L 466.06459 472.654545 
L 466.343498 472.514658 
L 466.628796 472.514658 
L 467.224273 472.295751 
L 467.524015 469.427535 
L 468.316284 467.603666 
L 468.661977 467.239533 
L 469.273145 465.05687 
L 469.670211 464.205802 
L 470.661583 463.69324 
L 471.06765 451.581809 
L 471.487342 451.581809 
L 471.637579 450.6624 
L 472.599667 448.231998 
L 472.872896 446.417739 
L 473.231725 445.889159 
L 473.666257 445.889159 
L 474.520675 433.46058 
L 474.880068 425.379174 
L 475.675004 424.690418 
L 475.98853 423.789162 
L 476.780859 423.11322 
L 477.106853 423.085456 
L 477.471145 420.826976 
L 478.162882 419.839225 
L 478.65882 418.157378 
L 478.999062 412.417743 
L 479.390086 412.115545 
L 479.720783 411.155558 
L 480.157038 411.067995 
L 480.535921 410.773271 
L 480.868554 403.458574 
L 481.228595 398.736589 
L 481.645487 395.946326 
L 482.388134 394.559203 
L 482.629185 392.649907 
L 483.169222 392.463035 
L 483.493497 389.715485 
L 483.944439 388.085962 
L 484.347356 387.988789 
L 484.750388 386.101918 
L 484.989723 385.95242 
L 485.468682 383.487847 
L 485.72099 383.293501 
L 486.156789 375.087158 
L 486.468591 374.64614 
L 486.992357 373.637032 
L 487.305119 373.610336 
L 487.599163 373.44055 
L 488.028895 373.053992 
L 488.84926 370.164419 
L 489.311375 366.699282 
L 490.3405 365.848214 
L 491.112351 360.270891 
L 491.431747 353.286155 
L 491.83192 351.949221 
L 492.674726 351.831758 
L 499.125287 316.883521 
L 499.717781 316.883521 
L 500.407875 301.635847 
L 500.733958 301.571777 
L 501.196389 300.345898 
L 501.556786 286.82492 
L 501.776387 286.415937 
L 502.325797 286.021905 
L 503.457812 276.90683 
L 503.811351 276.90683 
L 504.184932 274.2682 
L 504.958677 272.653627 
L 505.688248 268.005324 
L 506.061937 268.005324 
L 506.478773 266.65344 
L 506.961899 257.350426 
L 507.527968 257.311983 
L 507.765772 254.891192 
L 508.362081 252.596406 
L 508.690131 252.582524 
L 509.041702 228.233658 
L 509.486378 227.146598 
L 509.760096 227.146598 
L 510.568232 223.384601 
L 510.961147 220.4993 
L 512.003656 218.126561 
L 512.501005 218.126561 
L 513.201996 215.403571 
L 513.477517 209.159916 
L 513.995768 208.196726 
L 514.574562 208.049364 
L 515.123525 207.181211 
L 515.70361 204.90351 
L 516.882444 204.739063 
L 517.202308 204.340759 
L 517.452964 203.538812 
L 518.482969 203.538812 
L 518.856945 202.615131 
L 519.838456 201.105206 
L 520.603688 201.105206 
L 520.804007 200.290445 
L 525.205576 191.906841 
L 525.525672 191.906841 
L 526.287093 184.287809 
L 526.726495 183.497608 
L 533.617586 167.186366 
L 535.448073 167.186366 
L 535.888718 165.210864 
L 536.248467 165.210864 
L 540.648848 164.014884 
L 542.688919 160.106593 
L 543.200408 160.106593 
L 545.529332 157.406028 
L 547.854989 157.406028 
L 549.405788 157.180714 
L 551.320426 157.180714 
L 553.146438 156.953265 
L 620.429624 156.953265 
L 623.681919 156.495162 
L 624.321815 156.431091 
L 625.358366 155.455086 
L 627.096791 151.83618 
L 630.371183 151.784923 
L 631.488555 151.512624 
L 633.380524 151.512624 
L 634.964053 150.894346 
L 637.484502 150.894346 
L 637.925664 150.666896 
L 639.083891 150.555841 
L 640.248877 138.334423 
L 641.003796 137.252702 
L 642.289691 136.882161 
L 643.466989 136.882161 
L 643.716162 136.748682 
L 649.523975 136.637626 
L 655.022798 132.246672 
L 664.632528 127.205404 
L 667.261866 121.503143 
L 671.207865 115.72827 
L 674.31507 114.020795 
L 679.576664 113.340581 
L 681.348336 111.98229 
L 683.920734 111.326637 
L 686.086064 111.326637 
L 688.354341 103.267655 
L 691.353533 103.176889 
L 693.889045 102.428334 
L 695.862223 102.428334 
L 698.826808 102.047115 
L 700.924075 99.728837 
L 703.540208 96.309616 
L 705.822941 93.610119 
L 708.070352 91.156225 
L 710.655106 90.83267 
L 713.284036 82.903965 
L 715.025596 79.429216 
L 717.611474 79.429216 
L 719.626908 77.298877 
L 727.583401 77.28286 
L 730.207256 74.695486 
L 733.192639 74.695486 
L 735.068465 73.499506 
L 738.913182 73.434368 
L 738.913182 73.434368 
" clip-path="url(#pa80e91f27e)" style="fill: none; stroke: #0000ff; stroke-width: 1.5; stroke-linecap: square"/>
   </g>
   <g id="text_20">
    <g id="patch_3">
     <path d="M 739.913182 133.717723 
L 784.056932 133.717723 
L 784.056932 116.586473 
L 739.913182 116.586473 
z
" style="fill: #ffffff; opacity: 0.7; stroke: #000000; stroke-linejoin: miter"/>
    </g>
    <!-- 345,519 -->
    <g style="fill: #ff0000" transform="translate(743.913182 127.744285) scale(0.1 -0.1)">
     <defs>
      <path id="Arial-BoldMT-33" d="M 241 1216 
L 1091 1319 
Q 1131 994 1309 822 
Q 1488 650 1741 650 
Q 2013 650 2198 856 
Q 2384 1063 2384 1413 
Q 2384 1744 2206 1937 
Q 2028 2131 1772 2131 
Q 1603 2131 1369 2066 
L 1466 2781 
Q 1822 2772 2009 2936 
Q 2197 3100 2197 3372 
Q 2197 3603 2059 3740 
Q 1922 3878 1694 3878 
Q 1469 3878 1309 3722 
Q 1150 3566 1116 3266 
L 306 3403 
Q 391 3819 561 4067 
Q 731 4316 1036 4458 
Q 1341 4600 1719 4600 
Q 2366 4600 2756 4188 
Q 3078 3850 3078 3425 
Q 3078 2822 2419 2463 
Q 2813 2378 3048 2084 
Q 3284 1791 3284 1375 
Q 3284 772 2843 347 
Q 2403 -78 1747 -78 
Q 1125 -78 715 280 
Q 306 638 241 1216 
z
" transform="scale(0.015625)"/>
      <path id="Arial-BoldMT-34" d="M 1994 0 
L 1994 922 
L 119 922 
L 119 1691 
L 2106 4600 
L 2844 4600 
L 2844 1694 
L 3413 1694 
L 3413 922 
L 2844 922 
L 2844 0 
L 1994 0 
z
M 1994 1694 
L 1994 3259 
L 941 1694 
L 1994 1694 
z
" transform="scale(0.015625)"/>
      <path id="Arial-BoldMT-35" d="M 284 1178 
L 1159 1269 
Q 1197 972 1381 798 
Q 1566 625 1806 625 
Q 2081 625 2272 848 
Q 2463 1072 2463 1522 
Q 2463 1944 2273 2155 
Q 2084 2366 1781 2366 
Q 1403 2366 1103 2031 
L 391 2134 
L 841 4519 
L 3163 4519 
L 3163 3697 
L 1506 3697 
L 1369 2919 
Q 1663 3066 1969 3066 
Q 2553 3066 2959 2641 
Q 3366 2216 3366 1538 
Q 3366 972 3038 528 
Q 2591 -78 1797 -78 
Q 1163 -78 763 262 
Q 363 603 284 1178 
z
" transform="scale(0.015625)"/>
      <path id="Arial-BoldMT-2c" d="M 438 878 
L 1316 878 
L 1316 250 
Q 1316 -131 1250 -351 
Q 1184 -572 1001 -747 
Q 819 -922 538 -1022 
L 366 -659 
Q 631 -572 743 -419 
Q 856 -266 863 0 
L 438 0 
L 438 878 
z
" transform="scale(0.015625)"/>
      <path id="Arial-BoldMT-31" d="M 2519 0 
L 1641 0 
L 1641 3309 
Q 1159 2859 506 2644 
L 506 3441 
Q 850 3553 1253 3867 
Q 1656 4181 1806 4600 
L 2519 4600 
L 2519 0 
z
" transform="scale(0.015625)"/>
      <path id="Arial-BoldMT-39" d="M 291 1059 
L 1141 1153 
Q 1172 894 1303 769 
Q 1434 644 1650 644 
Q 1922 644 2112 894 
Q 2303 1144 2356 1931 
Q 2025 1547 1528 1547 
Q 988 1547 595 1964 
Q 203 2381 203 3050 
Q 203 3747 617 4173 
Q 1031 4600 1672 4600 
Q 2369 4600 2816 4061 
Q 3263 3522 3263 2288 
Q 3263 1031 2797 475 
Q 2331 -81 1584 -81 
Q 1047 -81 715 205 
Q 384 491 291 1059 
z
M 2278 2978 
Q 2278 3403 2083 3637 
Q 1888 3872 1631 3872 
Q 1388 3872 1227 3680 
Q 1066 3488 1066 3050 
Q 1066 2606 1241 2398 
Q 1416 2191 1678 2191 
Q 1931 2191 2104 2391 
Q 2278 2591 2278 2978 
z
" transform="scale(0.015625)"/>
     </defs>
     <use xlink:href="#Arial-BoldMT-33"/>
     <use xlink:href="#Arial-BoldMT-34" x="55.615234"/>
     <use xlink:href="#Arial-BoldMT-35" x="111.230469"/>
     <use xlink:href="#Arial-BoldMT-2c" x="166.845703"/>
     <use xlink:href="#Arial-BoldMT-35" x="194.628906"/>
     <use xlink:href="#Arial-BoldMT-31" x="250.244141"/>
     <use xlink:href="#Arial-BoldMT-39" x="305.859375"/>
    </g>
   </g>
   <g id="text_21">
    <g id="patch_4">
     <path d="M 739.913182 74.407805 
L 784.056932 74.407805 
L 784.056932 57.276555 
L 739.913182 57.276555 
z
" style="fill: #ffffff; opacity: 0.7; stroke: #000000; stroke-linejoin: miter"/>
    </g>
    <!-- 401,061 -->
    <g style="fill: #0000ff" transform="translate(743.913182 68.434368) scale(0.1 -0.1)">
     <defs>
      <path id="Arial-BoldMT-30" d="M 1756 4600 
Q 2422 4600 2797 4125 
Q 3244 3563 3244 2259 
Q 3244 959 2794 391 
Q 2422 -78 1756 -78 
Q 1088 -78 678 436 
Q 269 950 269 2269 
Q 269 3563 719 4131 
Q 1091 4600 1756 4600 
z
M 1756 3872 
Q 1597 3872 1472 3770 
Q 1347 3669 1278 3406 
Q 1188 3066 1188 2259 
Q 1188 1453 1269 1151 
Q 1350 850 1473 750 
Q 1597 650 1756 650 
Q 1916 650 2041 751 
Q 2166 853 2234 1116 
Q 2325 1453 2325 2259 
Q 2325 3066 2244 3367 
Q 2163 3669 2039 3770 
Q 1916 3872 1756 3872 
z
" transform="scale(0.015625)"/>
      <path id="Arial-BoldMT-36" d="M 3247 3459 
L 2397 3366 
Q 2366 3628 2234 3753 
Q 2103 3878 1894 3878 
Q 1616 3878 1423 3628 
Q 1231 3378 1181 2588 
Q 1509 2975 1997 2975 
Q 2547 2975 2939 2556 
Q 3331 2138 3331 1475 
Q 3331 772 2918 347 
Q 2506 -78 1859 -78 
Q 1166 -78 719 461 
Q 272 1000 272 2228 
Q 272 3488 737 4044 
Q 1203 4600 1947 4600 
Q 2469 4600 2811 4308 
Q 3153 4016 3247 3459 
z
M 1256 1544 
Q 1256 1116 1453 883 
Q 1650 650 1903 650 
Q 2147 650 2309 840 
Q 2472 1031 2472 1466 
Q 2472 1913 2297 2120 
Q 2122 2328 1859 2328 
Q 1606 2328 1431 2129 
Q 1256 1931 1256 1544 
z
" transform="scale(0.015625)"/>
     </defs>
     <use xlink:href="#Arial-BoldMT-34"/>
     <use xlink:href="#Arial-BoldMT-30" x="55.615234"/>
     <use xlink:href="#Arial-BoldMT-31" x="111.230469"/>
     <use xlink:href="#Arial-BoldMT-2c" x="166.845703"/>
     <use xlink:href="#Arial-BoldMT-30" x="194.628906"/>
     <use xlink:href="#Arial-BoldMT-36" x="250.244141"/>
     <use xlink:href="#Arial-BoldMT-31" x="305.859375"/>
    </g>
   </g>
   <g id="text_22">
    <g id="patch_5">
     <path d="M 803.6705 89.721023 
L 885.208 89.721023 
Q 890.208 89.721023 890.208 84.721023 
L 890.208 75.575711 
Q 890.208 70.575711 885.208 70.575711 
L 803.6705 70.575711 
Q 798.6705 70.575711 798.6705 75.575711 
L 798.6705 84.721023 
Q 798.6705 89.721023 803.6705 89.721023 
z
" style="fill: #0000ff; opacity: 0.5; stroke: #000000; stroke-linejoin: miter"/>
    </g>
    <!-- Difference: 55,542 -->
    <g transform="translate(803.6705 82.733523) scale(0.1 -0.1)">
     <defs>
      <path id="ArialMT-44" d="M 494 0 
L 494 4581 
L 2072 4581 
Q 2606 4581 2888 4516 
Q 3281 4425 3559 4188 
Q 3922 3881 4101 3404 
Q 4281 2928 4281 2316 
Q 4281 1794 4159 1391 
Q 4038 988 3847 723 
Q 3656 459 3429 307 
Q 3203 156 2883 78 
Q 2563 0 2147 0 
L 494 0 
z
M 1100 541 
L 2078 541 
Q 2531 541 2789 625 
Q 3047 709 3200 863 
Q 3416 1078 3536 1442 
Q 3656 1806 3656 2325 
Q 3656 3044 3420 3430 
Q 3184 3816 2847 3947 
Q 2603 4041 2063 4041 
L 1100 4041 
L 1100 541 
z
" transform="scale(0.015625)"/>
      <path id="ArialMT-66" d="M 556 0 
L 556 2881 
L 59 2881 
L 59 3319 
L 556 3319 
L 556 3672 
Q 556 4006 616 4169 
Q 697 4388 901 4523 
Q 1106 4659 1475 4659 
Q 1713 4659 2000 4603 
L 1916 4113 
Q 1741 4144 1584 4144 
Q 1328 4144 1222 4034 
Q 1116 3925 1116 3625 
L 1116 3319 
L 1763 3319 
L 1763 2881 
L 1116 2881 
L 1116 0 
L 556 0 
z
" transform="scale(0.015625)"/>
      <path id="ArialMT-72" d="M 416 0 
L 416 3319 
L 922 3319 
L 922 2816 
Q 1116 3169 1280 3281 
Q 1444 3394 1641 3394 
Q 1925 3394 2219 3213 
L 2025 2691 
Q 1819 2813 1613 2813 
Q 1428 2813 1281 2702 
Q 1134 2591 1072 2394 
Q 978 2094 978 1738 
L 978 0 
L 416 0 
z
" transform="scale(0.015625)"/>
      <path id="ArialMT-63" d="M 2588 1216 
L 3141 1144 
Q 3050 572 2676 248 
Q 2303 -75 1759 -75 
Q 1078 -75 664 370 
Q 250 816 250 1647 
Q 250 2184 428 2587 
Q 606 2991 970 3192 
Q 1334 3394 1763 3394 
Q 2303 3394 2647 3120 
Q 2991 2847 3088 2344 
L 2541 2259 
Q 2463 2594 2264 2762 
Q 2066 2931 1784 2931 
Q 1359 2931 1093 2626 
Q 828 2322 828 1663 
Q 828 994 1084 691 
Q 1341 388 1753 388 
Q 2084 388 2306 591 
Q 2528 794 2588 1216 
z
" transform="scale(0.015625)"/>
      <path id="ArialMT-2c" d="M 569 0 
L 569 641 
L 1209 641 
L 1209 0 
Q 1209 -353 1084 -570 
Q 959 -788 688 -906 
L 531 -666 
Q 709 -588 793 -436 
Q 878 -284 888 0 
L 569 0 
z
" transform="scale(0.015625)"/>
     </defs>
     <use xlink:href="#ArialMT-44"/>
     <use xlink:href="#ArialMT-69" x="72.216797"/>
     <use xlink:href="#ArialMT-66" x="94.433594"/>
     <use xlink:href="#ArialMT-66" x="120.466797"/>
     <use xlink:href="#ArialMT-65" x="148.25"/>
     <use xlink:href="#ArialMT-72" x="203.865234"/>
     <use xlink:href="#ArialMT-65" x="237.166016"/>
     <use xlink:href="#ArialMT-6e" x="292.78125"/>
     <use xlink:href="#ArialMT-63" x="348.396484"/>
     <use xlink:href="#ArialMT-65" x="398.396484"/>
     <use xlink:href="#ArialMT-3a" x="454.011719"/>
     <use xlink:href="#ArialMT-20" x="481.794922"/>
     <use xlink:href="#ArialMT-35" x="509.578125"/>
     <use xlink:href="#ArialMT-35" x="565.193359"/>
     <use xlink:href="#ArialMT-2c" x="620.808594"/>
     <use xlink:href="#ArialMT-35" x="648.591797"/>
     <use xlink:href="#ArialMT-34" x="704.207031"/>
     <use xlink:href="#ArialMT-32" x="759.822266"/>
    </g>
   </g>
   <g id="text_23">
    <!-- Vote Counts Over Time - Maine -->
    <g transform="translate(327.728125 46.020937) scale(0.14 -0.14)">
     <defs>
      <path id="Arial-BoldMT-56" d="M 1634 0 
L -3 4581 
L 1000 4581 
L 2159 1191 
L 3281 4581 
L 4263 4581 
L 2622 0 
L 1634 0 
z
" transform="scale(0.015625)"/>
      <path id="Arial-BoldMT-6f" d="M 256 1706 
Q 256 2144 472 2553 
Q 688 2963 1083 3178 
Q 1478 3394 1966 3394 
Q 2719 3394 3200 2905 
Q 3681 2416 3681 1669 
Q 3681 916 3195 420 
Q 2709 -75 1972 -75 
Q 1516 -75 1102 131 
Q 688 338 472 736 
Q 256 1134 256 1706 
z
M 1156 1659 
Q 1156 1166 1390 903 
Q 1625 641 1969 641 
Q 2313 641 2545 903 
Q 2778 1166 2778 1666 
Q 2778 2153 2545 2415 
Q 2313 2678 1969 2678 
Q 1625 2678 1390 2415 
Q 1156 2153 1156 1659 
z
" transform="scale(0.015625)"/>
      <path id="Arial-BoldMT-74" d="M 1981 3319 
L 1981 2619 
L 1381 2619 
L 1381 1281 
Q 1381 875 1398 808 
Q 1416 741 1477 697 
Q 1538 653 1625 653 
Q 1747 653 1978 738 
L 2053 56 
Q 1747 -75 1359 -75 
Q 1122 -75 931 4 
Q 741 84 652 211 
Q 563 338 528 553 
Q 500 706 500 1172 
L 500 2619 
L 97 2619 
L 97 3319 
L 500 3319 
L 500 3978 
L 1381 4491 
L 1381 3319 
L 1981 3319 
z
" transform="scale(0.015625)"/>
      <path id="Arial-BoldMT-65" d="M 2381 1056 
L 3256 909 
Q 3088 428 2723 176 
Q 2359 -75 1813 -75 
Q 947 -75 531 491 
Q 203 944 203 1634 
Q 203 2459 634 2926 
Q 1066 3394 1725 3394 
Q 2466 3394 2894 2905 
Q 3322 2416 3303 1406 
L 1103 1406 
Q 1113 1016 1316 798 
Q 1519 581 1822 581 
Q 2028 581 2168 693 
Q 2309 806 2381 1056 
z
M 2431 1944 
Q 2422 2325 2234 2523 
Q 2047 2722 1778 2722 
Q 1491 2722 1303 2513 
Q 1116 2303 1119 1944 
L 2431 1944 
z
" transform="scale(0.015625)"/>
      <path id="Arial-BoldMT-20" transform="scale(0.015625)"/>
      <path id="Arial-BoldMT-43" d="M 3397 1684 
L 4294 1400 
Q 4088 650 3608 286 
Q 3128 -78 2391 -78 
Q 1478 -78 890 545 
Q 303 1169 303 2250 
Q 303 3394 893 4026 
Q 1484 4659 2447 4659 
Q 3288 4659 3813 4163 
Q 4125 3869 4281 3319 
L 3366 3100 
Q 3284 3456 3026 3662 
Q 2769 3869 2400 3869 
Q 1891 3869 1573 3503 
Q 1256 3138 1256 2319 
Q 1256 1450 1568 1081 
Q 1881 713 2381 713 
Q 2750 713 3015 947 
Q 3281 1181 3397 1684 
z
" transform="scale(0.015625)"/>
      <path id="Arial-BoldMT-75" d="M 2644 0 
L 2644 497 
Q 2463 231 2167 78 
Q 1872 -75 1544 -75 
Q 1209 -75 943 72 
Q 678 219 559 484 
Q 441 750 441 1219 
L 441 3319 
L 1319 3319 
L 1319 1794 
Q 1319 1094 1367 936 
Q 1416 778 1544 686 
Q 1672 594 1869 594 
Q 2094 594 2272 717 
Q 2450 841 2515 1023 
Q 2581 1206 2581 1919 
L 2581 3319 
L 3459 3319 
L 3459 0 
L 2644 0 
z
" transform="scale(0.015625)"/>
      <path id="Arial-BoldMT-6e" d="M 3478 0 
L 2600 0 
L 2600 1694 
Q 2600 2231 2544 2389 
Q 2488 2547 2361 2634 
Q 2234 2722 2056 2722 
Q 1828 2722 1647 2597 
Q 1466 2472 1398 2265 
Q 1331 2059 1331 1503 
L 1331 0 
L 453 0 
L 453 3319 
L 1269 3319 
L 1269 2831 
Q 1703 3394 2363 3394 
Q 2653 3394 2893 3289 
Q 3134 3184 3257 3021 
Q 3381 2859 3429 2653 
Q 3478 2447 3478 2063 
L 3478 0 
z
" transform="scale(0.015625)"/>
      <path id="Arial-BoldMT-73" d="M 150 947 
L 1031 1081 
Q 1088 825 1259 692 
Q 1431 559 1741 559 
Q 2081 559 2253 684 
Q 2369 772 2369 919 
Q 2369 1019 2306 1084 
Q 2241 1147 2013 1200 
Q 950 1434 666 1628 
Q 272 1897 272 2375 
Q 272 2806 612 3100 
Q 953 3394 1669 3394 
Q 2350 3394 2681 3172 
Q 3013 2950 3138 2516 
L 2309 2363 
Q 2256 2556 2107 2659 
Q 1959 2763 1684 2763 
Q 1338 2763 1188 2666 
Q 1088 2597 1088 2488 
Q 1088 2394 1175 2328 
Q 1294 2241 1995 2081 
Q 2697 1922 2975 1691 
Q 3250 1456 3250 1038 
Q 3250 581 2869 253 
Q 2488 -75 1741 -75 
Q 1063 -75 667 200 
Q 272 475 150 947 
z
" transform="scale(0.015625)"/>
      <path id="Arial-BoldMT-4f" d="M 278 2263 
Q 278 2963 488 3438 
Q 644 3788 914 4066 
Q 1184 4344 1506 4478 
Q 1934 4659 2494 4659 
Q 3506 4659 4114 4031 
Q 4722 3403 4722 2284 
Q 4722 1175 4119 548 
Q 3516 -78 2506 -78 
Q 1484 -78 881 545 
Q 278 1169 278 2263 
z
M 1231 2294 
Q 1231 1516 1590 1114 
Q 1950 713 2503 713 
Q 3056 713 3411 1111 
Q 3766 1509 3766 2306 
Q 3766 3094 3420 3481 
Q 3075 3869 2503 3869 
Q 1931 3869 1581 3476 
Q 1231 3084 1231 2294 
z
" transform="scale(0.015625)"/>
      <path id="Arial-BoldMT-76" d="M 1372 0 
L 34 3319 
L 956 3319 
L 1581 1625 
L 1763 1059 
Q 1834 1275 1853 1344 
Q 1897 1484 1947 1625 
L 2578 3319 
L 3481 3319 
L 2163 0 
L 1372 0 
z
" transform="scale(0.015625)"/>
      <path id="Arial-BoldMT-72" d="M 1300 0 
L 422 0 
L 422 3319 
L 1238 3319 
L 1238 2847 
Q 1447 3181 1614 3287 
Q 1781 3394 1994 3394 
Q 2294 3394 2572 3228 
L 2300 2463 
Q 2078 2606 1888 2606 
Q 1703 2606 1575 2504 
Q 1447 2403 1373 2137 
Q 1300 1872 1300 1025 
L 1300 0 
z
" transform="scale(0.015625)"/>
      <path id="Arial-BoldMT-54" d="M 1497 0 
L 1497 3806 
L 138 3806 
L 138 4581 
L 3778 4581 
L 3778 3806 
L 2422 3806 
L 2422 0 
L 1497 0 
z
" transform="scale(0.015625)"/>
      <path id="Arial-BoldMT-69" d="M 459 3769 
L 459 4581 
L 1338 4581 
L 1338 3769 
L 459 3769 
z
M 459 0 
L 459 3319 
L 1338 3319 
L 1338 0 
L 459 0 
z
" transform="scale(0.015625)"/>
      <path id="Arial-BoldMT-6d" d="M 394 3319 
L 1203 3319 
L 1203 2866 
Q 1638 3394 2238 3394 
Q 2556 3394 2790 3262 
Q 3025 3131 3175 2866 
Q 3394 3131 3647 3262 
Q 3900 3394 4188 3394 
Q 4553 3394 4806 3245 
Q 5059 3097 5184 2809 
Q 5275 2597 5275 2122 
L 5275 0 
L 4397 0 
L 4397 1897 
Q 4397 2391 4306 2534 
Q 4184 2722 3931 2722 
Q 3747 2722 3584 2609 
Q 3422 2497 3350 2280 
Q 3278 2063 3278 1594 
L 3278 0 
L 2400 0 
L 2400 1819 
Q 2400 2303 2353 2443 
Q 2306 2584 2207 2653 
Q 2109 2722 1941 2722 
Q 1738 2722 1575 2612 
Q 1413 2503 1342 2297 
Q 1272 2091 1272 1613 
L 1272 0 
L 394 0 
L 394 3319 
z
" transform="scale(0.015625)"/>
      <path id="Arial-BoldMT-2d" d="M 359 1222 
L 359 2100 
L 2084 2100 
L 2084 1222 
L 359 1222 
z
" transform="scale(0.015625)"/>
      <path id="Arial-BoldMT-4d" d="M 453 0 
L 453 4581 
L 1838 4581 
L 2669 1456 
L 3491 4581 
L 4878 4581 
L 4878 0 
L 4019 0 
L 4019 3606 
L 3109 0 
L 2219 0 
L 1313 3606 
L 1313 0 
L 453 0 
z
" transform="scale(0.015625)"/>
      <path id="Arial-BoldMT-61" d="M 1116 2306 
L 319 2450 
Q 453 2931 781 3162 
Q 1109 3394 1756 3394 
Q 2344 3394 2631 3255 
Q 2919 3116 3036 2902 
Q 3153 2688 3153 2116 
L 3144 1091 
Q 3144 653 3186 445 
Q 3228 238 3344 0 
L 2475 0 
Q 2441 88 2391 259 
Q 2369 338 2359 363 
Q 2134 144 1878 34 
Q 1622 -75 1331 -75 
Q 819 -75 523 203 
Q 228 481 228 906 
Q 228 1188 362 1408 
Q 497 1628 739 1745 
Q 981 1863 1438 1950 
Q 2053 2066 2291 2166 
L 2291 2253 
Q 2291 2506 2166 2614 
Q 2041 2722 1694 2722 
Q 1459 2722 1328 2630 
Q 1197 2538 1116 2306 
z
M 2291 1594 
Q 2122 1538 1756 1459 
Q 1391 1381 1278 1306 
Q 1106 1184 1106 997 
Q 1106 813 1243 678 
Q 1381 544 1594 544 
Q 1831 544 2047 700 
Q 2206 819 2256 991 
Q 2291 1103 2291 1419 
L 2291 1594 
z
" transform="scale(0.015625)"/>
     </defs>
     <use xlink:href="#Arial-BoldMT-56"/>
     <use xlink:href="#Arial-BoldMT-6f" x="59.324219"/>
     <use xlink:href="#Arial-BoldMT-74" x="120.408203"/>
     <use xlink:href="#Arial-BoldMT-65" x="153.708984"/>
     <use xlink:href="#Arial-BoldMT-20" x="209.324219"/>
     <use xlink:href="#Arial-BoldMT-43" x="237.107422"/>
     <use xlink:href="#Arial-BoldMT-6f" x="309.324219"/>
     <use xlink:href="#Arial-BoldMT-75" x="370.408203"/>
     <use xlink:href="#Arial-BoldMT-6e" x="431.492188"/>
     <use xlink:href="#Arial-BoldMT-74" x="492.576172"/>
     <use xlink:href="#Arial-BoldMT-73" x="525.876953"/>
     <use xlink:href="#Arial-BoldMT-20" x="581.492188"/>
     <use xlink:href="#Arial-BoldMT-4f" x="609.275391"/>
     <use xlink:href="#Arial-BoldMT-76" x="687.058594"/>
     <use xlink:href="#Arial-BoldMT-65" x="742.673828"/>
     <use xlink:href="#Arial-BoldMT-72" x="798.289062"/>
     <use xlink:href="#Arial-BoldMT-20" x="837.205078"/>
     <use xlink:href="#Arial-BoldMT-54" x="864.988281"/>
     <use xlink:href="#Arial-BoldMT-69" x="924.322266"/>
     <use xlink:href="#Arial-BoldMT-6d" x="952.105469"/>
     <use xlink:href="#Arial-BoldMT-65" x="1041.021484"/>
     <use xlink:href="#Arial-BoldMT-20" x="1096.636719"/>
     <use xlink:href="#Arial-BoldMT-2d" x="1124.419922"/>
     <use xlink:href="#Arial-BoldMT-20" x="1157.720703"/>
     <use xlink:href="#Arial-BoldMT-4d" x="1185.503906"/>
     <use xlink:href="#Arial-BoldMT-61" x="1268.804688"/>
     <use xlink:href="#Arial-BoldMT-69" x="1324.419922"/>
     <use xlink:href="#Arial-BoldMT-6e" x="1352.203125"/>
     <use xlink:href="#Arial-BoldMT-65" x="1413.287109"/>
    </g>
   </g>
   <g id="legend_1">
    <g id="patch_6">
     <path d="M 98.34 88.311562 
L 193.686875 88.311562 
Q 195.686875 88.311562 195.686875 86.311562 
L 195.686875 59.020937 
Q 195.686875 57.020937 193.686875 57.020937 
L 98.34 57.020937 
Q 96.34 57.020937 96.34 59.020937 
L 96.34 86.311562 
Q 96.34 88.311562 98.34 88.311562 
z
" style="fill: #ffffff; opacity: 0.8; stroke: #cccccc; stroke-linejoin: miter"/>
    </g>
    <g id="line2d_37">
     <path d="M 100.34 64.67875 
L 110.34 64.67875 
L 120.34 64.67875 
" style="fill: none; stroke: #ff0000; stroke-width: 1.5; stroke-linecap: square"/>
    </g>
    <g id="text_24">
     <!-- Donald Trump -->
     <g style="fill: #262626" transform="translate(128.34 68.17875) scale(0.1 -0.1)">
      <defs>
       <path id="ArialMT-6c" d="M 409 0 
L 409 4581 
L 972 4581 
L 972 0 
L 409 0 
z
" transform="scale(0.015625)"/>
       <path id="ArialMT-64" d="M 2575 0 
L 2575 419 
Q 2259 -75 1647 -75 
Q 1250 -75 917 144 
Q 584 363 401 755 
Q 219 1147 219 1656 
Q 219 2153 384 2558 
Q 550 2963 881 3178 
Q 1213 3394 1622 3394 
Q 1922 3394 2156 3267 
Q 2391 3141 2538 2938 
L 2538 4581 
L 3097 4581 
L 3097 0 
L 2575 0 
z
M 797 1656 
Q 797 1019 1065 703 
Q 1334 388 1700 388 
Q 2069 388 2326 689 
Q 2584 991 2584 1609 
Q 2584 2291 2321 2609 
Q 2059 2928 1675 2928 
Q 1300 2928 1048 2622 
Q 797 2316 797 1656 
z
" transform="scale(0.015625)"/>
      </defs>
      <use xlink:href="#ArialMT-44"/>
      <use xlink:href="#ArialMT-6f" x="72.216797"/>
      <use xlink:href="#ArialMT-6e" x="127.832031"/>
      <use xlink:href="#ArialMT-61" x="183.447266"/>
      <use xlink:href="#ArialMT-6c" x="239.0625"/>
      <use xlink:href="#ArialMT-64" x="261.279297"/>
      <use xlink:href="#ArialMT-20" x="316.894531"/>
      <use xlink:href="#ArialMT-54" x="342.927734"/>
      <use xlink:href="#ArialMT-72" x="400.261719"/>
      <use xlink:href="#ArialMT-75" x="433.5625"/>
      <use xlink:href="#ArialMT-6d" x="489.177734"/>
      <use xlink:href="#ArialMT-70" x="572.478516"/>
     </g>
    </g>
    <g id="line2d_38">
     <path d="M 100.34 78.824062 
L 110.34 78.824062 
L 120.34 78.824062 
" style="fill: none; stroke: #0000ff; stroke-width: 1.5; stroke-linecap: square"/>
    </g>
    <g id="text_25">
     <!-- Kamala Harris -->
     <g style="fill: #262626" transform="translate(128.34 82.324062) scale(0.1 -0.1)">
      <defs>
       <path id="ArialMT-4b" d="M 469 0 
L 469 4581 
L 1075 4581 
L 1075 2309 
L 3350 4581 
L 4172 4581 
L 2250 2725 
L 4256 0 
L 3456 0 
L 1825 2319 
L 1075 1588 
L 1075 0 
L 469 0 
z
" transform="scale(0.015625)"/>
       <path id="ArialMT-48" d="M 513 0 
L 513 4581 
L 1119 4581 
L 1119 2700 
L 3500 2700 
L 3500 4581 
L 4106 4581 
L 4106 0 
L 3500 0 
L 3500 2159 
L 1119 2159 
L 1119 0 
L 513 0 
z
" transform="scale(0.015625)"/>
      </defs>
      <use xlink:href="#ArialMT-4b"/>
      <use xlink:href="#ArialMT-61" x="66.699219"/>
      <use xlink:href="#ArialMT-6d" x="122.314453"/>
      <use xlink:href="#ArialMT-61" x="205.615234"/>
      <use xlink:href="#ArialMT-6c" x="261.230469"/>
      <use xlink:href="#ArialMT-61" x="283.447266"/>
      <use xlink:href="#ArialMT-20" x="339.0625"/>
      <use xlink:href="#ArialMT-48" x="366.845703"/>
      <use xlink:href="#ArialMT-61" x="439.0625"/>
      <use xlink:href="#ArialMT-72" x="494.677734"/>
      <use xlink:href="#ArialMT-72" x="527.978516"/>
      <use xlink:href="#ArialMT-69" x="561.279297"/>
      <use xlink:href="#ArialMT-73" x="583.496094"/>
     </g>
    </g>
   </g>
  </g>
 </g>
 <defs>
  <clipPath id="pa80e91f27e">
   <rect x="91.34" y="52.020937" width="678.41" height="471.095464"/>
  </clipPath>
 </defs>
</svg>
