<?xml version="1.0" encoding="utf-8" standalone="no"?>
<!DOCTYPE svg PUBLIC "-//W3C//DTD SVG 1.1//EN"
  "http://www.w3.org/Graphics/SVG/1.1/DTD/svg11.dtd">
<svg xmlns:xlink="http://www.w3.org/1999/xlink" width="901.365688pt" height="617.709544pt" viewBox="0 0 901.365688 617.709544" xmlns="http://www.w3.org/2000/svg" version="1.1">
 <metadata>
  <rdf:RDF xmlns:dc="http://purl.org/dc/elements/1.1/" xmlns:cc="http://creativecommons.org/ns#" xmlns:rdf="http://www.w3.org/1999/02/22-rdf-syntax-ns#">
   <cc:Work>
    <dc:type rdf:resource="http://purl.org/dc/dcmitype/StillImage"/>
    <dc:date>2024-11-06T09:27:04.088233</dc:date>
    <dc:format>image/svg+xml</dc:format>
    <dc:creator>
     <cc:Agent>
      <dc:title>Matplotlib v3.8.0, https://matplotlib.org/</dc:title>
     </cc:Agent>
    </dc:creator>
   </cc:Work>
  </rdf:RDF>
 </metadata>
 <defs>
  <style type="text/css">*{stroke-linejoin: round; stroke-linecap: butt}</style>
 </defs>
 <g id="figure_1">
  <g id="patch_1">
   <path d="M 0 617.709544 
L 901.365688 617.709544 
L 901.365688 0 
L 0 0 
z
" style="fill: #ffffff"/>
  </g>
  <g id="axes_1">
   <g id="patch_2">
    <path d="M 71.874375 492.42119 
L 865.365688 492.42119 
L 865.365688 52.020937 
L 71.874375 52.020937 
z
" style="fill: #ffffff"/>
   </g>
   <g id="matplotlib.axis_1">
    <g id="xtick_1">
     <g id="line2d_1">
      <path d="M 150.920603 492.42119 
L 150.920603 52.020937 
" clip-path="url(#p03e3e8d86a)" style="fill: none; stroke: #cccccc; stroke-opacity: 0.7; stroke-width: 0.8; stroke-linecap: round"/>
     </g>
     <g id="text_1">
      <!-- 2024-11-05 01:00 PM EST -->
      <g style="fill: #262626" transform="translate(47.550472 564.727068) rotate(-30) scale(0.1 -0.1)">
       <defs>
        <path id="ArialMT-32" d="M 3222 541 
L 3222 0 
L 194 0 
Q 188 203 259 391 
Q 375 700 629 1000 
Q 884 1300 1366 1694 
Q 2113 2306 2375 2664 
Q 2638 3022 2638 3341 
Q 2638 3675 2398 3904 
Q 2159 4134 1775 4134 
Q 1369 4134 1125 3890 
Q 881 3647 878 3216 
L 300 3275 
Q 359 3922 746 4261 
Q 1134 4600 1788 4600 
Q 2447 4600 2831 4234 
Q 3216 3869 3216 3328 
Q 3216 3053 3103 2787 
Q 2991 2522 2730 2228 
Q 2469 1934 1863 1422 
Q 1356 997 1212 845 
Q 1069 694 975 541 
L 3222 541 
z
" transform="scale(0.015625)"/>
        <path id="ArialMT-30" d="M 266 2259 
Q 266 3072 433 3567 
Q 600 4063 929 4331 
Q 1259 4600 1759 4600 
Q 2128 4600 2406 4451 
Q 2684 4303 2865 4023 
Q 3047 3744 3150 3342 
Q 3253 2941 3253 2259 
Q 3253 1453 3087 958 
Q 2922 463 2592 192 
Q 2263 -78 1759 -78 
Q 1097 -78 719 397 
Q 266 969 266 2259 
z
M 844 2259 
Q 844 1131 1108 757 
Q 1372 384 1759 384 
Q 2147 384 2411 759 
Q 2675 1134 2675 2259 
Q 2675 3391 2411 3762 
Q 2147 4134 1753 4134 
Q 1366 4134 1134 3806 
Q 844 3388 844 2259 
z
" transform="scale(0.015625)"/>
        <path id="ArialMT-34" d="M 2069 0 
L 2069 1097 
L 81 1097 
L 81 1613 
L 2172 4581 
L 2631 4581 
L 2631 1613 
L 3250 1613 
L 3250 1097 
L 2631 1097 
L 2631 0 
L 2069 0 
z
M 2069 1613 
L 2069 3678 
L 634 1613 
L 2069 1613 
z
" transform="scale(0.015625)"/>
        <path id="ArialMT-2d" d="M 203 1375 
L 203 1941 
L 1931 1941 
L 1931 1375 
L 203 1375 
z
" transform="scale(0.015625)"/>
        <path id="ArialMT-31" d="M 2384 0 
L 1822 0 
L 1822 3584 
Q 1619 3391 1289 3197 
Q 959 3003 697 2906 
L 697 3450 
Q 1169 3672 1522 3987 
Q 1875 4303 2022 4600 
L 2384 4600 
L 2384 0 
z
" transform="scale(0.015625)"/>
        <path id="ArialMT-35" d="M 266 1200 
L 856 1250 
Q 922 819 1161 601 
Q 1400 384 1738 384 
Q 2144 384 2425 690 
Q 2706 997 2706 1503 
Q 2706 1984 2436 2262 
Q 2166 2541 1728 2541 
Q 1456 2541 1237 2417 
Q 1019 2294 894 2097 
L 366 2166 
L 809 4519 
L 3088 4519 
L 3088 3981 
L 1259 3981 
L 1013 2750 
Q 1425 3038 1878 3038 
Q 2478 3038 2890 2622 
Q 3303 2206 3303 1553 
Q 3303 931 2941 478 
Q 2500 -78 1738 -78 
Q 1113 -78 717 272 
Q 322 622 266 1200 
z
" transform="scale(0.015625)"/>
        <path id="ArialMT-20" transform="scale(0.015625)"/>
        <path id="ArialMT-3a" d="M 578 2678 
L 578 3319 
L 1219 3319 
L 1219 2678 
L 578 2678 
z
M 578 0 
L 578 641 
L 1219 641 
L 1219 0 
L 578 0 
z
" transform="scale(0.015625)"/>
        <path id="ArialMT-50" d="M 494 0 
L 494 4581 
L 2222 4581 
Q 2678 4581 2919 4538 
Q 3256 4481 3484 4323 
Q 3713 4166 3852 3881 
Q 3991 3597 3991 3256 
Q 3991 2672 3619 2267 
Q 3247 1863 2275 1863 
L 1100 1863 
L 1100 0 
L 494 0 
z
M 1100 2403 
L 2284 2403 
Q 2872 2403 3119 2622 
Q 3366 2841 3366 3238 
Q 3366 3525 3220 3729 
Q 3075 3934 2838 4000 
Q 2684 4041 2272 4041 
L 1100 4041 
L 1100 2403 
z
" transform="scale(0.015625)"/>
        <path id="ArialMT-4d" d="M 475 0 
L 475 4581 
L 1388 4581 
L 2472 1338 
Q 2622 884 2691 659 
Q 2769 909 2934 1394 
L 4031 4581 
L 4847 4581 
L 4847 0 
L 4263 0 
L 4263 3834 
L 2931 0 
L 2384 0 
L 1059 3900 
L 1059 0 
L 475 0 
z
" transform="scale(0.015625)"/>
        <path id="ArialMT-45" d="M 506 0 
L 506 4581 
L 3819 4581 
L 3819 4041 
L 1113 4041 
L 1113 2638 
L 3647 2638 
L 3647 2100 
L 1113 2100 
L 1113 541 
L 3925 541 
L 3925 0 
L 506 0 
z
" transform="scale(0.015625)"/>
        <path id="ArialMT-53" d="M 288 1472 
L 859 1522 
Q 900 1178 1048 958 
Q 1197 738 1509 602 
Q 1822 466 2213 466 
Q 2559 466 2825 569 
Q 3091 672 3220 851 
Q 3350 1031 3350 1244 
Q 3350 1459 3225 1620 
Q 3100 1781 2813 1891 
Q 2628 1963 1997 2114 
Q 1366 2266 1113 2400 
Q 784 2572 623 2826 
Q 463 3081 463 3397 
Q 463 3744 659 4045 
Q 856 4347 1234 4503 
Q 1613 4659 2075 4659 
Q 2584 4659 2973 4495 
Q 3363 4331 3572 4012 
Q 3781 3694 3797 3291 
L 3216 3247 
Q 3169 3681 2898 3903 
Q 2628 4125 2100 4125 
Q 1550 4125 1298 3923 
Q 1047 3722 1047 3438 
Q 1047 3191 1225 3031 
Q 1400 2872 2139 2705 
Q 2878 2538 3153 2413 
Q 3553 2228 3743 1945 
Q 3934 1663 3934 1294 
Q 3934 928 3725 604 
Q 3516 281 3123 101 
Q 2731 -78 2241 -78 
Q 1619 -78 1198 103 
Q 778 284 539 648 
Q 300 1013 288 1472 
z
" transform="scale(0.015625)"/>
        <path id="ArialMT-54" d="M 1659 0 
L 1659 4041 
L 150 4041 
L 150 4581 
L 3781 4581 
L 3781 4041 
L 2266 4041 
L 2266 0 
L 1659 0 
z
" transform="scale(0.015625)"/>
       </defs>
       <use xlink:href="#ArialMT-32"/>
       <use xlink:href="#ArialMT-30" x="55.615234"/>
       <use xlink:href="#ArialMT-32" x="111.230469"/>
       <use xlink:href="#ArialMT-34" x="166.845703"/>
       <use xlink:href="#ArialMT-2d" x="222.460938"/>
       <use xlink:href="#ArialMT-31" x="255.761719"/>
       <use xlink:href="#ArialMT-31" x="304.001953"/>
       <use xlink:href="#ArialMT-2d" x="359.617188"/>
       <use xlink:href="#ArialMT-30" x="392.917969"/>
       <use xlink:href="#ArialMT-35" x="448.533203"/>
       <use xlink:href="#ArialMT-20" x="504.148438"/>
       <use xlink:href="#ArialMT-30" x="531.931641"/>
       <use xlink:href="#ArialMT-31" x="587.546875"/>
       <use xlink:href="#ArialMT-3a" x="643.162109"/>
       <use xlink:href="#ArialMT-30" x="670.945312"/>
       <use xlink:href="#ArialMT-30" x="726.560547"/>
       <use xlink:href="#ArialMT-20" x="782.175781"/>
       <use xlink:href="#ArialMT-50" x="809.958984"/>
       <use xlink:href="#ArialMT-4d" x="876.658203"/>
       <use xlink:href="#ArialMT-20" x="959.958984"/>
       <use xlink:href="#ArialMT-45" x="987.742188"/>
       <use xlink:href="#ArialMT-53" x="1054.441406"/>
       <use xlink:href="#ArialMT-54" x="1121.140625"/>
      </g>
     </g>
    </g>
    <g id="xtick_2">
     <g id="line2d_2">
      <path d="M 246.577819 492.42119 
L 246.577819 52.020937 
" clip-path="url(#p03e3e8d86a)" style="fill: none; stroke: #cccccc; stroke-opacity: 0.7; stroke-width: 0.8; stroke-linecap: round"/>
     </g>
     <g id="text_2">
      <!-- 2024-11-05 04:00 PM EST -->
      <g style="fill: #262626" transform="translate(143.207688 564.727068) rotate(-30) scale(0.1 -0.1)">
       <use xlink:href="#ArialMT-32"/>
       <use xlink:href="#ArialMT-30" x="55.615234"/>
       <use xlink:href="#ArialMT-32" x="111.230469"/>
       <use xlink:href="#ArialMT-34" x="166.845703"/>
       <use xlink:href="#ArialMT-2d" x="222.460938"/>
       <use xlink:href="#ArialMT-31" x="255.761719"/>
       <use xlink:href="#ArialMT-31" x="304.001953"/>
       <use xlink:href="#ArialMT-2d" x="359.617188"/>
       <use xlink:href="#ArialMT-30" x="392.917969"/>
       <use xlink:href="#ArialMT-35" x="448.533203"/>
       <use xlink:href="#ArialMT-20" x="504.148438"/>
       <use xlink:href="#ArialMT-30" x="531.931641"/>
       <use xlink:href="#ArialMT-34" x="587.546875"/>
       <use xlink:href="#ArialMT-3a" x="643.162109"/>
       <use xlink:href="#ArialMT-30" x="670.945312"/>
       <use xlink:href="#ArialMT-30" x="726.560547"/>
       <use xlink:href="#ArialMT-20" x="782.175781"/>
       <use xlink:href="#ArialMT-50" x="809.958984"/>
       <use xlink:href="#ArialMT-4d" x="876.658203"/>
       <use xlink:href="#ArialMT-20" x="959.958984"/>
       <use xlink:href="#ArialMT-45" x="987.742188"/>
       <use xlink:href="#ArialMT-53" x="1054.441406"/>
       <use xlink:href="#ArialMT-54" x="1121.140625"/>
      </g>
     </g>
    </g>
    <g id="xtick_3">
     <g id="line2d_3">
      <path d="M 342.235035 492.42119 
L 342.235035 52.020937 
" clip-path="url(#p03e3e8d86a)" style="fill: none; stroke: #cccccc; stroke-opacity: 0.7; stroke-width: 0.8; stroke-linecap: round"/>
     </g>
     <g id="text_3">
      <!-- 2024-11-05 07:00 PM EST -->
      <g style="fill: #262626" transform="translate(238.864903 564.727068) rotate(-30) scale(0.1 -0.1)">
       <defs>
        <path id="ArialMT-37" d="M 303 3981 
L 303 4522 
L 3269 4522 
L 3269 4084 
Q 2831 3619 2401 2847 
Q 1972 2075 1738 1259 
Q 1569 684 1522 0 
L 944 0 
Q 953 541 1156 1306 
Q 1359 2072 1739 2783 
Q 2119 3494 2547 3981 
L 303 3981 
z
" transform="scale(0.015625)"/>
       </defs>
       <use xlink:href="#ArialMT-32"/>
       <use xlink:href="#ArialMT-30" x="55.615234"/>
       <use xlink:href="#ArialMT-32" x="111.230469"/>
       <use xlink:href="#ArialMT-34" x="166.845703"/>
       <use xlink:href="#ArialMT-2d" x="222.460938"/>
       <use xlink:href="#ArialMT-31" x="255.761719"/>
       <use xlink:href="#ArialMT-31" x="304.001953"/>
       <use xlink:href="#ArialMT-2d" x="359.617188"/>
       <use xlink:href="#ArialMT-30" x="392.917969"/>
       <use xlink:href="#ArialMT-35" x="448.533203"/>
       <use xlink:href="#ArialMT-20" x="504.148438"/>
       <use xlink:href="#ArialMT-30" x="531.931641"/>
       <use xlink:href="#ArialMT-37" x="587.546875"/>
       <use xlink:href="#ArialMT-3a" x="643.162109"/>
       <use xlink:href="#ArialMT-30" x="670.945312"/>
       <use xlink:href="#ArialMT-30" x="726.560547"/>
       <use xlink:href="#ArialMT-20" x="782.175781"/>
       <use xlink:href="#ArialMT-50" x="809.958984"/>
       <use xlink:href="#ArialMT-4d" x="876.658203"/>
       <use xlink:href="#ArialMT-20" x="959.958984"/>
       <use xlink:href="#ArialMT-45" x="987.742188"/>
       <use xlink:href="#ArialMT-53" x="1054.441406"/>
       <use xlink:href="#ArialMT-54" x="1121.140625"/>
      </g>
     </g>
    </g>
    <g id="xtick_4">
     <g id="line2d_4">
      <path d="M 437.89225 492.42119 
L 437.89225 52.020937 
" clip-path="url(#p03e3e8d86a)" style="fill: none; stroke: #cccccc; stroke-opacity: 0.7; stroke-width: 0.8; stroke-linecap: round"/>
     </g>
     <g id="text_4">
      <!-- 2024-11-05 10:00 PM EST -->
      <g style="fill: #262626" transform="translate(334.522119 564.727068) rotate(-30) scale(0.1 -0.1)">
       <use xlink:href="#ArialMT-32"/>
       <use xlink:href="#ArialMT-30" x="55.615234"/>
       <use xlink:href="#ArialMT-32" x="111.230469"/>
       <use xlink:href="#ArialMT-34" x="166.845703"/>
       <use xlink:href="#ArialMT-2d" x="222.460938"/>
       <use xlink:href="#ArialMT-31" x="255.761719"/>
       <use xlink:href="#ArialMT-31" x="304.001953"/>
       <use xlink:href="#ArialMT-2d" x="359.617188"/>
       <use xlink:href="#ArialMT-30" x="392.917969"/>
       <use xlink:href="#ArialMT-35" x="448.533203"/>
       <use xlink:href="#ArialMT-20" x="504.148438"/>
       <use xlink:href="#ArialMT-31" x="531.931641"/>
       <use xlink:href="#ArialMT-30" x="587.546875"/>
       <use xlink:href="#ArialMT-3a" x="643.162109"/>
       <use xlink:href="#ArialMT-30" x="670.945312"/>
       <use xlink:href="#ArialMT-30" x="726.560547"/>
       <use xlink:href="#ArialMT-20" x="782.175781"/>
       <use xlink:href="#ArialMT-50" x="809.958984"/>
       <use xlink:href="#ArialMT-4d" x="876.658203"/>
       <use xlink:href="#ArialMT-20" x="959.958984"/>
       <use xlink:href="#ArialMT-45" x="987.742188"/>
       <use xlink:href="#ArialMT-53" x="1054.441406"/>
       <use xlink:href="#ArialMT-54" x="1121.140625"/>
      </g>
     </g>
    </g>
    <g id="xtick_5">
     <g id="line2d_5">
      <path d="M 533.549466 492.42119 
L 533.549466 52.020937 
" clip-path="url(#p03e3e8d86a)" style="fill: none; stroke: #cccccc; stroke-opacity: 0.7; stroke-width: 0.8; stroke-linecap: round"/>
     </g>
     <g id="text_5">
      <!-- 2024-11-06 01:00 AM EST -->
      <g style="fill: #262626" transform="translate(430.655648 564.452068) rotate(-30) scale(0.1 -0.1)">
       <defs>
        <path id="ArialMT-36" d="M 3184 3459 
L 2625 3416 
Q 2550 3747 2413 3897 
Q 2184 4138 1850 4138 
Q 1581 4138 1378 3988 
Q 1113 3794 959 3422 
Q 806 3050 800 2363 
Q 1003 2672 1297 2822 
Q 1591 2972 1913 2972 
Q 2475 2972 2870 2558 
Q 3266 2144 3266 1488 
Q 3266 1056 3080 686 
Q 2894 316 2569 119 
Q 2244 -78 1831 -78 
Q 1128 -78 684 439 
Q 241 956 241 2144 
Q 241 3472 731 4075 
Q 1159 4600 1884 4600 
Q 2425 4600 2770 4297 
Q 3116 3994 3184 3459 
z
M 888 1484 
Q 888 1194 1011 928 
Q 1134 663 1356 523 
Q 1578 384 1822 384 
Q 2178 384 2434 671 
Q 2691 959 2691 1453 
Q 2691 1928 2437 2201 
Q 2184 2475 1800 2475 
Q 1419 2475 1153 2201 
Q 888 1928 888 1484 
z
" transform="scale(0.015625)"/>
        <path id="ArialMT-41" d="M -9 0 
L 1750 4581 
L 2403 4581 
L 4278 0 
L 3588 0 
L 3053 1388 
L 1138 1388 
L 634 0 
L -9 0 
z
M 1313 1881 
L 2866 1881 
L 2388 3150 
Q 2169 3728 2063 4100 
Q 1975 3659 1816 3225 
L 1313 1881 
z
" transform="scale(0.015625)"/>
       </defs>
       <use xlink:href="#ArialMT-32"/>
       <use xlink:href="#ArialMT-30" x="55.615234"/>
       <use xlink:href="#ArialMT-32" x="111.230469"/>
       <use xlink:href="#ArialMT-34" x="166.845703"/>
       <use xlink:href="#ArialMT-2d" x="222.460938"/>
       <use xlink:href="#ArialMT-31" x="255.761719"/>
       <use xlink:href="#ArialMT-31" x="304.001953"/>
       <use xlink:href="#ArialMT-2d" x="359.617188"/>
       <use xlink:href="#ArialMT-30" x="392.917969"/>
       <use xlink:href="#ArialMT-36" x="448.533203"/>
       <use xlink:href="#ArialMT-20" x="504.148438"/>
       <use xlink:href="#ArialMT-30" x="531.931641"/>
       <use xlink:href="#ArialMT-31" x="587.546875"/>
       <use xlink:href="#ArialMT-3a" x="643.162109"/>
       <use xlink:href="#ArialMT-30" x="670.945312"/>
       <use xlink:href="#ArialMT-30" x="726.560547"/>
       <use xlink:href="#ArialMT-20" x="782.175781"/>
       <use xlink:href="#ArialMT-41" x="804.458984"/>
       <use xlink:href="#ArialMT-4d" x="871.158203"/>
       <use xlink:href="#ArialMT-20" x="954.458984"/>
       <use xlink:href="#ArialMT-45" x="982.242188"/>
       <use xlink:href="#ArialMT-53" x="1048.941406"/>
       <use xlink:href="#ArialMT-54" x="1115.640625"/>
      </g>
     </g>
    </g>
    <g id="xtick_6">
     <g id="line2d_6">
      <path d="M 629.206681 492.42119 
L 629.206681 52.020937 
" clip-path="url(#p03e3e8d86a)" style="fill: none; stroke: #cccccc; stroke-opacity: 0.7; stroke-width: 0.8; stroke-linecap: round"/>
     </g>
     <g id="text_6">
      <!-- 2024-11-06 04:00 AM EST -->
      <g style="fill: #262626" transform="translate(526.312864 564.452068) rotate(-30) scale(0.1 -0.1)">
       <use xlink:href="#ArialMT-32"/>
       <use xlink:href="#ArialMT-30" x="55.615234"/>
       <use xlink:href="#ArialMT-32" x="111.230469"/>
       <use xlink:href="#ArialMT-34" x="166.845703"/>
       <use xlink:href="#ArialMT-2d" x="222.460938"/>
       <use xlink:href="#ArialMT-31" x="255.761719"/>
       <use xlink:href="#ArialMT-31" x="304.001953"/>
       <use xlink:href="#ArialMT-2d" x="359.617188"/>
       <use xlink:href="#ArialMT-30" x="392.917969"/>
       <use xlink:href="#ArialMT-36" x="448.533203"/>
       <use xlink:href="#ArialMT-20" x="504.148438"/>
       <use xlink:href="#ArialMT-30" x="531.931641"/>
       <use xlink:href="#ArialMT-34" x="587.546875"/>
       <use xlink:href="#ArialMT-3a" x="643.162109"/>
       <use xlink:href="#ArialMT-30" x="670.945312"/>
       <use xlink:href="#ArialMT-30" x="726.560547"/>
       <use xlink:href="#ArialMT-20" x="782.175781"/>
       <use xlink:href="#ArialMT-41" x="804.458984"/>
       <use xlink:href="#ArialMT-4d" x="871.158203"/>
       <use xlink:href="#ArialMT-20" x="954.458984"/>
       <use xlink:href="#ArialMT-45" x="982.242188"/>
       <use xlink:href="#ArialMT-53" x="1048.941406"/>
       <use xlink:href="#ArialMT-54" x="1115.640625"/>
      </g>
     </g>
    </g>
    <g id="xtick_7">
     <g id="line2d_7">
      <path d="M 724.863897 492.42119 
L 724.863897 52.020937 
" clip-path="url(#p03e3e8d86a)" style="fill: none; stroke: #cccccc; stroke-opacity: 0.7; stroke-width: 0.8; stroke-linecap: round"/>
     </g>
     <g id="text_7">
      <!-- 2024-11-06 07:00 AM EST -->
      <g style="fill: #262626" transform="translate(621.97008 564.452068) rotate(-30) scale(0.1 -0.1)">
       <use xlink:href="#ArialMT-32"/>
       <use xlink:href="#ArialMT-30" x="55.615234"/>
       <use xlink:href="#ArialMT-32" x="111.230469"/>
       <use xlink:href="#ArialMT-34" x="166.845703"/>
       <use xlink:href="#ArialMT-2d" x="222.460938"/>
       <use xlink:href="#ArialMT-31" x="255.761719"/>
       <use xlink:href="#ArialMT-31" x="304.001953"/>
       <use xlink:href="#ArialMT-2d" x="359.617188"/>
       <use xlink:href="#ArialMT-30" x="392.917969"/>
       <use xlink:href="#ArialMT-36" x="448.533203"/>
       <use xlink:href="#ArialMT-20" x="504.148438"/>
       <use xlink:href="#ArialMT-30" x="531.931641"/>
       <use xlink:href="#ArialMT-37" x="587.546875"/>
       <use xlink:href="#ArialMT-3a" x="643.162109"/>
       <use xlink:href="#ArialMT-30" x="670.945312"/>
       <use xlink:href="#ArialMT-30" x="726.560547"/>
       <use xlink:href="#ArialMT-20" x="782.175781"/>
       <use xlink:href="#ArialMT-41" x="804.458984"/>
       <use xlink:href="#ArialMT-4d" x="871.158203"/>
       <use xlink:href="#ArialMT-20" x="954.458984"/>
       <use xlink:href="#ArialMT-45" x="982.242188"/>
       <use xlink:href="#ArialMT-53" x="1048.941406"/>
       <use xlink:href="#ArialMT-54" x="1115.640625"/>
      </g>
     </g>
    </g>
    <g id="xtick_8">
     <g id="line2d_8">
      <path d="M 820.521112 492.42119 
L 820.521112 52.020937 
" clip-path="url(#p03e3e8d86a)" style="fill: none; stroke: #cccccc; stroke-opacity: 0.7; stroke-width: 0.8; stroke-linecap: round"/>
     </g>
     <g id="text_8">
      <!-- 2024-11-06 10:00 AM EST -->
      <g style="fill: #262626" transform="translate(717.627295 564.452068) rotate(-30) scale(0.1 -0.1)">
       <use xlink:href="#ArialMT-32"/>
       <use xlink:href="#ArialMT-30" x="55.615234"/>
       <use xlink:href="#ArialMT-32" x="111.230469"/>
       <use xlink:href="#ArialMT-34" x="166.845703"/>
       <use xlink:href="#ArialMT-2d" x="222.460938"/>
       <use xlink:href="#ArialMT-31" x="255.761719"/>
       <use xlink:href="#ArialMT-31" x="304.001953"/>
       <use xlink:href="#ArialMT-2d" x="359.617188"/>
       <use xlink:href="#ArialMT-30" x="392.917969"/>
       <use xlink:href="#ArialMT-36" x="448.533203"/>
       <use xlink:href="#ArialMT-20" x="504.148438"/>
       <use xlink:href="#ArialMT-31" x="531.931641"/>
       <use xlink:href="#ArialMT-30" x="587.546875"/>
       <use xlink:href="#ArialMT-3a" x="643.162109"/>
       <use xlink:href="#ArialMT-30" x="670.945312"/>
       <use xlink:href="#ArialMT-30" x="726.560547"/>
       <use xlink:href="#ArialMT-20" x="782.175781"/>
       <use xlink:href="#ArialMT-41" x="804.458984"/>
       <use xlink:href="#ArialMT-4d" x="871.158203"/>
       <use xlink:href="#ArialMT-20" x="954.458984"/>
       <use xlink:href="#ArialMT-45" x="982.242188"/>
       <use xlink:href="#ArialMT-53" x="1048.941406"/>
       <use xlink:href="#ArialMT-54" x="1115.640625"/>
      </g>
     </g>
    </g>
    <g id="text_9">
     <!-- Timestamp (EST) -->
     <g style="fill: #262626" transform="translate(421.843469 579.183919) scale(0.12 -0.12)">
      <defs>
       <path id="ArialMT-69" d="M 425 3934 
L 425 4581 
L 988 4581 
L 988 3934 
L 425 3934 
z
M 425 0 
L 425 3319 
L 988 3319 
L 988 0 
L 425 0 
z
" transform="scale(0.015625)"/>
       <path id="ArialMT-6d" d="M 422 0 
L 422 3319 
L 925 3319 
L 925 2853 
Q 1081 3097 1340 3245 
Q 1600 3394 1931 3394 
Q 2300 3394 2536 3241 
Q 2772 3088 2869 2813 
Q 3263 3394 3894 3394 
Q 4388 3394 4653 3120 
Q 4919 2847 4919 2278 
L 4919 0 
L 4359 0 
L 4359 2091 
Q 4359 2428 4304 2576 
Q 4250 2725 4106 2815 
Q 3963 2906 3769 2906 
Q 3419 2906 3187 2673 
Q 2956 2441 2956 1928 
L 2956 0 
L 2394 0 
L 2394 2156 
Q 2394 2531 2256 2718 
Q 2119 2906 1806 2906 
Q 1569 2906 1367 2781 
Q 1166 2656 1075 2415 
Q 984 2175 984 1722 
L 984 0 
L 422 0 
z
" transform="scale(0.015625)"/>
       <path id="ArialMT-65" d="M 2694 1069 
L 3275 997 
Q 3138 488 2766 206 
Q 2394 -75 1816 -75 
Q 1088 -75 661 373 
Q 234 822 234 1631 
Q 234 2469 665 2931 
Q 1097 3394 1784 3394 
Q 2450 3394 2872 2941 
Q 3294 2488 3294 1666 
Q 3294 1616 3291 1516 
L 816 1516 
Q 847 969 1125 678 
Q 1403 388 1819 388 
Q 2128 388 2347 550 
Q 2566 713 2694 1069 
z
M 847 1978 
L 2700 1978 
Q 2663 2397 2488 2606 
Q 2219 2931 1791 2931 
Q 1403 2931 1139 2672 
Q 875 2413 847 1978 
z
" transform="scale(0.015625)"/>
       <path id="ArialMT-73" d="M 197 991 
L 753 1078 
Q 800 744 1014 566 
Q 1228 388 1613 388 
Q 2000 388 2187 545 
Q 2375 703 2375 916 
Q 2375 1106 2209 1216 
Q 2094 1291 1634 1406 
Q 1016 1563 777 1677 
Q 538 1791 414 1992 
Q 291 2194 291 2438 
Q 291 2659 392 2848 
Q 494 3038 669 3163 
Q 800 3259 1026 3326 
Q 1253 3394 1513 3394 
Q 1903 3394 2198 3281 
Q 2494 3169 2634 2976 
Q 2775 2784 2828 2463 
L 2278 2388 
Q 2241 2644 2061 2787 
Q 1881 2931 1553 2931 
Q 1166 2931 1000 2803 
Q 834 2675 834 2503 
Q 834 2394 903 2306 
Q 972 2216 1119 2156 
Q 1203 2125 1616 2013 
Q 2213 1853 2448 1751 
Q 2684 1650 2818 1456 
Q 2953 1263 2953 975 
Q 2953 694 2789 445 
Q 2625 197 2315 61 
Q 2006 -75 1616 -75 
Q 969 -75 630 194 
Q 291 463 197 991 
z
" transform="scale(0.015625)"/>
       <path id="ArialMT-74" d="M 1650 503 
L 1731 6 
Q 1494 -44 1306 -44 
Q 1000 -44 831 53 
Q 663 150 594 308 
Q 525 466 525 972 
L 525 2881 
L 113 2881 
L 113 3319 
L 525 3319 
L 525 4141 
L 1084 4478 
L 1084 3319 
L 1650 3319 
L 1650 2881 
L 1084 2881 
L 1084 941 
Q 1084 700 1114 631 
Q 1144 563 1211 522 
Q 1278 481 1403 481 
Q 1497 481 1650 503 
z
" transform="scale(0.015625)"/>
       <path id="ArialMT-61" d="M 2588 409 
Q 2275 144 1986 34 
Q 1697 -75 1366 -75 
Q 819 -75 525 192 
Q 231 459 231 875 
Q 231 1119 342 1320 
Q 453 1522 633 1644 
Q 813 1766 1038 1828 
Q 1203 1872 1538 1913 
Q 2219 1994 2541 2106 
Q 2544 2222 2544 2253 
Q 2544 2597 2384 2738 
Q 2169 2928 1744 2928 
Q 1347 2928 1158 2789 
Q 969 2650 878 2297 
L 328 2372 
Q 403 2725 575 2942 
Q 747 3159 1072 3276 
Q 1397 3394 1825 3394 
Q 2250 3394 2515 3294 
Q 2781 3194 2906 3042 
Q 3031 2891 3081 2659 
Q 3109 2516 3109 2141 
L 3109 1391 
Q 3109 606 3145 398 
Q 3181 191 3288 0 
L 2700 0 
Q 2613 175 2588 409 
z
M 2541 1666 
Q 2234 1541 1622 1453 
Q 1275 1403 1131 1340 
Q 988 1278 909 1158 
Q 831 1038 831 891 
Q 831 666 1001 516 
Q 1172 366 1500 366 
Q 1825 366 2078 508 
Q 2331 650 2450 897 
Q 2541 1088 2541 1459 
L 2541 1666 
z
" transform="scale(0.015625)"/>
       <path id="ArialMT-70" d="M 422 -1272 
L 422 3319 
L 934 3319 
L 934 2888 
Q 1116 3141 1344 3267 
Q 1572 3394 1897 3394 
Q 2322 3394 2647 3175 
Q 2972 2956 3137 2557 
Q 3303 2159 3303 1684 
Q 3303 1175 3120 767 
Q 2938 359 2589 142 
Q 2241 -75 1856 -75 
Q 1575 -75 1351 44 
Q 1128 163 984 344 
L 984 -1272 
L 422 -1272 
z
M 931 1641 
Q 931 1000 1190 694 
Q 1450 388 1819 388 
Q 2194 388 2461 705 
Q 2728 1022 2728 1688 
Q 2728 2322 2467 2637 
Q 2206 2953 1844 2953 
Q 1484 2953 1207 2617 
Q 931 2281 931 1641 
z
" transform="scale(0.015625)"/>
       <path id="ArialMT-28" d="M 1497 -1347 
Q 1031 -759 709 28 
Q 388 816 388 1659 
Q 388 2403 628 3084 
Q 909 3875 1497 4659 
L 1900 4659 
Q 1522 4009 1400 3731 
Q 1209 3300 1100 2831 
Q 966 2247 966 1656 
Q 966 153 1900 -1347 
L 1497 -1347 
z
" transform="scale(0.015625)"/>
       <path id="ArialMT-29" d="M 791 -1347 
L 388 -1347 
Q 1322 153 1322 1656 
Q 1322 2244 1188 2822 
Q 1081 3291 891 3722 
Q 769 4003 388 4659 
L 791 4659 
Q 1378 3875 1659 3084 
Q 1900 2403 1900 1659 
Q 1900 816 1576 28 
Q 1253 -759 791 -1347 
z
" transform="scale(0.015625)"/>
      </defs>
      <use xlink:href="#ArialMT-54"/>
      <use xlink:href="#ArialMT-69" x="57.333984"/>
      <use xlink:href="#ArialMT-6d" x="79.550781"/>
      <use xlink:href="#ArialMT-65" x="162.851562"/>
      <use xlink:href="#ArialMT-73" x="218.466797"/>
      <use xlink:href="#ArialMT-74" x="268.466797"/>
      <use xlink:href="#ArialMT-61" x="296.25"/>
      <use xlink:href="#ArialMT-6d" x="351.865234"/>
      <use xlink:href="#ArialMT-70" x="435.166016"/>
      <use xlink:href="#ArialMT-20" x="490.78125"/>
      <use xlink:href="#ArialMT-28" x="518.564453"/>
      <use xlink:href="#ArialMT-45" x="551.865234"/>
      <use xlink:href="#ArialMT-53" x="618.564453"/>
      <use xlink:href="#ArialMT-54" x="685.263672"/>
      <use xlink:href="#ArialMT-29" x="746.347656"/>
     </g>
    </g>
   </g>
   <g id="matplotlib.axis_2">
    <g id="ytick_1">
     <g id="line2d_9">
      <path d="M 71.874375 492.42119 
L 865.365688 492.42119 
" clip-path="url(#p03e3e8d86a)" style="fill: none; stroke: #cccccc; stroke-opacity: 0.7; stroke-width: 0.8; stroke-linecap: round"/>
     </g>
     <g id="text_10">
      <!-- 0.0 -->
      <g style="fill: #262626" transform="translate(50.974375 496.000096) scale(0.1 -0.1)">
       <defs>
        <path id="ArialMT-2e" d="M 581 0 
L 581 641 
L 1222 641 
L 1222 0 
L 581 0 
z
" transform="scale(0.015625)"/>
       </defs>
       <use xlink:href="#ArialMT-30"/>
       <use xlink:href="#ArialMT-2e" x="55.615234"/>
       <use xlink:href="#ArialMT-30" x="83.398438"/>
      </g>
     </g>
    </g>
    <g id="ytick_2">
     <g id="line2d_10">
      <path d="M 71.874375 394.688751 
L 865.365688 394.688751 
" clip-path="url(#p03e3e8d86a)" style="fill: none; stroke: #cccccc; stroke-opacity: 0.7; stroke-width: 0.8; stroke-linecap: round"/>
     </g>
     <g id="text_11">
      <!-- 0.5 -->
      <g style="fill: #262626" transform="translate(50.974375 398.267658) scale(0.1 -0.1)">
       <use xlink:href="#ArialMT-30"/>
       <use xlink:href="#ArialMT-2e" x="55.615234"/>
       <use xlink:href="#ArialMT-35" x="83.398438"/>
      </g>
     </g>
    </g>
    <g id="ytick_3">
     <g id="line2d_11">
      <path d="M 71.874375 296.956313 
L 865.365688 296.956313 
" clip-path="url(#p03e3e8d86a)" style="fill: none; stroke: #cccccc; stroke-opacity: 0.7; stroke-width: 0.8; stroke-linecap: round"/>
     </g>
     <g id="text_12">
      <!-- 1.0 -->
      <g style="fill: #262626" transform="translate(50.974375 300.535219) scale(0.1 -0.1)">
       <use xlink:href="#ArialMT-31"/>
       <use xlink:href="#ArialMT-2e" x="55.615234"/>
       <use xlink:href="#ArialMT-30" x="83.398438"/>
      </g>
     </g>
    </g>
    <g id="ytick_4">
     <g id="line2d_12">
      <path d="M 71.874375 199.223875 
L 865.365688 199.223875 
" clip-path="url(#p03e3e8d86a)" style="fill: none; stroke: #cccccc; stroke-opacity: 0.7; stroke-width: 0.8; stroke-linecap: round"/>
     </g>
     <g id="text_13">
      <!-- 1.5 -->
      <g style="fill: #262626" transform="translate(50.974375 202.802781) scale(0.1 -0.1)">
       <use xlink:href="#ArialMT-31"/>
       <use xlink:href="#ArialMT-2e" x="55.615234"/>
       <use xlink:href="#ArialMT-35" x="83.398438"/>
      </g>
     </g>
    </g>
    <g id="ytick_5">
     <g id="line2d_13">
      <path d="M 71.874375 101.491436 
L 865.365688 101.491436 
" clip-path="url(#p03e3e8d86a)" style="fill: none; stroke: #cccccc; stroke-opacity: 0.7; stroke-width: 0.8; stroke-linecap: round"/>
     </g>
     <g id="text_14">
      <!-- 2.0 -->
      <g style="fill: #262626" transform="translate(50.974375 105.070343) scale(0.1 -0.1)">
       <use xlink:href="#ArialMT-32"/>
       <use xlink:href="#ArialMT-2e" x="55.615234"/>
       <use xlink:href="#ArialMT-30" x="83.398438"/>
      </g>
     </g>
    </g>
    <g id="text_15">
     <!-- Vote Count -->
     <g style="fill: #262626" transform="translate(44.589375 301.909814) rotate(-90) scale(0.12 -0.12)">
      <defs>
       <path id="ArialMT-56" d="M 1803 0 
L 28 4581 
L 684 4581 
L 1875 1253 
Q 2019 853 2116 503 
Q 2222 878 2363 1253 
L 3600 4581 
L 4219 4581 
L 2425 0 
L 1803 0 
z
" transform="scale(0.015625)"/>
       <path id="ArialMT-6f" d="M 213 1659 
Q 213 2581 725 3025 
Q 1153 3394 1769 3394 
Q 2453 3394 2887 2945 
Q 3322 2497 3322 1706 
Q 3322 1066 3130 698 
Q 2938 331 2570 128 
Q 2203 -75 1769 -75 
Q 1072 -75 642 372 
Q 213 819 213 1659 
z
M 791 1659 
Q 791 1022 1069 705 
Q 1347 388 1769 388 
Q 2188 388 2466 706 
Q 2744 1025 2744 1678 
Q 2744 2294 2464 2611 
Q 2184 2928 1769 2928 
Q 1347 2928 1069 2612 
Q 791 2297 791 1659 
z
" transform="scale(0.015625)"/>
       <path id="ArialMT-43" d="M 3763 1606 
L 4369 1453 
Q 4178 706 3683 314 
Q 3188 -78 2472 -78 
Q 1731 -78 1267 223 
Q 803 525 561 1097 
Q 319 1669 319 2325 
Q 319 3041 592 3573 
Q 866 4106 1370 4382 
Q 1875 4659 2481 4659 
Q 3169 4659 3637 4309 
Q 4106 3959 4291 3325 
L 3694 3184 
Q 3534 3684 3231 3912 
Q 2928 4141 2469 4141 
Q 1941 4141 1586 3887 
Q 1231 3634 1087 3207 
Q 944 2781 944 2328 
Q 944 1744 1114 1308 
Q 1284 872 1643 656 
Q 2003 441 2422 441 
Q 2931 441 3284 734 
Q 3638 1028 3763 1606 
z
" transform="scale(0.015625)"/>
       <path id="ArialMT-75" d="M 2597 0 
L 2597 488 
Q 2209 -75 1544 -75 
Q 1250 -75 995 37 
Q 741 150 617 320 
Q 494 491 444 738 
Q 409 903 409 1263 
L 409 3319 
L 972 3319 
L 972 1478 
Q 972 1038 1006 884 
Q 1059 663 1231 536 
Q 1403 409 1656 409 
Q 1909 409 2131 539 
Q 2353 669 2445 892 
Q 2538 1116 2538 1541 
L 2538 3319 
L 3100 3319 
L 3100 0 
L 2597 0 
z
" transform="scale(0.015625)"/>
       <path id="ArialMT-6e" d="M 422 0 
L 422 3319 
L 928 3319 
L 928 2847 
Q 1294 3394 1984 3394 
Q 2284 3394 2536 3286 
Q 2788 3178 2913 3003 
Q 3038 2828 3088 2588 
Q 3119 2431 3119 2041 
L 3119 0 
L 2556 0 
L 2556 2019 
Q 2556 2363 2490 2533 
Q 2425 2703 2258 2804 
Q 2091 2906 1866 2906 
Q 1506 2906 1245 2678 
Q 984 2450 984 1813 
L 984 0 
L 422 0 
z
" transform="scale(0.015625)"/>
      </defs>
      <use xlink:href="#ArialMT-56"/>
      <use xlink:href="#ArialMT-6f" x="61.199219"/>
      <use xlink:href="#ArialMT-74" x="116.814453"/>
      <use xlink:href="#ArialMT-65" x="144.597656"/>
      <use xlink:href="#ArialMT-20" x="200.212891"/>
      <use xlink:href="#ArialMT-43" x="227.996094"/>
      <use xlink:href="#ArialMT-6f" x="300.212891"/>
      <use xlink:href="#ArialMT-75" x="355.828125"/>
      <use xlink:href="#ArialMT-6e" x="411.443359"/>
      <use xlink:href="#ArialMT-74" x="467.058594"/>
     </g>
    </g>
    <g id="text_16">
     <!-- 1e6 -->
     <g style="fill: #262626" transform="translate(71.874375 49.020937) scale(0.1 -0.1)">
      <use xlink:href="#ArialMT-31"/>
      <use xlink:href="#ArialMT-65" x="55.615234"/>
      <use xlink:href="#ArialMT-36" x="111.230469"/>
     </g>
    </g>
   </g>
   <g id="line2d_14">
    <path d="M 107.942162 492.42119 
L 380.107693 492.42119 
L 398.94979 488.81154 
L 400.127322 488.81154 
L 400.789943 488.028898 
L 402.512561 487.93058 
L 418.516545 473.932753 
L 419.284238 471.663406 
L 420.187145 471.492961 
L 421.107155 467.864351 
L 422.779925 465.033042 
L 423.62456 464.39309 
L 424.50303 463.399347 
L 425.129 463.399347 
L 426.04281 460.925934 
L 426.480433 460.669484 
L 427.83803 459.14349 
L 428.608248 456.650531 
L 429.474017 456.331728 
L 429.946094 455.370822 
L 431.087745 453.312577 
L 432.016895 452.468951 
L 432.578775 451.096983 
L 433.592556 447.876894 
L 434.545381 446.03112 
L 435.23801 446.03112 
L 436.037156 442.067678 
L 437.71997 437.469367 
L 438.716966 436.399392 
L 439.504269 434.217222 
L 440.383173 428.502025 
L 441.099557 427.580213 
L 442.016653 426.186939 
L 442.783 426.186939 
L 443.59319 422.084131 
L 445.26542 420.162711 
L 446.235225 419.557552 
L 446.949979 418.920923 
L 447.992704 418.883589 
L 448.283387 416.551693 
L 448.992845 415.036841 
L 450.129961 414.849781 
L 451.348306 412.102717 
L 452.315853 410.877934 
L 453.141534 406.621491 
L 454.02825 402.942647 
L 454.844764 400.152386 
L 455.712339 400.057781 
L 456.43805 395.766154 
L 456.899799 395.681322 
L 458.067553 394.846882 
L 459.040484 393.307792 
L 459.880186 391.200485 
L 460.750011 389.846695 
L 461.488644 389.529847 
L 462.326026 389.369761 
L 463.186064 388.288254 
L 464.057917 384.334781 
L 464.515496 383.210076 
L 466.628165 382.286309 
L 467.325612 381.536897 
L 468.067576 379.970637 
L 468.92129 379.261686 
L 469.995795 377.662588 
L 470.789581 374.203446 
L 471.682471 373.089296 
L 472.538249 372.734332 
L 473.304543 369.531053 
L 474.161782 369.038091 
L 475.010244 367.699352 
L 475.595843 366.044742 
L 476.700011 362.252137 
L 477.475799 361.396196 
L 477.976202 361.325243 
L 478.601924 360.677472 
L 479.743035 359.333455 
L 480.532056 356.561177 
L 482.392846 355.593235 
L 484.165162 352.802778 
L 486.575387 352.802778 
L 487.515626 350.58132 
L 488.243002 348.249229 
L 489.226651 347.871981 
L 489.852027 347.871981 
L 490.588207 343.610261 
L 491.439725 340.938842 
L 492.747766 340.92301 
L 494.182323 339.525827 
L 494.415399 339.525827 
L 495.328775 339.231066 
L 497.412986 339.197055 
L 498.276293 337.391546 
L 498.968142 336.875909 
L 499.94296 336.875909 
L 500.357395 335.26782 
L 501.284198 330.8595 
L 502.423821 330.8595 
L 516.216157 312.034669 
L 517.227378 311.867156 
L 517.564879 310.769816 
L 518.64391 310.769816 
L 519.721135 307.933034 
L 520.506277 307.436749 
L 522.410103 304.674244 
L 524.135892 303.976434 
L 524.815386 300.951615 
L 525.507245 299.797395 
L 527.374775 299.797395 
L 528.164753 299.208655 
L 528.611614 297.851347 
L 530.077224 297.851347 
L 530.847893 297.576523 
L 534.24585 297.50987 
L 535.665979 297.346852 
L 536.461998 296.124024 
L 537.267927 293.918007 
L 537.971814 293.809719 
L 538.919175 291.701826 
L 539.826368 291.701826 
L 540.270669 291.550927 
L 541.157297 291.395337 
L 542.041648 290.674658 
L 542.7055 289.632244 
L 543.78283 289.547412 
L 546.297207 289.547412 
L 547.353351 288.674271 
L 548.283343 288.423098 
L 550.208834 288.423098 
L 551.961496 287.506759 
L 553.831692 286.667824 
L 556.932305 286.634204 
L 557.919116 286.105276 
L 559.514669 286.105276 
L 559.932523 284.325373 
L 560.939776 284.304458 
L 563.369248 282.034524 
L 574.298501 280.197936 
L 577.850165 280.197936 
L 593.004783 278.61213 
L 595.397524 278.61213 
L 598.212123 278.485664 
L 599.700301 277.049388 
L 608.599982 275.387546 
L 613.295467 275.387546 
L 624.020864 274.30252 
L 630.49072 274.175468 
L 656.636698 274.175468 
L 785.648079 271.601587 
L 787.88117 270.724731 
L 792.76231 270.710267 
L 793.949008 270.363903 
L 798.767988 270.289431 
L 802.947048 269.512262 
L 829.297901 269.470824 
L 829.297901 269.470824 
" clip-path="url(#p03e3e8d86a)" style="fill: none; stroke: #ff0000; stroke-width: 1.5; stroke-linecap: round"/>
   </g>
   <g id="line2d_15">
    <path d="M 107.942162 492.42119 
L 380.107693 492.42119 
L 398.94979 480.430006 
L 400.127322 480.430006 
L 400.789943 478.743144 
L 402.512561 478.494904 
L 418.516545 449.282482 
L 419.284238 445.296954 
L 420.187145 444.688862 
L 421.434223 437.581564 
L 422.779925 434.205885 
L 423.62456 433.664839 
L 424.50303 430.742834 
L 425.129 430.742834 
L 426.04281 427.314771 
L 426.480433 426.832168 
L 427.83803 425.729356 
L 428.608248 421.988744 
L 429.474017 421.509464 
L 429.946094 420.039569 
L 431.087745 416.102124 
L 432.016895 415.303455 
L 432.578775 412.606235 
L 433.592556 409.289 
L 434.545381 407.10468 
L 435.23801 407.10468 
L 436.037156 401.563642 
L 437.028023 398.387924 
L 437.71997 395.027297 
L 438.716966 394.028471 
L 439.504269 390.269681 
L 440.383173 379.244485 
L 441.099557 377.163761 
L 442.016653 373.494495 
L 442.783 373.494495 
L 443.59319 368.353769 
L 444.601258 366.459714 
L 445.26542 365.680591 
L 446.235225 364.872539 
L 446.949979 362.101238 
L 447.992704 361.627822 
L 448.283387 358.448977 
L 448.992845 356.231428 
L 450.129961 355.243744 
L 451.348306 351.387026 
L 452.315853 350.220101 
L 453.141534 343.555921 
L 454.02825 338.608315 
L 454.844764 334.725014 
L 455.712339 334.160902 
L 456.43805 326.860094 
L 456.899799 326.71154 
L 458.067553 325.232653 
L 459.040484 322.589968 
L 459.880186 318.973281 
L 460.750011 315.759252 
L 462.326026 315.202373 
L 463.186064 312.291705 
L 464.515496 304.778817 
L 465.654578 304.320257 
L 466.628165 303.200634 
L 467.325612 300.788402 
L 468.067576 299.517489 
L 468.92129 298.675036 
L 469.995795 295.743649 
L 470.789581 291.237597 
L 471.682471 289.305231 
L 472.538249 288.538227 
L 473.304543 281.475104 
L 474.161782 280.83437 
L 475.010244 278.187776 
L 476.700011 270.552331 
L 477.976202 269.481574 
L 478.601924 266.701868 
L 479.743035 264.940144 
L 480.532056 260.205789 
L 481.683486 258.920803 
L 483.280917 255.16299 
L 484.165162 251.869016 
L 486.575387 251.869016 
L 487.515626 249.187043 
L 488.243002 245.248425 
L 489.226651 243.361603 
L 489.852027 243.361603 
L 490.588207 237.359268 
L 491.439725 233.419282 
L 492.747766 233.375498 
L 494.182323 230.330155 
L 494.415399 230.330155 
L 495.328775 230.120812 
L 497.412986 230.091883 
L 498.276293 221.817464 
L 498.968142 220.630406 
L 499.94296 220.630406 
L 500.357395 216.309264 
L 501.284198 211.480109 
L 502.423821 211.480109 
L 516.216157 182.124607 
L 517.227378 181.679925 
L 517.564879 180.668394 
L 518.64391 180.668394 
L 520.506277 177.965701 
L 521.331054 172.354882 
L 522.410103 170.349412 
L 524.135892 169.336904 
L 524.815386 164.096295 
L 525.507245 162.895164 
L 527.374775 162.895164 
L 528.164753 161.324408 
L 528.611614 158.581449 
L 530.077224 158.581449 
L 530.847893 158.188174 
L 533.001261 158.152208 
L 533.976965 158.0017 
L 534.24585 156.047052 
L 535.665979 155.828522 
L 536.461998 154.012653 
L 537.267927 151.334003 
L 537.971814 151.102572 
L 538.919175 147.151445 
L 539.826368 147.151445 
L 540.270669 146.339875 
L 541.157297 145.906334 
L 542.041648 145.333426 
L 542.7055 142.551375 
L 545.409561 142.494104 
L 546.297207 142.494104 
L 547.353351 141.491955 
L 548.283343 140.208337 
L 550.208834 140.208337 
L 551.961496 138.379372 
L 553.831692 137.231407 
L 556.330595 137.139539 
L 556.932305 137.139539 
L 557.919116 136.703847 
L 559.514669 136.703847 
L 559.932523 133.478482 
L 560.939776 133.344979 
L 563.369248 129.754289 
L 574.298501 124.704845 
L 577.850165 124.704845 
L 593.004783 123.034011 
L 598.212123 122.926506 
L 599.700301 120.863765 
L 608.599982 118.468147 
L 613.295467 118.468147 
L 624.020864 116.873936 
L 628.365146 116.376282 
L 656.636698 116.376282 
L 783.625345 113.033833 
L 785.648079 113.033833 
L 787.88117 112.360065 
L 792.76231 112.329573 
L 793.949008 112.053772 
L 796.462641 112.053772 
L 797.694998 111.773475 
L 798.767988 111.756079 
L 802.947048 110.748653 
L 809.296376 109.519179 
L 829.297901 109.464449 
L 829.297901 109.464449 
" clip-path="url(#p03e3e8d86a)" style="fill: none; stroke: #0000ff; stroke-width: 1.5; stroke-linecap: round"/>
   </g>
   <g id="text_17">
    <!-- ↑ 1,959,210 -->
    <g style="fill: #0000ff" transform="translate(767.036964 102.369136) scale(0.1 -0.1)">
     <defs>
      <path id="ArialMT-2191" d="M 478 2894 
Q 931 3309 1167 3612 
Q 1403 3916 1519 4184 
L 1663 4184 
Q 1809 3875 2042 3584 
Q 2275 3294 2725 2891 
L 2725 2650 
Q 2097 2944 1759 3266 
L 1759 -1341 
L 1444 -1341 
L 1444 3266 
Q 1144 3028 995 2934 
Q 847 2841 478 2656 
L 478 2894 
z
" transform="scale(0.015625)"/>
      <path id="ArialMT-2c" d="M 569 0 
L 569 641 
L 1209 641 
L 1209 0 
Q 1209 -353 1084 -570 
Q 959 -788 688 -906 
L 531 -666 
Q 709 -588 793 -436 
Q 878 -284 888 0 
L 569 0 
z
" transform="scale(0.015625)"/>
      <path id="ArialMT-39" d="M 350 1059 
L 891 1109 
Q 959 728 1153 556 
Q 1347 384 1650 384 
Q 1909 384 2104 503 
Q 2300 622 2425 820 
Q 2550 1019 2634 1356 
Q 2719 1694 2719 2044 
Q 2719 2081 2716 2156 
Q 2547 1888 2255 1720 
Q 1963 1553 1622 1553 
Q 1053 1553 659 1965 
Q 266 2378 266 3053 
Q 266 3750 677 4175 
Q 1088 4600 1706 4600 
Q 2153 4600 2523 4359 
Q 2894 4119 3086 3673 
Q 3278 3228 3278 2384 
Q 3278 1506 3087 986 
Q 2897 466 2520 194 
Q 2144 -78 1638 -78 
Q 1100 -78 759 220 
Q 419 519 350 1059 
z
M 2653 3081 
Q 2653 3566 2395 3850 
Q 2138 4134 1775 4134 
Q 1400 4134 1122 3828 
Q 844 3522 844 3034 
Q 844 2597 1108 2323 
Q 1372 2050 1759 2050 
Q 2150 2050 2401 2323 
Q 2653 2597 2653 3081 
z
" transform="scale(0.015625)"/>
     </defs>
     <use xlink:href="#ArialMT-2191"/>
     <use xlink:href="#ArialMT-20" x="50"/>
     <use xlink:href="#ArialMT-31" x="77.783203"/>
     <use xlink:href="#ArialMT-2c" x="133.398438"/>
     <use xlink:href="#ArialMT-39" x="161.181641"/>
     <use xlink:href="#ArialMT-35" x="216.796875"/>
     <use xlink:href="#ArialMT-39" x="272.412109"/>
     <use xlink:href="#ArialMT-2c" x="328.027344"/>
     <use xlink:href="#ArialMT-32" x="355.810547"/>
     <use xlink:href="#ArialMT-31" x="411.425781"/>
     <use xlink:href="#ArialMT-30" x="467.041016"/>
    </g>
   </g>
   <g id="text_18">
    <!-- ↑ 1,140,616 -->
    <g style="fill: #ff0000" transform="translate(767.036964 262.375511) scale(0.1 -0.1)">
     <use xlink:href="#ArialMT-2191"/>
     <use xlink:href="#ArialMT-20" x="50"/>
     <use xlink:href="#ArialMT-31" x="77.783203"/>
     <use xlink:href="#ArialMT-2c" x="133.398438"/>
     <use xlink:href="#ArialMT-31" x="161.181641"/>
     <use xlink:href="#ArialMT-34" x="216.796875"/>
     <use xlink:href="#ArialMT-30" x="272.412109"/>
     <use xlink:href="#ArialMT-2c" x="328.027344"/>
     <use xlink:href="#ArialMT-36" x="355.810547"/>
     <use xlink:href="#ArialMT-31" x="411.425781"/>
     <use xlink:href="#ArialMT-36" x="467.041016"/>
    </g>
   </g>
   <g id="text_19">
    <g id="patch_3">
     <path d="M 762.397424 88.186263 
L 849.495862 88.186263 
Q 854.495862 88.186263 854.495862 83.186263 
L 854.495862 74.04095 
Q 854.495862 69.04095 849.495862 69.04095 
L 762.397424 69.04095 
Q 757.397424 69.04095 757.397424 74.04095 
L 757.397424 83.186263 
Q 757.397424 88.186263 762.397424 88.186263 
z
" style="fill: #0000ff; opacity: 0.5; stroke: #ffffff; stroke-linejoin: miter"/>
    </g>
    <!-- Difference: 818,594 -->
    <g style="fill: #262626" transform="translate(762.397424 81.198763) scale(0.1 -0.1)">
     <defs>
      <path id="ArialMT-44" d="M 494 0 
L 494 4581 
L 2072 4581 
Q 2606 4581 2888 4516 
Q 3281 4425 3559 4188 
Q 3922 3881 4101 3404 
Q 4281 2928 4281 2316 
Q 4281 1794 4159 1391 
Q 4038 988 3847 723 
Q 3656 459 3429 307 
Q 3203 156 2883 78 
Q 2563 0 2147 0 
L 494 0 
z
M 1100 541 
L 2078 541 
Q 2531 541 2789 625 
Q 3047 709 3200 863 
Q 3416 1078 3536 1442 
Q 3656 1806 3656 2325 
Q 3656 3044 3420 3430 
Q 3184 3816 2847 3947 
Q 2603 4041 2063 4041 
L 1100 4041 
L 1100 541 
z
" transform="scale(0.015625)"/>
      <path id="ArialMT-66" d="M 556 0 
L 556 2881 
L 59 2881 
L 59 3319 
L 556 3319 
L 556 3672 
Q 556 4006 616 4169 
Q 697 4388 901 4523 
Q 1106 4659 1475 4659 
Q 1713 4659 2000 4603 
L 1916 4113 
Q 1741 4144 1584 4144 
Q 1328 4144 1222 4034 
Q 1116 3925 1116 3625 
L 1116 3319 
L 1763 3319 
L 1763 2881 
L 1116 2881 
L 1116 0 
L 556 0 
z
" transform="scale(0.015625)"/>
      <path id="ArialMT-72" d="M 416 0 
L 416 3319 
L 922 3319 
L 922 2816 
Q 1116 3169 1280 3281 
Q 1444 3394 1641 3394 
Q 1925 3394 2219 3213 
L 2025 2691 
Q 1819 2813 1613 2813 
Q 1428 2813 1281 2702 
Q 1134 2591 1072 2394 
Q 978 2094 978 1738 
L 978 0 
L 416 0 
z
" transform="scale(0.015625)"/>
      <path id="ArialMT-63" d="M 2588 1216 
L 3141 1144 
Q 3050 572 2676 248 
Q 2303 -75 1759 -75 
Q 1078 -75 664 370 
Q 250 816 250 1647 
Q 250 2184 428 2587 
Q 606 2991 970 3192 
Q 1334 3394 1763 3394 
Q 2303 3394 2647 3120 
Q 2991 2847 3088 2344 
L 2541 2259 
Q 2463 2594 2264 2762 
Q 2066 2931 1784 2931 
Q 1359 2931 1093 2626 
Q 828 2322 828 1663 
Q 828 994 1084 691 
Q 1341 388 1753 388 
Q 2084 388 2306 591 
Q 2528 794 2588 1216 
z
" transform="scale(0.015625)"/>
      <path id="ArialMT-38" d="M 1131 2484 
Q 781 2613 612 2850 
Q 444 3088 444 3419 
Q 444 3919 803 4259 
Q 1163 4600 1759 4600 
Q 2359 4600 2725 4251 
Q 3091 3903 3091 3403 
Q 3091 3084 2923 2848 
Q 2756 2613 2416 2484 
Q 2838 2347 3058 2040 
Q 3278 1734 3278 1309 
Q 3278 722 2862 322 
Q 2447 -78 1769 -78 
Q 1091 -78 675 323 
Q 259 725 259 1325 
Q 259 1772 486 2073 
Q 713 2375 1131 2484 
z
M 1019 3438 
Q 1019 3113 1228 2906 
Q 1438 2700 1772 2700 
Q 2097 2700 2305 2904 
Q 2513 3109 2513 3406 
Q 2513 3716 2298 3927 
Q 2084 4138 1766 4138 
Q 1444 4138 1231 3931 
Q 1019 3725 1019 3438 
z
M 838 1322 
Q 838 1081 952 856 
Q 1066 631 1291 507 
Q 1516 384 1775 384 
Q 2178 384 2440 643 
Q 2703 903 2703 1303 
Q 2703 1709 2433 1975 
Q 2163 2241 1756 2241 
Q 1359 2241 1098 1978 
Q 838 1716 838 1322 
z
" transform="scale(0.015625)"/>
     </defs>
     <use xlink:href="#ArialMT-44"/>
     <use xlink:href="#ArialMT-69" x="72.216797"/>
     <use xlink:href="#ArialMT-66" x="94.433594"/>
     <use xlink:href="#ArialMT-66" x="120.466797"/>
     <use xlink:href="#ArialMT-65" x="148.25"/>
     <use xlink:href="#ArialMT-72" x="203.865234"/>
     <use xlink:href="#ArialMT-65" x="237.166016"/>
     <use xlink:href="#ArialMT-6e" x="292.78125"/>
     <use xlink:href="#ArialMT-63" x="348.396484"/>
     <use xlink:href="#ArialMT-65" x="398.396484"/>
     <use xlink:href="#ArialMT-3a" x="454.011719"/>
     <use xlink:href="#ArialMT-20" x="481.794922"/>
     <use xlink:href="#ArialMT-38" x="509.578125"/>
     <use xlink:href="#ArialMT-31" x="565.193359"/>
     <use xlink:href="#ArialMT-38" x="620.808594"/>
     <use xlink:href="#ArialMT-2c" x="676.423828"/>
     <use xlink:href="#ArialMT-35" x="704.207031"/>
     <use xlink:href="#ArialMT-39" x="759.822266"/>
     <use xlink:href="#ArialMT-34" x="815.4375"/>
    </g>
   </g>
   <g id="text_20">
    <!-- Vote Counts Over Time - Massachusetts -->
    <g style="fill: #262626" transform="translate(335.454875 46.020937) scale(0.14 -0.14)">
     <defs>
      <path id="Arial-BoldMT-56" d="M 1634 0 
L -3 4581 
L 1000 4581 
L 2159 1191 
L 3281 4581 
L 4263 4581 
L 2622 0 
L 1634 0 
z
" transform="scale(0.015625)"/>
      <path id="Arial-BoldMT-6f" d="M 256 1706 
Q 256 2144 472 2553 
Q 688 2963 1083 3178 
Q 1478 3394 1966 3394 
Q 2719 3394 3200 2905 
Q 3681 2416 3681 1669 
Q 3681 916 3195 420 
Q 2709 -75 1972 -75 
Q 1516 -75 1102 131 
Q 688 338 472 736 
Q 256 1134 256 1706 
z
M 1156 1659 
Q 1156 1166 1390 903 
Q 1625 641 1969 641 
Q 2313 641 2545 903 
Q 2778 1166 2778 1666 
Q 2778 2153 2545 2415 
Q 2313 2678 1969 2678 
Q 1625 2678 1390 2415 
Q 1156 2153 1156 1659 
z
" transform="scale(0.015625)"/>
      <path id="Arial-BoldMT-74" d="M 1981 3319 
L 1981 2619 
L 1381 2619 
L 1381 1281 
Q 1381 875 1398 808 
Q 1416 741 1477 697 
Q 1538 653 1625 653 
Q 1747 653 1978 738 
L 2053 56 
Q 1747 -75 1359 -75 
Q 1122 -75 931 4 
Q 741 84 652 211 
Q 563 338 528 553 
Q 500 706 500 1172 
L 500 2619 
L 97 2619 
L 97 3319 
L 500 3319 
L 500 3978 
L 1381 4491 
L 1381 3319 
L 1981 3319 
z
" transform="scale(0.015625)"/>
      <path id="Arial-BoldMT-65" d="M 2381 1056 
L 3256 909 
Q 3088 428 2723 176 
Q 2359 -75 1813 -75 
Q 947 -75 531 491 
Q 203 944 203 1634 
Q 203 2459 634 2926 
Q 1066 3394 1725 3394 
Q 2466 3394 2894 2905 
Q 3322 2416 3303 1406 
L 1103 1406 
Q 1113 1016 1316 798 
Q 1519 581 1822 581 
Q 2028 581 2168 693 
Q 2309 806 2381 1056 
z
M 2431 1944 
Q 2422 2325 2234 2523 
Q 2047 2722 1778 2722 
Q 1491 2722 1303 2513 
Q 1116 2303 1119 1944 
L 2431 1944 
z
" transform="scale(0.015625)"/>
      <path id="Arial-BoldMT-20" transform="scale(0.015625)"/>
      <path id="Arial-BoldMT-43" d="M 3397 1684 
L 4294 1400 
Q 4088 650 3608 286 
Q 3128 -78 2391 -78 
Q 1478 -78 890 545 
Q 303 1169 303 2250 
Q 303 3394 893 4026 
Q 1484 4659 2447 4659 
Q 3288 4659 3813 4163 
Q 4125 3869 4281 3319 
L 3366 3100 
Q 3284 3456 3026 3662 
Q 2769 3869 2400 3869 
Q 1891 3869 1573 3503 
Q 1256 3138 1256 2319 
Q 1256 1450 1568 1081 
Q 1881 713 2381 713 
Q 2750 713 3015 947 
Q 3281 1181 3397 1684 
z
" transform="scale(0.015625)"/>
      <path id="Arial-BoldMT-75" d="M 2644 0 
L 2644 497 
Q 2463 231 2167 78 
Q 1872 -75 1544 -75 
Q 1209 -75 943 72 
Q 678 219 559 484 
Q 441 750 441 1219 
L 441 3319 
L 1319 3319 
L 1319 1794 
Q 1319 1094 1367 936 
Q 1416 778 1544 686 
Q 1672 594 1869 594 
Q 2094 594 2272 717 
Q 2450 841 2515 1023 
Q 2581 1206 2581 1919 
L 2581 3319 
L 3459 3319 
L 3459 0 
L 2644 0 
z
" transform="scale(0.015625)"/>
      <path id="Arial-BoldMT-6e" d="M 3478 0 
L 2600 0 
L 2600 1694 
Q 2600 2231 2544 2389 
Q 2488 2547 2361 2634 
Q 2234 2722 2056 2722 
Q 1828 2722 1647 2597 
Q 1466 2472 1398 2265 
Q 1331 2059 1331 1503 
L 1331 0 
L 453 0 
L 453 3319 
L 1269 3319 
L 1269 2831 
Q 1703 3394 2363 3394 
Q 2653 3394 2893 3289 
Q 3134 3184 3257 3021 
Q 3381 2859 3429 2653 
Q 3478 2447 3478 2063 
L 3478 0 
z
" transform="scale(0.015625)"/>
      <path id="Arial-BoldMT-73" d="M 150 947 
L 1031 1081 
Q 1088 825 1259 692 
Q 1431 559 1741 559 
Q 2081 559 2253 684 
Q 2369 772 2369 919 
Q 2369 1019 2306 1084 
Q 2241 1147 2013 1200 
Q 950 1434 666 1628 
Q 272 1897 272 2375 
Q 272 2806 612 3100 
Q 953 3394 1669 3394 
Q 2350 3394 2681 3172 
Q 3013 2950 3138 2516 
L 2309 2363 
Q 2256 2556 2107 2659 
Q 1959 2763 1684 2763 
Q 1338 2763 1188 2666 
Q 1088 2597 1088 2488 
Q 1088 2394 1175 2328 
Q 1294 2241 1995 2081 
Q 2697 1922 2975 1691 
Q 3250 1456 3250 1038 
Q 3250 581 2869 253 
Q 2488 -75 1741 -75 
Q 1063 -75 667 200 
Q 272 475 150 947 
z
" transform="scale(0.015625)"/>
      <path id="Arial-BoldMT-4f" d="M 278 2263 
Q 278 2963 488 3438 
Q 644 3788 914 4066 
Q 1184 4344 1506 4478 
Q 1934 4659 2494 4659 
Q 3506 4659 4114 4031 
Q 4722 3403 4722 2284 
Q 4722 1175 4119 548 
Q 3516 -78 2506 -78 
Q 1484 -78 881 545 
Q 278 1169 278 2263 
z
M 1231 2294 
Q 1231 1516 1590 1114 
Q 1950 713 2503 713 
Q 3056 713 3411 1111 
Q 3766 1509 3766 2306 
Q 3766 3094 3420 3481 
Q 3075 3869 2503 3869 
Q 1931 3869 1581 3476 
Q 1231 3084 1231 2294 
z
" transform="scale(0.015625)"/>
      <path id="Arial-BoldMT-76" d="M 1372 0 
L 34 3319 
L 956 3319 
L 1581 1625 
L 1763 1059 
Q 1834 1275 1853 1344 
Q 1897 1484 1947 1625 
L 2578 3319 
L 3481 3319 
L 2163 0 
L 1372 0 
z
" transform="scale(0.015625)"/>
      <path id="Arial-BoldMT-72" d="M 1300 0 
L 422 0 
L 422 3319 
L 1238 3319 
L 1238 2847 
Q 1447 3181 1614 3287 
Q 1781 3394 1994 3394 
Q 2294 3394 2572 3228 
L 2300 2463 
Q 2078 2606 1888 2606 
Q 1703 2606 1575 2504 
Q 1447 2403 1373 2137 
Q 1300 1872 1300 1025 
L 1300 0 
z
" transform="scale(0.015625)"/>
      <path id="Arial-BoldMT-54" d="M 1497 0 
L 1497 3806 
L 138 3806 
L 138 4581 
L 3778 4581 
L 3778 3806 
L 2422 3806 
L 2422 0 
L 1497 0 
z
" transform="scale(0.015625)"/>
      <path id="Arial-BoldMT-69" d="M 459 3769 
L 459 4581 
L 1338 4581 
L 1338 3769 
L 459 3769 
z
M 459 0 
L 459 3319 
L 1338 3319 
L 1338 0 
L 459 0 
z
" transform="scale(0.015625)"/>
      <path id="Arial-BoldMT-6d" d="M 394 3319 
L 1203 3319 
L 1203 2866 
Q 1638 3394 2238 3394 
Q 2556 3394 2790 3262 
Q 3025 3131 3175 2866 
Q 3394 3131 3647 3262 
Q 3900 3394 4188 3394 
Q 4553 3394 4806 3245 
Q 5059 3097 5184 2809 
Q 5275 2597 5275 2122 
L 5275 0 
L 4397 0 
L 4397 1897 
Q 4397 2391 4306 2534 
Q 4184 2722 3931 2722 
Q 3747 2722 3584 2609 
Q 3422 2497 3350 2280 
Q 3278 2063 3278 1594 
L 3278 0 
L 2400 0 
L 2400 1819 
Q 2400 2303 2353 2443 
Q 2306 2584 2207 2653 
Q 2109 2722 1941 2722 
Q 1738 2722 1575 2612 
Q 1413 2503 1342 2297 
Q 1272 2091 1272 1613 
L 1272 0 
L 394 0 
L 394 3319 
z
" transform="scale(0.015625)"/>
      <path id="Arial-BoldMT-2d" d="M 359 1222 
L 359 2100 
L 2084 2100 
L 2084 1222 
L 359 1222 
z
" transform="scale(0.015625)"/>
      <path id="Arial-BoldMT-4d" d="M 453 0 
L 453 4581 
L 1838 4581 
L 2669 1456 
L 3491 4581 
L 4878 4581 
L 4878 0 
L 4019 0 
L 4019 3606 
L 3109 0 
L 2219 0 
L 1313 3606 
L 1313 0 
L 453 0 
z
" transform="scale(0.015625)"/>
      <path id="Arial-BoldMT-61" d="M 1116 2306 
L 319 2450 
Q 453 2931 781 3162 
Q 1109 3394 1756 3394 
Q 2344 3394 2631 3255 
Q 2919 3116 3036 2902 
Q 3153 2688 3153 2116 
L 3144 1091 
Q 3144 653 3186 445 
Q 3228 238 3344 0 
L 2475 0 
Q 2441 88 2391 259 
Q 2369 338 2359 363 
Q 2134 144 1878 34 
Q 1622 -75 1331 -75 
Q 819 -75 523 203 
Q 228 481 228 906 
Q 228 1188 362 1408 
Q 497 1628 739 1745 
Q 981 1863 1438 1950 
Q 2053 2066 2291 2166 
L 2291 2253 
Q 2291 2506 2166 2614 
Q 2041 2722 1694 2722 
Q 1459 2722 1328 2630 
Q 1197 2538 1116 2306 
z
M 2291 1594 
Q 2122 1538 1756 1459 
Q 1391 1381 1278 1306 
Q 1106 1184 1106 997 
Q 1106 813 1243 678 
Q 1381 544 1594 544 
Q 1831 544 2047 700 
Q 2206 819 2256 991 
Q 2291 1103 2291 1419 
L 2291 1594 
z
" transform="scale(0.015625)"/>
      <path id="Arial-BoldMT-63" d="M 3353 2338 
L 2488 2181 
Q 2444 2441 2289 2572 
Q 2134 2703 1888 2703 
Q 1559 2703 1364 2476 
Q 1169 2250 1169 1719 
Q 1169 1128 1367 884 
Q 1566 641 1900 641 
Q 2150 641 2309 783 
Q 2469 925 2534 1272 
L 3397 1125 
Q 3263 531 2881 228 
Q 2500 -75 1859 -75 
Q 1131 -75 698 384 
Q 266 844 266 1656 
Q 266 2478 700 2936 
Q 1134 3394 1875 3394 
Q 2481 3394 2839 3133 
Q 3197 2872 3353 2338 
z
" transform="scale(0.015625)"/>
      <path id="Arial-BoldMT-68" d="M 1334 4581 
L 1334 2897 
Q 1759 3394 2350 3394 
Q 2653 3394 2897 3281 
Q 3141 3169 3264 2994 
Q 3388 2819 3433 2606 
Q 3478 2394 3478 1947 
L 3478 0 
L 2600 0 
L 2600 1753 
Q 2600 2275 2550 2415 
Q 2500 2556 2373 2639 
Q 2247 2722 2056 2722 
Q 1838 2722 1666 2615 
Q 1494 2509 1414 2295 
Q 1334 2081 1334 1663 
L 1334 0 
L 456 0 
L 456 4581 
L 1334 4581 
z
" transform="scale(0.015625)"/>
     </defs>
     <use xlink:href="#Arial-BoldMT-56"/>
     <use xlink:href="#Arial-BoldMT-6f" x="59.324219"/>
     <use xlink:href="#Arial-BoldMT-74" x="120.408203"/>
     <use xlink:href="#Arial-BoldMT-65" x="153.708984"/>
     <use xlink:href="#Arial-BoldMT-20" x="209.324219"/>
     <use xlink:href="#Arial-BoldMT-43" x="237.107422"/>
     <use xlink:href="#Arial-BoldMT-6f" x="309.324219"/>
     <use xlink:href="#Arial-BoldMT-75" x="370.408203"/>
     <use xlink:href="#Arial-BoldMT-6e" x="431.492188"/>
     <use xlink:href="#Arial-BoldMT-74" x="492.576172"/>
     <use xlink:href="#Arial-BoldMT-73" x="525.876953"/>
     <use xlink:href="#Arial-BoldMT-20" x="581.492188"/>
     <use xlink:href="#Arial-BoldMT-4f" x="609.275391"/>
     <use xlink:href="#Arial-BoldMT-76" x="687.058594"/>
     <use xlink:href="#Arial-BoldMT-65" x="742.673828"/>
     <use xlink:href="#Arial-BoldMT-72" x="798.289062"/>
     <use xlink:href="#Arial-BoldMT-20" x="837.205078"/>
     <use xlink:href="#Arial-BoldMT-54" x="864.988281"/>
     <use xlink:href="#Arial-BoldMT-69" x="924.322266"/>
     <use xlink:href="#Arial-BoldMT-6d" x="952.105469"/>
     <use xlink:href="#Arial-BoldMT-65" x="1041.021484"/>
     <use xlink:href="#Arial-BoldMT-20" x="1096.636719"/>
     <use xlink:href="#Arial-BoldMT-2d" x="1124.419922"/>
     <use xlink:href="#Arial-BoldMT-20" x="1157.720703"/>
     <use xlink:href="#Arial-BoldMT-4d" x="1185.503906"/>
     <use xlink:href="#Arial-BoldMT-61" x="1268.804688"/>
     <use xlink:href="#Arial-BoldMT-73" x="1324.419922"/>
     <use xlink:href="#Arial-BoldMT-73" x="1380.035156"/>
     <use xlink:href="#Arial-BoldMT-61" x="1435.650391"/>
     <use xlink:href="#Arial-BoldMT-63" x="1491.265625"/>
     <use xlink:href="#Arial-BoldMT-68" x="1546.880859"/>
     <use xlink:href="#Arial-BoldMT-75" x="1607.964844"/>
     <use xlink:href="#Arial-BoldMT-73" x="1669.048828"/>
     <use xlink:href="#Arial-BoldMT-65" x="1724.664062"/>
     <use xlink:href="#Arial-BoldMT-74" x="1780.279297"/>
     <use xlink:href="#Arial-BoldMT-74" x="1813.580078"/>
     <use xlink:href="#Arial-BoldMT-73" x="1846.880859"/>
    </g>
   </g>
   <g id="legend_1">
    <g id="patch_4">
     <path d="M 78.874375 88.311562 
L 174.22125 88.311562 
Q 176.22125 88.311562 176.22125 86.311562 
L 176.22125 59.020937 
Q 176.22125 57.020937 174.22125 57.020937 
L 78.874375 57.020937 
Q 76.874375 57.020937 76.874375 59.020937 
L 76.874375 86.311562 
Q 76.874375 88.311562 78.874375 88.311562 
z
" style="fill: #ffffff; opacity: 0.8; stroke: #cccccc; stroke-linejoin: miter"/>
    </g>
    <g id="line2d_16">
     <path d="M 80.874375 64.67875 
L 90.874375 64.67875 
L 100.874375 64.67875 
" style="fill: none; stroke: #ff0000; stroke-width: 1.5; stroke-linecap: round"/>
    </g>
    <g id="text_21">
     <!-- Donald Trump -->
     <g style="fill: #262626" transform="translate(108.874375 68.17875) scale(0.1 -0.1)">
      <defs>
       <path id="ArialMT-6c" d="M 409 0 
L 409 4581 
L 972 4581 
L 972 0 
L 409 0 
z
" transform="scale(0.015625)"/>
       <path id="ArialMT-64" d="M 2575 0 
L 2575 419 
Q 2259 -75 1647 -75 
Q 1250 -75 917 144 
Q 584 363 401 755 
Q 219 1147 219 1656 
Q 219 2153 384 2558 
Q 550 2963 881 3178 
Q 1213 3394 1622 3394 
Q 1922 3394 2156 3267 
Q 2391 3141 2538 2938 
L 2538 4581 
L 3097 4581 
L 3097 0 
L 2575 0 
z
M 797 1656 
Q 797 1019 1065 703 
Q 1334 388 1700 388 
Q 2069 388 2326 689 
Q 2584 991 2584 1609 
Q 2584 2291 2321 2609 
Q 2059 2928 1675 2928 
Q 1300 2928 1048 2622 
Q 797 2316 797 1656 
z
" transform="scale(0.015625)"/>
      </defs>
      <use xlink:href="#ArialMT-44"/>
      <use xlink:href="#ArialMT-6f" x="72.216797"/>
      <use xlink:href="#ArialMT-6e" x="127.832031"/>
      <use xlink:href="#ArialMT-61" x="183.447266"/>
      <use xlink:href="#ArialMT-6c" x="239.0625"/>
      <use xlink:href="#ArialMT-64" x="261.279297"/>
      <use xlink:href="#ArialMT-20" x="316.894531"/>
      <use xlink:href="#ArialMT-54" x="342.927734"/>
      <use xlink:href="#ArialMT-72" x="400.261719"/>
      <use xlink:href="#ArialMT-75" x="433.5625"/>
      <use xlink:href="#ArialMT-6d" x="489.177734"/>
      <use xlink:href="#ArialMT-70" x="572.478516"/>
     </g>
    </g>
    <g id="line2d_17">
     <path d="M 80.874375 78.824062 
L 90.874375 78.824062 
L 100.874375 78.824062 
" style="fill: none; stroke: #0000ff; stroke-width: 1.5; stroke-linecap: round"/>
    </g>
    <g id="text_22">
     <!-- Kamala Harris -->
     <g style="fill: #262626" transform="translate(108.874375 82.324062) scale(0.1 -0.1)">
      <defs>
       <path id="ArialMT-4b" d="M 469 0 
L 469 4581 
L 1075 4581 
L 1075 2309 
L 3350 4581 
L 4172 4581 
L 2250 2725 
L 4256 0 
L 3456 0 
L 1825 2319 
L 1075 1588 
L 1075 0 
L 469 0 
z
" transform="scale(0.015625)"/>
       <path id="ArialMT-48" d="M 513 0 
L 513 4581 
L 1119 4581 
L 1119 2700 
L 3500 2700 
L 3500 4581 
L 4106 4581 
L 4106 0 
L 3500 0 
L 3500 2159 
L 1119 2159 
L 1119 0 
L 513 0 
z
" transform="scale(0.015625)"/>
      </defs>
      <use xlink:href="#ArialMT-4b"/>
      <use xlink:href="#ArialMT-61" x="66.699219"/>
      <use xlink:href="#ArialMT-6d" x="122.314453"/>
      <use xlink:href="#ArialMT-61" x="205.615234"/>
      <use xlink:href="#ArialMT-6c" x="261.230469"/>
      <use xlink:href="#ArialMT-61" x="283.447266"/>
      <use xlink:href="#ArialMT-20" x="339.0625"/>
      <use xlink:href="#ArialMT-48" x="366.845703"/>
      <use xlink:href="#ArialMT-61" x="439.0625"/>
      <use xlink:href="#ArialMT-72" x="494.677734"/>
      <use xlink:href="#ArialMT-72" x="527.978516"/>
      <use xlink:href="#ArialMT-69" x="561.279297"/>
      <use xlink:href="#ArialMT-73" x="583.496094"/>
     </g>
    </g>
   </g>
  </g>
 </g>
 <defs>
  <clipPath id="p03e3e8d86a">
   <rect x="71.874375" y="52.020937" width="793.491313" height="440.400252"/>
  </clipPath>
 </defs>
</svg>
