<?xml version="1.0" encoding="utf-8" standalone="no"?>
<!DOCTYPE svg PUBLIC "-//W3C//DTD SVG 1.1//EN"
  "http://www.w3.org/Graphics/SVG/1.1/DTD/svg11.dtd">
<svg xmlns:xlink="http://www.w3.org/1999/xlink" width="900.288932pt" height="617.709544pt" viewBox="0 0 900.288932 617.709544" xmlns="http://www.w3.org/2000/svg" version="1.1">
 <metadata>
  <rdf:RDF xmlns:dc="http://purl.org/dc/elements/1.1/" xmlns:cc="http://creativecommons.org/ns#" xmlns:rdf="http://www.w3.org/1999/02/22-rdf-syntax-ns#">
   <cc:Work>
    <dc:type rdf:resource="http://purl.org/dc/dcmitype/StillImage"/>
    <dc:date>2024-11-06T08:06:20.716768</dc:date>
    <dc:format>image/svg+xml</dc:format>
    <dc:creator>
     <cc:Agent>
      <dc:title>Matplotlib v3.8.0, https://matplotlib.org/</dc:title>
     </cc:Agent>
    </dc:creator>
   </cc:Work>
  </rdf:RDF>
 </metadata>
 <defs>
  <style type="text/css">*{stroke-linejoin: round; stroke-linecap: butt}</style>
 </defs>
 <g id="figure_1">
  <g id="patch_1">
   <path d="M -0 617.709544 
L 900.288932 617.709544 
L 900.288932 0 
L -0 0 
z
" style="fill: #ffffff"/>
  </g>
  <g id="axes_1">
   <g id="patch_2">
    <path d="M 91.34 492.42119 
L 864.288932 492.42119 
L 864.288932 52.020937 
L 91.34 52.020937 
z
" style="fill: #ffffff"/>
   </g>
   <g id="matplotlib.axis_1">
    <g id="xtick_1">
     <g id="line2d_1">
      <path d="M 144.626852 492.42119 
L 144.626852 52.020937 
" clip-path="url(#p476f7947bc)" style="fill: none; stroke: #cccccc; stroke-opacity: 0.7; stroke-width: 0.8; stroke-linecap: round"/>
     </g>
     <g id="text_1">
      <!-- 2024-11-05 07:00 PM EST -->
      <g style="fill: #262626" transform="translate(41.25672 564.727068) rotate(-30) scale(0.1 -0.1)">
       <defs>
        <path id="ArialMT-32" d="M 3222 541 
L 3222 0 
L 194 0 
Q 188 203 259 391 
Q 375 700 629 1000 
Q 884 1300 1366 1694 
Q 2113 2306 2375 2664 
Q 2638 3022 2638 3341 
Q 2638 3675 2398 3904 
Q 2159 4134 1775 4134 
Q 1369 4134 1125 3890 
Q 881 3647 878 3216 
L 300 3275 
Q 359 3922 746 4261 
Q 1134 4600 1788 4600 
Q 2447 4600 2831 4234 
Q 3216 3869 3216 3328 
Q 3216 3053 3103 2787 
Q 2991 2522 2730 2228 
Q 2469 1934 1863 1422 
Q 1356 997 1212 845 
Q 1069 694 975 541 
L 3222 541 
z
" transform="scale(0.015625)"/>
        <path id="ArialMT-30" d="M 266 2259 
Q 266 3072 433 3567 
Q 600 4063 929 4331 
Q 1259 4600 1759 4600 
Q 2128 4600 2406 4451 
Q 2684 4303 2865 4023 
Q 3047 3744 3150 3342 
Q 3253 2941 3253 2259 
Q 3253 1453 3087 958 
Q 2922 463 2592 192 
Q 2263 -78 1759 -78 
Q 1097 -78 719 397 
Q 266 969 266 2259 
z
M 844 2259 
Q 844 1131 1108 757 
Q 1372 384 1759 384 
Q 2147 384 2411 759 
Q 2675 1134 2675 2259 
Q 2675 3391 2411 3762 
Q 2147 4134 1753 4134 
Q 1366 4134 1134 3806 
Q 844 3388 844 2259 
z
" transform="scale(0.015625)"/>
        <path id="ArialMT-34" d="M 2069 0 
L 2069 1097 
L 81 1097 
L 81 1613 
L 2172 4581 
L 2631 4581 
L 2631 1613 
L 3250 1613 
L 3250 1097 
L 2631 1097 
L 2631 0 
L 2069 0 
z
M 2069 1613 
L 2069 3678 
L 634 1613 
L 2069 1613 
z
" transform="scale(0.015625)"/>
        <path id="ArialMT-2d" d="M 203 1375 
L 203 1941 
L 1931 1941 
L 1931 1375 
L 203 1375 
z
" transform="scale(0.015625)"/>
        <path id="ArialMT-31" d="M 2384 0 
L 1822 0 
L 1822 3584 
Q 1619 3391 1289 3197 
Q 959 3003 697 2906 
L 697 3450 
Q 1169 3672 1522 3987 
Q 1875 4303 2022 4600 
L 2384 4600 
L 2384 0 
z
" transform="scale(0.015625)"/>
        <path id="ArialMT-35" d="M 266 1200 
L 856 1250 
Q 922 819 1161 601 
Q 1400 384 1738 384 
Q 2144 384 2425 690 
Q 2706 997 2706 1503 
Q 2706 1984 2436 2262 
Q 2166 2541 1728 2541 
Q 1456 2541 1237 2417 
Q 1019 2294 894 2097 
L 366 2166 
L 809 4519 
L 3088 4519 
L 3088 3981 
L 1259 3981 
L 1013 2750 
Q 1425 3038 1878 3038 
Q 2478 3038 2890 2622 
Q 3303 2206 3303 1553 
Q 3303 931 2941 478 
Q 2500 -78 1738 -78 
Q 1113 -78 717 272 
Q 322 622 266 1200 
z
" transform="scale(0.015625)"/>
        <path id="ArialMT-20" transform="scale(0.015625)"/>
        <path id="ArialMT-37" d="M 303 3981 
L 303 4522 
L 3269 4522 
L 3269 4084 
Q 2831 3619 2401 2847 
Q 1972 2075 1738 1259 
Q 1569 684 1522 0 
L 944 0 
Q 953 541 1156 1306 
Q 1359 2072 1739 2783 
Q 2119 3494 2547 3981 
L 303 3981 
z
" transform="scale(0.015625)"/>
        <path id="ArialMT-3a" d="M 578 2678 
L 578 3319 
L 1219 3319 
L 1219 2678 
L 578 2678 
z
M 578 0 
L 578 641 
L 1219 641 
L 1219 0 
L 578 0 
z
" transform="scale(0.015625)"/>
        <path id="ArialMT-50" d="M 494 0 
L 494 4581 
L 2222 4581 
Q 2678 4581 2919 4538 
Q 3256 4481 3484 4323 
Q 3713 4166 3852 3881 
Q 3991 3597 3991 3256 
Q 3991 2672 3619 2267 
Q 3247 1863 2275 1863 
L 1100 1863 
L 1100 0 
L 494 0 
z
M 1100 2403 
L 2284 2403 
Q 2872 2403 3119 2622 
Q 3366 2841 3366 3238 
Q 3366 3525 3220 3729 
Q 3075 3934 2838 4000 
Q 2684 4041 2272 4041 
L 1100 4041 
L 1100 2403 
z
" transform="scale(0.015625)"/>
        <path id="ArialMT-4d" d="M 475 0 
L 475 4581 
L 1388 4581 
L 2472 1338 
Q 2622 884 2691 659 
Q 2769 909 2934 1394 
L 4031 4581 
L 4847 4581 
L 4847 0 
L 4263 0 
L 4263 3834 
L 2931 0 
L 2384 0 
L 1059 3900 
L 1059 0 
L 475 0 
z
" transform="scale(0.015625)"/>
        <path id="ArialMT-45" d="M 506 0 
L 506 4581 
L 3819 4581 
L 3819 4041 
L 1113 4041 
L 1113 2638 
L 3647 2638 
L 3647 2100 
L 1113 2100 
L 1113 541 
L 3925 541 
L 3925 0 
L 506 0 
z
" transform="scale(0.015625)"/>
        <path id="ArialMT-53" d="M 288 1472 
L 859 1522 
Q 900 1178 1048 958 
Q 1197 738 1509 602 
Q 1822 466 2213 466 
Q 2559 466 2825 569 
Q 3091 672 3220 851 
Q 3350 1031 3350 1244 
Q 3350 1459 3225 1620 
Q 3100 1781 2813 1891 
Q 2628 1963 1997 2114 
Q 1366 2266 1113 2400 
Q 784 2572 623 2826 
Q 463 3081 463 3397 
Q 463 3744 659 4045 
Q 856 4347 1234 4503 
Q 1613 4659 2075 4659 
Q 2584 4659 2973 4495 
Q 3363 4331 3572 4012 
Q 3781 3694 3797 3291 
L 3216 3247 
Q 3169 3681 2898 3903 
Q 2628 4125 2100 4125 
Q 1550 4125 1298 3923 
Q 1047 3722 1047 3438 
Q 1047 3191 1225 3031 
Q 1400 2872 2139 2705 
Q 2878 2538 3153 2413 
Q 3553 2228 3743 1945 
Q 3934 1663 3934 1294 
Q 3934 928 3725 604 
Q 3516 281 3123 101 
Q 2731 -78 2241 -78 
Q 1619 -78 1198 103 
Q 778 284 539 648 
Q 300 1013 288 1472 
z
" transform="scale(0.015625)"/>
        <path id="ArialMT-54" d="M 1659 0 
L 1659 4041 
L 150 4041 
L 150 4581 
L 3781 4581 
L 3781 4041 
L 2266 4041 
L 2266 0 
L 1659 0 
z
" transform="scale(0.015625)"/>
       </defs>
       <use xlink:href="#ArialMT-32"/>
       <use xlink:href="#ArialMT-30" x="55.615234"/>
       <use xlink:href="#ArialMT-32" x="111.230469"/>
       <use xlink:href="#ArialMT-34" x="166.845703"/>
       <use xlink:href="#ArialMT-2d" x="222.460938"/>
       <use xlink:href="#ArialMT-31" x="255.761719"/>
       <use xlink:href="#ArialMT-31" x="304.001953"/>
       <use xlink:href="#ArialMT-2d" x="359.617188"/>
       <use xlink:href="#ArialMT-30" x="392.917969"/>
       <use xlink:href="#ArialMT-35" x="448.533203"/>
       <use xlink:href="#ArialMT-20" x="504.148438"/>
       <use xlink:href="#ArialMT-30" x="531.931641"/>
       <use xlink:href="#ArialMT-37" x="587.546875"/>
       <use xlink:href="#ArialMT-3a" x="643.162109"/>
       <use xlink:href="#ArialMT-30" x="670.945312"/>
       <use xlink:href="#ArialMT-30" x="726.560547"/>
       <use xlink:href="#ArialMT-20" x="782.175781"/>
       <use xlink:href="#ArialMT-50" x="809.958984"/>
       <use xlink:href="#ArialMT-4d" x="876.658203"/>
       <use xlink:href="#ArialMT-20" x="959.958984"/>
       <use xlink:href="#ArialMT-45" x="987.742188"/>
       <use xlink:href="#ArialMT-53" x="1054.441406"/>
       <use xlink:href="#ArialMT-54" x="1121.140625"/>
      </g>
     </g>
    </g>
    <g id="xtick_2">
     <g id="line2d_2">
      <path d="M 245.939281 492.42119 
L 245.939281 52.020937 
" clip-path="url(#p476f7947bc)" style="fill: none; stroke: #cccccc; stroke-opacity: 0.7; stroke-width: 0.8; stroke-linecap: round"/>
     </g>
     <g id="text_2">
      <!-- 2024-11-05 09:00 PM EST -->
      <g style="fill: #262626" transform="translate(142.56915 564.727068) rotate(-30) scale(0.1 -0.1)">
       <defs>
        <path id="ArialMT-39" d="M 350 1059 
L 891 1109 
Q 959 728 1153 556 
Q 1347 384 1650 384 
Q 1909 384 2104 503 
Q 2300 622 2425 820 
Q 2550 1019 2634 1356 
Q 2719 1694 2719 2044 
Q 2719 2081 2716 2156 
Q 2547 1888 2255 1720 
Q 1963 1553 1622 1553 
Q 1053 1553 659 1965 
Q 266 2378 266 3053 
Q 266 3750 677 4175 
Q 1088 4600 1706 4600 
Q 2153 4600 2523 4359 
Q 2894 4119 3086 3673 
Q 3278 3228 3278 2384 
Q 3278 1506 3087 986 
Q 2897 466 2520 194 
Q 2144 -78 1638 -78 
Q 1100 -78 759 220 
Q 419 519 350 1059 
z
M 2653 3081 
Q 2653 3566 2395 3850 
Q 2138 4134 1775 4134 
Q 1400 4134 1122 3828 
Q 844 3522 844 3034 
Q 844 2597 1108 2323 
Q 1372 2050 1759 2050 
Q 2150 2050 2401 2323 
Q 2653 2597 2653 3081 
z
" transform="scale(0.015625)"/>
       </defs>
       <use xlink:href="#ArialMT-32"/>
       <use xlink:href="#ArialMT-30" x="55.615234"/>
       <use xlink:href="#ArialMT-32" x="111.230469"/>
       <use xlink:href="#ArialMT-34" x="166.845703"/>
       <use xlink:href="#ArialMT-2d" x="222.460938"/>
       <use xlink:href="#ArialMT-31" x="255.761719"/>
       <use xlink:href="#ArialMT-31" x="304.001953"/>
       <use xlink:href="#ArialMT-2d" x="359.617188"/>
       <use xlink:href="#ArialMT-30" x="392.917969"/>
       <use xlink:href="#ArialMT-35" x="448.533203"/>
       <use xlink:href="#ArialMT-20" x="504.148438"/>
       <use xlink:href="#ArialMT-30" x="531.931641"/>
       <use xlink:href="#ArialMT-39" x="587.546875"/>
       <use xlink:href="#ArialMT-3a" x="643.162109"/>
       <use xlink:href="#ArialMT-30" x="670.945312"/>
       <use xlink:href="#ArialMT-30" x="726.560547"/>
       <use xlink:href="#ArialMT-20" x="782.175781"/>
       <use xlink:href="#ArialMT-50" x="809.958984"/>
       <use xlink:href="#ArialMT-4d" x="876.658203"/>
       <use xlink:href="#ArialMT-20" x="959.958984"/>
       <use xlink:href="#ArialMT-45" x="987.742188"/>
       <use xlink:href="#ArialMT-53" x="1054.441406"/>
       <use xlink:href="#ArialMT-54" x="1121.140625"/>
      </g>
     </g>
    </g>
    <g id="xtick_3">
     <g id="line2d_3">
      <path d="M 347.25171 492.42119 
L 347.25171 52.020937 
" clip-path="url(#p476f7947bc)" style="fill: none; stroke: #cccccc; stroke-opacity: 0.7; stroke-width: 0.8; stroke-linecap: round"/>
     </g>
     <g id="text_3">
      <!-- 2024-11-05 11:00 PM EST -->
      <g style="fill: #262626" transform="translate(244.520273 564.358318) rotate(-30) scale(0.1 -0.1)">
       <use xlink:href="#ArialMT-32"/>
       <use xlink:href="#ArialMT-30" x="55.615234"/>
       <use xlink:href="#ArialMT-32" x="111.230469"/>
       <use xlink:href="#ArialMT-34" x="166.845703"/>
       <use xlink:href="#ArialMT-2d" x="222.460938"/>
       <use xlink:href="#ArialMT-31" x="255.761719"/>
       <use xlink:href="#ArialMT-31" x="304.001953"/>
       <use xlink:href="#ArialMT-2d" x="359.617188"/>
       <use xlink:href="#ArialMT-30" x="392.917969"/>
       <use xlink:href="#ArialMT-35" x="448.533203"/>
       <use xlink:href="#ArialMT-20" x="504.148438"/>
       <use xlink:href="#ArialMT-31" x="531.931641"/>
       <use xlink:href="#ArialMT-31" x="580.171875"/>
       <use xlink:href="#ArialMT-3a" x="635.787109"/>
       <use xlink:href="#ArialMT-30" x="663.570312"/>
       <use xlink:href="#ArialMT-30" x="719.185547"/>
       <use xlink:href="#ArialMT-20" x="774.800781"/>
       <use xlink:href="#ArialMT-50" x="802.583984"/>
       <use xlink:href="#ArialMT-4d" x="869.283203"/>
       <use xlink:href="#ArialMT-20" x="952.583984"/>
       <use xlink:href="#ArialMT-45" x="980.367188"/>
       <use xlink:href="#ArialMT-53" x="1047.066406"/>
       <use xlink:href="#ArialMT-54" x="1113.765625"/>
      </g>
     </g>
    </g>
    <g id="xtick_4">
     <g id="line2d_4">
      <path d="M 448.564139 492.42119 
L 448.564139 52.020937 
" clip-path="url(#p476f7947bc)" style="fill: none; stroke: #cccccc; stroke-opacity: 0.7; stroke-width: 0.8; stroke-linecap: round"/>
     </g>
     <g id="text_4">
      <!-- 2024-11-06 01:00 AM EST -->
      <g style="fill: #262626" transform="translate(345.670322 564.452068) rotate(-30) scale(0.1 -0.1)">
       <defs>
        <path id="ArialMT-36" d="M 3184 3459 
L 2625 3416 
Q 2550 3747 2413 3897 
Q 2184 4138 1850 4138 
Q 1581 4138 1378 3988 
Q 1113 3794 959 3422 
Q 806 3050 800 2363 
Q 1003 2672 1297 2822 
Q 1591 2972 1913 2972 
Q 2475 2972 2870 2558 
Q 3266 2144 3266 1488 
Q 3266 1056 3080 686 
Q 2894 316 2569 119 
Q 2244 -78 1831 -78 
Q 1128 -78 684 439 
Q 241 956 241 2144 
Q 241 3472 731 4075 
Q 1159 4600 1884 4600 
Q 2425 4600 2770 4297 
Q 3116 3994 3184 3459 
z
M 888 1484 
Q 888 1194 1011 928 
Q 1134 663 1356 523 
Q 1578 384 1822 384 
Q 2178 384 2434 671 
Q 2691 959 2691 1453 
Q 2691 1928 2437 2201 
Q 2184 2475 1800 2475 
Q 1419 2475 1153 2201 
Q 888 1928 888 1484 
z
" transform="scale(0.015625)"/>
        <path id="ArialMT-41" d="M -9 0 
L 1750 4581 
L 2403 4581 
L 4278 0 
L 3588 0 
L 3053 1388 
L 1138 1388 
L 634 0 
L -9 0 
z
M 1313 1881 
L 2866 1881 
L 2388 3150 
Q 2169 3728 2063 4100 
Q 1975 3659 1816 3225 
L 1313 1881 
z
" transform="scale(0.015625)"/>
       </defs>
       <use xlink:href="#ArialMT-32"/>
       <use xlink:href="#ArialMT-30" x="55.615234"/>
       <use xlink:href="#ArialMT-32" x="111.230469"/>
       <use xlink:href="#ArialMT-34" x="166.845703"/>
       <use xlink:href="#ArialMT-2d" x="222.460938"/>
       <use xlink:href="#ArialMT-31" x="255.761719"/>
       <use xlink:href="#ArialMT-31" x="304.001953"/>
       <use xlink:href="#ArialMT-2d" x="359.617188"/>
       <use xlink:href="#ArialMT-30" x="392.917969"/>
       <use xlink:href="#ArialMT-36" x="448.533203"/>
       <use xlink:href="#ArialMT-20" x="504.148438"/>
       <use xlink:href="#ArialMT-30" x="531.931641"/>
       <use xlink:href="#ArialMT-31" x="587.546875"/>
       <use xlink:href="#ArialMT-3a" x="643.162109"/>
       <use xlink:href="#ArialMT-30" x="670.945312"/>
       <use xlink:href="#ArialMT-30" x="726.560547"/>
       <use xlink:href="#ArialMT-20" x="782.175781"/>
       <use xlink:href="#ArialMT-41" x="804.458984"/>
       <use xlink:href="#ArialMT-4d" x="871.158203"/>
       <use xlink:href="#ArialMT-20" x="954.458984"/>
       <use xlink:href="#ArialMT-45" x="982.242188"/>
       <use xlink:href="#ArialMT-53" x="1048.941406"/>
       <use xlink:href="#ArialMT-54" x="1115.640625"/>
      </g>
     </g>
    </g>
    <g id="xtick_5">
     <g id="line2d_5">
      <path d="M 549.876569 492.42119 
L 549.876569 52.020937 
" clip-path="url(#p476f7947bc)" style="fill: none; stroke: #cccccc; stroke-opacity: 0.7; stroke-width: 0.8; stroke-linecap: round"/>
     </g>
     <g id="text_5">
      <!-- 2024-11-06 03:00 AM EST -->
      <g style="fill: #262626" transform="translate(446.982751 564.452068) rotate(-30) scale(0.1 -0.1)">
       <defs>
        <path id="ArialMT-33" d="M 269 1209 
L 831 1284 
Q 928 806 1161 595 
Q 1394 384 1728 384 
Q 2125 384 2398 659 
Q 2672 934 2672 1341 
Q 2672 1728 2419 1979 
Q 2166 2231 1775 2231 
Q 1616 2231 1378 2169 
L 1441 2663 
Q 1497 2656 1531 2656 
Q 1891 2656 2178 2843 
Q 2466 3031 2466 3422 
Q 2466 3731 2256 3934 
Q 2047 4138 1716 4138 
Q 1388 4138 1169 3931 
Q 950 3725 888 3313 
L 325 3413 
Q 428 3978 793 4289 
Q 1159 4600 1703 4600 
Q 2078 4600 2393 4439 
Q 2709 4278 2876 4000 
Q 3044 3722 3044 3409 
Q 3044 3113 2884 2869 
Q 2725 2625 2413 2481 
Q 2819 2388 3044 2092 
Q 3269 1797 3269 1353 
Q 3269 753 2831 336 
Q 2394 -81 1725 -81 
Q 1122 -81 723 278 
Q 325 638 269 1209 
z
" transform="scale(0.015625)"/>
       </defs>
       <use xlink:href="#ArialMT-32"/>
       <use xlink:href="#ArialMT-30" x="55.615234"/>
       <use xlink:href="#ArialMT-32" x="111.230469"/>
       <use xlink:href="#ArialMT-34" x="166.845703"/>
       <use xlink:href="#ArialMT-2d" x="222.460938"/>
       <use xlink:href="#ArialMT-31" x="255.761719"/>
       <use xlink:href="#ArialMT-31" x="304.001953"/>
       <use xlink:href="#ArialMT-2d" x="359.617188"/>
       <use xlink:href="#ArialMT-30" x="392.917969"/>
       <use xlink:href="#ArialMT-36" x="448.533203"/>
       <use xlink:href="#ArialMT-20" x="504.148438"/>
       <use xlink:href="#ArialMT-30" x="531.931641"/>
       <use xlink:href="#ArialMT-33" x="587.546875"/>
       <use xlink:href="#ArialMT-3a" x="643.162109"/>
       <use xlink:href="#ArialMT-30" x="670.945312"/>
       <use xlink:href="#ArialMT-30" x="726.560547"/>
       <use xlink:href="#ArialMT-20" x="782.175781"/>
       <use xlink:href="#ArialMT-41" x="804.458984"/>
       <use xlink:href="#ArialMT-4d" x="871.158203"/>
       <use xlink:href="#ArialMT-20" x="954.458984"/>
       <use xlink:href="#ArialMT-45" x="982.242188"/>
       <use xlink:href="#ArialMT-53" x="1048.941406"/>
       <use xlink:href="#ArialMT-54" x="1115.640625"/>
      </g>
     </g>
    </g>
    <g id="xtick_6">
     <g id="line2d_6">
      <path d="M 651.188998 492.42119 
L 651.188998 52.020937 
" clip-path="url(#p476f7947bc)" style="fill: none; stroke: #cccccc; stroke-opacity: 0.7; stroke-width: 0.8; stroke-linecap: round"/>
     </g>
     <g id="text_6">
      <!-- 2024-11-06 05:00 AM EST -->
      <g style="fill: #262626" transform="translate(548.295181 564.452068) rotate(-30) scale(0.1 -0.1)">
       <use xlink:href="#ArialMT-32"/>
       <use xlink:href="#ArialMT-30" x="55.615234"/>
       <use xlink:href="#ArialMT-32" x="111.230469"/>
       <use xlink:href="#ArialMT-34" x="166.845703"/>
       <use xlink:href="#ArialMT-2d" x="222.460938"/>
       <use xlink:href="#ArialMT-31" x="255.761719"/>
       <use xlink:href="#ArialMT-31" x="304.001953"/>
       <use xlink:href="#ArialMT-2d" x="359.617188"/>
       <use xlink:href="#ArialMT-30" x="392.917969"/>
       <use xlink:href="#ArialMT-36" x="448.533203"/>
       <use xlink:href="#ArialMT-20" x="504.148438"/>
       <use xlink:href="#ArialMT-30" x="531.931641"/>
       <use xlink:href="#ArialMT-35" x="587.546875"/>
       <use xlink:href="#ArialMT-3a" x="643.162109"/>
       <use xlink:href="#ArialMT-30" x="670.945312"/>
       <use xlink:href="#ArialMT-30" x="726.560547"/>
       <use xlink:href="#ArialMT-20" x="782.175781"/>
       <use xlink:href="#ArialMT-41" x="804.458984"/>
       <use xlink:href="#ArialMT-4d" x="871.158203"/>
       <use xlink:href="#ArialMT-20" x="954.458984"/>
       <use xlink:href="#ArialMT-45" x="982.242188"/>
       <use xlink:href="#ArialMT-53" x="1048.941406"/>
       <use xlink:href="#ArialMT-54" x="1115.640625"/>
      </g>
     </g>
    </g>
    <g id="xtick_7">
     <g id="line2d_7">
      <path d="M 752.501427 492.42119 
L 752.501427 52.020937 
" clip-path="url(#p476f7947bc)" style="fill: none; stroke: #cccccc; stroke-opacity: 0.7; stroke-width: 0.8; stroke-linecap: round"/>
     </g>
     <g id="text_7">
      <!-- 2024-11-06 07:00 AM EST -->
      <g style="fill: #262626" transform="translate(649.60761 564.452068) rotate(-30) scale(0.1 -0.1)">
       <use xlink:href="#ArialMT-32"/>
       <use xlink:href="#ArialMT-30" x="55.615234"/>
       <use xlink:href="#ArialMT-32" x="111.230469"/>
       <use xlink:href="#ArialMT-34" x="166.845703"/>
       <use xlink:href="#ArialMT-2d" x="222.460938"/>
       <use xlink:href="#ArialMT-31" x="255.761719"/>
       <use xlink:href="#ArialMT-31" x="304.001953"/>
       <use xlink:href="#ArialMT-2d" x="359.617188"/>
       <use xlink:href="#ArialMT-30" x="392.917969"/>
       <use xlink:href="#ArialMT-36" x="448.533203"/>
       <use xlink:href="#ArialMT-20" x="504.148438"/>
       <use xlink:href="#ArialMT-30" x="531.931641"/>
       <use xlink:href="#ArialMT-37" x="587.546875"/>
       <use xlink:href="#ArialMT-3a" x="643.162109"/>
       <use xlink:href="#ArialMT-30" x="670.945312"/>
       <use xlink:href="#ArialMT-30" x="726.560547"/>
       <use xlink:href="#ArialMT-20" x="782.175781"/>
       <use xlink:href="#ArialMT-41" x="804.458984"/>
       <use xlink:href="#ArialMT-4d" x="871.158203"/>
       <use xlink:href="#ArialMT-20" x="954.458984"/>
       <use xlink:href="#ArialMT-45" x="982.242188"/>
       <use xlink:href="#ArialMT-53" x="1048.941406"/>
       <use xlink:href="#ArialMT-54" x="1115.640625"/>
      </g>
     </g>
    </g>
    <g id="xtick_8">
     <g id="line2d_8">
      <path d="M 853.813856 492.42119 
L 853.813856 52.020937 
" clip-path="url(#p476f7947bc)" style="fill: none; stroke: #cccccc; stroke-opacity: 0.7; stroke-width: 0.8; stroke-linecap: round"/>
     </g>
     <g id="text_8">
      <!-- 2024-11-06 09:00 AM EST -->
      <g style="fill: #262626" transform="translate(750.920039 564.452068) rotate(-30) scale(0.1 -0.1)">
       <use xlink:href="#ArialMT-32"/>
       <use xlink:href="#ArialMT-30" x="55.615234"/>
       <use xlink:href="#ArialMT-32" x="111.230469"/>
       <use xlink:href="#ArialMT-34" x="166.845703"/>
       <use xlink:href="#ArialMT-2d" x="222.460938"/>
       <use xlink:href="#ArialMT-31" x="255.761719"/>
       <use xlink:href="#ArialMT-31" x="304.001953"/>
       <use xlink:href="#ArialMT-2d" x="359.617188"/>
       <use xlink:href="#ArialMT-30" x="392.917969"/>
       <use xlink:href="#ArialMT-36" x="448.533203"/>
       <use xlink:href="#ArialMT-20" x="504.148438"/>
       <use xlink:href="#ArialMT-30" x="531.931641"/>
       <use xlink:href="#ArialMT-39" x="587.546875"/>
       <use xlink:href="#ArialMT-3a" x="643.162109"/>
       <use xlink:href="#ArialMT-30" x="670.945312"/>
       <use xlink:href="#ArialMT-30" x="726.560547"/>
       <use xlink:href="#ArialMT-20" x="782.175781"/>
       <use xlink:href="#ArialMT-41" x="804.458984"/>
       <use xlink:href="#ArialMT-4d" x="871.158203"/>
       <use xlink:href="#ArialMT-20" x="954.458984"/>
       <use xlink:href="#ArialMT-45" x="982.242188"/>
       <use xlink:href="#ArialMT-53" x="1048.941406"/>
       <use xlink:href="#ArialMT-54" x="1115.640625"/>
      </g>
     </g>
    </g>
    <g id="text_9">
     <!-- Timestamp (EST) -->
     <g style="fill: #262626" transform="translate(431.037903 579.183919) scale(0.12 -0.12)">
      <defs>
       <path id="ArialMT-69" d="M 425 3934 
L 425 4581 
L 988 4581 
L 988 3934 
L 425 3934 
z
M 425 0 
L 425 3319 
L 988 3319 
L 988 0 
L 425 0 
z
" transform="scale(0.015625)"/>
       <path id="ArialMT-6d" d="M 422 0 
L 422 3319 
L 925 3319 
L 925 2853 
Q 1081 3097 1340 3245 
Q 1600 3394 1931 3394 
Q 2300 3394 2536 3241 
Q 2772 3088 2869 2813 
Q 3263 3394 3894 3394 
Q 4388 3394 4653 3120 
Q 4919 2847 4919 2278 
L 4919 0 
L 4359 0 
L 4359 2091 
Q 4359 2428 4304 2576 
Q 4250 2725 4106 2815 
Q 3963 2906 3769 2906 
Q 3419 2906 3187 2673 
Q 2956 2441 2956 1928 
L 2956 0 
L 2394 0 
L 2394 2156 
Q 2394 2531 2256 2718 
Q 2119 2906 1806 2906 
Q 1569 2906 1367 2781 
Q 1166 2656 1075 2415 
Q 984 2175 984 1722 
L 984 0 
L 422 0 
z
" transform="scale(0.015625)"/>
       <path id="ArialMT-65" d="M 2694 1069 
L 3275 997 
Q 3138 488 2766 206 
Q 2394 -75 1816 -75 
Q 1088 -75 661 373 
Q 234 822 234 1631 
Q 234 2469 665 2931 
Q 1097 3394 1784 3394 
Q 2450 3394 2872 2941 
Q 3294 2488 3294 1666 
Q 3294 1616 3291 1516 
L 816 1516 
Q 847 969 1125 678 
Q 1403 388 1819 388 
Q 2128 388 2347 550 
Q 2566 713 2694 1069 
z
M 847 1978 
L 2700 1978 
Q 2663 2397 2488 2606 
Q 2219 2931 1791 2931 
Q 1403 2931 1139 2672 
Q 875 2413 847 1978 
z
" transform="scale(0.015625)"/>
       <path id="ArialMT-73" d="M 197 991 
L 753 1078 
Q 800 744 1014 566 
Q 1228 388 1613 388 
Q 2000 388 2187 545 
Q 2375 703 2375 916 
Q 2375 1106 2209 1216 
Q 2094 1291 1634 1406 
Q 1016 1563 777 1677 
Q 538 1791 414 1992 
Q 291 2194 291 2438 
Q 291 2659 392 2848 
Q 494 3038 669 3163 
Q 800 3259 1026 3326 
Q 1253 3394 1513 3394 
Q 1903 3394 2198 3281 
Q 2494 3169 2634 2976 
Q 2775 2784 2828 2463 
L 2278 2388 
Q 2241 2644 2061 2787 
Q 1881 2931 1553 2931 
Q 1166 2931 1000 2803 
Q 834 2675 834 2503 
Q 834 2394 903 2306 
Q 972 2216 1119 2156 
Q 1203 2125 1616 2013 
Q 2213 1853 2448 1751 
Q 2684 1650 2818 1456 
Q 2953 1263 2953 975 
Q 2953 694 2789 445 
Q 2625 197 2315 61 
Q 2006 -75 1616 -75 
Q 969 -75 630 194 
Q 291 463 197 991 
z
" transform="scale(0.015625)"/>
       <path id="ArialMT-74" d="M 1650 503 
L 1731 6 
Q 1494 -44 1306 -44 
Q 1000 -44 831 53 
Q 663 150 594 308 
Q 525 466 525 972 
L 525 2881 
L 113 2881 
L 113 3319 
L 525 3319 
L 525 4141 
L 1084 4478 
L 1084 3319 
L 1650 3319 
L 1650 2881 
L 1084 2881 
L 1084 941 
Q 1084 700 1114 631 
Q 1144 563 1211 522 
Q 1278 481 1403 481 
Q 1497 481 1650 503 
z
" transform="scale(0.015625)"/>
       <path id="ArialMT-61" d="M 2588 409 
Q 2275 144 1986 34 
Q 1697 -75 1366 -75 
Q 819 -75 525 192 
Q 231 459 231 875 
Q 231 1119 342 1320 
Q 453 1522 633 1644 
Q 813 1766 1038 1828 
Q 1203 1872 1538 1913 
Q 2219 1994 2541 2106 
Q 2544 2222 2544 2253 
Q 2544 2597 2384 2738 
Q 2169 2928 1744 2928 
Q 1347 2928 1158 2789 
Q 969 2650 878 2297 
L 328 2372 
Q 403 2725 575 2942 
Q 747 3159 1072 3276 
Q 1397 3394 1825 3394 
Q 2250 3394 2515 3294 
Q 2781 3194 2906 3042 
Q 3031 2891 3081 2659 
Q 3109 2516 3109 2141 
L 3109 1391 
Q 3109 606 3145 398 
Q 3181 191 3288 0 
L 2700 0 
Q 2613 175 2588 409 
z
M 2541 1666 
Q 2234 1541 1622 1453 
Q 1275 1403 1131 1340 
Q 988 1278 909 1158 
Q 831 1038 831 891 
Q 831 666 1001 516 
Q 1172 366 1500 366 
Q 1825 366 2078 508 
Q 2331 650 2450 897 
Q 2541 1088 2541 1459 
L 2541 1666 
z
" transform="scale(0.015625)"/>
       <path id="ArialMT-70" d="M 422 -1272 
L 422 3319 
L 934 3319 
L 934 2888 
Q 1116 3141 1344 3267 
Q 1572 3394 1897 3394 
Q 2322 3394 2647 3175 
Q 2972 2956 3137 2557 
Q 3303 2159 3303 1684 
Q 3303 1175 3120 767 
Q 2938 359 2589 142 
Q 2241 -75 1856 -75 
Q 1575 -75 1351 44 
Q 1128 163 984 344 
L 984 -1272 
L 422 -1272 
z
M 931 1641 
Q 931 1000 1190 694 
Q 1450 388 1819 388 
Q 2194 388 2461 705 
Q 2728 1022 2728 1688 
Q 2728 2322 2467 2637 
Q 2206 2953 1844 2953 
Q 1484 2953 1207 2617 
Q 931 2281 931 1641 
z
" transform="scale(0.015625)"/>
       <path id="ArialMT-28" d="M 1497 -1347 
Q 1031 -759 709 28 
Q 388 816 388 1659 
Q 388 2403 628 3084 
Q 909 3875 1497 4659 
L 1900 4659 
Q 1522 4009 1400 3731 
Q 1209 3300 1100 2831 
Q 966 2247 966 1656 
Q 966 153 1900 -1347 
L 1497 -1347 
z
" transform="scale(0.015625)"/>
       <path id="ArialMT-29" d="M 791 -1347 
L 388 -1347 
Q 1322 153 1322 1656 
Q 1322 2244 1188 2822 
Q 1081 3291 891 3722 
Q 769 4003 388 4659 
L 791 4659 
Q 1378 3875 1659 3084 
Q 1900 2403 1900 1659 
Q 1900 816 1576 28 
Q 1253 -759 791 -1347 
z
" transform="scale(0.015625)"/>
      </defs>
      <use xlink:href="#ArialMT-54"/>
      <use xlink:href="#ArialMT-69" x="57.333984"/>
      <use xlink:href="#ArialMT-6d" x="79.550781"/>
      <use xlink:href="#ArialMT-65" x="162.851562"/>
      <use xlink:href="#ArialMT-73" x="218.466797"/>
      <use xlink:href="#ArialMT-74" x="268.466797"/>
      <use xlink:href="#ArialMT-61" x="296.25"/>
      <use xlink:href="#ArialMT-6d" x="351.865234"/>
      <use xlink:href="#ArialMT-70" x="435.166016"/>
      <use xlink:href="#ArialMT-20" x="490.78125"/>
      <use xlink:href="#ArialMT-28" x="518.564453"/>
      <use xlink:href="#ArialMT-45" x="551.865234"/>
      <use xlink:href="#ArialMT-53" x="618.564453"/>
      <use xlink:href="#ArialMT-54" x="685.263672"/>
      <use xlink:href="#ArialMT-29" x="746.347656"/>
     </g>
    </g>
   </g>
   <g id="matplotlib.axis_2">
    <g id="ytick_1">
     <g id="line2d_9">
      <path d="M 91.34 492.42119 
L 864.288932 492.42119 
" clip-path="url(#p476f7947bc)" style="fill: none; stroke: #cccccc; stroke-opacity: 0.7; stroke-width: 0.8; stroke-linecap: round"/>
     </g>
     <g id="text_10">
      <!-- 0 -->
      <g style="fill: #262626" transform="translate(78.779063 496.000096) scale(0.1 -0.1)">
       <use xlink:href="#ArialMT-30"/>
      </g>
     </g>
    </g>
    <g id="ytick_2">
     <g id="line2d_10">
      <path d="M 91.34 413.953844 
L 864.288932 413.953844 
" clip-path="url(#p476f7947bc)" style="fill: none; stroke: #cccccc; stroke-opacity: 0.7; stroke-width: 0.8; stroke-linecap: round"/>
     </g>
     <g id="text_11">
      <!-- 50000 -->
      <g style="fill: #262626" transform="translate(56.535313 417.53275) scale(0.1 -0.1)">
       <use xlink:href="#ArialMT-35"/>
       <use xlink:href="#ArialMT-30" x="55.615234"/>
       <use xlink:href="#ArialMT-30" x="111.230469"/>
       <use xlink:href="#ArialMT-30" x="166.845703"/>
       <use xlink:href="#ArialMT-30" x="222.460938"/>
      </g>
     </g>
    </g>
    <g id="ytick_3">
     <g id="line2d_11">
      <path d="M 91.34 335.486499 
L 864.288932 335.486499 
" clip-path="url(#p476f7947bc)" style="fill: none; stroke: #cccccc; stroke-opacity: 0.7; stroke-width: 0.8; stroke-linecap: round"/>
     </g>
     <g id="text_12">
      <!-- 100000 -->
      <g style="fill: #262626" transform="translate(50.974375 339.065405) scale(0.1 -0.1)">
       <use xlink:href="#ArialMT-31"/>
       <use xlink:href="#ArialMT-30" x="55.615234"/>
       <use xlink:href="#ArialMT-30" x="111.230469"/>
       <use xlink:href="#ArialMT-30" x="166.845703"/>
       <use xlink:href="#ArialMT-30" x="222.460938"/>
       <use xlink:href="#ArialMT-30" x="278.076172"/>
      </g>
     </g>
    </g>
    <g id="ytick_4">
     <g id="line2d_12">
      <path d="M 91.34 257.019153 
L 864.288932 257.019153 
" clip-path="url(#p476f7947bc)" style="fill: none; stroke: #cccccc; stroke-opacity: 0.7; stroke-width: 0.8; stroke-linecap: round"/>
     </g>
     <g id="text_13">
      <!-- 150000 -->
      <g style="fill: #262626" transform="translate(50.974375 260.598059) scale(0.1 -0.1)">
       <use xlink:href="#ArialMT-31"/>
       <use xlink:href="#ArialMT-35" x="55.615234"/>
       <use xlink:href="#ArialMT-30" x="111.230469"/>
       <use xlink:href="#ArialMT-30" x="166.845703"/>
       <use xlink:href="#ArialMT-30" x="222.460938"/>
       <use xlink:href="#ArialMT-30" x="278.076172"/>
      </g>
     </g>
    </g>
    <g id="ytick_5">
     <g id="line2d_13">
      <path d="M 91.34 178.551808 
L 864.288932 178.551808 
" clip-path="url(#p476f7947bc)" style="fill: none; stroke: #cccccc; stroke-opacity: 0.7; stroke-width: 0.8; stroke-linecap: round"/>
     </g>
     <g id="text_14">
      <!-- 200000 -->
      <g style="fill: #262626" transform="translate(50.974375 182.130714) scale(0.1 -0.1)">
       <use xlink:href="#ArialMT-32"/>
       <use xlink:href="#ArialMT-30" x="55.615234"/>
       <use xlink:href="#ArialMT-30" x="111.230469"/>
       <use xlink:href="#ArialMT-30" x="166.845703"/>
       <use xlink:href="#ArialMT-30" x="222.460938"/>
       <use xlink:href="#ArialMT-30" x="278.076172"/>
      </g>
     </g>
    </g>
    <g id="ytick_6">
     <g id="line2d_14">
      <path d="M 91.34 100.084462 
L 864.288932 100.084462 
" clip-path="url(#p476f7947bc)" style="fill: none; stroke: #cccccc; stroke-opacity: 0.7; stroke-width: 0.8; stroke-linecap: round"/>
     </g>
     <g id="text_15">
      <!-- 250000 -->
      <g style="fill: #262626" transform="translate(50.974375 103.663368) scale(0.1 -0.1)">
       <use xlink:href="#ArialMT-32"/>
       <use xlink:href="#ArialMT-35" x="55.615234"/>
       <use xlink:href="#ArialMT-30" x="111.230469"/>
       <use xlink:href="#ArialMT-30" x="166.845703"/>
       <use xlink:href="#ArialMT-30" x="222.460938"/>
       <use xlink:href="#ArialMT-30" x="278.076172"/>
      </g>
     </g>
    </g>
    <g id="text_16">
     <!-- Vote Count -->
     <g style="fill: #262626" transform="translate(44.589375 301.909814) rotate(-90) scale(0.12 -0.12)">
      <defs>
       <path id="ArialMT-56" d="M 1803 0 
L 28 4581 
L 684 4581 
L 1875 1253 
Q 2019 853 2116 503 
Q 2222 878 2363 1253 
L 3600 4581 
L 4219 4581 
L 2425 0 
L 1803 0 
z
" transform="scale(0.015625)"/>
       <path id="ArialMT-6f" d="M 213 1659 
Q 213 2581 725 3025 
Q 1153 3394 1769 3394 
Q 2453 3394 2887 2945 
Q 3322 2497 3322 1706 
Q 3322 1066 3130 698 
Q 2938 331 2570 128 
Q 2203 -75 1769 -75 
Q 1072 -75 642 372 
Q 213 819 213 1659 
z
M 791 1659 
Q 791 1022 1069 705 
Q 1347 388 1769 388 
Q 2188 388 2466 706 
Q 2744 1025 2744 1678 
Q 2744 2294 2464 2611 
Q 2184 2928 1769 2928 
Q 1347 2928 1069 2612 
Q 791 2297 791 1659 
z
" transform="scale(0.015625)"/>
       <path id="ArialMT-43" d="M 3763 1606 
L 4369 1453 
Q 4178 706 3683 314 
Q 3188 -78 2472 -78 
Q 1731 -78 1267 223 
Q 803 525 561 1097 
Q 319 1669 319 2325 
Q 319 3041 592 3573 
Q 866 4106 1370 4382 
Q 1875 4659 2481 4659 
Q 3169 4659 3637 4309 
Q 4106 3959 4291 3325 
L 3694 3184 
Q 3534 3684 3231 3912 
Q 2928 4141 2469 4141 
Q 1941 4141 1586 3887 
Q 1231 3634 1087 3207 
Q 944 2781 944 2328 
Q 944 1744 1114 1308 
Q 1284 872 1643 656 
Q 2003 441 2422 441 
Q 2931 441 3284 734 
Q 3638 1028 3763 1606 
z
" transform="scale(0.015625)"/>
       <path id="ArialMT-75" d="M 2597 0 
L 2597 488 
Q 2209 -75 1544 -75 
Q 1250 -75 995 37 
Q 741 150 617 320 
Q 494 491 444 738 
Q 409 903 409 1263 
L 409 3319 
L 972 3319 
L 972 1478 
Q 972 1038 1006 884 
Q 1059 663 1231 536 
Q 1403 409 1656 409 
Q 1909 409 2131 539 
Q 2353 669 2445 892 
Q 2538 1116 2538 1541 
L 2538 3319 
L 3100 3319 
L 3100 0 
L 2597 0 
z
" transform="scale(0.015625)"/>
       <path id="ArialMT-6e" d="M 422 0 
L 422 3319 
L 928 3319 
L 928 2847 
Q 1294 3394 1984 3394 
Q 2284 3394 2536 3286 
Q 2788 3178 2913 3003 
Q 3038 2828 3088 2588 
Q 3119 2431 3119 2041 
L 3119 0 
L 2556 0 
L 2556 2019 
Q 2556 2363 2490 2533 
Q 2425 2703 2258 2804 
Q 2091 2906 1866 2906 
Q 1506 2906 1245 2678 
Q 984 2450 984 1813 
L 984 0 
L 422 0 
z
" transform="scale(0.015625)"/>
      </defs>
      <use xlink:href="#ArialMT-56"/>
      <use xlink:href="#ArialMT-6f" x="61.199219"/>
      <use xlink:href="#ArialMT-74" x="116.814453"/>
      <use xlink:href="#ArialMT-65" x="144.597656"/>
      <use xlink:href="#ArialMT-20" x="200.212891"/>
      <use xlink:href="#ArialMT-43" x="227.996094"/>
      <use xlink:href="#ArialMT-6f" x="300.212891"/>
      <use xlink:href="#ArialMT-75" x="355.828125"/>
      <use xlink:href="#ArialMT-6e" x="411.443359"/>
      <use xlink:href="#ArialMT-74" x="467.058594"/>
     </g>
    </g>
   </g>
   <g id="line2d_15">
    <path d="M 126.474042 492.42119 
L 209.354828 492.42119 
L 265.074159 484.46774 
L 267.654235 482.766568 
L 271.878781 481.322768 
L 275.032411 481.322768 
L 276.348586 479.222982 
L 277.509008 478.235863 
L 280.340169 476.134507 
L 285.53882 473.802458 
L 286.348503 473.802458 
L 288.348819 473.595304 
L 288.789373 471.429605 
L 291.124779 471.429605 
L 292.269595 468.771132 
L 293.38945 465.569664 
L 296.487682 465.569664 
L 297.786662 463.03203 
L 298.423172 462.947285 
L 301.366312 461.575676 
L 305.695406 460.339031 
L 310.014031 454.394345 
L 310.999309 454.149527 
L 314.014127 454.149527 
L 316.230154 446.252573 
L 318.252674 444.195159 
L 322.603578 440.453836 
L 326.372611 440.453836 
L 327.702801 434.407142 
L 328.957218 434.407142 
L 330.251175 434.152908 
L 331.640154 426.739313 
L 334.077197 426.739313 
L 335.325422 421.612257 
L 339.519236 411.245151 
L 339.883116 411.245151 
L 342.143228 410.52796 
L 343.587999 403.018635 
L 344.678079 403.018635 
L 345.646893 401.515201 
L 347.965921 397.251285 
L 350.225736 396.858948 
L 352.562888 391.567111 
L 356.937277 386.119907 
L 358.775366 386.119907 
L 360.488503 383.174243 
L 362.154374 382.949827 
L 364.826251 381.18745 
L 367.843138 381.18745 
L 368.926576 377.951457 
L 372.671576 377.951457 
L 373.291917 374.097141 
L 374.364197 374.097141 
L 376.846661 370.089029 
L 377.376497 366.692962 
L 381.620502 359.202469 
L 384.655513 359.202469 
L 386.079727 346.735577 
L 387.358191 346.735577 
L 388.255664 344.886887 
L 390.071549 340.293408 
L 392.879437 340.293408 
L 394.627105 334.373832 
L 395.952482 333.764925 
L 397.037876 333.764925 
L 399.213673 330.169551 
L 421.733456 316.354591 
L 423.011034 316.354591 
L 423.840107 314.60163 
L 425.727544 314.60163 
L 427.086059 313.97703 
L 427.93873 312.352756 
L 429.618237 312.352756 
L 431.050977 309.983042 
L 432.297683 306.930662 
L 435.544169 306.930662 
L 436.381207 304.518576 
L 438.876335 304.518576 
L 439.087515 303.919086 
L 441.420459 301.365758 
L 444.114315 301.365758 
L 445.353872 295.430488 
L 445.805514 295.430488 
L 449.202112 291.579311 
L 451.409288 291.579311 
L 453.376564 282.841187 
L 454.940364 282.841187 
L 457.654383 279.592639 
L 459.30973 279.592639 
L 461.778502 278.371687 
L 463.875093 278.371687 
L 466.113422 277.185261 
L 470.196665 273.806457 
L 473.521316 273.806457 
L 475.059281 271.152691 
L 476.203071 271.152691 
L 478.642449 270.317799 
L 480.423029 270.317799 
L 481.106353 269.335388 
L 483.435877 268.615058 
L 487.091202 266.549797 
L 491.356399 266.549797 
L 491.447144 264.0922 
L 493.095103 264.0922 
L 496.897499 263.693586 
L 512.434365 252.51042 
L 515.489751 252.51042 
L 516.790448 252.19655 
L 544.696211 208.451005 
L 546.12943 207.93469 
L 549.574939 207.93469 
L 550.477393 207.311659 
L 551.968389 207.311659 
L 554.57254 206.745125 
L 568.122008 205.183625 
L 575.841579 192.140783 
L 590.999298 187.738764 
L 605.2511 186.682594 
L 608.497277 180.198053 
L 609.644823 180.198053 
L 613.6996 175.100814 
L 618.782121 174.884244 
L 622.137025 171.496024 
L 628.672254 170.898103 
L 631.070629 170.896533 
L 634.964445 158.016903 
L 636.424512 158.016903 
L 639.047294 157.621428 
L 647.493331 157.467632 
L 651.866201 156.753579 
L 655.929702 156.715915 
L 664.397929 156.433432 
L 677.191522 149.597357 
L 682.965979 149.438853 
L 687.190904 149.084181 
L 689.739489 142.130405 
L 694.104478 142.130405 
L 698.175296 141.46971 
L 702.559338 141.46971 
L 706.622093 141.353578 
L 710.999311 134.280531 
L 715.081836 134.032575 
L 719.305214 133.961954 
L 723.407523 132.615454 
L 727.760299 129.222526 
L 731.873865 128.282487 
L 736.215159 125.46394 
L 740.317299 120.580133 
L 744.657608 119.93827 
L 747.721704 119.93827 
L 750.398533 118.486624 
L 761.566807 118.263777 
L 778.466649 116.874905 
L 801.97026 116.878043 
L 803.818353 113.97946 
L 822.246395 113.97946 
L 824.779487 109.464449 
L 829.154889 109.464449 
L 829.154889 109.464449 
" clip-path="url(#p476f7947bc)" style="fill: none; stroke: #ff0000; stroke-width: 1.5; stroke-linecap: round"/>
   </g>
   <g id="line2d_16">
    <path d="M 126.474042 492.42119 
L 209.354828 492.42119 
L 265.074159 489.425306 
L 267.654235 488.518224 
L 271.878781 487.851252 
L 275.032411 487.851252 
L 276.348586 486.963001 
L 277.509008 486.760555 
L 280.340169 486.00413 
L 285.53882 485.230442 
L 288.348819 485.147267 
L 288.789373 484.307666 
L 291.124779 484.307666 
L 292.269595 483.262481 
L 293.38945 481.768463 
L 296.487682 481.768463 
L 297.786662 481.117184 
L 298.423172 481.088936 
L 301.366312 480.461197 
L 305.695406 480.194408 
L 310.014031 478.350425 
L 310.999309 478.260973 
L 314.014127 478.260973 
L 315.355349 476.972539 
L 316.230154 475.795529 
L 318.252674 474.9983 
L 322.603578 473.825998 
L 326.372611 473.825998 
L 327.702801 470.848947 
L 330.251175 470.778326 
L 331.640154 464.370683 
L 334.077197 464.370683 
L 335.325422 461.6871 
L 339.519236 455.635698 
L 339.883116 455.635698 
L 342.143228 455.400296 
L 343.587999 451.415724 
L 344.678079 451.415724 
L 345.646893 450.962183 
L 347.965921 449.348894 
L 350.225736 449.253164 
L 352.562888 447.595934 
L 356.937277 444.822898 
L 358.775366 444.822898 
L 360.488503 443.123295 
L 362.154374 443.054244 
L 364.826251 442.404534 
L 367.843138 442.404534 
L 368.926576 441.06902 
L 372.671576 441.06902 
L 373.291917 439.567155 
L 374.364197 439.567155 
L 376.846661 437.448537 
L 377.376497 436.524191 
L 381.620502 432.569437 
L 384.655513 432.569437 
L 386.079727 425.949932 
L 387.358191 425.949932 
L 388.255664 425.391244 
L 390.071549 423.716751 
L 392.879437 423.716751 
L 394.627105 420.948423 
L 395.952482 420.374042 
L 397.037876 420.374042 
L 399.213673 419.08247 
L 421.733456 413.525413 
L 423.011034 413.525413 
L 423.840107 413.178587 
L 425.727544 413.178587 
L 427.086059 413.009097 
L 427.93873 412.302891 
L 429.618237 412.302891 
L 432.297683 409.162628 
L 435.544169 409.162628 
L 436.381207 407.758063 
L 439.087515 407.632515 
L 441.420459 406.796053 
L 444.114315 406.796053 
L 445.353872 403.621264 
L 445.805514 403.621264 
L 449.202112 402.229253 
L 451.409288 402.229253 
L 453.376564 398.189754 
L 454.940364 398.189754 
L 457.654383 396.629824 
L 459.30973 396.629824 
L 461.778502 396.191976 
L 463.875093 396.191976 
L 466.113422 395.303726 
L 470.196665 393.817554 
L 473.521316 393.817554 
L 475.059281 393.073684 
L 476.203071 393.073684 
L 478.642449 392.546383 
L 480.423029 392.546383 
L 481.106353 392.406711 
L 483.435877 391.747585 
L 487.091202 390.551743 
L 491.356399 390.551743 
L 491.447144 388.90079 
L 493.095103 388.90079 
L 496.897499 388.712469 
L 512.434365 382.7003 
L 515.489751 382.7003 
L 516.790448 382.281285 
L 544.696211 356.432572 
L 546.12943 356.26779 
L 549.574939 356.26779 
L 550.477393 356.085746 
L 551.968389 356.085746 
L 554.57254 355.431329 
L 568.122008 354.619976 
L 575.841579 347.339776 
L 590.999298 344.729952 
L 605.2511 344.552616 
L 608.497277 341.333885 
L 609.644823 341.333885 
L 613.6996 338.099461 
L 618.782121 338.058658 
L 622.137025 336.431246 
L 631.070629 336.183289 
L 634.964445 327.781005 
L 636.424512 327.781005 
L 639.047294 327.617793 
L 647.493331 327.60053 
L 653.226152 327.250566 
L 664.397929 327.230165 
L 677.191522 323.873332 
L 687.190904 321.655844 
L 689.739489 315.254478 
L 694.104478 315.254478 
L 698.175296 314.799368 
L 702.559338 314.799368 
L 706.622093 314.086884 
L 710.999311 310.234138 
L 715.081836 310.17921 
L 723.407523 308.992784 
L 727.760299 307.817343 
L 731.873865 307.467379 
L 736.215159 306.273106 
L 740.317299 303.333719 
L 744.657608 303.016711 
L 747.721704 303.016711 
L 750.398533 302.382695 
L 761.566807 302.359155 
L 778.466649 301.893059 
L 801.97026 301.891489 
L 803.818353 299.460571 
L 822.246395 299.460571 
L 824.779487 297.2525 
L 829.154889 297.2525 
L 829.154889 297.2525 
" clip-path="url(#p476f7947bc)" style="fill: none; stroke: #0000ff; stroke-width: 1.5; stroke-linecap: round"/>
   </g>
   <g id="text_17">
    <!-- ↑ 244,023 -->
    <g style="fill: #ff0000" transform="translate(770.857612 102.369136) scale(0.1 -0.1)">
     <defs>
      <path id="ArialMT-2191" d="M 478 2894 
Q 931 3309 1167 3612 
Q 1403 3916 1519 4184 
L 1663 4184 
Q 1809 3875 2042 3584 
Q 2275 3294 2725 2891 
L 2725 2650 
Q 2097 2944 1759 3266 
L 1759 -1341 
L 1444 -1341 
L 1444 3266 
Q 1144 3028 995 2934 
Q 847 2841 478 2656 
L 478 2894 
z
" transform="scale(0.015625)"/>
      <path id="ArialMT-2c" d="M 569 0 
L 569 641 
L 1209 641 
L 1209 0 
Q 1209 -353 1084 -570 
Q 959 -788 688 -906 
L 531 -666 
Q 709 -588 793 -436 
Q 878 -284 888 0 
L 569 0 
z
" transform="scale(0.015625)"/>
     </defs>
     <use xlink:href="#ArialMT-2191"/>
     <use xlink:href="#ArialMT-20" x="50"/>
     <use xlink:href="#ArialMT-32" x="77.783203"/>
     <use xlink:href="#ArialMT-34" x="133.398438"/>
     <use xlink:href="#ArialMT-34" x="189.013672"/>
     <use xlink:href="#ArialMT-2c" x="244.628906"/>
     <use xlink:href="#ArialMT-30" x="272.412109"/>
     <use xlink:href="#ArialMT-32" x="328.027344"/>
     <use xlink:href="#ArialMT-33" x="383.642578"/>
    </g>
   </g>
   <g id="text_18">
    <!-- ↑ 124,363 -->
    <g style="fill: #0000ff" transform="translate(770.857612 290.157187) scale(0.1 -0.1)">
     <use xlink:href="#ArialMT-2191"/>
     <use xlink:href="#ArialMT-20" x="50"/>
     <use xlink:href="#ArialMT-31" x="77.783203"/>
     <use xlink:href="#ArialMT-32" x="133.398438"/>
     <use xlink:href="#ArialMT-34" x="189.013672"/>
     <use xlink:href="#ArialMT-2c" x="244.628906"/>
     <use xlink:href="#ArialMT-33" x="272.412109"/>
     <use xlink:href="#ArialMT-36" x="328.027344"/>
     <use xlink:href="#ArialMT-33" x="383.642578"/>
    </g>
   </g>
   <g id="text_19">
    <g id="patch_3">
     <path d="M 762.469016 88.186263 
L 848.829953 88.186263 
Q 853.829953 88.186263 853.829953 83.186263 
L 853.829953 74.04095 
Q 853.829953 69.04095 848.829953 69.04095 
L 762.469016 69.04095 
Q 757.469016 69.04095 757.469016 74.04095 
L 757.469016 83.186263 
Q 757.469016 88.186263 762.469016 88.186263 
z
" style="fill: #ff0000; opacity: 0.5; stroke: #ffffff; stroke-linejoin: miter"/>
    </g>
    <!-- Difference: 119,660 -->
    <g style="fill: #262626" transform="translate(762.469016 81.198763) scale(0.1 -0.1)">
     <defs>
      <path id="ArialMT-44" d="M 494 0 
L 494 4581 
L 2072 4581 
Q 2606 4581 2888 4516 
Q 3281 4425 3559 4188 
Q 3922 3881 4101 3404 
Q 4281 2928 4281 2316 
Q 4281 1794 4159 1391 
Q 4038 988 3847 723 
Q 3656 459 3429 307 
Q 3203 156 2883 78 
Q 2563 0 2147 0 
L 494 0 
z
M 1100 541 
L 2078 541 
Q 2531 541 2789 625 
Q 3047 709 3200 863 
Q 3416 1078 3536 1442 
Q 3656 1806 3656 2325 
Q 3656 3044 3420 3430 
Q 3184 3816 2847 3947 
Q 2603 4041 2063 4041 
L 1100 4041 
L 1100 541 
z
" transform="scale(0.015625)"/>
      <path id="ArialMT-66" d="M 556 0 
L 556 2881 
L 59 2881 
L 59 3319 
L 556 3319 
L 556 3672 
Q 556 4006 616 4169 
Q 697 4388 901 4523 
Q 1106 4659 1475 4659 
Q 1713 4659 2000 4603 
L 1916 4113 
Q 1741 4144 1584 4144 
Q 1328 4144 1222 4034 
Q 1116 3925 1116 3625 
L 1116 3319 
L 1763 3319 
L 1763 2881 
L 1116 2881 
L 1116 0 
L 556 0 
z
" transform="scale(0.015625)"/>
      <path id="ArialMT-72" d="M 416 0 
L 416 3319 
L 922 3319 
L 922 2816 
Q 1116 3169 1280 3281 
Q 1444 3394 1641 3394 
Q 1925 3394 2219 3213 
L 2025 2691 
Q 1819 2813 1613 2813 
Q 1428 2813 1281 2702 
Q 1134 2591 1072 2394 
Q 978 2094 978 1738 
L 978 0 
L 416 0 
z
" transform="scale(0.015625)"/>
      <path id="ArialMT-63" d="M 2588 1216 
L 3141 1144 
Q 3050 572 2676 248 
Q 2303 -75 1759 -75 
Q 1078 -75 664 370 
Q 250 816 250 1647 
Q 250 2184 428 2587 
Q 606 2991 970 3192 
Q 1334 3394 1763 3394 
Q 2303 3394 2647 3120 
Q 2991 2847 3088 2344 
L 2541 2259 
Q 2463 2594 2264 2762 
Q 2066 2931 1784 2931 
Q 1359 2931 1093 2626 
Q 828 2322 828 1663 
Q 828 994 1084 691 
Q 1341 388 1753 388 
Q 2084 388 2306 591 
Q 2528 794 2588 1216 
z
" transform="scale(0.015625)"/>
     </defs>
     <use xlink:href="#ArialMT-44"/>
     <use xlink:href="#ArialMT-69" x="72.216797"/>
     <use xlink:href="#ArialMT-66" x="94.433594"/>
     <use xlink:href="#ArialMT-66" x="120.466797"/>
     <use xlink:href="#ArialMT-65" x="148.25"/>
     <use xlink:href="#ArialMT-72" x="203.865234"/>
     <use xlink:href="#ArialMT-65" x="237.166016"/>
     <use xlink:href="#ArialMT-6e" x="292.78125"/>
     <use xlink:href="#ArialMT-63" x="348.396484"/>
     <use xlink:href="#ArialMT-65" x="398.396484"/>
     <use xlink:href="#ArialMT-3a" x="454.011719"/>
     <use xlink:href="#ArialMT-20" x="481.794922"/>
     <use xlink:href="#ArialMT-31" x="509.578125"/>
     <use xlink:href="#ArialMT-31" x="557.818359"/>
     <use xlink:href="#ArialMT-39" x="613.433594"/>
     <use xlink:href="#ArialMT-2c" x="669.048828"/>
     <use xlink:href="#ArialMT-36" x="696.832031"/>
     <use xlink:href="#ArialMT-36" x="752.447266"/>
     <use xlink:href="#ArialMT-30" x="808.0625"/>
    </g>
   </g>
   <g id="text_20">
    <!-- Vote Counts Over Time - South Dakota -->
    <g style="fill: #262626" transform="translate(349.723216 46.020937) scale(0.14 -0.14)">
     <defs>
      <path id="Arial-BoldMT-56" d="M 1634 0 
L -3 4581 
L 1000 4581 
L 2159 1191 
L 3281 4581 
L 4263 4581 
L 2622 0 
L 1634 0 
z
" transform="scale(0.015625)"/>
      <path id="Arial-BoldMT-6f" d="M 256 1706 
Q 256 2144 472 2553 
Q 688 2963 1083 3178 
Q 1478 3394 1966 3394 
Q 2719 3394 3200 2905 
Q 3681 2416 3681 1669 
Q 3681 916 3195 420 
Q 2709 -75 1972 -75 
Q 1516 -75 1102 131 
Q 688 338 472 736 
Q 256 1134 256 1706 
z
M 1156 1659 
Q 1156 1166 1390 903 
Q 1625 641 1969 641 
Q 2313 641 2545 903 
Q 2778 1166 2778 1666 
Q 2778 2153 2545 2415 
Q 2313 2678 1969 2678 
Q 1625 2678 1390 2415 
Q 1156 2153 1156 1659 
z
" transform="scale(0.015625)"/>
      <path id="Arial-BoldMT-74" d="M 1981 3319 
L 1981 2619 
L 1381 2619 
L 1381 1281 
Q 1381 875 1398 808 
Q 1416 741 1477 697 
Q 1538 653 1625 653 
Q 1747 653 1978 738 
L 2053 56 
Q 1747 -75 1359 -75 
Q 1122 -75 931 4 
Q 741 84 652 211 
Q 563 338 528 553 
Q 500 706 500 1172 
L 500 2619 
L 97 2619 
L 97 3319 
L 500 3319 
L 500 3978 
L 1381 4491 
L 1381 3319 
L 1981 3319 
z
" transform="scale(0.015625)"/>
      <path id="Arial-BoldMT-65" d="M 2381 1056 
L 3256 909 
Q 3088 428 2723 176 
Q 2359 -75 1813 -75 
Q 947 -75 531 491 
Q 203 944 203 1634 
Q 203 2459 634 2926 
Q 1066 3394 1725 3394 
Q 2466 3394 2894 2905 
Q 3322 2416 3303 1406 
L 1103 1406 
Q 1113 1016 1316 798 
Q 1519 581 1822 581 
Q 2028 581 2168 693 
Q 2309 806 2381 1056 
z
M 2431 1944 
Q 2422 2325 2234 2523 
Q 2047 2722 1778 2722 
Q 1491 2722 1303 2513 
Q 1116 2303 1119 1944 
L 2431 1944 
z
" transform="scale(0.015625)"/>
      <path id="Arial-BoldMT-20" transform="scale(0.015625)"/>
      <path id="Arial-BoldMT-43" d="M 3397 1684 
L 4294 1400 
Q 4088 650 3608 286 
Q 3128 -78 2391 -78 
Q 1478 -78 890 545 
Q 303 1169 303 2250 
Q 303 3394 893 4026 
Q 1484 4659 2447 4659 
Q 3288 4659 3813 4163 
Q 4125 3869 4281 3319 
L 3366 3100 
Q 3284 3456 3026 3662 
Q 2769 3869 2400 3869 
Q 1891 3869 1573 3503 
Q 1256 3138 1256 2319 
Q 1256 1450 1568 1081 
Q 1881 713 2381 713 
Q 2750 713 3015 947 
Q 3281 1181 3397 1684 
z
" transform="scale(0.015625)"/>
      <path id="Arial-BoldMT-75" d="M 2644 0 
L 2644 497 
Q 2463 231 2167 78 
Q 1872 -75 1544 -75 
Q 1209 -75 943 72 
Q 678 219 559 484 
Q 441 750 441 1219 
L 441 3319 
L 1319 3319 
L 1319 1794 
Q 1319 1094 1367 936 
Q 1416 778 1544 686 
Q 1672 594 1869 594 
Q 2094 594 2272 717 
Q 2450 841 2515 1023 
Q 2581 1206 2581 1919 
L 2581 3319 
L 3459 3319 
L 3459 0 
L 2644 0 
z
" transform="scale(0.015625)"/>
      <path id="Arial-BoldMT-6e" d="M 3478 0 
L 2600 0 
L 2600 1694 
Q 2600 2231 2544 2389 
Q 2488 2547 2361 2634 
Q 2234 2722 2056 2722 
Q 1828 2722 1647 2597 
Q 1466 2472 1398 2265 
Q 1331 2059 1331 1503 
L 1331 0 
L 453 0 
L 453 3319 
L 1269 3319 
L 1269 2831 
Q 1703 3394 2363 3394 
Q 2653 3394 2893 3289 
Q 3134 3184 3257 3021 
Q 3381 2859 3429 2653 
Q 3478 2447 3478 2063 
L 3478 0 
z
" transform="scale(0.015625)"/>
      <path id="Arial-BoldMT-73" d="M 150 947 
L 1031 1081 
Q 1088 825 1259 692 
Q 1431 559 1741 559 
Q 2081 559 2253 684 
Q 2369 772 2369 919 
Q 2369 1019 2306 1084 
Q 2241 1147 2013 1200 
Q 950 1434 666 1628 
Q 272 1897 272 2375 
Q 272 2806 612 3100 
Q 953 3394 1669 3394 
Q 2350 3394 2681 3172 
Q 3013 2950 3138 2516 
L 2309 2363 
Q 2256 2556 2107 2659 
Q 1959 2763 1684 2763 
Q 1338 2763 1188 2666 
Q 1088 2597 1088 2488 
Q 1088 2394 1175 2328 
Q 1294 2241 1995 2081 
Q 2697 1922 2975 1691 
Q 3250 1456 3250 1038 
Q 3250 581 2869 253 
Q 2488 -75 1741 -75 
Q 1063 -75 667 200 
Q 272 475 150 947 
z
" transform="scale(0.015625)"/>
      <path id="Arial-BoldMT-4f" d="M 278 2263 
Q 278 2963 488 3438 
Q 644 3788 914 4066 
Q 1184 4344 1506 4478 
Q 1934 4659 2494 4659 
Q 3506 4659 4114 4031 
Q 4722 3403 4722 2284 
Q 4722 1175 4119 548 
Q 3516 -78 2506 -78 
Q 1484 -78 881 545 
Q 278 1169 278 2263 
z
M 1231 2294 
Q 1231 1516 1590 1114 
Q 1950 713 2503 713 
Q 3056 713 3411 1111 
Q 3766 1509 3766 2306 
Q 3766 3094 3420 3481 
Q 3075 3869 2503 3869 
Q 1931 3869 1581 3476 
Q 1231 3084 1231 2294 
z
" transform="scale(0.015625)"/>
      <path id="Arial-BoldMT-76" d="M 1372 0 
L 34 3319 
L 956 3319 
L 1581 1625 
L 1763 1059 
Q 1834 1275 1853 1344 
Q 1897 1484 1947 1625 
L 2578 3319 
L 3481 3319 
L 2163 0 
L 1372 0 
z
" transform="scale(0.015625)"/>
      <path id="Arial-BoldMT-72" d="M 1300 0 
L 422 0 
L 422 3319 
L 1238 3319 
L 1238 2847 
Q 1447 3181 1614 3287 
Q 1781 3394 1994 3394 
Q 2294 3394 2572 3228 
L 2300 2463 
Q 2078 2606 1888 2606 
Q 1703 2606 1575 2504 
Q 1447 2403 1373 2137 
Q 1300 1872 1300 1025 
L 1300 0 
z
" transform="scale(0.015625)"/>
      <path id="Arial-BoldMT-54" d="M 1497 0 
L 1497 3806 
L 138 3806 
L 138 4581 
L 3778 4581 
L 3778 3806 
L 2422 3806 
L 2422 0 
L 1497 0 
z
" transform="scale(0.015625)"/>
      <path id="Arial-BoldMT-69" d="M 459 3769 
L 459 4581 
L 1338 4581 
L 1338 3769 
L 459 3769 
z
M 459 0 
L 459 3319 
L 1338 3319 
L 1338 0 
L 459 0 
z
" transform="scale(0.015625)"/>
      <path id="Arial-BoldMT-6d" d="M 394 3319 
L 1203 3319 
L 1203 2866 
Q 1638 3394 2238 3394 
Q 2556 3394 2790 3262 
Q 3025 3131 3175 2866 
Q 3394 3131 3647 3262 
Q 3900 3394 4188 3394 
Q 4553 3394 4806 3245 
Q 5059 3097 5184 2809 
Q 5275 2597 5275 2122 
L 5275 0 
L 4397 0 
L 4397 1897 
Q 4397 2391 4306 2534 
Q 4184 2722 3931 2722 
Q 3747 2722 3584 2609 
Q 3422 2497 3350 2280 
Q 3278 2063 3278 1594 
L 3278 0 
L 2400 0 
L 2400 1819 
Q 2400 2303 2353 2443 
Q 2306 2584 2207 2653 
Q 2109 2722 1941 2722 
Q 1738 2722 1575 2612 
Q 1413 2503 1342 2297 
Q 1272 2091 1272 1613 
L 1272 0 
L 394 0 
L 394 3319 
z
" transform="scale(0.015625)"/>
      <path id="Arial-BoldMT-2d" d="M 359 1222 
L 359 2100 
L 2084 2100 
L 2084 1222 
L 359 1222 
z
" transform="scale(0.015625)"/>
      <path id="Arial-BoldMT-53" d="M 231 1491 
L 1131 1578 
Q 1213 1125 1461 912 
Q 1709 700 2131 700 
Q 2578 700 2804 889 
Q 3031 1078 3031 1331 
Q 3031 1494 2936 1608 
Q 2841 1722 2603 1806 
Q 2441 1863 1863 2006 
Q 1119 2191 819 2459 
Q 397 2838 397 3381 
Q 397 3731 595 4036 
Q 794 4341 1167 4500 
Q 1541 4659 2069 4659 
Q 2931 4659 3367 4281 
Q 3803 3903 3825 3272 
L 2900 3231 
Q 2841 3584 2645 3739 
Q 2450 3894 2059 3894 
Q 1656 3894 1428 3728 
Q 1281 3622 1281 3444 
Q 1281 3281 1419 3166 
Q 1594 3019 2269 2859 
Q 2944 2700 3267 2529 
Q 3591 2359 3773 2064 
Q 3956 1769 3956 1334 
Q 3956 941 3737 597 
Q 3519 253 3119 86 
Q 2719 -81 2122 -81 
Q 1253 -81 787 320 
Q 322 722 231 1491 
z
" transform="scale(0.015625)"/>
      <path id="Arial-BoldMT-68" d="M 1334 4581 
L 1334 2897 
Q 1759 3394 2350 3394 
Q 2653 3394 2897 3281 
Q 3141 3169 3264 2994 
Q 3388 2819 3433 2606 
Q 3478 2394 3478 1947 
L 3478 0 
L 2600 0 
L 2600 1753 
Q 2600 2275 2550 2415 
Q 2500 2556 2373 2639 
Q 2247 2722 2056 2722 
Q 1838 2722 1666 2615 
Q 1494 2509 1414 2295 
Q 1334 2081 1334 1663 
L 1334 0 
L 456 0 
L 456 4581 
L 1334 4581 
z
" transform="scale(0.015625)"/>
      <path id="Arial-BoldMT-44" d="M 463 4581 
L 2153 4581 
Q 2725 4581 3025 4494 
Q 3428 4375 3715 4072 
Q 4003 3769 4153 3330 
Q 4303 2891 4303 2247 
Q 4303 1681 4163 1272 
Q 3991 772 3672 463 
Q 3431 228 3022 97 
Q 2716 0 2203 0 
L 463 0 
L 463 4581 
z
M 1388 3806 
L 1388 772 
L 2078 772 
Q 2466 772 2638 816 
Q 2863 872 3011 1006 
Q 3159 1141 3253 1448 
Q 3347 1756 3347 2288 
Q 3347 2819 3253 3103 
Q 3159 3388 2990 3547 
Q 2822 3706 2563 3763 
Q 2369 3806 1803 3806 
L 1388 3806 
z
" transform="scale(0.015625)"/>
      <path id="Arial-BoldMT-61" d="M 1116 2306 
L 319 2450 
Q 453 2931 781 3162 
Q 1109 3394 1756 3394 
Q 2344 3394 2631 3255 
Q 2919 3116 3036 2902 
Q 3153 2688 3153 2116 
L 3144 1091 
Q 3144 653 3186 445 
Q 3228 238 3344 0 
L 2475 0 
Q 2441 88 2391 259 
Q 2369 338 2359 363 
Q 2134 144 1878 34 
Q 1622 -75 1331 -75 
Q 819 -75 523 203 
Q 228 481 228 906 
Q 228 1188 362 1408 
Q 497 1628 739 1745 
Q 981 1863 1438 1950 
Q 2053 2066 2291 2166 
L 2291 2253 
Q 2291 2506 2166 2614 
Q 2041 2722 1694 2722 
Q 1459 2722 1328 2630 
Q 1197 2538 1116 2306 
z
M 2291 1594 
Q 2122 1538 1756 1459 
Q 1391 1381 1278 1306 
Q 1106 1184 1106 997 
Q 1106 813 1243 678 
Q 1381 544 1594 544 
Q 1831 544 2047 700 
Q 2206 819 2256 991 
Q 2291 1103 2291 1419 
L 2291 1594 
z
" transform="scale(0.015625)"/>
      <path id="Arial-BoldMT-6b" d="M 428 0 
L 428 4581 
L 1306 4581 
L 1306 2150 
L 2334 3319 
L 3416 3319 
L 2281 2106 
L 3497 0 
L 2550 0 
L 1716 1491 
L 1306 1063 
L 1306 0 
L 428 0 
z
" transform="scale(0.015625)"/>
     </defs>
     <use xlink:href="#Arial-BoldMT-56"/>
     <use xlink:href="#Arial-BoldMT-6f" x="59.324219"/>
     <use xlink:href="#Arial-BoldMT-74" x="120.408203"/>
     <use xlink:href="#Arial-BoldMT-65" x="153.708984"/>
     <use xlink:href="#Arial-BoldMT-20" x="209.324219"/>
     <use xlink:href="#Arial-BoldMT-43" x="237.107422"/>
     <use xlink:href="#Arial-BoldMT-6f" x="309.324219"/>
     <use xlink:href="#Arial-BoldMT-75" x="370.408203"/>
     <use xlink:href="#Arial-BoldMT-6e" x="431.492188"/>
     <use xlink:href="#Arial-BoldMT-74" x="492.576172"/>
     <use xlink:href="#Arial-BoldMT-73" x="525.876953"/>
     <use xlink:href="#Arial-BoldMT-20" x="581.492188"/>
     <use xlink:href="#Arial-BoldMT-4f" x="609.275391"/>
     <use xlink:href="#Arial-BoldMT-76" x="687.058594"/>
     <use xlink:href="#Arial-BoldMT-65" x="742.673828"/>
     <use xlink:href="#Arial-BoldMT-72" x="798.289062"/>
     <use xlink:href="#Arial-BoldMT-20" x="837.205078"/>
     <use xlink:href="#Arial-BoldMT-54" x="864.988281"/>
     <use xlink:href="#Arial-BoldMT-69" x="924.322266"/>
     <use xlink:href="#Arial-BoldMT-6d" x="952.105469"/>
     <use xlink:href="#Arial-BoldMT-65" x="1041.021484"/>
     <use xlink:href="#Arial-BoldMT-20" x="1096.636719"/>
     <use xlink:href="#Arial-BoldMT-2d" x="1124.419922"/>
     <use xlink:href="#Arial-BoldMT-20" x="1157.720703"/>
     <use xlink:href="#Arial-BoldMT-53" x="1185.503906"/>
     <use xlink:href="#Arial-BoldMT-6f" x="1252.203125"/>
     <use xlink:href="#Arial-BoldMT-75" x="1313.287109"/>
     <use xlink:href="#Arial-BoldMT-74" x="1374.371094"/>
     <use xlink:href="#Arial-BoldMT-68" x="1407.671875"/>
     <use xlink:href="#Arial-BoldMT-20" x="1468.755859"/>
     <use xlink:href="#Arial-BoldMT-44" x="1496.539062"/>
     <use xlink:href="#Arial-BoldMT-61" x="1568.755859"/>
     <use xlink:href="#Arial-BoldMT-6b" x="1624.371094"/>
     <use xlink:href="#Arial-BoldMT-6f" x="1679.986328"/>
     <use xlink:href="#Arial-BoldMT-74" x="1741.070312"/>
     <use xlink:href="#Arial-BoldMT-61" x="1774.371094"/>
    </g>
   </g>
   <g id="legend_1">
    <g id="patch_4">
     <path d="M 98.34 88.311562 
L 193.686875 88.311562 
Q 195.686875 88.311562 195.686875 86.311562 
L 195.686875 59.020937 
Q 195.686875 57.020937 193.686875 57.020937 
L 98.34 57.020937 
Q 96.34 57.020937 96.34 59.020937 
L 96.34 86.311562 
Q 96.34 88.311562 98.34 88.311562 
z
" style="fill: #ffffff; opacity: 0.8; stroke: #cccccc; stroke-linejoin: miter"/>
    </g>
    <g id="line2d_17">
     <path d="M 100.34 64.67875 
L 110.34 64.67875 
L 120.34 64.67875 
" style="fill: none; stroke: #ff0000; stroke-width: 1.5; stroke-linecap: round"/>
    </g>
    <g id="text_21">
     <!-- Donald Trump -->
     <g style="fill: #262626" transform="translate(128.34 68.17875) scale(0.1 -0.1)">
      <defs>
       <path id="ArialMT-6c" d="M 409 0 
L 409 4581 
L 972 4581 
L 972 0 
L 409 0 
z
" transform="scale(0.015625)"/>
       <path id="ArialMT-64" d="M 2575 0 
L 2575 419 
Q 2259 -75 1647 -75 
Q 1250 -75 917 144 
Q 584 363 401 755 
Q 219 1147 219 1656 
Q 219 2153 384 2558 
Q 550 2963 881 3178 
Q 1213 3394 1622 3394 
Q 1922 3394 2156 3267 
Q 2391 3141 2538 2938 
L 2538 4581 
L 3097 4581 
L 3097 0 
L 2575 0 
z
M 797 1656 
Q 797 1019 1065 703 
Q 1334 388 1700 388 
Q 2069 388 2326 689 
Q 2584 991 2584 1609 
Q 2584 2291 2321 2609 
Q 2059 2928 1675 2928 
Q 1300 2928 1048 2622 
Q 797 2316 797 1656 
z
" transform="scale(0.015625)"/>
      </defs>
      <use xlink:href="#ArialMT-44"/>
      <use xlink:href="#ArialMT-6f" x="72.216797"/>
      <use xlink:href="#ArialMT-6e" x="127.832031"/>
      <use xlink:href="#ArialMT-61" x="183.447266"/>
      <use xlink:href="#ArialMT-6c" x="239.0625"/>
      <use xlink:href="#ArialMT-64" x="261.279297"/>
      <use xlink:href="#ArialMT-20" x="316.894531"/>
      <use xlink:href="#ArialMT-54" x="342.927734"/>
      <use xlink:href="#ArialMT-72" x="400.261719"/>
      <use xlink:href="#ArialMT-75" x="433.5625"/>
      <use xlink:href="#ArialMT-6d" x="489.177734"/>
      <use xlink:href="#ArialMT-70" x="572.478516"/>
     </g>
    </g>
    <g id="line2d_18">
     <path d="M 100.34 78.824062 
L 110.34 78.824062 
L 120.34 78.824062 
" style="fill: none; stroke: #0000ff; stroke-width: 1.5; stroke-linecap: round"/>
    </g>
    <g id="text_22">
     <!-- Kamala Harris -->
     <g style="fill: #262626" transform="translate(128.34 82.324062) scale(0.1 -0.1)">
      <defs>
       <path id="ArialMT-4b" d="M 469 0 
L 469 4581 
L 1075 4581 
L 1075 2309 
L 3350 4581 
L 4172 4581 
L 2250 2725 
L 4256 0 
L 3456 0 
L 1825 2319 
L 1075 1588 
L 1075 0 
L 469 0 
z
" transform="scale(0.015625)"/>
       <path id="ArialMT-48" d="M 513 0 
L 513 4581 
L 1119 4581 
L 1119 2700 
L 3500 2700 
L 3500 4581 
L 4106 4581 
L 4106 0 
L 3500 0 
L 3500 2159 
L 1119 2159 
L 1119 0 
L 513 0 
z
" transform="scale(0.015625)"/>
      </defs>
      <use xlink:href="#ArialMT-4b"/>
      <use xlink:href="#ArialMT-61" x="66.699219"/>
      <use xlink:href="#ArialMT-6d" x="122.314453"/>
      <use xlink:href="#ArialMT-61" x="205.615234"/>
      <use xlink:href="#ArialMT-6c" x="261.230469"/>
      <use xlink:href="#ArialMT-61" x="283.447266"/>
      <use xlink:href="#ArialMT-20" x="339.0625"/>
      <use xlink:href="#ArialMT-48" x="366.845703"/>
      <use xlink:href="#ArialMT-61" x="439.0625"/>
      <use xlink:href="#ArialMT-72" x="494.677734"/>
      <use xlink:href="#ArialMT-72" x="527.978516"/>
      <use xlink:href="#ArialMT-69" x="561.279297"/>
      <use xlink:href="#ArialMT-73" x="583.496094"/>
     </g>
    </g>
   </g>
  </g>
 </g>
 <defs>
  <clipPath id="p476f7947bc">
   <rect x="91.34" y="52.020937" width="772.948932" height="440.400252"/>
  </clipPath>
 </defs>
</svg>
