<?xml version="1.0" encoding="utf-8" standalone="no"?>
<!DOCTYPE svg PUBLIC "-//W3C//DTD SVG 1.1//EN"
  "http://www.w3.org/Graphics/SVG/1.1/DTD/svg11.dtd">
<svg xmlns:xlink="http://www.w3.org/1999/xlink" width="905.627656pt" height="638.805794pt" viewBox="0 0 905.627656 638.805794" xmlns="http://www.w3.org/2000/svg" version="1.1">
 <metadata>
  <rdf:RDF xmlns:dc="http://purl.org/dc/elements/1.1/" xmlns:cc="http://creativecommons.org/ns#" xmlns:rdf="http://www.w3.org/1999/02/22-rdf-syntax-ns#">
   <cc:Work>
    <dc:type rdf:resource="http://purl.org/dc/dcmitype/StillImage"/>
    <dc:date>2024-11-06T15:00:16.603029</dc:date>
    <dc:format>image/svg+xml</dc:format>
    <dc:creator>
     <cc:Agent>
      <dc:title>Matplotlib v3.8.0, https://matplotlib.org/</dc:title>
     </cc:Agent>
    </dc:creator>
   </cc:Work>
  </rdf:RDF>
 </metadata>
 <defs>
  <style type="text/css">*{stroke-linejoin: round; stroke-linecap: butt}</style>
 </defs>
 <g id="figure_1">
  <g id="patch_1">
   <path d="M 0 638.805794 
L 905.627656 638.805794 
L 905.627656 0 
L 0 0 
z
" style="fill: #ffffff"/>
  </g>
  <g id="axes_1">
   <g id="patch_2">
    <path d="M 111.122202 513.51744 
L 755.853586 513.51744 
L 755.853586 52.020937 
L 111.122202 52.020937 
z
" style="fill: #ffffff"/>
   </g>
   <g id="matplotlib.axis_1">
    <g id="xtick_1">
     <g id="line2d_1">
      <path d="M 142.949037 513.51744 
L 142.949037 52.020937 
" clip-path="url(#pdef7d68dd0)" style="fill: none; stroke: #cccccc; stroke-opacity: 0.7; stroke-width: 0.8; stroke-linecap: round"/>
     </g>
     <g id="text_1">
      <!-- 2024-11-05 04:00 PM EST -->
      <g style="fill: #262626" transform="translate(39.578906 585.823318) rotate(-30) scale(0.1 -0.1)">
       <defs>
        <path id="ArialMT-32" d="M 3222 541 
L 3222 0 
L 194 0 
Q 188 203 259 391 
Q 375 700 629 1000 
Q 884 1300 1366 1694 
Q 2113 2306 2375 2664 
Q 2638 3022 2638 3341 
Q 2638 3675 2398 3904 
Q 2159 4134 1775 4134 
Q 1369 4134 1125 3890 
Q 881 3647 878 3216 
L 300 3275 
Q 359 3922 746 4261 
Q 1134 4600 1788 4600 
Q 2447 4600 2831 4234 
Q 3216 3869 3216 3328 
Q 3216 3053 3103 2787 
Q 2991 2522 2730 2228 
Q 2469 1934 1863 1422 
Q 1356 997 1212 845 
Q 1069 694 975 541 
L 3222 541 
z
" transform="scale(0.015625)"/>
        <path id="ArialMT-30" d="M 266 2259 
Q 266 3072 433 3567 
Q 600 4063 929 4331 
Q 1259 4600 1759 4600 
Q 2128 4600 2406 4451 
Q 2684 4303 2865 4023 
Q 3047 3744 3150 3342 
Q 3253 2941 3253 2259 
Q 3253 1453 3087 958 
Q 2922 463 2592 192 
Q 2263 -78 1759 -78 
Q 1097 -78 719 397 
Q 266 969 266 2259 
z
M 844 2259 
Q 844 1131 1108 757 
Q 1372 384 1759 384 
Q 2147 384 2411 759 
Q 2675 1134 2675 2259 
Q 2675 3391 2411 3762 
Q 2147 4134 1753 4134 
Q 1366 4134 1134 3806 
Q 844 3388 844 2259 
z
" transform="scale(0.015625)"/>
        <path id="ArialMT-34" d="M 2069 0 
L 2069 1097 
L 81 1097 
L 81 1613 
L 2172 4581 
L 2631 4581 
L 2631 1613 
L 3250 1613 
L 3250 1097 
L 2631 1097 
L 2631 0 
L 2069 0 
z
M 2069 1613 
L 2069 3678 
L 634 1613 
L 2069 1613 
z
" transform="scale(0.015625)"/>
        <path id="ArialMT-2d" d="M 203 1375 
L 203 1941 
L 1931 1941 
L 1931 1375 
L 203 1375 
z
" transform="scale(0.015625)"/>
        <path id="ArialMT-31" d="M 2384 0 
L 1822 0 
L 1822 3584 
Q 1619 3391 1289 3197 
Q 959 3003 697 2906 
L 697 3450 
Q 1169 3672 1522 3987 
Q 1875 4303 2022 4600 
L 2384 4600 
L 2384 0 
z
" transform="scale(0.015625)"/>
        <path id="ArialMT-35" d="M 266 1200 
L 856 1250 
Q 922 819 1161 601 
Q 1400 384 1738 384 
Q 2144 384 2425 690 
Q 2706 997 2706 1503 
Q 2706 1984 2436 2262 
Q 2166 2541 1728 2541 
Q 1456 2541 1237 2417 
Q 1019 2294 894 2097 
L 366 2166 
L 809 4519 
L 3088 4519 
L 3088 3981 
L 1259 3981 
L 1013 2750 
Q 1425 3038 1878 3038 
Q 2478 3038 2890 2622 
Q 3303 2206 3303 1553 
Q 3303 931 2941 478 
Q 2500 -78 1738 -78 
Q 1113 -78 717 272 
Q 322 622 266 1200 
z
" transform="scale(0.015625)"/>
        <path id="ArialMT-20" transform="scale(0.015625)"/>
        <path id="ArialMT-3a" d="M 578 2678 
L 578 3319 
L 1219 3319 
L 1219 2678 
L 578 2678 
z
M 578 0 
L 578 641 
L 1219 641 
L 1219 0 
L 578 0 
z
" transform="scale(0.015625)"/>
        <path id="ArialMT-50" d="M 494 0 
L 494 4581 
L 2222 4581 
Q 2678 4581 2919 4538 
Q 3256 4481 3484 4323 
Q 3713 4166 3852 3881 
Q 3991 3597 3991 3256 
Q 3991 2672 3619 2267 
Q 3247 1863 2275 1863 
L 1100 1863 
L 1100 0 
L 494 0 
z
M 1100 2403 
L 2284 2403 
Q 2872 2403 3119 2622 
Q 3366 2841 3366 3238 
Q 3366 3525 3220 3729 
Q 3075 3934 2838 4000 
Q 2684 4041 2272 4041 
L 1100 4041 
L 1100 2403 
z
" transform="scale(0.015625)"/>
        <path id="ArialMT-4d" d="M 475 0 
L 475 4581 
L 1388 4581 
L 2472 1338 
Q 2622 884 2691 659 
Q 2769 909 2934 1394 
L 4031 4581 
L 4847 4581 
L 4847 0 
L 4263 0 
L 4263 3834 
L 2931 0 
L 2384 0 
L 1059 3900 
L 1059 0 
L 475 0 
z
" transform="scale(0.015625)"/>
        <path id="ArialMT-45" d="M 506 0 
L 506 4581 
L 3819 4581 
L 3819 4041 
L 1113 4041 
L 1113 2638 
L 3647 2638 
L 3647 2100 
L 1113 2100 
L 1113 541 
L 3925 541 
L 3925 0 
L 506 0 
z
" transform="scale(0.015625)"/>
        <path id="ArialMT-53" d="M 288 1472 
L 859 1522 
Q 900 1178 1048 958 
Q 1197 738 1509 602 
Q 1822 466 2213 466 
Q 2559 466 2825 569 
Q 3091 672 3220 851 
Q 3350 1031 3350 1244 
Q 3350 1459 3225 1620 
Q 3100 1781 2813 1891 
Q 2628 1963 1997 2114 
Q 1366 2266 1113 2400 
Q 784 2572 623 2826 
Q 463 3081 463 3397 
Q 463 3744 659 4045 
Q 856 4347 1234 4503 
Q 1613 4659 2075 4659 
Q 2584 4659 2973 4495 
Q 3363 4331 3572 4012 
Q 3781 3694 3797 3291 
L 3216 3247 
Q 3169 3681 2898 3903 
Q 2628 4125 2100 4125 
Q 1550 4125 1298 3923 
Q 1047 3722 1047 3438 
Q 1047 3191 1225 3031 
Q 1400 2872 2139 2705 
Q 2878 2538 3153 2413 
Q 3553 2228 3743 1945 
Q 3934 1663 3934 1294 
Q 3934 928 3725 604 
Q 3516 281 3123 101 
Q 2731 -78 2241 -78 
Q 1619 -78 1198 103 
Q 778 284 539 648 
Q 300 1013 288 1472 
z
" transform="scale(0.015625)"/>
        <path id="ArialMT-54" d="M 1659 0 
L 1659 4041 
L 150 4041 
L 150 4581 
L 3781 4581 
L 3781 4041 
L 2266 4041 
L 2266 0 
L 1659 0 
z
" transform="scale(0.015625)"/>
       </defs>
       <use xlink:href="#ArialMT-32"/>
       <use xlink:href="#ArialMT-30" x="55.615234"/>
       <use xlink:href="#ArialMT-32" x="111.230469"/>
       <use xlink:href="#ArialMT-34" x="166.845703"/>
       <use xlink:href="#ArialMT-2d" x="222.460938"/>
       <use xlink:href="#ArialMT-31" x="255.761719"/>
       <use xlink:href="#ArialMT-31" x="304.001953"/>
       <use xlink:href="#ArialMT-2d" x="359.617188"/>
       <use xlink:href="#ArialMT-30" x="392.917969"/>
       <use xlink:href="#ArialMT-35" x="448.533203"/>
       <use xlink:href="#ArialMT-20" x="504.148438"/>
       <use xlink:href="#ArialMT-30" x="531.931641"/>
       <use xlink:href="#ArialMT-34" x="587.546875"/>
       <use xlink:href="#ArialMT-3a" x="643.162109"/>
       <use xlink:href="#ArialMT-30" x="670.945312"/>
       <use xlink:href="#ArialMT-30" x="726.560547"/>
       <use xlink:href="#ArialMT-20" x="782.175781"/>
       <use xlink:href="#ArialMT-50" x="809.958984"/>
       <use xlink:href="#ArialMT-4d" x="876.658203"/>
       <use xlink:href="#ArialMT-20" x="959.958984"/>
       <use xlink:href="#ArialMT-45" x="987.742188"/>
       <use xlink:href="#ArialMT-53" x="1054.441406"/>
       <use xlink:href="#ArialMT-54" x="1121.140625"/>
      </g>
     </g>
    </g>
    <g id="xtick_2">
     <g id="line2d_2">
      <path d="M 217.28867 513.51744 
L 217.28867 52.020937 
" clip-path="url(#pdef7d68dd0)" style="fill: none; stroke: #cccccc; stroke-opacity: 0.7; stroke-width: 0.8; stroke-linecap: round"/>
     </g>
     <g id="text_2">
      <!-- 2024-11-05 07:00 PM EST -->
      <g style="fill: #262626" transform="translate(113.918539 585.823318) rotate(-30) scale(0.1 -0.1)">
       <defs>
        <path id="ArialMT-37" d="M 303 3981 
L 303 4522 
L 3269 4522 
L 3269 4084 
Q 2831 3619 2401 2847 
Q 1972 2075 1738 1259 
Q 1569 684 1522 0 
L 944 0 
Q 953 541 1156 1306 
Q 1359 2072 1739 2783 
Q 2119 3494 2547 3981 
L 303 3981 
z
" transform="scale(0.015625)"/>
       </defs>
       <use xlink:href="#ArialMT-32"/>
       <use xlink:href="#ArialMT-30" x="55.615234"/>
       <use xlink:href="#ArialMT-32" x="111.230469"/>
       <use xlink:href="#ArialMT-34" x="166.845703"/>
       <use xlink:href="#ArialMT-2d" x="222.460938"/>
       <use xlink:href="#ArialMT-31" x="255.761719"/>
       <use xlink:href="#ArialMT-31" x="304.001953"/>
       <use xlink:href="#ArialMT-2d" x="359.617188"/>
       <use xlink:href="#ArialMT-30" x="392.917969"/>
       <use xlink:href="#ArialMT-35" x="448.533203"/>
       <use xlink:href="#ArialMT-20" x="504.148438"/>
       <use xlink:href="#ArialMT-30" x="531.931641"/>
       <use xlink:href="#ArialMT-37" x="587.546875"/>
       <use xlink:href="#ArialMT-3a" x="643.162109"/>
       <use xlink:href="#ArialMT-30" x="670.945312"/>
       <use xlink:href="#ArialMT-30" x="726.560547"/>
       <use xlink:href="#ArialMT-20" x="782.175781"/>
       <use xlink:href="#ArialMT-50" x="809.958984"/>
       <use xlink:href="#ArialMT-4d" x="876.658203"/>
       <use xlink:href="#ArialMT-20" x="959.958984"/>
       <use xlink:href="#ArialMT-45" x="987.742188"/>
       <use xlink:href="#ArialMT-53" x="1054.441406"/>
       <use xlink:href="#ArialMT-54" x="1121.140625"/>
      </g>
     </g>
    </g>
    <g id="xtick_3">
     <g id="line2d_3">
      <path d="M 291.628302 513.51744 
L 291.628302 52.020937 
" clip-path="url(#pdef7d68dd0)" style="fill: none; stroke: #cccccc; stroke-opacity: 0.7; stroke-width: 0.8; stroke-linecap: round"/>
     </g>
     <g id="text_3">
      <!-- 2024-11-05 10:00 PM EST -->
      <g style="fill: #262626" transform="translate(188.258171 585.823318) rotate(-30) scale(0.1 -0.1)">
       <use xlink:href="#ArialMT-32"/>
       <use xlink:href="#ArialMT-30" x="55.615234"/>
       <use xlink:href="#ArialMT-32" x="111.230469"/>
       <use xlink:href="#ArialMT-34" x="166.845703"/>
       <use xlink:href="#ArialMT-2d" x="222.460938"/>
       <use xlink:href="#ArialMT-31" x="255.761719"/>
       <use xlink:href="#ArialMT-31" x="304.001953"/>
       <use xlink:href="#ArialMT-2d" x="359.617188"/>
       <use xlink:href="#ArialMT-30" x="392.917969"/>
       <use xlink:href="#ArialMT-35" x="448.533203"/>
       <use xlink:href="#ArialMT-20" x="504.148438"/>
       <use xlink:href="#ArialMT-31" x="531.931641"/>
       <use xlink:href="#ArialMT-30" x="587.546875"/>
       <use xlink:href="#ArialMT-3a" x="643.162109"/>
       <use xlink:href="#ArialMT-30" x="670.945312"/>
       <use xlink:href="#ArialMT-30" x="726.560547"/>
       <use xlink:href="#ArialMT-20" x="782.175781"/>
       <use xlink:href="#ArialMT-50" x="809.958984"/>
       <use xlink:href="#ArialMT-4d" x="876.658203"/>
       <use xlink:href="#ArialMT-20" x="959.958984"/>
       <use xlink:href="#ArialMT-45" x="987.742188"/>
       <use xlink:href="#ArialMT-53" x="1054.441406"/>
       <use xlink:href="#ArialMT-54" x="1121.140625"/>
      </g>
     </g>
    </g>
    <g id="xtick_4">
     <g id="line2d_4">
      <path d="M 365.967935 513.51744 
L 365.967935 52.020937 
" clip-path="url(#pdef7d68dd0)" style="fill: none; stroke: #cccccc; stroke-opacity: 0.7; stroke-width: 0.8; stroke-linecap: round"/>
     </g>
     <g id="text_4">
      <!-- 2024-11-06 01:00 AM EST -->
      <g style="fill: #262626" transform="translate(263.074118 585.548318) rotate(-30) scale(0.1 -0.1)">
       <defs>
        <path id="ArialMT-36" d="M 3184 3459 
L 2625 3416 
Q 2550 3747 2413 3897 
Q 2184 4138 1850 4138 
Q 1581 4138 1378 3988 
Q 1113 3794 959 3422 
Q 806 3050 800 2363 
Q 1003 2672 1297 2822 
Q 1591 2972 1913 2972 
Q 2475 2972 2870 2558 
Q 3266 2144 3266 1488 
Q 3266 1056 3080 686 
Q 2894 316 2569 119 
Q 2244 -78 1831 -78 
Q 1128 -78 684 439 
Q 241 956 241 2144 
Q 241 3472 731 4075 
Q 1159 4600 1884 4600 
Q 2425 4600 2770 4297 
Q 3116 3994 3184 3459 
z
M 888 1484 
Q 888 1194 1011 928 
Q 1134 663 1356 523 
Q 1578 384 1822 384 
Q 2178 384 2434 671 
Q 2691 959 2691 1453 
Q 2691 1928 2437 2201 
Q 2184 2475 1800 2475 
Q 1419 2475 1153 2201 
Q 888 1928 888 1484 
z
" transform="scale(0.015625)"/>
        <path id="ArialMT-41" d="M -9 0 
L 1750 4581 
L 2403 4581 
L 4278 0 
L 3588 0 
L 3053 1388 
L 1138 1388 
L 634 0 
L -9 0 
z
M 1313 1881 
L 2866 1881 
L 2388 3150 
Q 2169 3728 2063 4100 
Q 1975 3659 1816 3225 
L 1313 1881 
z
" transform="scale(0.015625)"/>
       </defs>
       <use xlink:href="#ArialMT-32"/>
       <use xlink:href="#ArialMT-30" x="55.615234"/>
       <use xlink:href="#ArialMT-32" x="111.230469"/>
       <use xlink:href="#ArialMT-34" x="166.845703"/>
       <use xlink:href="#ArialMT-2d" x="222.460938"/>
       <use xlink:href="#ArialMT-31" x="255.761719"/>
       <use xlink:href="#ArialMT-31" x="304.001953"/>
       <use xlink:href="#ArialMT-2d" x="359.617188"/>
       <use xlink:href="#ArialMT-30" x="392.917969"/>
       <use xlink:href="#ArialMT-36" x="448.533203"/>
       <use xlink:href="#ArialMT-20" x="504.148438"/>
       <use xlink:href="#ArialMT-30" x="531.931641"/>
       <use xlink:href="#ArialMT-31" x="587.546875"/>
       <use xlink:href="#ArialMT-3a" x="643.162109"/>
       <use xlink:href="#ArialMT-30" x="670.945312"/>
       <use xlink:href="#ArialMT-30" x="726.560547"/>
       <use xlink:href="#ArialMT-20" x="782.175781"/>
       <use xlink:href="#ArialMT-41" x="804.458984"/>
       <use xlink:href="#ArialMT-4d" x="871.158203"/>
       <use xlink:href="#ArialMT-20" x="954.458984"/>
       <use xlink:href="#ArialMT-45" x="982.242188"/>
       <use xlink:href="#ArialMT-53" x="1048.941406"/>
       <use xlink:href="#ArialMT-54" x="1115.640625"/>
      </g>
     </g>
    </g>
    <g id="xtick_5">
     <g id="line2d_5">
      <path d="M 440.307567 513.51744 
L 440.307567 52.020937 
" clip-path="url(#pdef7d68dd0)" style="fill: none; stroke: #cccccc; stroke-opacity: 0.7; stroke-width: 0.8; stroke-linecap: round"/>
     </g>
     <g id="text_5">
      <!-- 2024-11-06 04:00 AM EST -->
      <g style="fill: #262626" transform="translate(337.41375 585.548318) rotate(-30) scale(0.1 -0.1)">
       <use xlink:href="#ArialMT-32"/>
       <use xlink:href="#ArialMT-30" x="55.615234"/>
       <use xlink:href="#ArialMT-32" x="111.230469"/>
       <use xlink:href="#ArialMT-34" x="166.845703"/>
       <use xlink:href="#ArialMT-2d" x="222.460938"/>
       <use xlink:href="#ArialMT-31" x="255.761719"/>
       <use xlink:href="#ArialMT-31" x="304.001953"/>
       <use xlink:href="#ArialMT-2d" x="359.617188"/>
       <use xlink:href="#ArialMT-30" x="392.917969"/>
       <use xlink:href="#ArialMT-36" x="448.533203"/>
       <use xlink:href="#ArialMT-20" x="504.148438"/>
       <use xlink:href="#ArialMT-30" x="531.931641"/>
       <use xlink:href="#ArialMT-34" x="587.546875"/>
       <use xlink:href="#ArialMT-3a" x="643.162109"/>
       <use xlink:href="#ArialMT-30" x="670.945312"/>
       <use xlink:href="#ArialMT-30" x="726.560547"/>
       <use xlink:href="#ArialMT-20" x="782.175781"/>
       <use xlink:href="#ArialMT-41" x="804.458984"/>
       <use xlink:href="#ArialMT-4d" x="871.158203"/>
       <use xlink:href="#ArialMT-20" x="954.458984"/>
       <use xlink:href="#ArialMT-45" x="982.242188"/>
       <use xlink:href="#ArialMT-53" x="1048.941406"/>
       <use xlink:href="#ArialMT-54" x="1115.640625"/>
      </g>
     </g>
    </g>
    <g id="xtick_6">
     <g id="line2d_6">
      <path d="M 514.6472 513.51744 
L 514.6472 52.020937 
" clip-path="url(#pdef7d68dd0)" style="fill: none; stroke: #cccccc; stroke-opacity: 0.7; stroke-width: 0.8; stroke-linecap: round"/>
     </g>
     <g id="text_6">
      <!-- 2024-11-06 07:00 AM EST -->
      <g style="fill: #262626" transform="translate(411.753383 585.548318) rotate(-30) scale(0.1 -0.1)">
       <use xlink:href="#ArialMT-32"/>
       <use xlink:href="#ArialMT-30" x="55.615234"/>
       <use xlink:href="#ArialMT-32" x="111.230469"/>
       <use xlink:href="#ArialMT-34" x="166.845703"/>
       <use xlink:href="#ArialMT-2d" x="222.460938"/>
       <use xlink:href="#ArialMT-31" x="255.761719"/>
       <use xlink:href="#ArialMT-31" x="304.001953"/>
       <use xlink:href="#ArialMT-2d" x="359.617188"/>
       <use xlink:href="#ArialMT-30" x="392.917969"/>
       <use xlink:href="#ArialMT-36" x="448.533203"/>
       <use xlink:href="#ArialMT-20" x="504.148438"/>
       <use xlink:href="#ArialMT-30" x="531.931641"/>
       <use xlink:href="#ArialMT-37" x="587.546875"/>
       <use xlink:href="#ArialMT-3a" x="643.162109"/>
       <use xlink:href="#ArialMT-30" x="670.945312"/>
       <use xlink:href="#ArialMT-30" x="726.560547"/>
       <use xlink:href="#ArialMT-20" x="782.175781"/>
       <use xlink:href="#ArialMT-41" x="804.458984"/>
       <use xlink:href="#ArialMT-4d" x="871.158203"/>
       <use xlink:href="#ArialMT-20" x="954.458984"/>
       <use xlink:href="#ArialMT-45" x="982.242188"/>
       <use xlink:href="#ArialMT-53" x="1048.941406"/>
       <use xlink:href="#ArialMT-54" x="1115.640625"/>
      </g>
     </g>
    </g>
    <g id="xtick_7">
     <g id="line2d_7">
      <path d="M 588.986832 513.51744 
L 588.986832 52.020937 
" clip-path="url(#pdef7d68dd0)" style="fill: none; stroke: #cccccc; stroke-opacity: 0.7; stroke-width: 0.8; stroke-linecap: round"/>
     </g>
     <g id="text_7">
      <!-- 2024-11-06 10:00 AM EST -->
      <g style="fill: #262626" transform="translate(486.093015 585.548318) rotate(-30) scale(0.1 -0.1)">
       <use xlink:href="#ArialMT-32"/>
       <use xlink:href="#ArialMT-30" x="55.615234"/>
       <use xlink:href="#ArialMT-32" x="111.230469"/>
       <use xlink:href="#ArialMT-34" x="166.845703"/>
       <use xlink:href="#ArialMT-2d" x="222.460938"/>
       <use xlink:href="#ArialMT-31" x="255.761719"/>
       <use xlink:href="#ArialMT-31" x="304.001953"/>
       <use xlink:href="#ArialMT-2d" x="359.617188"/>
       <use xlink:href="#ArialMT-30" x="392.917969"/>
       <use xlink:href="#ArialMT-36" x="448.533203"/>
       <use xlink:href="#ArialMT-20" x="504.148438"/>
       <use xlink:href="#ArialMT-31" x="531.931641"/>
       <use xlink:href="#ArialMT-30" x="587.546875"/>
       <use xlink:href="#ArialMT-3a" x="643.162109"/>
       <use xlink:href="#ArialMT-30" x="670.945312"/>
       <use xlink:href="#ArialMT-30" x="726.560547"/>
       <use xlink:href="#ArialMT-20" x="782.175781"/>
       <use xlink:href="#ArialMT-41" x="804.458984"/>
       <use xlink:href="#ArialMT-4d" x="871.158203"/>
       <use xlink:href="#ArialMT-20" x="954.458984"/>
       <use xlink:href="#ArialMT-45" x="982.242188"/>
       <use xlink:href="#ArialMT-53" x="1048.941406"/>
       <use xlink:href="#ArialMT-54" x="1115.640625"/>
      </g>
     </g>
    </g>
    <g id="xtick_8">
     <g id="line2d_8">
      <path d="M 663.326465 513.51744 
L 663.326465 52.020937 
" clip-path="url(#pdef7d68dd0)" style="fill: none; stroke: #cccccc; stroke-opacity: 0.7; stroke-width: 0.8; stroke-linecap: round"/>
     </g>
     <g id="text_8">
      <!-- 2024-11-06 01:00 PM EST -->
      <g style="fill: #262626" transform="translate(559.956334 585.823318) rotate(-30) scale(0.1 -0.1)">
       <use xlink:href="#ArialMT-32"/>
       <use xlink:href="#ArialMT-30" x="55.615234"/>
       <use xlink:href="#ArialMT-32" x="111.230469"/>
       <use xlink:href="#ArialMT-34" x="166.845703"/>
       <use xlink:href="#ArialMT-2d" x="222.460938"/>
       <use xlink:href="#ArialMT-31" x="255.761719"/>
       <use xlink:href="#ArialMT-31" x="304.001953"/>
       <use xlink:href="#ArialMT-2d" x="359.617188"/>
       <use xlink:href="#ArialMT-30" x="392.917969"/>
       <use xlink:href="#ArialMT-36" x="448.533203"/>
       <use xlink:href="#ArialMT-20" x="504.148438"/>
       <use xlink:href="#ArialMT-30" x="531.931641"/>
       <use xlink:href="#ArialMT-31" x="587.546875"/>
       <use xlink:href="#ArialMT-3a" x="643.162109"/>
       <use xlink:href="#ArialMT-30" x="670.945312"/>
       <use xlink:href="#ArialMT-30" x="726.560547"/>
       <use xlink:href="#ArialMT-20" x="782.175781"/>
       <use xlink:href="#ArialMT-50" x="809.958984"/>
       <use xlink:href="#ArialMT-4d" x="876.658203"/>
       <use xlink:href="#ArialMT-20" x="959.958984"/>
       <use xlink:href="#ArialMT-45" x="987.742188"/>
       <use xlink:href="#ArialMT-53" x="1054.441406"/>
       <use xlink:href="#ArialMT-54" x="1121.140625"/>
      </g>
     </g>
    </g>
    <g id="xtick_9">
     <g id="line2d_9">
      <path d="M 737.666097 513.51744 
L 737.666097 52.020937 
" clip-path="url(#pdef7d68dd0)" style="fill: none; stroke: #cccccc; stroke-opacity: 0.7; stroke-width: 0.8; stroke-linecap: round"/>
     </g>
     <g id="text_9">
      <!-- 2024-11-06 04:00 PM EST -->
      <g style="fill: #262626" transform="translate(634.295966 585.823318) rotate(-30) scale(0.1 -0.1)">
       <use xlink:href="#ArialMT-32"/>
       <use xlink:href="#ArialMT-30" x="55.615234"/>
       <use xlink:href="#ArialMT-32" x="111.230469"/>
       <use xlink:href="#ArialMT-34" x="166.845703"/>
       <use xlink:href="#ArialMT-2d" x="222.460938"/>
       <use xlink:href="#ArialMT-31" x="255.761719"/>
       <use xlink:href="#ArialMT-31" x="304.001953"/>
       <use xlink:href="#ArialMT-2d" x="359.617188"/>
       <use xlink:href="#ArialMT-30" x="392.917969"/>
       <use xlink:href="#ArialMT-36" x="448.533203"/>
       <use xlink:href="#ArialMT-20" x="504.148438"/>
       <use xlink:href="#ArialMT-30" x="531.931641"/>
       <use xlink:href="#ArialMT-34" x="587.546875"/>
       <use xlink:href="#ArialMT-3a" x="643.162109"/>
       <use xlink:href="#ArialMT-30" x="670.945312"/>
       <use xlink:href="#ArialMT-30" x="726.560547"/>
       <use xlink:href="#ArialMT-20" x="782.175781"/>
       <use xlink:href="#ArialMT-50" x="809.958984"/>
       <use xlink:href="#ArialMT-4d" x="876.658203"/>
       <use xlink:href="#ArialMT-20" x="959.958984"/>
       <use xlink:href="#ArialMT-45" x="987.742188"/>
       <use xlink:href="#ArialMT-53" x="1054.441406"/>
       <use xlink:href="#ArialMT-54" x="1121.140625"/>
      </g>
     </g>
    </g>
    <g id="text_10">
     <!-- Timestamp (EST) -->
     <g style="fill: #262626" transform="translate(386.711331 600.280169) scale(0.12 -0.12)">
      <defs>
       <path id="ArialMT-69" d="M 425 3934 
L 425 4581 
L 988 4581 
L 988 3934 
L 425 3934 
z
M 425 0 
L 425 3319 
L 988 3319 
L 988 0 
L 425 0 
z
" transform="scale(0.015625)"/>
       <path id="ArialMT-6d" d="M 422 0 
L 422 3319 
L 925 3319 
L 925 2853 
Q 1081 3097 1340 3245 
Q 1600 3394 1931 3394 
Q 2300 3394 2536 3241 
Q 2772 3088 2869 2813 
Q 3263 3394 3894 3394 
Q 4388 3394 4653 3120 
Q 4919 2847 4919 2278 
L 4919 0 
L 4359 0 
L 4359 2091 
Q 4359 2428 4304 2576 
Q 4250 2725 4106 2815 
Q 3963 2906 3769 2906 
Q 3419 2906 3187 2673 
Q 2956 2441 2956 1928 
L 2956 0 
L 2394 0 
L 2394 2156 
Q 2394 2531 2256 2718 
Q 2119 2906 1806 2906 
Q 1569 2906 1367 2781 
Q 1166 2656 1075 2415 
Q 984 2175 984 1722 
L 984 0 
L 422 0 
z
" transform="scale(0.015625)"/>
       <path id="ArialMT-65" d="M 2694 1069 
L 3275 997 
Q 3138 488 2766 206 
Q 2394 -75 1816 -75 
Q 1088 -75 661 373 
Q 234 822 234 1631 
Q 234 2469 665 2931 
Q 1097 3394 1784 3394 
Q 2450 3394 2872 2941 
Q 3294 2488 3294 1666 
Q 3294 1616 3291 1516 
L 816 1516 
Q 847 969 1125 678 
Q 1403 388 1819 388 
Q 2128 388 2347 550 
Q 2566 713 2694 1069 
z
M 847 1978 
L 2700 1978 
Q 2663 2397 2488 2606 
Q 2219 2931 1791 2931 
Q 1403 2931 1139 2672 
Q 875 2413 847 1978 
z
" transform="scale(0.015625)"/>
       <path id="ArialMT-73" d="M 197 991 
L 753 1078 
Q 800 744 1014 566 
Q 1228 388 1613 388 
Q 2000 388 2187 545 
Q 2375 703 2375 916 
Q 2375 1106 2209 1216 
Q 2094 1291 1634 1406 
Q 1016 1563 777 1677 
Q 538 1791 414 1992 
Q 291 2194 291 2438 
Q 291 2659 392 2848 
Q 494 3038 669 3163 
Q 800 3259 1026 3326 
Q 1253 3394 1513 3394 
Q 1903 3394 2198 3281 
Q 2494 3169 2634 2976 
Q 2775 2784 2828 2463 
L 2278 2388 
Q 2241 2644 2061 2787 
Q 1881 2931 1553 2931 
Q 1166 2931 1000 2803 
Q 834 2675 834 2503 
Q 834 2394 903 2306 
Q 972 2216 1119 2156 
Q 1203 2125 1616 2013 
Q 2213 1853 2448 1751 
Q 2684 1650 2818 1456 
Q 2953 1263 2953 975 
Q 2953 694 2789 445 
Q 2625 197 2315 61 
Q 2006 -75 1616 -75 
Q 969 -75 630 194 
Q 291 463 197 991 
z
" transform="scale(0.015625)"/>
       <path id="ArialMT-74" d="M 1650 503 
L 1731 6 
Q 1494 -44 1306 -44 
Q 1000 -44 831 53 
Q 663 150 594 308 
Q 525 466 525 972 
L 525 2881 
L 113 2881 
L 113 3319 
L 525 3319 
L 525 4141 
L 1084 4478 
L 1084 3319 
L 1650 3319 
L 1650 2881 
L 1084 2881 
L 1084 941 
Q 1084 700 1114 631 
Q 1144 563 1211 522 
Q 1278 481 1403 481 
Q 1497 481 1650 503 
z
" transform="scale(0.015625)"/>
       <path id="ArialMT-61" d="M 2588 409 
Q 2275 144 1986 34 
Q 1697 -75 1366 -75 
Q 819 -75 525 192 
Q 231 459 231 875 
Q 231 1119 342 1320 
Q 453 1522 633 1644 
Q 813 1766 1038 1828 
Q 1203 1872 1538 1913 
Q 2219 1994 2541 2106 
Q 2544 2222 2544 2253 
Q 2544 2597 2384 2738 
Q 2169 2928 1744 2928 
Q 1347 2928 1158 2789 
Q 969 2650 878 2297 
L 328 2372 
Q 403 2725 575 2942 
Q 747 3159 1072 3276 
Q 1397 3394 1825 3394 
Q 2250 3394 2515 3294 
Q 2781 3194 2906 3042 
Q 3031 2891 3081 2659 
Q 3109 2516 3109 2141 
L 3109 1391 
Q 3109 606 3145 398 
Q 3181 191 3288 0 
L 2700 0 
Q 2613 175 2588 409 
z
M 2541 1666 
Q 2234 1541 1622 1453 
Q 1275 1403 1131 1340 
Q 988 1278 909 1158 
Q 831 1038 831 891 
Q 831 666 1001 516 
Q 1172 366 1500 366 
Q 1825 366 2078 508 
Q 2331 650 2450 897 
Q 2541 1088 2541 1459 
L 2541 1666 
z
" transform="scale(0.015625)"/>
       <path id="ArialMT-70" d="M 422 -1272 
L 422 3319 
L 934 3319 
L 934 2888 
Q 1116 3141 1344 3267 
Q 1572 3394 1897 3394 
Q 2322 3394 2647 3175 
Q 2972 2956 3137 2557 
Q 3303 2159 3303 1684 
Q 3303 1175 3120 767 
Q 2938 359 2589 142 
Q 2241 -75 1856 -75 
Q 1575 -75 1351 44 
Q 1128 163 984 344 
L 984 -1272 
L 422 -1272 
z
M 931 1641 
Q 931 1000 1190 694 
Q 1450 388 1819 388 
Q 2194 388 2461 705 
Q 2728 1022 2728 1688 
Q 2728 2322 2467 2637 
Q 2206 2953 1844 2953 
Q 1484 2953 1207 2617 
Q 931 2281 931 1641 
z
" transform="scale(0.015625)"/>
       <path id="ArialMT-28" d="M 1497 -1347 
Q 1031 -759 709 28 
Q 388 816 388 1659 
Q 388 2403 628 3084 
Q 909 3875 1497 4659 
L 1900 4659 
Q 1522 4009 1400 3731 
Q 1209 3300 1100 2831 
Q 966 2247 966 1656 
Q 966 153 1900 -1347 
L 1497 -1347 
z
" transform="scale(0.015625)"/>
       <path id="ArialMT-29" d="M 791 -1347 
L 388 -1347 
Q 1322 153 1322 1656 
Q 1322 2244 1188 2822 
Q 1081 3291 891 3722 
Q 769 4003 388 4659 
L 791 4659 
Q 1378 3875 1659 3084 
Q 1900 2403 1900 1659 
Q 1900 816 1576 28 
Q 1253 -759 791 -1347 
z
" transform="scale(0.015625)"/>
      </defs>
      <use xlink:href="#ArialMT-54"/>
      <use xlink:href="#ArialMT-69" x="57.333984"/>
      <use xlink:href="#ArialMT-6d" x="79.550781"/>
      <use xlink:href="#ArialMT-65" x="162.851562"/>
      <use xlink:href="#ArialMT-73" x="218.466797"/>
      <use xlink:href="#ArialMT-74" x="268.466797"/>
      <use xlink:href="#ArialMT-61" x="296.25"/>
      <use xlink:href="#ArialMT-6d" x="351.865234"/>
      <use xlink:href="#ArialMT-70" x="435.166016"/>
      <use xlink:href="#ArialMT-20" x="490.78125"/>
      <use xlink:href="#ArialMT-28" x="518.564453"/>
      <use xlink:href="#ArialMT-45" x="551.865234"/>
      <use xlink:href="#ArialMT-53" x="618.564453"/>
      <use xlink:href="#ArialMT-54" x="685.263672"/>
      <use xlink:href="#ArialMT-29" x="746.347656"/>
     </g>
    </g>
   </g>
   <g id="matplotlib.axis_2">
    <g id="ytick_1">
     <g id="line2d_10">
      <path d="M 111.122202 492.540326 
L 755.853586 492.540326 
" clip-path="url(#pdef7d68dd0)" style="fill: none; stroke: #cccccc; stroke-opacity: 0.7; stroke-width: 0.8; stroke-linecap: round"/>
     </g>
     <g id="text_11">
      <!-- 0.00 -->
      <g style="fill: #262626" transform="translate(84.661264 496.119232) scale(0.1 -0.1)">
       <defs>
        <path id="ArialMT-2e" d="M 581 0 
L 581 641 
L 1222 641 
L 1222 0 
L 581 0 
z
" transform="scale(0.015625)"/>
       </defs>
       <use xlink:href="#ArialMT-30"/>
       <use xlink:href="#ArialMT-2e" x="55.615234"/>
       <use xlink:href="#ArialMT-30" x="83.398438"/>
       <use xlink:href="#ArialMT-30" x="139.013672"/>
      </g>
     </g>
    </g>
    <g id="ytick_2">
     <g id="line2d_11">
      <path d="M 111.122202 430.756399 
L 755.853586 430.756399 
" clip-path="url(#pdef7d68dd0)" style="fill: none; stroke: #cccccc; stroke-opacity: 0.7; stroke-width: 0.8; stroke-linecap: round"/>
     </g>
     <g id="text_12">
      <!-- 0.25 -->
      <g style="fill: #262626" transform="translate(84.661264 434.335305) scale(0.1 -0.1)">
       <use xlink:href="#ArialMT-30"/>
       <use xlink:href="#ArialMT-2e" x="55.615234"/>
       <use xlink:href="#ArialMT-32" x="83.398438"/>
       <use xlink:href="#ArialMT-35" x="139.013672"/>
      </g>
     </g>
    </g>
    <g id="ytick_3">
     <g id="line2d_12">
      <path d="M 111.122202 368.972472 
L 755.853586 368.972472 
" clip-path="url(#pdef7d68dd0)" style="fill: none; stroke: #cccccc; stroke-opacity: 0.7; stroke-width: 0.8; stroke-linecap: round"/>
     </g>
     <g id="text_13">
      <!-- 0.50 -->
      <g style="fill: #262626" transform="translate(84.661264 372.551378) scale(0.1 -0.1)">
       <use xlink:href="#ArialMT-30"/>
       <use xlink:href="#ArialMT-2e" x="55.615234"/>
       <use xlink:href="#ArialMT-35" x="83.398438"/>
       <use xlink:href="#ArialMT-30" x="139.013672"/>
      </g>
     </g>
    </g>
    <g id="ytick_4">
     <g id="line2d_13">
      <path d="M 111.122202 307.188544 
L 755.853586 307.188544 
" clip-path="url(#pdef7d68dd0)" style="fill: none; stroke: #cccccc; stroke-opacity: 0.7; stroke-width: 0.8; stroke-linecap: round"/>
     </g>
     <g id="text_14">
      <!-- 0.75 -->
      <g style="fill: #262626" transform="translate(84.661264 310.767451) scale(0.1 -0.1)">
       <use xlink:href="#ArialMT-30"/>
       <use xlink:href="#ArialMT-2e" x="55.615234"/>
       <use xlink:href="#ArialMT-37" x="83.398438"/>
       <use xlink:href="#ArialMT-35" x="139.013672"/>
      </g>
     </g>
    </g>
    <g id="ytick_5">
     <g id="line2d_14">
      <path d="M 111.122202 245.404617 
L 755.853586 245.404617 
" clip-path="url(#pdef7d68dd0)" style="fill: none; stroke: #cccccc; stroke-opacity: 0.7; stroke-width: 0.8; stroke-linecap: round"/>
     </g>
     <g id="text_15">
      <!-- 1.00 -->
      <g style="fill: #262626" transform="translate(84.661264 248.983523) scale(0.1 -0.1)">
       <use xlink:href="#ArialMT-31"/>
       <use xlink:href="#ArialMT-2e" x="55.615234"/>
       <use xlink:href="#ArialMT-30" x="83.398438"/>
       <use xlink:href="#ArialMT-30" x="139.013672"/>
      </g>
     </g>
    </g>
    <g id="ytick_6">
     <g id="line2d_15">
      <path d="M 111.122202 183.62069 
L 755.853586 183.62069 
" clip-path="url(#pdef7d68dd0)" style="fill: none; stroke: #cccccc; stroke-opacity: 0.7; stroke-width: 0.8; stroke-linecap: round"/>
     </g>
     <g id="text_16">
      <!-- 1.25 -->
      <g style="fill: #262626" transform="translate(84.661264 187.199596) scale(0.1 -0.1)">
       <use xlink:href="#ArialMT-31"/>
       <use xlink:href="#ArialMT-2e" x="55.615234"/>
       <use xlink:href="#ArialMT-32" x="83.398438"/>
       <use xlink:href="#ArialMT-35" x="139.013672"/>
      </g>
     </g>
    </g>
    <g id="ytick_7">
     <g id="line2d_16">
      <path d="M 111.122202 121.836763 
L 755.853586 121.836763 
" clip-path="url(#pdef7d68dd0)" style="fill: none; stroke: #cccccc; stroke-opacity: 0.7; stroke-width: 0.8; stroke-linecap: round"/>
     </g>
     <g id="text_17">
      <!-- 1.50 -->
      <g style="fill: #262626" transform="translate(84.661264 125.415669) scale(0.1 -0.1)">
       <use xlink:href="#ArialMT-31"/>
       <use xlink:href="#ArialMT-2e" x="55.615234"/>
       <use xlink:href="#ArialMT-35" x="83.398438"/>
       <use xlink:href="#ArialMT-30" x="139.013672"/>
      </g>
     </g>
    </g>
    <g id="ytick_8">
     <g id="line2d_17">
      <path d="M 111.122202 60.052836 
L 755.853586 60.052836 
" clip-path="url(#pdef7d68dd0)" style="fill: none; stroke: #cccccc; stroke-opacity: 0.7; stroke-width: 0.8; stroke-linecap: round"/>
     </g>
     <g id="text_18">
      <!-- 1.75 -->
      <g style="fill: #262626" transform="translate(84.661264 63.631742) scale(0.1 -0.1)">
       <use xlink:href="#ArialMT-31"/>
       <use xlink:href="#ArialMT-2e" x="55.615234"/>
       <use xlink:href="#ArialMT-37" x="83.398438"/>
       <use xlink:href="#ArialMT-35" x="139.013672"/>
      </g>
     </g>
    </g>
    <g id="text_19">
     <!-- Vote Count -->
     <g style="fill: #262626" transform="translate(78.276264 312.457939) rotate(-90) scale(0.12 -0.12)">
      <defs>
       <path id="ArialMT-56" d="M 1803 0 
L 28 4581 
L 684 4581 
L 1875 1253 
Q 2019 853 2116 503 
Q 2222 878 2363 1253 
L 3600 4581 
L 4219 4581 
L 2425 0 
L 1803 0 
z
" transform="scale(0.015625)"/>
       <path id="ArialMT-6f" d="M 213 1659 
Q 213 2581 725 3025 
Q 1153 3394 1769 3394 
Q 2453 3394 2887 2945 
Q 3322 2497 3322 1706 
Q 3322 1066 3130 698 
Q 2938 331 2570 128 
Q 2203 -75 1769 -75 
Q 1072 -75 642 372 
Q 213 819 213 1659 
z
M 791 1659 
Q 791 1022 1069 705 
Q 1347 388 1769 388 
Q 2188 388 2466 706 
Q 2744 1025 2744 1678 
Q 2744 2294 2464 2611 
Q 2184 2928 1769 2928 
Q 1347 2928 1069 2612 
Q 791 2297 791 1659 
z
" transform="scale(0.015625)"/>
       <path id="ArialMT-43" d="M 3763 1606 
L 4369 1453 
Q 4178 706 3683 314 
Q 3188 -78 2472 -78 
Q 1731 -78 1267 223 
Q 803 525 561 1097 
Q 319 1669 319 2325 
Q 319 3041 592 3573 
Q 866 4106 1370 4382 
Q 1875 4659 2481 4659 
Q 3169 4659 3637 4309 
Q 4106 3959 4291 3325 
L 3694 3184 
Q 3534 3684 3231 3912 
Q 2928 4141 2469 4141 
Q 1941 4141 1586 3887 
Q 1231 3634 1087 3207 
Q 944 2781 944 2328 
Q 944 1744 1114 1308 
Q 1284 872 1643 656 
Q 2003 441 2422 441 
Q 2931 441 3284 734 
Q 3638 1028 3763 1606 
z
" transform="scale(0.015625)"/>
       <path id="ArialMT-75" d="M 2597 0 
L 2597 488 
Q 2209 -75 1544 -75 
Q 1250 -75 995 37 
Q 741 150 617 320 
Q 494 491 444 738 
Q 409 903 409 1263 
L 409 3319 
L 972 3319 
L 972 1478 
Q 972 1038 1006 884 
Q 1059 663 1231 536 
Q 1403 409 1656 409 
Q 1909 409 2131 539 
Q 2353 669 2445 892 
Q 2538 1116 2538 1541 
L 2538 3319 
L 3100 3319 
L 3100 0 
L 2597 0 
z
" transform="scale(0.015625)"/>
       <path id="ArialMT-6e" d="M 422 0 
L 422 3319 
L 928 3319 
L 928 2847 
Q 1294 3394 1984 3394 
Q 2284 3394 2536 3286 
Q 2788 3178 2913 3003 
Q 3038 2828 3088 2588 
Q 3119 2431 3119 2041 
L 3119 0 
L 2556 0 
L 2556 2019 
Q 2556 2363 2490 2533 
Q 2425 2703 2258 2804 
Q 2091 2906 1866 2906 
Q 1506 2906 1245 2678 
Q 984 2450 984 1813 
L 984 0 
L 422 0 
z
" transform="scale(0.015625)"/>
      </defs>
      <use xlink:href="#ArialMT-56"/>
      <use xlink:href="#ArialMT-6f" x="61.199219"/>
      <use xlink:href="#ArialMT-74" x="116.814453"/>
      <use xlink:href="#ArialMT-65" x="144.597656"/>
      <use xlink:href="#ArialMT-20" x="200.212891"/>
      <use xlink:href="#ArialMT-43" x="227.996094"/>
      <use xlink:href="#ArialMT-6f" x="300.212891"/>
      <use xlink:href="#ArialMT-75" x="355.828125"/>
      <use xlink:href="#ArialMT-6e" x="411.443359"/>
      <use xlink:href="#ArialMT-74" x="467.058594"/>
     </g>
    </g>
    <g id="text_20">
     <!-- 1e6 -->
     <g style="fill: #262626" transform="translate(111.122202 49.020937) scale(0.1 -0.1)">
      <use xlink:href="#ArialMT-31"/>
      <use xlink:href="#ArialMT-65" x="55.615234"/>
      <use xlink:href="#ArialMT-36" x="111.230469"/>
     </g>
    </g>
   </g>
   <g id="line2d_18">
    <path d="M 140.428174 492.540326 
L 276.627563 468.34055 
L 277.334381 461.519605 
L 277.977963 457.542697 
L 279.937025 442.930304 
L 280.521232 439.689613 
L 281.227114 423.563514 
L 281.766008 420.995033 
L 283.008987 416.974876 
L 283.766673 413.007606 
L 284.449599 406.848243 
L 285.132856 402.52065 
L 285.704707 394.667913 
L 286.426153 387.877365 
L 286.99439 385.290101 
L 287.755724 378.50845 
L 288.439614 363.148224 
L 289.062663 357.770551 
L 289.683412 354.839769 
L 290.358988 353.205955 
L 290.944364 352.761111 
L 291.533994 349.001682 
L 292.306039 347.320665 
L 294.2604 335.056308 
L 294.939617 323.67818 
L 295.605955 321.047668 
L 296.086436 317.108325 
L 296.843765 311.909825 
L 297.497499 311.439773 
L 298.781083 304.633161 
L 299.522043 301.907254 
L 300.164234 297.947893 
L 300.74347 297.05252 
L 301.455307 294.111358 
L 302.125086 292.202235 
L 304.81773 281.230645 
L 305.559722 276.028439 
L 306.194754 270.050226 
L 306.813673 266.537192 
L 307.999404 265.463387 
L 308.477559 262.250129 
L 310.095437 259.517302 
L 310.548365 258.249743 
L 311.305129 258.029792 
L 311.715794 257.767334 
L 312.579021 256.812402 
L 313.342379 254.852121 
L 314.609966 247.137039 
L 315.019963 245.867255 
L 315.93971 245.697473 
L 316.615285 241.620722 
L 317.271002 240.546176 
L 317.921645 239.215351 
L 318.431484 238.545613 
L 319.231517 231.731834 
L 319.834363 230.736372 
L 320.519767 228.936235 
L 320.946952 227.058004 
L 322.984553 219.28262 
L 323.771968 217.537595 
L 324.243529 217.537595 
L 324.993237 216.883179 
L 325.618365 214.817372 
L 326.328233 211.703462 
L 327.006341 209.501977 
L 327.465223 209.068007 
L 328.254111 207.522914 
L 328.858864 207.381306 
L 329.593938 207.074116 
L 329.955931 205.440055 
L 330.817128 203.68984 
L 332.063652 203.109071 
L 332.793709 200.2549 
L 333.377261 200.2549 
L 334.154055 197.105403 
L 334.547229 196.507087 
L 335.312845 194.415825 
L 336.071192 193.554804 
L 337.356187 191.147208 
L 337.996974 176.52493 
L 338.522135 172.916501 
L 339.25935 172.135552 
L 339.831187 169.657275 
L 340.504628 169.326855 
L 341.208535 169.186235 
L 341.762985 167.688345 
L 352.854844 148.66112 
L 353.454186 146.626452 
L 354.099819 142.455542 
L 355.405278 141.490477 
L 356.071189 141.294993 
L 356.680079 140.413213 
L 357.314581 140.330175 
L 357.99779 138.211728 
L 358.677771 137.839789 
L 359.236116 136.809727 
L 359.838722 136.809727 
L 360.478056 133.456095 
L 361.23504 132.453713 
L 361.912763 131.36335 
L 363.189133 130.926909 
L 363.714109 130.926909 
L 365.04041 129.698891 
L 365.611043 129.603991 
L 366.403366 126.936902 
L 367.020006 126.838048 
L 367.438277 126.609695 
L 368.330029 122.726451 
L 368.795732 122.468689 
L 369.517171 122.282101 
L 370.046634 121.765835 
L 370.325187 121.282437 
L 372.756059 120.581066 
L 373.43416 120.581066 
L 373.962997 119.611059 
L 374.524964 119.304858 
L 375.373151 119.304858 
L 375.800122 118.642534 
L 376.592803 117.191353 
L 377.318833 116.751946 
L 377.838157 116.217638 
L 378.589641 116.128669 
L 378.670272 115.974704 
L 379.830934 115.350439 
L 380.538888 115.350439 
L 381.085594 114.707639 
L 383.697786 114.707639 
L 383.967735 114.016648 
L 384.927178 112.299054 
L 385.390107 112.131249 
L 386.247642 112.131249 
L 386.445138 111.874475 
L 388.224044 111.273194 
L 388.860797 111.180765 
L 388.993803 110.848615 
L 389.916702 110.095345 
L 397.724649 103.466424 
L 399.321898 103.466424 
L 400.211564 103.21311 
L 413.620858 100.99828 
L 414.386618 100.99828 
L 414.726687 100.404413 
L 415.582405 99.191965 
L 416.244971 99.191965 
L 417.034417 96.090165 
L 417.523613 95.754802 
L 424.453354 94.164978 
L 427.777953 92.944869 
L 435.501166 90.635385 
L 439.688077 90.528376 
L 442.306071 89.789934 
L 445.130881 89.184699 
L 446.443347 87.567443 
L 448.628141 87.567443 
L 449.680439 87.13026 
L 454.568208 87.13026 
L 457.098144 86.317677 
L 458.770345 86.066835 
L 459.679498 86.066835 
L 460.421236 85.587391 
L 476.467631 85.587391 
L 477.903715 80.82731 
L 483.56622 80.82731 
L 485.273223 78.160716 
L 493.922639 78.160716 
L 497.546194 77.246561 
L 498.703648 75.736809 
L 501.618388 75.736809 
L 539.27994 75.339662 
L 540.52208 75.170621 
L 596.651758 75.119958 
L 604.573231 74.484573 
L 618.96484 74.483337 
L 634.738306 73.024 
L 726.547614 72.998051 
L 726.547614 72.998051 
" clip-path="url(#pdef7d68dd0)" style="fill: none; stroke: #ff0000; stroke-width: 1.5; stroke-linecap: round"/>
   </g>
   <g id="line2d_19">
    <path d="M 140.428174 492.540326 
L 276.627563 475.345859 
L 277.334381 468.772543 
L 277.977963 466.119542 
L 278.490824 459.208144 
L 279.276731 455.03081 
L 279.937025 450.914023 
L 280.521232 443.751783 
L 281.227114 419.825092 
L 281.766008 418.304713 
L 282.398824 412.99006 
L 283.008987 412.296103 
L 283.766673 409.63717 
L 284.449599 399.905954 
L 285.132856 397.507502 
L 285.704707 392.99431 
L 286.426153 389.461258 
L 286.99439 384.823015 
L 287.755724 370.525472 
L 288.439614 360.365971 
L 289.062663 356.156508 
L 289.683412 354.487848 
L 290.358988 353.665133 
L 290.944364 353.425164 
L 291.533994 351.15201 
L 292.306039 349.855289 
L 292.904253 346.883976 
L 293.618195 340.689767 
L 294.2604 338.980823 
L 294.939617 330.385938 
L 295.605955 329.03806 
L 296.086436 326.74983 
L 296.843765 311.466464 
L 297.497499 310.952916 
L 298.174478 308.732895 
L 298.781083 305.799147 
L 299.522043 303.376476 
L 300.164234 300.798604 
L 300.74347 300.223519 
L 301.455307 297.894265 
L 302.125086 295.150317 
L 303.513055 290.778239 
L 304.197751 289.285539 
L 304.81773 286.835436 
L 305.559722 278.324329 
L 306.194754 274.946478 
L 306.813673 273.077391 
L 307.999404 272.706193 
L 308.477559 269.029555 
L 309.385556 266.218881 
L 310.095437 265.536045 
L 310.548365 264.676507 
L 311.715794 264.475338 
L 312.579021 263.720092 
L 313.342379 262.669765 
L 313.906596 260.954643 
L 314.609966 255.927161 
L 315.019963 254.771802 
L 315.93971 254.704087 
L 316.615285 252.37162 
L 317.271002 251.656162 
L 318.431484 250.003566 
L 319.231517 245.767165 
L 320.946952 242.713309 
L 321.631627 240.459185 
L 322.458862 238.534245 
L 322.984553 234.468615 
L 323.771968 233.123208 
L 324.243529 233.123208 
L 324.993237 232.271331 
L 325.618365 231.366568 
L 326.328233 229.255781 
L 327.006341 227.748254 
L 327.465223 227.509768 
L 328.254111 226.079346 
L 328.858864 226.022752 
L 329.593938 225.005789 
L 329.955931 224.116347 
L 330.817128 223.156472 
L 331.460214 221.608661 
L 332.063652 221.480398 
L 332.793709 218.710007 
L 333.377261 218.710007 
L 334.154055 216.67781 
L 334.547229 215.972979 
L 335.312845 213.778661 
L 336.071192 213.39041 
L 337.356187 211.029523 
L 337.996974 199.932883 
L 338.522135 198.087767 
L 339.25935 197.045843 
L 339.831187 194.019172 
L 341.208535 193.51551 
L 341.762985 192.227685 
L 352.854844 174.870603 
L 354.099819 169.437572 
L 355.405278 168.186324 
L 356.071189 168.105263 
L 356.680079 167.193332 
L 357.314581 167.150331 
L 357.99779 166.058485 
L 358.677771 165.888209 
L 359.236116 164.830221 
L 359.838722 164.830221 
L 360.478056 162.503438 
L 361.23504 161.851247 
L 361.912763 160.857267 
L 362.397258 160.784856 
L 363.189133 160.278722 
L 363.714109 160.278722 
L 365.04041 159.317612 
L 365.611043 159.27288 
L 366.403366 157.028394 
L 367.020006 156.969822 
L 367.438277 156.780269 
L 368.330029 152.696846 
L 370.046634 152.213201 
L 370.325187 151.883028 
L 371.368578 151.773794 
L 372.756059 151.403585 
L 373.43416 151.403585 
L 373.962997 150.662919 
L 374.524964 150.350045 
L 375.373151 150.350045 
L 375.800122 149.310345 
L 376.592803 148.581789 
L 377.838157 147.92342 
L 378.589641 147.92342 
L 378.670272 147.784777 
L 379.830934 146.93463 
L 380.538888 146.93463 
L 381.085594 146.670936 
L 383.697786 146.670936 
L 383.967735 146.215959 
L 385.390107 143.11144 
L 386.247642 143.11144 
L 386.445138 142.717753 
L 387.474604 141.854508 
L 388.224044 141.648644 
L 388.860797 141.613551 
L 388.993803 141.440556 
L 389.916702 140.76983 
L 397.724649 134.037111 
L 399.321898 134.037111 
L 400.211564 133.609567 
L 413.620858 131.355195 
L 414.386618 131.355195 
L 415.582405 129.93021 
L 416.244971 129.93021 
L 417.034417 126.820502 
L 417.523613 126.588688 
L 427.777953 123.26842 
L 435.501166 119.999309 
L 439.404761 119.999309 
L 439.688077 119.824584 
L 445.130881 118.825661 
L 446.443347 114.841587 
L 448.628141 114.841587 
L 449.680439 114.434307 
L 454.568208 114.434307 
L 457.098144 113.730464 
L 458.770345 113.515951 
L 459.679498 113.515951 
L 460.421236 113.123005 
L 476.467631 113.123005 
L 477.903715 91.158325 
L 483.56622 91.158325 
L 485.273223 86.116509 
L 493.922639 86.116509 
L 497.546194 84.856117 
L 498.703648 83.818147 
L 501.618388 83.818147 
L 539.27994 83.193388 
L 540.52208 82.91882 
L 596.651758 82.860002 
L 600.370061 82.281951 
L 601.64109 82.281951 
L 605.226415 81.84724 
L 618.96484 81.84724 
L 634.738306 80.320435 
L 726.547614 80.244564 
L 726.547614 80.244564 
" clip-path="url(#pdef7d68dd0)" style="fill: none; stroke: #0000ff; stroke-width: 1.5; stroke-linecap: round"/>
   </g>
   <g id="text_21">
    <g id="patch_3">
     <path d="M 678.154779 73.971489 
L 730.637592 73.971489 
L 730.637592 56.840239 
L 678.154779 56.840239 
z
" style="fill: #ffffff; opacity: 0.7; stroke: #ffffff; stroke-linejoin: miter"/>
    </g>
    <!-- 1,697,619 -->
    <g style="fill: #ff0000" transform="translate(682.154779 67.998051) scale(0.1 -0.1)">
     <defs>
      <path id="Arial-BoldMT-31" d="M 2519 0 
L 1641 0 
L 1641 3309 
Q 1159 2859 506 2644 
L 506 3441 
Q 850 3553 1253 3867 
Q 1656 4181 1806 4600 
L 2519 4600 
L 2519 0 
z
" transform="scale(0.015625)"/>
      <path id="Arial-BoldMT-2c" d="M 438 878 
L 1316 878 
L 1316 250 
Q 1316 -131 1250 -351 
Q 1184 -572 1001 -747 
Q 819 -922 538 -1022 
L 366 -659 
Q 631 -572 743 -419 
Q 856 -266 863 0 
L 438 0 
L 438 878 
z
" transform="scale(0.015625)"/>
      <path id="Arial-BoldMT-36" d="M 3247 3459 
L 2397 3366 
Q 2366 3628 2234 3753 
Q 2103 3878 1894 3878 
Q 1616 3878 1423 3628 
Q 1231 3378 1181 2588 
Q 1509 2975 1997 2975 
Q 2547 2975 2939 2556 
Q 3331 2138 3331 1475 
Q 3331 772 2918 347 
Q 2506 -78 1859 -78 
Q 1166 -78 719 461 
Q 272 1000 272 2228 
Q 272 3488 737 4044 
Q 1203 4600 1947 4600 
Q 2469 4600 2811 4308 
Q 3153 4016 3247 3459 
z
M 1256 1544 
Q 1256 1116 1453 883 
Q 1650 650 1903 650 
Q 2147 650 2309 840 
Q 2472 1031 2472 1466 
Q 2472 1913 2297 2120 
Q 2122 2328 1859 2328 
Q 1606 2328 1431 2129 
Q 1256 1931 1256 1544 
z
" transform="scale(0.015625)"/>
      <path id="Arial-BoldMT-39" d="M 291 1059 
L 1141 1153 
Q 1172 894 1303 769 
Q 1434 644 1650 644 
Q 1922 644 2112 894 
Q 2303 1144 2356 1931 
Q 2025 1547 1528 1547 
Q 988 1547 595 1964 
Q 203 2381 203 3050 
Q 203 3747 617 4173 
Q 1031 4600 1672 4600 
Q 2369 4600 2816 4061 
Q 3263 3522 3263 2288 
Q 3263 1031 2797 475 
Q 2331 -81 1584 -81 
Q 1047 -81 715 205 
Q 384 491 291 1059 
z
M 2278 2978 
Q 2278 3403 2083 3637 
Q 1888 3872 1631 3872 
Q 1388 3872 1227 3680 
Q 1066 3488 1066 3050 
Q 1066 2606 1241 2398 
Q 1416 2191 1678 2191 
Q 1931 2191 2104 2391 
Q 2278 2591 2278 2978 
z
" transform="scale(0.015625)"/>
      <path id="Arial-BoldMT-37" d="M 272 3703 
L 272 4519 
L 3275 4519 
L 3275 3881 
Q 2903 3516 2518 2831 
Q 2134 2147 1932 1376 
Q 1731 606 1734 0 
L 888 0 
Q 909 950 1279 1937 
Q 1650 2925 2269 3703 
L 272 3703 
z
" transform="scale(0.015625)"/>
     </defs>
     <use xlink:href="#Arial-BoldMT-31"/>
     <use xlink:href="#Arial-BoldMT-2c" x="55.615234"/>
     <use xlink:href="#Arial-BoldMT-36" x="83.398438"/>
     <use xlink:href="#Arial-BoldMT-39" x="139.013672"/>
     <use xlink:href="#Arial-BoldMT-37" x="194.628906"/>
     <use xlink:href="#Arial-BoldMT-2c" x="250.244141"/>
     <use xlink:href="#Arial-BoldMT-36" x="278.027344"/>
     <use xlink:href="#Arial-BoldMT-31" x="333.642578"/>
     <use xlink:href="#Arial-BoldMT-39" x="389.257812"/>
    </g>
   </g>
   <g id="text_22">
    <g id="patch_4">
     <path d="M 727.547614 81.218002 
L 780.030427 81.218002 
L 780.030427 64.086752 
L 727.547614 64.086752 
z
" style="fill: #ffffff; opacity: 0.7; stroke: #ffffff; stroke-linejoin: miter"/>
    </g>
    <!-- 1,668,297 -->
    <g style="fill: #0000ff" transform="translate(731.547614 75.244564) scale(0.1 -0.1)">
     <defs>
      <path id="Arial-BoldMT-38" d="M 1025 2472 
Q 684 2616 529 2867 
Q 375 3119 375 3419 
Q 375 3931 733 4265 
Q 1091 4600 1750 4600 
Q 2403 4600 2764 4265 
Q 3125 3931 3125 3419 
Q 3125 3100 2959 2851 
Q 2794 2603 2494 2472 
Q 2875 2319 3073 2025 
Q 3272 1731 3272 1347 
Q 3272 713 2867 316 
Q 2463 -81 1791 -81 
Q 1166 -81 750 247 
Q 259 634 259 1309 
Q 259 1681 443 1992 
Q 628 2303 1025 2472 
z
M 1206 3356 
Q 1206 3094 1354 2947 
Q 1503 2800 1750 2800 
Q 2000 2800 2150 2948 
Q 2300 3097 2300 3359 
Q 2300 3606 2151 3754 
Q 2003 3903 1759 3903 
Q 1506 3903 1356 3753 
Q 1206 3603 1206 3356 
z
M 1125 1394 
Q 1125 1031 1311 828 
Q 1497 625 1775 625 
Q 2047 625 2225 820 
Q 2403 1016 2403 1384 
Q 2403 1706 2222 1901 
Q 2041 2097 1763 2097 
Q 1441 2097 1283 1875 
Q 1125 1653 1125 1394 
z
" transform="scale(0.015625)"/>
      <path id="Arial-BoldMT-32" d="M 3238 816 
L 3238 0 
L 159 0 
Q 209 463 459 877 
Q 709 1291 1447 1975 
Q 2041 2528 2175 2725 
Q 2356 2997 2356 3263 
Q 2356 3556 2198 3714 
Q 2041 3872 1763 3872 
Q 1488 3872 1325 3706 
Q 1163 3541 1138 3156 
L 263 3244 
Q 341 3969 753 4284 
Q 1166 4600 1784 4600 
Q 2463 4600 2850 4234 
Q 3238 3869 3238 3325 
Q 3238 3016 3127 2736 
Q 3016 2456 2775 2150 
Q 2616 1947 2200 1565 
Q 1784 1184 1673 1059 
Q 1563 934 1494 816 
L 3238 816 
z
" transform="scale(0.015625)"/>
     </defs>
     <use xlink:href="#Arial-BoldMT-31"/>
     <use xlink:href="#Arial-BoldMT-2c" x="55.615234"/>
     <use xlink:href="#Arial-BoldMT-36" x="83.398438"/>
     <use xlink:href="#Arial-BoldMT-36" x="139.013672"/>
     <use xlink:href="#Arial-BoldMT-38" x="194.628906"/>
     <use xlink:href="#Arial-BoldMT-2c" x="250.244141"/>
     <use xlink:href="#Arial-BoldMT-32" x="278.027344"/>
     <use xlink:href="#Arial-BoldMT-39" x="333.642578"/>
     <use xlink:href="#Arial-BoldMT-37" x="389.257812"/>
    </g>
   </g>
   <g id="text_23">
    <g id="patch_5">
     <path d="M 788.090156 89.241075 
L 869.627656 89.241075 
Q 874.627656 89.241075 874.627656 84.241075 
L 874.627656 75.095763 
Q 874.627656 70.095763 869.627656 70.095763 
L 788.090156 70.095763 
Q 783.090156 70.095763 783.090156 75.095763 
L 783.090156 84.241075 
Q 783.090156 89.241075 788.090156 89.241075 
z
" style="fill: #ff0000; opacity: 0.5; stroke: #ffffff; stroke-linejoin: miter"/>
    </g>
    <!-- Difference: 29,322 -->
    <g style="fill: #262626" transform="translate(788.090156 82.253575) scale(0.1 -0.1)">
     <defs>
      <path id="ArialMT-44" d="M 494 0 
L 494 4581 
L 2072 4581 
Q 2606 4581 2888 4516 
Q 3281 4425 3559 4188 
Q 3922 3881 4101 3404 
Q 4281 2928 4281 2316 
Q 4281 1794 4159 1391 
Q 4038 988 3847 723 
Q 3656 459 3429 307 
Q 3203 156 2883 78 
Q 2563 0 2147 0 
L 494 0 
z
M 1100 541 
L 2078 541 
Q 2531 541 2789 625 
Q 3047 709 3200 863 
Q 3416 1078 3536 1442 
Q 3656 1806 3656 2325 
Q 3656 3044 3420 3430 
Q 3184 3816 2847 3947 
Q 2603 4041 2063 4041 
L 1100 4041 
L 1100 541 
z
" transform="scale(0.015625)"/>
      <path id="ArialMT-66" d="M 556 0 
L 556 2881 
L 59 2881 
L 59 3319 
L 556 3319 
L 556 3672 
Q 556 4006 616 4169 
Q 697 4388 901 4523 
Q 1106 4659 1475 4659 
Q 1713 4659 2000 4603 
L 1916 4113 
Q 1741 4144 1584 4144 
Q 1328 4144 1222 4034 
Q 1116 3925 1116 3625 
L 1116 3319 
L 1763 3319 
L 1763 2881 
L 1116 2881 
L 1116 0 
L 556 0 
z
" transform="scale(0.015625)"/>
      <path id="ArialMT-72" d="M 416 0 
L 416 3319 
L 922 3319 
L 922 2816 
Q 1116 3169 1280 3281 
Q 1444 3394 1641 3394 
Q 1925 3394 2219 3213 
L 2025 2691 
Q 1819 2813 1613 2813 
Q 1428 2813 1281 2702 
Q 1134 2591 1072 2394 
Q 978 2094 978 1738 
L 978 0 
L 416 0 
z
" transform="scale(0.015625)"/>
      <path id="ArialMT-63" d="M 2588 1216 
L 3141 1144 
Q 3050 572 2676 248 
Q 2303 -75 1759 -75 
Q 1078 -75 664 370 
Q 250 816 250 1647 
Q 250 2184 428 2587 
Q 606 2991 970 3192 
Q 1334 3394 1763 3394 
Q 2303 3394 2647 3120 
Q 2991 2847 3088 2344 
L 2541 2259 
Q 2463 2594 2264 2762 
Q 2066 2931 1784 2931 
Q 1359 2931 1093 2626 
Q 828 2322 828 1663 
Q 828 994 1084 691 
Q 1341 388 1753 388 
Q 2084 388 2306 591 
Q 2528 794 2588 1216 
z
" transform="scale(0.015625)"/>
      <path id="ArialMT-39" d="M 350 1059 
L 891 1109 
Q 959 728 1153 556 
Q 1347 384 1650 384 
Q 1909 384 2104 503 
Q 2300 622 2425 820 
Q 2550 1019 2634 1356 
Q 2719 1694 2719 2044 
Q 2719 2081 2716 2156 
Q 2547 1888 2255 1720 
Q 1963 1553 1622 1553 
Q 1053 1553 659 1965 
Q 266 2378 266 3053 
Q 266 3750 677 4175 
Q 1088 4600 1706 4600 
Q 2153 4600 2523 4359 
Q 2894 4119 3086 3673 
Q 3278 3228 3278 2384 
Q 3278 1506 3087 986 
Q 2897 466 2520 194 
Q 2144 -78 1638 -78 
Q 1100 -78 759 220 
Q 419 519 350 1059 
z
M 2653 3081 
Q 2653 3566 2395 3850 
Q 2138 4134 1775 4134 
Q 1400 4134 1122 3828 
Q 844 3522 844 3034 
Q 844 2597 1108 2323 
Q 1372 2050 1759 2050 
Q 2150 2050 2401 2323 
Q 2653 2597 2653 3081 
z
" transform="scale(0.015625)"/>
      <path id="ArialMT-2c" d="M 569 0 
L 569 641 
L 1209 641 
L 1209 0 
Q 1209 -353 1084 -570 
Q 959 -788 688 -906 
L 531 -666 
Q 709 -588 793 -436 
Q 878 -284 888 0 
L 569 0 
z
" transform="scale(0.015625)"/>
      <path id="ArialMT-33" d="M 269 1209 
L 831 1284 
Q 928 806 1161 595 
Q 1394 384 1728 384 
Q 2125 384 2398 659 
Q 2672 934 2672 1341 
Q 2672 1728 2419 1979 
Q 2166 2231 1775 2231 
Q 1616 2231 1378 2169 
L 1441 2663 
Q 1497 2656 1531 2656 
Q 1891 2656 2178 2843 
Q 2466 3031 2466 3422 
Q 2466 3731 2256 3934 
Q 2047 4138 1716 4138 
Q 1388 4138 1169 3931 
Q 950 3725 888 3313 
L 325 3413 
Q 428 3978 793 4289 
Q 1159 4600 1703 4600 
Q 2078 4600 2393 4439 
Q 2709 4278 2876 4000 
Q 3044 3722 3044 3409 
Q 3044 3113 2884 2869 
Q 2725 2625 2413 2481 
Q 2819 2388 3044 2092 
Q 3269 1797 3269 1353 
Q 3269 753 2831 336 
Q 2394 -81 1725 -81 
Q 1122 -81 723 278 
Q 325 638 269 1209 
z
" transform="scale(0.015625)"/>
     </defs>
     <use xlink:href="#ArialMT-44"/>
     <use xlink:href="#ArialMT-69" x="72.216797"/>
     <use xlink:href="#ArialMT-66" x="94.433594"/>
     <use xlink:href="#ArialMT-66" x="120.466797"/>
     <use xlink:href="#ArialMT-65" x="148.25"/>
     <use xlink:href="#ArialMT-72" x="203.865234"/>
     <use xlink:href="#ArialMT-65" x="237.166016"/>
     <use xlink:href="#ArialMT-6e" x="292.78125"/>
     <use xlink:href="#ArialMT-63" x="348.396484"/>
     <use xlink:href="#ArialMT-65" x="398.396484"/>
     <use xlink:href="#ArialMT-3a" x="454.011719"/>
     <use xlink:href="#ArialMT-20" x="481.794922"/>
     <use xlink:href="#ArialMT-32" x="509.578125"/>
     <use xlink:href="#ArialMT-39" x="565.193359"/>
     <use xlink:href="#ArialMT-2c" x="620.808594"/>
     <use xlink:href="#ArialMT-33" x="648.591797"/>
     <use xlink:href="#ArialMT-32" x="704.207031"/>
     <use xlink:href="#ArialMT-32" x="759.822266"/>
    </g>
   </g>
   <g id="text_24">
    <!-- Vote Counts Over Time - Wisconsin -->
    <g style="fill: #262626" transform="translate(315.567425 46.020937) scale(0.14 -0.14)">
     <defs>
      <path id="Arial-BoldMT-56" d="M 1634 0 
L -3 4581 
L 1000 4581 
L 2159 1191 
L 3281 4581 
L 4263 4581 
L 2622 0 
L 1634 0 
z
" transform="scale(0.015625)"/>
      <path id="Arial-BoldMT-6f" d="M 256 1706 
Q 256 2144 472 2553 
Q 688 2963 1083 3178 
Q 1478 3394 1966 3394 
Q 2719 3394 3200 2905 
Q 3681 2416 3681 1669 
Q 3681 916 3195 420 
Q 2709 -75 1972 -75 
Q 1516 -75 1102 131 
Q 688 338 472 736 
Q 256 1134 256 1706 
z
M 1156 1659 
Q 1156 1166 1390 903 
Q 1625 641 1969 641 
Q 2313 641 2545 903 
Q 2778 1166 2778 1666 
Q 2778 2153 2545 2415 
Q 2313 2678 1969 2678 
Q 1625 2678 1390 2415 
Q 1156 2153 1156 1659 
z
" transform="scale(0.015625)"/>
      <path id="Arial-BoldMT-74" d="M 1981 3319 
L 1981 2619 
L 1381 2619 
L 1381 1281 
Q 1381 875 1398 808 
Q 1416 741 1477 697 
Q 1538 653 1625 653 
Q 1747 653 1978 738 
L 2053 56 
Q 1747 -75 1359 -75 
Q 1122 -75 931 4 
Q 741 84 652 211 
Q 563 338 528 553 
Q 500 706 500 1172 
L 500 2619 
L 97 2619 
L 97 3319 
L 500 3319 
L 500 3978 
L 1381 4491 
L 1381 3319 
L 1981 3319 
z
" transform="scale(0.015625)"/>
      <path id="Arial-BoldMT-65" d="M 2381 1056 
L 3256 909 
Q 3088 428 2723 176 
Q 2359 -75 1813 -75 
Q 947 -75 531 491 
Q 203 944 203 1634 
Q 203 2459 634 2926 
Q 1066 3394 1725 3394 
Q 2466 3394 2894 2905 
Q 3322 2416 3303 1406 
L 1103 1406 
Q 1113 1016 1316 798 
Q 1519 581 1822 581 
Q 2028 581 2168 693 
Q 2309 806 2381 1056 
z
M 2431 1944 
Q 2422 2325 2234 2523 
Q 2047 2722 1778 2722 
Q 1491 2722 1303 2513 
Q 1116 2303 1119 1944 
L 2431 1944 
z
" transform="scale(0.015625)"/>
      <path id="Arial-BoldMT-20" transform="scale(0.015625)"/>
      <path id="Arial-BoldMT-43" d="M 3397 1684 
L 4294 1400 
Q 4088 650 3608 286 
Q 3128 -78 2391 -78 
Q 1478 -78 890 545 
Q 303 1169 303 2250 
Q 303 3394 893 4026 
Q 1484 4659 2447 4659 
Q 3288 4659 3813 4163 
Q 4125 3869 4281 3319 
L 3366 3100 
Q 3284 3456 3026 3662 
Q 2769 3869 2400 3869 
Q 1891 3869 1573 3503 
Q 1256 3138 1256 2319 
Q 1256 1450 1568 1081 
Q 1881 713 2381 713 
Q 2750 713 3015 947 
Q 3281 1181 3397 1684 
z
" transform="scale(0.015625)"/>
      <path id="Arial-BoldMT-75" d="M 2644 0 
L 2644 497 
Q 2463 231 2167 78 
Q 1872 -75 1544 -75 
Q 1209 -75 943 72 
Q 678 219 559 484 
Q 441 750 441 1219 
L 441 3319 
L 1319 3319 
L 1319 1794 
Q 1319 1094 1367 936 
Q 1416 778 1544 686 
Q 1672 594 1869 594 
Q 2094 594 2272 717 
Q 2450 841 2515 1023 
Q 2581 1206 2581 1919 
L 2581 3319 
L 3459 3319 
L 3459 0 
L 2644 0 
z
" transform="scale(0.015625)"/>
      <path id="Arial-BoldMT-6e" d="M 3478 0 
L 2600 0 
L 2600 1694 
Q 2600 2231 2544 2389 
Q 2488 2547 2361 2634 
Q 2234 2722 2056 2722 
Q 1828 2722 1647 2597 
Q 1466 2472 1398 2265 
Q 1331 2059 1331 1503 
L 1331 0 
L 453 0 
L 453 3319 
L 1269 3319 
L 1269 2831 
Q 1703 3394 2363 3394 
Q 2653 3394 2893 3289 
Q 3134 3184 3257 3021 
Q 3381 2859 3429 2653 
Q 3478 2447 3478 2063 
L 3478 0 
z
" transform="scale(0.015625)"/>
      <path id="Arial-BoldMT-73" d="M 150 947 
L 1031 1081 
Q 1088 825 1259 692 
Q 1431 559 1741 559 
Q 2081 559 2253 684 
Q 2369 772 2369 919 
Q 2369 1019 2306 1084 
Q 2241 1147 2013 1200 
Q 950 1434 666 1628 
Q 272 1897 272 2375 
Q 272 2806 612 3100 
Q 953 3394 1669 3394 
Q 2350 3394 2681 3172 
Q 3013 2950 3138 2516 
L 2309 2363 
Q 2256 2556 2107 2659 
Q 1959 2763 1684 2763 
Q 1338 2763 1188 2666 
Q 1088 2597 1088 2488 
Q 1088 2394 1175 2328 
Q 1294 2241 1995 2081 
Q 2697 1922 2975 1691 
Q 3250 1456 3250 1038 
Q 3250 581 2869 253 
Q 2488 -75 1741 -75 
Q 1063 -75 667 200 
Q 272 475 150 947 
z
" transform="scale(0.015625)"/>
      <path id="Arial-BoldMT-4f" d="M 278 2263 
Q 278 2963 488 3438 
Q 644 3788 914 4066 
Q 1184 4344 1506 4478 
Q 1934 4659 2494 4659 
Q 3506 4659 4114 4031 
Q 4722 3403 4722 2284 
Q 4722 1175 4119 548 
Q 3516 -78 2506 -78 
Q 1484 -78 881 545 
Q 278 1169 278 2263 
z
M 1231 2294 
Q 1231 1516 1590 1114 
Q 1950 713 2503 713 
Q 3056 713 3411 1111 
Q 3766 1509 3766 2306 
Q 3766 3094 3420 3481 
Q 3075 3869 2503 3869 
Q 1931 3869 1581 3476 
Q 1231 3084 1231 2294 
z
" transform="scale(0.015625)"/>
      <path id="Arial-BoldMT-76" d="M 1372 0 
L 34 3319 
L 956 3319 
L 1581 1625 
L 1763 1059 
Q 1834 1275 1853 1344 
Q 1897 1484 1947 1625 
L 2578 3319 
L 3481 3319 
L 2163 0 
L 1372 0 
z
" transform="scale(0.015625)"/>
      <path id="Arial-BoldMT-72" d="M 1300 0 
L 422 0 
L 422 3319 
L 1238 3319 
L 1238 2847 
Q 1447 3181 1614 3287 
Q 1781 3394 1994 3394 
Q 2294 3394 2572 3228 
L 2300 2463 
Q 2078 2606 1888 2606 
Q 1703 2606 1575 2504 
Q 1447 2403 1373 2137 
Q 1300 1872 1300 1025 
L 1300 0 
z
" transform="scale(0.015625)"/>
      <path id="Arial-BoldMT-54" d="M 1497 0 
L 1497 3806 
L 138 3806 
L 138 4581 
L 3778 4581 
L 3778 3806 
L 2422 3806 
L 2422 0 
L 1497 0 
z
" transform="scale(0.015625)"/>
      <path id="Arial-BoldMT-69" d="M 459 3769 
L 459 4581 
L 1338 4581 
L 1338 3769 
L 459 3769 
z
M 459 0 
L 459 3319 
L 1338 3319 
L 1338 0 
L 459 0 
z
" transform="scale(0.015625)"/>
      <path id="Arial-BoldMT-6d" d="M 394 3319 
L 1203 3319 
L 1203 2866 
Q 1638 3394 2238 3394 
Q 2556 3394 2790 3262 
Q 3025 3131 3175 2866 
Q 3394 3131 3647 3262 
Q 3900 3394 4188 3394 
Q 4553 3394 4806 3245 
Q 5059 3097 5184 2809 
Q 5275 2597 5275 2122 
L 5275 0 
L 4397 0 
L 4397 1897 
Q 4397 2391 4306 2534 
Q 4184 2722 3931 2722 
Q 3747 2722 3584 2609 
Q 3422 2497 3350 2280 
Q 3278 2063 3278 1594 
L 3278 0 
L 2400 0 
L 2400 1819 
Q 2400 2303 2353 2443 
Q 2306 2584 2207 2653 
Q 2109 2722 1941 2722 
Q 1738 2722 1575 2612 
Q 1413 2503 1342 2297 
Q 1272 2091 1272 1613 
L 1272 0 
L 394 0 
L 394 3319 
z
" transform="scale(0.015625)"/>
      <path id="Arial-BoldMT-2d" d="M 359 1222 
L 359 2100 
L 2084 2100 
L 2084 1222 
L 359 1222 
z
" transform="scale(0.015625)"/>
      <path id="Arial-BoldMT-57" d="M 1116 0 
L 22 4581 
L 969 4581 
L 1659 1434 
L 2497 4581 
L 3597 4581 
L 4400 1381 
L 5103 4581 
L 6034 4581 
L 4922 0 
L 3941 0 
L 3028 3425 
L 2119 0 
L 1116 0 
z
" transform="scale(0.015625)"/>
      <path id="Arial-BoldMT-63" d="M 3353 2338 
L 2488 2181 
Q 2444 2441 2289 2572 
Q 2134 2703 1888 2703 
Q 1559 2703 1364 2476 
Q 1169 2250 1169 1719 
Q 1169 1128 1367 884 
Q 1566 641 1900 641 
Q 2150 641 2309 783 
Q 2469 925 2534 1272 
L 3397 1125 
Q 3263 531 2881 228 
Q 2500 -75 1859 -75 
Q 1131 -75 698 384 
Q 266 844 266 1656 
Q 266 2478 700 2936 
Q 1134 3394 1875 3394 
Q 2481 3394 2839 3133 
Q 3197 2872 3353 2338 
z
" transform="scale(0.015625)"/>
     </defs>
     <use xlink:href="#Arial-BoldMT-56"/>
     <use xlink:href="#Arial-BoldMT-6f" x="59.324219"/>
     <use xlink:href="#Arial-BoldMT-74" x="120.408203"/>
     <use xlink:href="#Arial-BoldMT-65" x="153.708984"/>
     <use xlink:href="#Arial-BoldMT-20" x="209.324219"/>
     <use xlink:href="#Arial-BoldMT-43" x="237.107422"/>
     <use xlink:href="#Arial-BoldMT-6f" x="309.324219"/>
     <use xlink:href="#Arial-BoldMT-75" x="370.408203"/>
     <use xlink:href="#Arial-BoldMT-6e" x="431.492188"/>
     <use xlink:href="#Arial-BoldMT-74" x="492.576172"/>
     <use xlink:href="#Arial-BoldMT-73" x="525.876953"/>
     <use xlink:href="#Arial-BoldMT-20" x="581.492188"/>
     <use xlink:href="#Arial-BoldMT-4f" x="609.275391"/>
     <use xlink:href="#Arial-BoldMT-76" x="687.058594"/>
     <use xlink:href="#Arial-BoldMT-65" x="742.673828"/>
     <use xlink:href="#Arial-BoldMT-72" x="798.289062"/>
     <use xlink:href="#Arial-BoldMT-20" x="837.205078"/>
     <use xlink:href="#Arial-BoldMT-54" x="864.988281"/>
     <use xlink:href="#Arial-BoldMT-69" x="924.322266"/>
     <use xlink:href="#Arial-BoldMT-6d" x="952.105469"/>
     <use xlink:href="#Arial-BoldMT-65" x="1041.021484"/>
     <use xlink:href="#Arial-BoldMT-20" x="1096.636719"/>
     <use xlink:href="#Arial-BoldMT-2d" x="1124.419922"/>
     <use xlink:href="#Arial-BoldMT-20" x="1157.720703"/>
     <use xlink:href="#Arial-BoldMT-57" x="1185.503906"/>
     <use xlink:href="#Arial-BoldMT-69" x="1279.013672"/>
     <use xlink:href="#Arial-BoldMT-73" x="1306.796875"/>
     <use xlink:href="#Arial-BoldMT-63" x="1362.412109"/>
     <use xlink:href="#Arial-BoldMT-6f" x="1418.027344"/>
     <use xlink:href="#Arial-BoldMT-6e" x="1479.111328"/>
     <use xlink:href="#Arial-BoldMT-73" x="1540.195312"/>
     <use xlink:href="#Arial-BoldMT-69" x="1595.810547"/>
     <use xlink:href="#Arial-BoldMT-6e" x="1623.59375"/>
    </g>
   </g>
   <g id="legend_1">
    <g id="patch_6">
     <path d="M 118.122202 88.311562 
L 213.469077 88.311562 
Q 215.469077 88.311562 215.469077 86.311562 
L 215.469077 59.020937 
Q 215.469077 57.020937 213.469077 57.020937 
L 118.122202 57.020937 
Q 116.122202 57.020937 116.122202 59.020937 
L 116.122202 86.311562 
Q 116.122202 88.311562 118.122202 88.311562 
z
" style="fill: #ffffff; opacity: 0.8; stroke: #cccccc; stroke-linejoin: miter"/>
    </g>
    <g id="line2d_20">
     <path d="M 120.122202 64.67875 
L 130.122202 64.67875 
L 140.122202 64.67875 
" style="fill: none; stroke: #ff0000; stroke-width: 1.5; stroke-linecap: round"/>
    </g>
    <g id="text_25">
     <!-- Donald Trump -->
     <g style="fill: #262626" transform="translate(148.122202 68.17875) scale(0.1 -0.1)">
      <defs>
       <path id="ArialMT-6c" d="M 409 0 
L 409 4581 
L 972 4581 
L 972 0 
L 409 0 
z
" transform="scale(0.015625)"/>
       <path id="ArialMT-64" d="M 2575 0 
L 2575 419 
Q 2259 -75 1647 -75 
Q 1250 -75 917 144 
Q 584 363 401 755 
Q 219 1147 219 1656 
Q 219 2153 384 2558 
Q 550 2963 881 3178 
Q 1213 3394 1622 3394 
Q 1922 3394 2156 3267 
Q 2391 3141 2538 2938 
L 2538 4581 
L 3097 4581 
L 3097 0 
L 2575 0 
z
M 797 1656 
Q 797 1019 1065 703 
Q 1334 388 1700 388 
Q 2069 388 2326 689 
Q 2584 991 2584 1609 
Q 2584 2291 2321 2609 
Q 2059 2928 1675 2928 
Q 1300 2928 1048 2622 
Q 797 2316 797 1656 
z
" transform="scale(0.015625)"/>
      </defs>
      <use xlink:href="#ArialMT-44"/>
      <use xlink:href="#ArialMT-6f" x="72.216797"/>
      <use xlink:href="#ArialMT-6e" x="127.832031"/>
      <use xlink:href="#ArialMT-61" x="183.447266"/>
      <use xlink:href="#ArialMT-6c" x="239.0625"/>
      <use xlink:href="#ArialMT-64" x="261.279297"/>
      <use xlink:href="#ArialMT-20" x="316.894531"/>
      <use xlink:href="#ArialMT-54" x="342.927734"/>
      <use xlink:href="#ArialMT-72" x="400.261719"/>
      <use xlink:href="#ArialMT-75" x="433.5625"/>
      <use xlink:href="#ArialMT-6d" x="489.177734"/>
      <use xlink:href="#ArialMT-70" x="572.478516"/>
     </g>
    </g>
    <g id="line2d_21">
     <path d="M 120.122202 78.824062 
L 130.122202 78.824062 
L 140.122202 78.824062 
" style="fill: none; stroke: #0000ff; stroke-width: 1.5; stroke-linecap: round"/>
    </g>
    <g id="text_26">
     <!-- Kamala Harris -->
     <g style="fill: #262626" transform="translate(148.122202 82.324062) scale(0.1 -0.1)">
      <defs>
       <path id="ArialMT-4b" d="M 469 0 
L 469 4581 
L 1075 4581 
L 1075 2309 
L 3350 4581 
L 4172 4581 
L 2250 2725 
L 4256 0 
L 3456 0 
L 1825 2319 
L 1075 1588 
L 1075 0 
L 469 0 
z
" transform="scale(0.015625)"/>
       <path id="ArialMT-48" d="M 513 0 
L 513 4581 
L 1119 4581 
L 1119 2700 
L 3500 2700 
L 3500 4581 
L 4106 4581 
L 4106 0 
L 3500 0 
L 3500 2159 
L 1119 2159 
L 1119 0 
L 513 0 
z
" transform="scale(0.015625)"/>
      </defs>
      <use xlink:href="#ArialMT-4b"/>
      <use xlink:href="#ArialMT-61" x="66.699219"/>
      <use xlink:href="#ArialMT-6d" x="122.314453"/>
      <use xlink:href="#ArialMT-61" x="205.615234"/>
      <use xlink:href="#ArialMT-6c" x="261.230469"/>
      <use xlink:href="#ArialMT-61" x="283.447266"/>
      <use xlink:href="#ArialMT-20" x="339.0625"/>
      <use xlink:href="#ArialMT-48" x="366.845703"/>
      <use xlink:href="#ArialMT-61" x="439.0625"/>
      <use xlink:href="#ArialMT-72" x="494.677734"/>
      <use xlink:href="#ArialMT-72" x="527.978516"/>
      <use xlink:href="#ArialMT-69" x="561.279297"/>
      <use xlink:href="#ArialMT-73" x="583.496094"/>
     </g>
    </g>
   </g>
  </g>
 </g>
 <defs>
  <clipPath id="pdef7d68dd0">
   <rect x="111.122202" y="52.020937" width="644.731385" height="461.496502"/>
  </clipPath>
 </defs>
</svg>
